<?xml version="1.0" encoding="UTF-8"?>
<svg width="167px" height="60px" viewBox="0 0 167 60" version="1.1" xmlns="http://www.w3.org/2000/svg" xmlns:xlink="http://www.w3.org/1999/xlink">
    <!-- Generator: Sketch 42 (36781) - http://www.bohemiancoding.com/sketch -->
    <title>desktop</title>
    <desc>Created with Sketch.</desc>
    <defs></defs>
    <g id="Page-1" stroke="none" stroke-width="1" fill="none" fill-rule="evenodd">
        <g id="desktop" fill-rule="nonzero" fill="#026CB6">
            <g id="ocha-logo" transform="translate(0.000000, 10.000000)">
                <path d="M54.3793189,21.009009 C54.3793189,13.049049 60.2217251,6.77077077 68.5359185,6.77077077 C76.7377579,6.77077077 82.692518,12.9369369 82.692518,21.009009 C82.5801641,28.968969 76.7377579,35.1351351 68.5359185,35.1351351 C60.2217251,35.1351351 54.3793189,28.968969 54.3793189,21.009009 M78.7601293,21.009009 C78.7601293,15.0670671 74.7153865,10.2462462 68.5359185,10.2462462 C62.3564504,10.2462462 58.3117077,15.0670671 58.3117077,21.009009 C58.3117077,26.950951 62.3564504,31.7717718 68.5359185,31.7717718 C74.7153865,31.7717718 78.7601293,26.8388388 78.7601293,21.009009" id="Shape"></path>
                <path d="M106.736266,13.2732733 C105.163311,11.2552553 102.691524,10.1341341 100.219737,10.1341341 C94.1526224,10.1341341 90.1078797,14.954955 90.1078797,21.1211211 C90.1078797,26.8388388 93.9279145,31.6596597 100.219737,31.6596597 C103.365648,31.6596597 105.725081,30.3143143 107.298036,28.0720721 L110.443947,30.4264264 C109.65747,31.5475475 106.399205,35.1351351 100.219737,35.1351351 C91.5684812,35.1351351 86.2878449,27.95996 86.2878449,21.1211211 C86.2878449,12.7127127 92.0178971,6.65865866 100.444444,6.65865866 C104.039771,6.65865866 107.747452,8.004004 109.882177,10.8068068 L106.736266,13.2732733 Z" id="Shape"></path>
                <polygon id="Shape" points="114.825752 7.44344344 118.533433 7.44344344 118.533433 18.6546547 132.465324 18.6546547 132.465324 7.44344344 136.173005 7.44344344 136.173005 34.4624625 132.465324 34.4624625 132.465324 22.1301301 118.533433 22.1301301 118.533433 34.4624625 114.825752 34.4624625"></polygon>
                <path d="M151.677852,7.44344344 L155.048471,7.44344344 L166.62093,34.4624625 L162.351479,34.4624625 L159.654984,27.7357357 L146.734278,27.7357357 L144.037783,34.4624625 L139.768332,34.4624625 L151.677852,7.44344344 Z M158.194382,24.5965966 L153.138454,12.1521522 L153.0261,12.1521522 L147.857818,24.5965966 L158.194382,24.5965966 Z" id="Shape"></path>
                <path d="M19.7742978,16.7487487 C19.7742978,14.7307307 21.4596073,13.049049 23.4819786,13.049049 C25.50435,13.049049 27.1896595,14.7307307 27.1896595,16.7487487 C27.1896595,18.7667668 25.50435,20.4484484 23.4819786,20.4484484 L23.4819786,20.2242242 L23.4819786,20 C25.2796421,20 26.7402436,18.5425425 26.7402436,16.7487487 C26.7402436,14.954955 25.2796421,13.4974975 23.4819786,13.4974975 C21.6843152,13.4974975 20.2237136,14.954955 20.2237136,16.7487487 C20.2237136,18.5425425 21.6843152,20 23.4819786,20 L23.4819786,20.2242242 L23.4819786,20.4484484 C21.4596073,20.4484484 19.7742978,18.7667668 19.7742978,16.7487487" id="Shape"></path>
                <path d="M16.8530947,16.7487487 C16.8530947,13.049049 19.8866518,10.022022 23.5943326,10.022022 C27.3020134,10.022022 30.3355705,13.049049 30.3355705,16.7487487 C30.3355705,20.4484484 27.3020134,23.4754755 23.5943326,23.4754755 L23.5943326,23.2512513 L23.5943326,23.027027 C27.0773055,23.027027 29.8861546,20.2242242 29.8861546,16.7487487 C29.8861546,13.2732733 27.0773055,10.4704705 23.5943326,10.4704705 C20.1113597,10.4704705 17.3025106,13.2732733 17.3025106,16.7487487 C17.3025106,20.2242242 20.1113597,23.027027 23.5943326,23.027027 L23.5943326,23.2512513 L23.5943326,23.4754755 C19.8866518,23.4754755 16.8530947,20.4484484 16.8530947,16.7487487" id="Shape"></path>
                <path d="M13.5948297,16.7487487 C13.5948297,11.2552553 18.0889883,6.77077077 23.5943326,6.77077077 C29.0996769,6.77077077 33.5938354,11.2552553 33.5938354,16.7487487 C33.5938354,22.2422422 29.0996769,26.7267267 23.5943326,26.7267267 L23.5943326,26.5025025 L23.5943326,26.1661662 C28.8749689,26.1661662 33.0320656,21.9059059 33.1444196,16.7487487 C33.1444196,11.4794795 28.8749689,7.33133133 23.5943326,7.21921922 C18.3136962,7.21921922 14.1565996,11.4794795 14.0442456,16.7487487 C14.0442456,22.018018 18.3136962,26.1661662 23.5943326,26.1661662 L23.5943326,26.3903904 L23.5943326,26.6146146 C18.0889883,26.7267267 13.5948297,22.2422422 13.5948297,16.7487487" id="Shape"></path>
                <path d="M10.4489187,16.7487487 C10.4489187,9.57357357 16.2913249,3.74374374 23.5943326,3.74374374 C30.7849863,3.74374374 36.6273925,9.57357357 36.6273925,16.7487487 C36.6273925,23.9239239 30.7849863,29.7537538 23.5943326,29.7537538 L23.5943326,29.5295295 L23.5943326,29.3053053 C30.5602784,29.3053053 36.1779766,23.6996997 36.1779766,16.7487487 C36.1779766,9.7977978 30.5602784,4.19219219 23.5943326,4.19219219 C16.6283868,4.19219219 11.0106885,9.7977978 11.0106885,16.7487487 C11.0106885,23.6996997 16.6283868,29.3053053 23.5943326,29.3053053 L23.5943326,29.5295295 L23.5943326,29.7537538 C16.2913249,29.7537538 10.4489187,23.9239239 10.4489187,16.7487487" id="Shape"></path>
                <path d="M7.07829978,16.7487487 C7.07829978,7.66766767 14.4936614,0.268268268 23.5943326,0.268268268 C32.6950037,0.268268268 40.1103654,7.66766767 40.1103654,16.7487487 C40.1103654,25.8298298 32.6950037,33.2292292 23.5943326,33.2292292 L23.5943326,33.005005 L23.5943326,32.7807808 C32.4702958,32.7807808 39.6609495,25.6056056 39.6609495,16.7487487 C39.6609495,7.89189189 32.4702958,0.716716717 23.5943326,0.716716717 C14.7183694,0.716716717 7.52771564,7.89189189 7.52771564,16.7487487 C7.52771564,25.6056056 14.7183694,32.7807808 23.5943326,32.7807808 L23.5943326,33.005005 L23.5943326,33.2292292 C14.3813075,33.2292292 7.07829978,25.8298298 7.07829978,16.7487487" id="Shape"></path>
                <rect id="Rectangle-path" x="23.2572707" y="0.492492492" width="0.449415859" height="12.7807808"></rect>
                <polygon id="Shape" points="11.9095203 5.42542543 12.2465822 5.08908909 21.2348993 14.0580581 20.8978374 14.3943944"></polygon>
                <rect id="Rectangle-path" x="7.30300771" y="16.5245245" width="12.808352" height="0.448448448"></rect>
                <polygon id="Shape" points="11.9095203 28.0720721 20.8978374 19.1031031 21.2348993 19.4394394 12.2465822 28.4084084"></polygon>
                <rect id="Rectangle-path" x="23.2572707" y="20.2242242" width="0.449415859" height="12.7807808"></rect>
                <rect id="Rectangle-path" transform="translate(30.599388, 23.553832) rotate(-44.829839) translate(-30.599388, -23.553832) " x="30.2289978" y="17.2223026" width="0.449413531" height="12.6686031"></rect>
                <rect id="Rectangle-path" x="27.0773055" y="16.5245245" width="12.808352" height="0.448448448"></rect>
                <polygon id="Shape" points="25.8414119 14.0580581 34.942083 5.08908909 35.166791 5.42542543 26.1784738 14.3943944"></polygon>
                <path d="M21.0101914,17.7577578 C21.1225454,17.7577578 21.1225454,17.8698699 21.1225454,17.981982 L21.2348993,17.981982 C21.4596073,17.7577578 21.5719612,17.4214214 21.6843152,17.1971972 C21.6843152,17.1971972 21.7966692,17.1971972 21.7966692,17.0850851 C21.7966692,16.972973 21.5719612,16.8608609 21.5719612,16.7487487 C21.4596073,16.972973 21.2348993,16.7487487 21.1225454,16.8608609 L21.1225454,16.972973 L21.2348993,16.972973 L21.2348993,17.1971972 L21.2348993,17.1971972 C21.1225454,17.0850851 21.0101914,17.0850851 20.8978374,17.0850851 C21.0101914,17.0850851 20.8978374,17.0850851 20.8978374,17.1971972 C20.6731295,17.1971972 20.4484216,17.1971972 20.3360676,17.3093093 C20.2237136,17.3093093 20.2237136,17.3093093 20.1113597,17.1971972 C19.9990057,17.3093093 19.9990057,17.4214214 19.8866518,17.4214214 L19.7742978,17.3093093 C19.8866518,17.1971972 19.9990057,17.1971972 19.9990057,17.0850851 L19.9990057,16.7487487 C20.1113597,16.6366366 20.1113597,16.5245245 20.2237136,16.5245245 C20.3360676,16.5245245 20.5607755,16.6366366 20.6731295,16.5245245 L20.7854835,16.6366366 C20.7854835,16.6366366 20.7854835,16.6366366 20.7854835,16.7487487 C20.6731295,16.8608609 20.5607755,16.8608609 20.5607755,16.972973 C20.5607755,17.0850851 20.5607755,17.0850851 20.6731295,17.0850851 C20.7854835,17.0850851 20.7854835,16.972973 20.8978374,16.972973 C20.8978374,16.8608609 21.0101914,16.972973 21.0101914,16.972973 L21.0101914,16.972973 L21.3472533,16.972973 C21.4596073,16.972973 21.4596073,16.6366366 21.3472533,16.5245245 L21.3472533,16.4124124 C21.3472533,16.4124124 21.3472533,16.4124124 21.3472533,16.3003003 C21.3472533,16.1881882 21.5719612,16.1881882 21.5719612,16.3003003 L21.5719612,16.4124124 C21.5719612,16.4124124 21.5719612,16.5245245 21.6843152,16.4124124 L21.6843152,16.4124124 L21.6843152,16.1881882 C21.6843152,16.1881882 21.7966692,16.3003003 21.9090231,16.3003003 L22.133731,16.3003003 C22.246085,16.3003003 22.246085,16.1881882 22.133731,16.0760761 L22.0213771,16.0760761 C21.9090231,16.1881882 21.7966692,16.1881882 21.7966692,16.1881882 C21.6843152,16.1881882 21.6843152,16.0760761 21.5719612,16.0760761 C21.4596073,16.0760761 21.3472533,16.1881882 21.3472533,16.0760761 C21.2348993,16.0760761 21.2348993,15.963964 21.2348993,15.8518519 L21.3472533,15.7397397 C21.4596073,15.7397397 21.5719612,15.7397397 21.6843152,15.6276276 C21.6843152,15.5155155 21.7966692,15.4034034 21.7966692,15.4034034 L21.9090231,15.4034034 C22.0213771,15.4034034 22.133731,15.4034034 22.246085,15.2912913 C22.358439,15.2912913 22.4707929,15.1791792 22.5831469,15.0670671 C22.6955009,15.0670671 22.6955009,14.954955 22.8078548,14.954955 C22.8078548,14.954955 22.8078548,14.8428428 22.9202088,14.8428428 L22.9202088,14.2822823 C22.9202088,14.1701702 23.0325628,14.1701702 23.0325628,14.1701702 L22.9202088,14.1701702 C22.9202088,14.1701702 22.8078548,14.0580581 22.9202088,14.0580581 C22.9202088,14.0580581 23.1449167,14.0580581 23.1449167,13.9459459 C23.2572707,13.8338338 23.1449167,13.6096096 23.0325628,13.6096096 C22.9202088,13.4974975 22.8078548,13.6096096 22.6955009,13.6096096 C22.6955009,13.6096096 22.6955009,13.7217217 22.5831469,13.7217217 C22.4707929,13.7217217 22.358439,13.6096096 22.4707929,13.4974975 L22.4707929,13.4974975 C22.4707929,13.4974975 22.4707929,13.4974975 22.4707929,13.3853854 L22.358439,13.3853854 L22.0213771,13.7217217 C22.0213771,13.7217217 22.0213771,13.7217217 22.0213771,13.8338338 L22.0213771,13.8338338 C22.0213771,13.9459459 22.0213771,14.0580581 21.9090231,14.0580581 L21.9090231,14.0580581 L21.7966692,14.0580581 C21.7966692,14.1701702 22.0213771,14.1701702 21.9090231,14.2822823 C21.7966692,14.3943944 21.6843152,14.3943944 21.4596073,14.5065065 C21.1225454,14.6186186 20.7854835,14.5065065 20.4484216,14.5065065 L19.8866518,14.5065065 C19.7742978,14.5065065 19.7742978,14.6186186 19.6619438,14.7307307 L19.6619438,14.7307307 L19.6619438,14.5065065 C19.6619438,14.3943944 19.5495899,14.5065065 19.5495899,14.3943944 C19.3248819,13.9459459 18.7631121,14.0580581 18.3136962,14.0580581 C18.2013423,14.0580581 18.2013423,14.1701702 18.2013423,14.1701702 C18.0889883,14.2822823 17.9766344,14.1701702 17.8642804,14.1701702 L17.7519264,14.2822823 C17.6395725,14.2822823 17.5272185,14.1701702 17.4148645,14.2822823 C17.3025106,14.3943944 17.3025106,14.3943944 17.1901566,14.3943944 L17.1901566,14.5065065 L17.0778026,14.5065065 C16.9654487,14.5065065 16.7407407,14.5065065 16.7407407,14.6186186 L16.7407407,14.6186186 C16.7407407,14.7307307 16.7407407,14.954955 16.6283868,14.954955 C16.5160328,14.954955 16.2913249,14.954955 16.1789709,15.0670671 C16.066617,15.0670671 16.066617,15.1791792 15.954263,15.1791792 C15.7295551,15.6276276 15.5048471,15.963964 15.5048471,16.5245245 L15.5048471,16.5245245 L15.5048471,16.6366366 C15.2801392,17.0850851 15.1677852,17.3093093 14.8307233,17.8698699 C14.7183694,18.0940941 14.6060154,18.5425425 14.8307233,18.6546547 C14.9430773,18.7667668 14.8307233,18.8788789 14.6060154,18.8788789 C14.3813075,18.8788789 14.1565996,18.8788789 14.1565996,18.6546547 C14.1565996,18.5425425 13.9318916,18.5425425 13.8195377,18.5425425 L13.8195377,18.5425425 L13.7071837,18.5425425 L13.3701218,18.5425425 C13.1454139,18.5425425 13.1454139,18.8788789 13.0330599,18.990991 C12.9207059,19.1031031 12.695998,19.1031031 12.695998,19.2152152 L12.695998,19.4394394 C12.695998,19.4394394 12.583644,19.4394394 12.583644,19.5515516 L12.583644,19.6636637 C12.583644,19.8878879 12.4712901,20 12.583644,20.2242242 L12.583644,20.3363363 C12.583644,20.5605606 12.583644,20.6726727 12.4712901,20.8968969 C12.3589361,21.1211211 12.1342282,21.1211211 11.9095203,21.1211211 L11.5724584,21.1211211 L10.8983346,21.1211211 L10.7859806,21.1211211 C10.6736266,21.1211211 10.6736266,21.009009 10.5612727,21.009009 C10.4489187,20.8968969 10.4489187,20.7847848 10.4489187,20.7847848 C10.3365648,20.6726727 10.1118568,20.7847848 9.99950286,20.8968969 C10.1118568,20.8968969 9.99950286,21.009009 9.99950286,21.009009 C9.88714889,21.009009 9.77479493,21.1211211 9.66244096,21.2332332 C9.550087,21.3453453 9.43773304,21.009009 9.43773304,20.8968969 C9.43773304,20.7847848 9.32537907,20.7847848 9.21302511,20.7847848 C9.21302511,20.7847848 9.21302511,20.7847848 9.21302511,20.8968969 L9.10067114,20.8968969 C8.98831718,21.009009 9.21302511,21.009009 9.21302511,21.009009 L9.21302511,21.1211211 L9.10067114,21.1211211 C9.10067114,21.2332332 8.98831718,21.2332332 8.98831718,21.2332332 L8.98831718,21.2332332 L8.98831718,21.2332332 C8.87596321,21.2332332 8.87596321,21.3453453 8.87596321,21.2332332 L8.87596321,21.009009 L8.76360925,21.009009 C8.76360925,21.1211211 8.76360925,21.1211211 8.65125528,21.1211211 L8.65125528,21.2332332 L8.87596321,21.2332332 C8.98831718,21.3453453 8.98831718,21.4574575 8.98831718,21.5695696 L8.98831718,21.5695696 C8.98831718,21.6816817 8.98831718,21.7937938 8.87596321,21.6816817 C8.76360925,21.5695696 8.87596321,21.4574575 8.87596321,21.3453453 L8.76360925,21.3453453 C8.87596321,21.5695696 8.65125528,21.6816817 8.87596321,21.9059059 C8.98831718,22.018018 8.65125528,22.1301301 8.76360925,22.1301301 C8.76360925,22.1301301 8.87596321,22.2422422 8.98831718,22.2422422 L8.98831718,22.1301301 C8.98831718,22.1301301 9.10067114,22.018018 9.10067114,22.1301301 L9.10067114,22.2422422 L8.98831718,22.2422422 L8.98831718,22.5785786 L8.98831718,22.6906907 C8.98831718,22.8028028 9.21302511,22.6906907 9.21302511,22.8028028 C9.21302511,22.9149149 9.10067114,22.9149149 9.21302511,23.027027 C9.21302511,23.027027 9.32537907,23.027027 9.32537907,23.1391391 L9.32537907,23.2512513 C9.32537907,23.2512513 9.43773304,23.2512513 9.43773304,23.3633634 C9.550087,23.3633634 9.550087,23.3633634 9.550087,23.2512513 C9.66244096,23.2512513 9.66244096,23.1391391 9.66244096,23.027027 C9.66244096,23.027027 9.66244096,22.9149149 9.550087,23.027027 L9.550087,22.8028028 C9.550087,22.6906907 9.43773304,22.6906907 9.43773304,22.5785786 C9.550087,22.5785786 9.550087,22.5785786 9.66244096,22.4664665 C9.66244096,22.4664665 9.77479493,22.4664665 9.77479493,22.5785786 C9.77479493,22.5785786 9.77479493,22.5785786 9.77479493,22.6906907 C9.88714889,22.6906907 9.88714889,22.8028028 9.88714889,22.8028028 C9.99950286,22.8028028 9.99950286,22.9149149 10.1118568,23.027027 L10.4489187,23.027027 L10.4489187,22.9149149 L10.5612727,23.027027 C10.5612727,23.1391391 10.5612727,23.2512513 10.6736266,23.3633634 L10.7859806,23.3633634 L10.8983346,23.4754755 L11.0106885,23.4754755 C11.1230425,23.4754755 11.1230425,23.5875876 11.1230425,23.5875876 L11.1230425,23.5875876 C11.2353965,23.5875876 11.3477504,23.5875876 11.3477504,23.6996997 C11.4601044,23.8118118 11.4601044,23.9239239 11.5724584,24.1481481 C11.5724584,24.2602603 11.6848123,24.2602603 11.6848123,24.2602603 C11.6848123,24.2602603 11.6848123,24.3723724 11.7971663,24.3723724 C11.9095203,24.4844845 12.0218742,24.4844845 12.1342282,24.4844845 C12.1342282,24.4844845 12.2465822,24.3723724 12.3589361,24.3723724 L12.4712901,24.3723724 C12.583644,24.5965966 12.583644,24.8208208 12.808352,24.8208208 C12.9207059,24.8208208 12.9207059,24.9329329 13.0330599,25.045045 L13.2577678,25.045045 C13.2577678,25.045045 13.2577678,25.1571572 13.3701218,25.1571572 C13.4824758,25.2692693 13.5948297,25.2692693 13.5948297,25.3813814 L13.5948297,25.4934935 C13.7071837,25.4934935 13.8195377,25.3813814 13.8195377,25.4934935 C13.9318916,25.6056056 14.0442456,25.6056056 14.0442456,25.7177177 L14.1565996,25.7177177 L14.1565996,25.6056056 C14.1565996,25.4934935 14.2689535,25.6056056 14.3813075,25.4934935 C14.4936614,25.4934935 14.4936614,25.2692693 14.4936614,25.2692693 C14.6060154,25.2692693 14.7183694,25.3813814 14.8307233,25.4934935 L14.9430773,25.4934935 C15.0554313,25.6056056 15.0554313,25.8298298 15.1677852,25.8298298 C15.3924932,25.8298298 15.3924932,25.9419419 15.6172011,26.0540541 C15.7295551,26.0540541 15.841909,26.1661662 15.954263,26.1661662 L16.066617,26.1661662 C16.1789709,26.1661662 16.1789709,26.1661662 16.2913249,26.0540541 C16.4036788,25.9419419 16.6283868,25.9419419 16.7407407,25.8298298 L16.8530947,25.7177177 C17.0778026,25.6056056 17.4148645,25.8298298 17.6395725,25.7177177 C17.7519264,25.7177177 17.7519264,25.7177177 17.8642804,25.6056056 C17.9766344,25.4934935 18.0889883,25.2692693 17.9766344,25.1571572 C17.8642804,24.9329329 17.7519264,24.5965966 17.6395725,24.3723724 C17.5272185,24.2602603 17.4148645,24.1481481 17.3025106,24.036036 L17.1901566,24.036036 C17.0778026,24.036036 17.0778026,23.9239239 17.0778026,23.8118118 C17.0778026,23.8118118 16.9654487,23.8118118 16.9654487,23.6996997 L16.9654487,23.4754755 L16.9654487,23.3633634 C16.8530947,23.3633634 16.7407407,23.2512513 16.5160328,23.2512513 C16.5160328,23.2512513 16.4036788,23.2512513 16.4036788,23.1391391 L16.4036788,23.027027 C16.5160328,22.9149149 16.6283868,22.9149149 16.7407407,22.9149149 L16.7407407,22.8028028 L16.7407407,22.5785786 C16.7407407,22.5785786 16.7407407,22.4664665 16.6283868,22.4664665 C16.6283868,22.3543544 16.7407407,22.2422422 16.6283868,22.1301301 C16.5160328,22.018018 16.4036788,21.9059059 16.4036788,21.7937938 C16.4036788,21.7937938 16.2913249,21.7937938 16.2913249,21.6816817 L16.2913249,21.1211211 C16.2913249,21.009009 16.1789709,21.009009 16.2913249,20.8968969 L16.4036788,20.7847848 C16.5160328,20.7847848 16.5160328,20.6726727 16.5160328,20.5605606 C16.4036788,20.4484484 16.2913249,20.5605606 16.2913249,20.5605606 C16.2913249,20.5605606 16.2913249,20.5605606 16.2913249,20.4484484 L16.2913249,20.2242242 L16.1789709,20.1121121 L16.1789709,19.8878879 C16.1789709,19.8878879 16.1789709,19.7757758 16.066617,19.8878879 L16.066617,19.6636637 C16.066617,19.5515516 15.954263,19.4394394 15.841909,19.5515516 L15.841909,19.5515516 C15.841909,19.5515516 15.7295551,19.6636637 15.6172011,19.5515516 L15.6172011,19.4394394 C15.6172011,19.4394394 15.7295551,19.4394394 15.7295551,19.3273273 C15.841909,19.2152152 15.7295551,19.1031031 15.7295551,19.1031031 C15.6172011,18.990991 15.5048471,18.8788789 15.6172011,18.7667668 C15.5048471,18.7667668 15.2801392,18.7667668 15.2801392,18.5425425 C15.2801392,18.3183183 15.2801392,18.2062062 15.1677852,18.0940941 L15.1677852,17.7577578 C15.1677852,17.7577578 15.1677852,17.6456456 15.2801392,17.6456456 C15.5048471,17.6456456 15.7295551,17.6456456 15.7295551,17.5335335 C15.841909,17.4214214 15.6172011,17.1971972 15.7295551,17.1971972 C15.954263,17.0850851 16.1789709,17.1971972 16.4036788,16.972973 C16.5160328,16.972973 16.5160328,16.8608609 16.4036788,16.7487487 C16.4036788,16.6366366 16.2913249,16.5245245 16.2913249,16.5245245 C16.1789709,16.4124124 16.066617,16.5245245 15.954263,16.3003003 L15.954263,16.0760761 C15.954263,15.963964 16.066617,15.963964 16.1789709,15.8518519 C16.4036788,15.7397397 16.5160328,15.8518519 16.7407407,15.963964 L16.8530947,16.0760761 C16.8530947,16.0760761 16.8530947,16.0760761 16.8530947,16.1881882 C16.8530947,16.4124124 16.9654487,16.6366366 16.8530947,16.8608609 C16.8530947,16.972973 16.7407407,16.972973 16.7407407,17.0850851 L16.8530947,17.0850851 C16.8530947,17.1971972 16.9654487,17.4214214 16.8530947,17.5335335 C16.7407407,17.6456456 16.7407407,17.5335335 16.5160328,17.5335335 C16.4036788,17.5335335 16.4036788,17.5335335 16.4036788,17.6456456 L16.5160328,17.7577578 C16.9654487,17.8698699 17.0778026,17.8698699 17.5272185,17.981982 C17.6395725,17.981982 17.6395725,18.0940941 17.7519264,18.0940941 L17.9766344,18.0940941 L18.0889883,18.0940941 C18.0889883,18.2062062 18.2013423,18.2062062 18.2013423,18.2062062 C18.3136962,18.3183183 18.3136962,18.5425425 18.4260502,18.5425425 C18.5384042,18.4304304 18.6507581,18.5425425 18.6507581,18.5425425 C18.5384042,18.6546547 18.6507581,18.7667668 18.6507581,18.8788789 C18.7631121,18.990991 18.8754661,18.990991 18.98782,19.1031031 C19.100174,19.2152152 19.212528,19.2152152 19.212528,19.1031031 C19.212528,18.990991 19.100174,18.8788789 19.212528,18.7667668 C19.3248819,18.990991 19.212528,19.2152152 19.3248819,19.4394394 L19.3248819,19.4394394 C19.4372359,19.5515516 19.4372359,19.6636637 19.5495899,19.6636637 C19.6619438,19.6636637 19.6619438,19.5515516 19.6619438,19.4394394 L19.6619438,19.3273273 C19.6619438,19.2152152 19.6619438,19.2152152 19.7742978,19.1031031 C19.7742978,18.990991 19.8866518,18.8788789 19.8866518,18.7667668 L19.8866518,18.6546547 C19.8866518,18.5425425 20.1113597,18.4304304 20.2237136,18.4304304 C20.2237136,18.4304304 20.2237136,18.4304304 20.2237136,18.3183183 C20.3360676,18.3183183 20.2237136,18.0940941 20.3360676,18.0940941 C20.3360676,17.981982 20.4484216,17.981982 20.4484216,17.8698699 C20.4484216,17.8698699 20.5607755,17.7577578 20.4484216,17.7577578 C21.0101914,17.8698699 21.0101914,17.7577578 21.0101914,17.7577578" id="Shape"></path>
                <path d="M16.2913249,17.5335335 L16.1789709,17.5335335 L16.1789709,17.6456456 L16.2913249,17.7577578 L16.2913249,18.0940941 C16.2913249,18.2062062 16.4036788,18.3183183 16.5160328,18.2062062 C16.6283868,18.0940941 16.7407407,17.8698699 16.6283868,17.7577578 C16.4036788,17.7577578 16.5160328,17.6456456 16.2913249,17.5335335" id="Shape"></path>
                <path d="M16.066617,18.5425425 L16.066617,18.5425425 C16.1789709,18.7667668 16.2913249,18.6546547 16.4036788,18.6546547 L16.4036788,18.5425425 C16.2913249,18.4304304 16.2913249,18.4304304 16.066617,18.5425425 C16.1789709,18.4304304 16.066617,18.4304304 16.066617,18.4304304 L16.066617,18.5425425" id="Shape"></path>
                <path d="M16.4036788,18.990991 C16.4036788,18.7667668 16.2913249,18.7667668 16.1789709,18.8788789 C16.066617,18.990991 16.1789709,19.2152152 16.2913249,19.3273273 C16.2913249,19.3273273 16.2913249,19.4394394 16.4036788,19.4394394 C16.4036788,19.5515516 16.5160328,19.4394394 16.6283868,19.4394394 C16.6283868,19.3273273 16.6283868,19.3273273 16.7407407,19.3273273 C16.6283868,19.2152152 16.5160328,18.990991 16.4036788,18.990991" id="Shape"></path>
                <path d="M16.066617,18.0940941 C16.066617,17.981982 15.954263,17.981982 16.066617,18.0940941 C15.954263,18.0940941 15.954263,18.0940941 15.954263,18.2062062 C15.954263,18.3183183 15.954263,18.4304304 16.066617,18.4304304 C16.066617,18.4304304 16.1789709,18.4304304 16.1789709,18.3183183 C16.066617,18.2062062 16.066617,18.2062062 16.066617,18.0940941" id="Shape"></path>
                <path d="M16.5160328,18.7667668 L16.6283868,18.6546547 L16.7407407,18.6546547 C16.7407407,18.6546547 16.7407407,18.6546547 16.7407407,18.5425425 C16.6283868,18.5425425 16.6283868,18.6546547 16.5160328,18.6546547 C16.4036788,18.6546547 16.5160328,18.7667668 16.5160328,18.7667668" id="Shape"></path>
                <path d="M16.4036788,19.7757758 C16.4036788,19.8878879 16.4036788,19.8878879 16.5160328,19.8878879 L16.6283868,19.8878879 L16.6283868,19.7757758 L16.4036788,19.7757758 C16.4036788,19.6636637 16.4036788,19.7757758 16.4036788,19.7757758" id="Shape"></path>
                <path d="M16.6283868,20.5605606 C16.6283868,20.4484484 16.7407407,20.4484484 16.6283868,20.3363363 L16.5160328,20.3363363 C16.5160328,20.4484484 16.6283868,20.5605606 16.6283868,20.5605606" id="Shape"></path>
                <path d="M9.550087,23.3633634 L9.550087,23.4754755 L9.77479493,23.4754755 C9.66244096,23.4754755 9.66244096,23.2512513 9.550087,23.3633634" id="Shape"></path>
                <path d="M10.2242108,24.1481481 C10.1118568,24.2602603 10.3365648,24.3723724 10.4489187,24.3723724 L10.4489187,24.1481481 C10.4489187,24.1481481 10.3365648,24.036036 10.2242108,24.1481481" id="Shape"></path>
                <path d="M10.5612727,24.5965966 C10.5612727,24.8208208 10.6736266,24.9329329 10.7859806,24.9329329 C10.8983346,24.7087087 10.7859806,24.5965966 10.5612727,24.5965966" id="Shape"></path>
                <path d="M21.9090231,18.7667668 C22.133731,18.6546547 22.358439,18.6546547 22.5831469,18.6546547 C23.0325628,18.6546547 23.0325628,17.981982 23.2572707,17.6456456 C23.2572707,17.5335335 23.2572707,17.3093093 23.1449167,17.1971972 C23.0325628,16.972973 22.4707929,17.1971972 22.358439,16.972973 C22.246085,16.8608609 22.6955009,17.0850851 22.6955009,16.8608609 C22.6955009,16.7487487 22.6955009,16.7487487 22.5831469,16.6366366 L22.358439,16.6366366 C22.133731,16.8608609 22.0213771,17.1971972 21.9090231,17.5335335 C21.5719612,17.981982 21.1225454,18.3183183 20.8978374,18.8788789 C20.8978374,18.990991 20.8978374,18.990991 21.0101914,19.1031031 C21.3472533,19.2152152 21.6843152,18.8788789 21.9090231,18.7667668" id="Shape"></path>
                <path d="M23.9313945,17.6456456 C23.8190405,17.6456456 23.8190405,17.6456456 23.7066866,17.7577578 L23.7066866,17.981982 L23.8190405,17.981982 C23.8190405,17.8698699 23.8190405,17.8698699 23.7066866,17.8698699 C23.9313945,17.7577578 23.9313945,17.6456456 23.9313945,17.6456456" id="Shape"></path>
                <path d="M22.4707929,19.3273273 C22.5831469,19.5515516 23.0325628,19.4394394 23.0325628,19.3273273 C23.0325628,19.2152152 22.6955009,19.1031031 22.5831469,19.1031031 C22.358439,19.1031031 22.6955009,19.2152152 22.4707929,19.3273273" id="Shape"></path>
                <path d="M23.0325628,20.7847848 C23.1449167,20.6726727 23.1449167,20.5605606 23.1449167,20.4484484 L22.8078548,20.7847848 L23.0325628,20.7847848" id="Shape"></path>
                <path d="M25.0549341,17.7577578 L25.0549341,17.6456456 L24.8302262,17.6456456 C24.7178722,17.6456456 24.7178722,17.5335335 24.7178722,17.4214214 C24.7178722,17.3093093 24.6055183,17.1971972 24.6055183,17.0850851 C24.4931643,17.0850851 24.4931643,17.3093093 24.4931643,17.3093093 C24.7178722,17.5335335 24.8302262,17.8698699 25.0549341,17.7577578" id="Shape"></path>
                <path d="M22.358439,16.4124124 C22.246085,16.3003003 22.246085,16.4124124 22.358439,16.4124124 C22.246085,16.5245245 22.358439,16.5245245 22.358439,16.4124124 L22.358439,16.4124124" id="Shape"></path>
                <path d="M9.10067114,20.6726727 C9.10067114,20.6726727 9.10067114,20.5605606 8.98831718,20.5605606 L8.87596321,20.5605606 L8.87596321,20.6726727 C8.87596321,20.6726727 8.98831718,20.7847848 9.10067114,20.6726727" id="Shape"></path>
                <path d="M9.88714889,20.6726727 C9.99950286,20.6726727 10.1118568,20.5605606 9.99950286,20.4484484 L9.99950286,20.4484484 C9.88714889,20.3363363 9.66244096,20.4484484 9.77479493,20.5605606 C9.66244096,20.6726727 9.77479493,20.7847848 9.88714889,20.6726727" id="Shape"></path>
                <path d="M22.6955009,12.8248248 C22.6955009,12.7127127 22.8078548,12.7127127 22.8078548,12.6006006 L22.6955009,12.6006006 C22.5831469,12.6006006 22.5831469,12.7127127 22.6955009,12.8248248 C22.5831469,12.7127127 22.5831469,12.7127127 22.6955009,12.8248248 C22.5831469,12.8248248 22.6955009,12.8248248 22.6955009,12.8248248" id="Shape"></path>
                <path d="M23.0325628,12.7127127 C23.0325628,12.7127127 23.1449167,12.6006006 23.0325628,12.6006006 L22.9202088,12.6006006 C22.9202088,12.6006006 22.9202088,12.7127127 23.0325628,12.7127127" id="Shape"></path>
                <path d="M21.7966692,15.6276276 C21.7966692,15.7397397 22.0213771,15.963964 22.133731,15.8518519 C22.246085,15.7397397 22.133731,15.6276276 22.133731,15.6276276 C22.0213771,15.5155155 21.9090231,15.5155155 21.7966692,15.6276276" id="Shape"></path>
                <path d="M22.133731,16.5245245 L22.133731,16.4124124 L21.9090231,16.4124124 C21.9090231,16.4124124 21.9090231,16.4124124 21.7966692,16.4124124 C21.7966692,16.4124124 21.7966692,16.5245245 21.9090231,16.5245245 C21.9090231,16.4124124 22.0213771,16.5245245 22.133731,16.5245245" id="Shape"></path>
                <path d="M21.7966692,16.7487487 C21.6843152,16.7487487 21.7966692,16.8608609 21.7966692,16.972973 C21.9090231,16.972973 21.9090231,16.972973 22.0213771,16.8608609 C22.0213771,16.7487487 22.133731,16.6366366 22.0213771,16.6366366 C21.9090231,16.6366366 21.7966692,16.6366366 21.7966692,16.7487487" id="Shape"></path>
                <path d="M21.5719612,16.4124124 C21.5719612,16.5245245 21.4596073,16.6366366 21.5719612,16.7487487 C21.5719612,16.8608609 21.6843152,16.7487487 21.6843152,16.7487487 C21.6843152,16.6366366 21.6843152,16.5245245 21.7966692,16.5245245 L21.6843152,16.5245245 C21.6843152,16.5245245 21.6843152,16.5245245 21.6843152,16.4124124 L21.5719612,16.4124124" id="Shape"></path>
                <path d="M30.1108625,24.3723724 C30.2232165,24.3723724 30.1108625,24.2602603 30.1108625,24.3723724 L30.1108625,24.3723724 L30.1108625,24.3723724" id="Shape"></path>
                <path d="M23.5943326,20 C23.5943326,20.1121121 23.5943326,20 23.5943326,20 L23.4819786,19.8878879 C23.4819786,19.7757758 23.3696247,20 23.2572707,19.8878879 L23.2572707,19.8878879 C23.3696247,20 23.2572707,20 23.1449167,20.1121121 C23.1449167,20.2242242 23.2572707,20.2242242 23.2572707,20.2242242 C23.2572707,20.3363363 23.1449167,20.3363363 23.2572707,20.4484484 L23.1449167,20.5605606 C23.1449167,20.5605606 23.0325628,20.6726727 23.1449167,20.6726727 C23.2572707,20.7847848 23.3696247,20.5605606 23.4819786,20.5605606 L23.5943326,20.5605606 C23.7066866,20.5605606 23.7066866,20.4484484 23.8190405,20.3363363 L23.5943326,20.3363363 C23.5943326,20.3363363 23.4819786,20.3363363 23.5943326,20 C23.5943326,20.1121121 23.5943326,20 23.5943326,20" id="Shape"></path>
                <path d="M24.2684564,22.1301301 C24.2684564,22.2422422 24.3808103,22.2422422 24.2684564,22.1301301 C24.3808103,22.1301301 24.3808103,22.018018 24.3808103,21.9059059 L24.2684564,21.9059059 L24.2684564,22.1301301" id="Shape"></path>
                <path d="M24.3808103,21.9059059 C24.4931643,21.9059059 24.3808103,21.7937938 24.3808103,21.7937938 L24.2684564,21.7937938 C24.2684564,21.7937938 24.2684564,21.9059059 24.3808103,21.9059059" id="Shape"></path>
                <path d="M25.0549341,22.2422422 C25.0549341,22.2422422 25.0549341,22.1301301 25.0549341,22.2422422 C24.9425802,22.2422422 24.9425802,22.1301301 24.8302262,22.2422422 L24.7178722,22.2422422 L24.7178722,22.3543544 C24.9425802,22.2422422 24.9425802,22.2422422 25.0549341,22.2422422" id="Shape"></path>
                <path d="M26.1784738,22.1301301 L26.1784738,22.018018 C26.0661198,22.018018 25.9537658,22.1301301 25.8414119,22.018018 L25.8414119,22.1301301 C25.8414119,22.1301301 25.8414119,22.1301301 25.7290579,22.1301301 C25.9537658,22.2422422 26.0661198,22.1301301 26.1784738,22.1301301" id="Shape"></path>
                <path d="M26.6278896,21.6816817 C26.6278896,21.9059059 26.8525976,21.7937938 26.8525976,21.6816817 C26.9649515,21.5695696 26.8525976,21.5695696 26.6278896,21.6816817 L26.7402436,21.5695696 C26.7402436,21.6816817 26.6278896,21.6816817 26.6278896,21.6816817" id="Shape"></path>
                <path d="M32.0208799,18.0940941 C32.0208799,18.2062062 32.1332339,18.2062062 32.2455879,18.2062062 C32.3579418,18.2062062 32.4702958,18.2062062 32.5826498,18.0940941 C32.5826498,17.8698699 32.4702958,17.7577578 32.2455879,17.7577578 C32.0208799,17.8698699 32.0208799,17.981982 32.0208799,18.0940941" id="Shape"></path>
                <path d="M32.0208799,23.8118118 L31.908526,23.8118118 C31.796172,24.3723724 31.2344022,25.1571572 31.908526,25.4934935 C32.1332339,25.7177177 32.4702958,25.3813814 32.5826498,25.1571572 C32.5826498,24.8208208 32.5826498,24.036036 32.0208799,23.8118118" id="Shape"></path>
                <path d="M30.3355705,21.3453453 C30.2232165,21.3453453 30.2232165,21.5695696 30.3355705,21.5695696 C30.3355705,21.5695696 30.4479244,21.5695696 30.4479244,21.4574575 L30.4479244,21.3453453 C30.4479244,21.3453453 30.4479244,21.3453453 30.3355705,21.3453453" id="Shape"></path>
                <path d="M30.7849863,27.0630631 L30.7849863,27.2872873 C30.7849863,27.2872873 31.0096943,27.1751752 30.7849863,27.0630631 L30.7849863,27.0630631" id="Shape"></path>
                <path d="M33.3691275,13.9459459 L33.2567736,13.9459459 L33.2567736,14.1701702 C33.0320656,14.6186186 32.4702958,15.1791792 32.8073577,15.7397397 L32.8073577,15.7397397 C32.9197117,15.6276276 33.0320656,15.5155155 33.1444196,15.2912913 C33.2567736,14.954955 33.4814815,14.6186186 33.5938354,14.1701702 C33.5938354,14.1701702 33.4814815,13.9459459 33.3691275,13.9459459" id="Shape"></path>
                <path d="M32.3579418,15.963964 C32.3579418,16.0760761 32.3579418,16.0760761 32.4702958,16.0760761 C32.5826498,16.0760761 32.5826498,15.963964 32.4702958,15.963964 C32.4702958,15.8518519 32.4702958,15.8518519 32.3579418,15.963964" id="Shape"></path>
                <path d="M26.6278896,12.4884885 C26.5155357,12.2642643 26.4031817,12.4884885 26.2908277,12.4884885 L26.1784738,12.3763764 L26.0661198,12.3763764 C25.9537658,12.3763764 26.0661198,12.6006006 26.1784738,12.6006006 C26.2908277,12.6006006 26.2908277,12.4884885 26.2908277,12.6006006 C26.4031817,12.7127127 26.2908277,12.9369369 26.5155357,12.8248248 C26.6278896,12.8248248 26.7402436,12.7127127 26.8525976,12.7127127 C26.9649515,12.7127127 26.9649515,12.6006006 26.9649515,12.4884885 C27.0773055,12.4884885 27.1896595,12.3763764 27.3020134,12.4884885 C27.3020134,12.4884885 27.3020134,12.6006006 27.4143674,12.6006006 C27.4143674,12.7127127 27.5267214,12.7127127 27.6390753,12.7127127 C27.7514293,12.7127127 27.8637832,12.7127127 27.9761372,12.6006006 C28.0884912,12.4884885 28.0884912,12.3763764 27.9761372,12.2642643 L27.7514293,12.2642643 C27.6390753,12.2642643 27.6390753,12.1521522 27.5267214,12.1521522 C27.0773055,12.04004 26.8525976,12.3763764 26.6278896,12.4884885" id="Shape"></path>
                <path d="M27.6390753,12.7127127 C27.6390753,12.7127127 27.5267214,12.7127127 27.6390753,12.7127127 L27.5267214,12.7127127 L27.6390753,12.7127127 Z" id="Shape"></path>
                <path d="M25.50435,12.7127127 L25.8414119,12.7127127 L25.8414119,12.7127127 C25.8414119,12.4884885 25.616704,12.6006006 25.50435,12.6006006 C25.616704,12.4884885 25.616704,12.6006006 25.50435,12.7127127 C25.50435,12.6006006 25.50435,12.6006006 25.50435,12.7127127 C25.391996,12.6006006 25.50435,12.7127127 25.50435,12.7127127" id="Shape"></path>
                <path d="M25.9537658,13.3853854 C26.0661198,13.2732733 26.2908277,13.1611612 26.4031817,13.049049 C26.4031817,13.049049 26.4031817,13.049049 26.4031817,12.9369369 L26.4031817,12.9369369 C26.4031817,12.8248248 26.2908277,12.8248248 26.1784738,12.7127127 C26.1784738,12.8248248 26.0661198,12.8248248 26.0661198,12.8248248 C25.9537658,12.9369369 25.8414119,12.9369369 25.8414119,13.049049 L25.8414119,13.2732733 C25.9537658,13.6096096 25.9537658,13.4974975 25.9537658,13.3853854" id="Shape"></path>
                <path d="M24.2684564,12.2642643 L24.2684564,12.3763764 C24.3808103,12.4884885 24.3808103,12.3763764 24.2684564,12.2642643 L24.2684564,12.2642643" id="Shape"></path>
                <path d="M20.2237136,9.7977978 C20.3360676,9.90990991 20.5607755,9.90990991 20.6731295,9.90990991 L20.7854835,9.7977978 C20.6731295,9.68568569 20.5607755,9.7977978 20.5607755,9.68568569 L20.4484216,9.68568569 C20.3360676,9.57357357 20.2237136,9.68568569 20.2237136,9.7977978 C20.1113597,9.7977978 20.2237136,9.7977978 20.2237136,9.7977978" id="Shape"></path>
                <path d="M30.4479244,11.5915916 C30.4479244,11.7037037 30.3355705,11.5915916 30.2232165,11.7037037 L30.2232165,11.8158158 C30.3355705,11.9279279 30.4479244,11.8158158 30.5602784,11.8158158 L30.5602784,11.8158158 C30.5602784,11.8158158 30.6726324,11.7037037 30.6726324,11.8158158 L30.6726324,11.9279279 C30.5602784,11.9279279 30.5602784,12.04004 30.5602784,12.04004 L30.3355705,12.04004 C30.3355705,12.04004 30.3355705,12.04004 30.2232165,12.04004 L30.2232165,12.04004 L30.2232165,12.2642643 C30.1108625,12.3763764 29.7738006,12.4884885 29.8861546,12.7127127 C29.9985086,12.8248248 30.2232165,12.8248248 30.4479244,12.8248248 L30.4479244,12.8248248 C30.4479244,12.6006006 30.5602784,12.6006006 30.6726324,12.4884885 C30.6726324,12.4884885 30.6726324,12.3763764 30.5602784,12.3763764 L30.5602784,12.2642643 C30.6726324,12.2642643 30.6726324,12.1521522 30.6726324,12.1521522 L30.6726324,12.04004 C30.7849863,12.04004 30.8973403,11.9279279 30.8973403,11.9279279 C30.8973403,11.8158158 30.7849863,11.7037037 30.7849863,11.5915916 C30.7849863,11.5915916 30.7849863,11.4794795 30.8973403,11.4794795 C30.8973403,11.4794795 30.8973403,11.4794795 30.8973403,11.3673674 C30.8973403,11.3673674 30.8973403,11.3673674 30.7849863,11.3673674 C30.7849863,11.3673674 30.6726324,11.3673674 30.7849863,11.4794795 C30.6726324,11.4794795 30.5602784,11.4794795 30.4479244,11.5915916 C30.4479244,11.3673674 30.5602784,11.5915916 30.4479244,11.5915916" id="Shape"></path>
                <path d="M29.3243848,12.7127127 C29.3243848,12.8248248 29.4367388,12.8248248 29.5490927,12.7127127 L29.5490927,12.7127127 L29.3243848,12.7127127" id="Shape"></path>
                <path d="M30.8973403,12.4884885 C30.7849863,12.6006006 31.0096943,12.6006006 31.1220482,12.6006006 L31.1220482,12.6006006 L31.1220482,12.6006006 C31.1220482,12.4884885 31.0096943,12.4884885 30.8973403,12.4884885" id="Shape"></path>
                <path d="M31.3467562,11.9279279 C31.2344022,11.9279279 31.2344022,11.9279279 31.3467562,11.9279279 C31.2344022,11.9279279 31.2344022,12.04004 31.3467562,11.9279279 C31.3467562,12.04004 31.3467562,12.04004 31.3467562,11.9279279 L31.3467562,11.9279279" id="Shape"></path>
                <path d="M28.762615,7.44344344 C28.8749689,7.55555556 28.9873229,7.55555556 28.9873229,7.66766767 L28.9873229,8.11611612 L29.0996769,8.22822823 L29.0996769,8.45245245 C29.0996769,8.56456456 29.2120308,8.78878879 29.2120308,8.9009009 C29.3243848,8.9009009 29.3243848,9.01301301 29.3243848,9.01301301 C29.3243848,9.12512513 29.3243848,9.12512513 29.4367388,9.23723724 C29.4367388,9.34934935 29.5490927,9.23723724 29.6614467,9.34934935 C29.7738006,9.46146146 29.8861546,9.68568569 29.9985086,9.7977978 C29.9985086,9.7977978 30.1108625,9.7977978 30.1108625,9.90990991 L30.1108625,10.022022 C30.3355705,10.022022 30.6726324,10.1341341 30.5602784,10.4704705 C30.6726324,10.3583584 30.7849863,10.3583584 30.7849863,10.2462462 C30.7849863,10.1341341 30.8973403,9.90990991 30.7849863,9.7977978 C30.7849863,9.68568569 30.6726324,9.68568569 30.5602784,9.57357357 L30.5602784,9.34934935 C30.5602784,9.23723724 30.4479244,9.23723724 30.4479244,9.23723724 C30.4479244,9.12512513 30.3355705,8.9009009 30.5602784,8.9009009 C30.5602784,8.9009009 30.5602784,8.9009009 30.5602784,8.78878879 L30.3355705,8.78878879 L30.3355705,8.67667668 C30.3355705,8.56456456 30.3355705,8.45245245 30.2232165,8.34034034 C30.1108625,8.22822823 29.9985086,8.22822823 29.8861546,8.22822823 C29.7738006,8.11611612 29.7738006,8.11611612 29.6614467,8.11611612 L29.4367388,8.11611612 C29.2120308,7.89189189 29.0996769,7.66766767 28.9873229,7.44344344 C28.8749689,7.33133133 28.762615,7.33133133 28.650261,7.44344344 C28.762615,7.33133133 28.762615,7.33133133 28.762615,7.44344344 C28.762615,7.33133133 28.762615,7.33133133 28.762615,7.44344344 C28.762615,7.33133133 28.762615,7.44344344 28.762615,7.44344344" id="Shape"></path>
                <path d="M27.7514293,7.77977978 C27.6390753,7.89189189 27.7514293,8.004004 27.7514293,8.004004 L28.2008451,8.004004 C28.3131991,8.004004 28.3131991,7.89189189 28.3131991,7.89189189 C28.4255531,7.77977978 28.537907,7.89189189 28.762615,7.77977978 C28.762615,7.89189189 28.762615,7.89189189 28.8749689,7.89189189 C28.8749689,7.77977978 28.8749689,7.66766767 28.762615,7.66766767 C28.650261,7.55555556 28.650261,7.44344344 28.537907,7.33133133 L28.4255531,7.33133133 C28.4255531,7.55555556 28.3131991,7.44344344 28.0884912,7.55555556 C28.0884912,7.55555556 28.0884912,7.55555556 28.0884912,7.66766767 L28.0884912,7.66766767 C28.0884912,7.66766767 28.0884912,7.66766767 28.0884912,7.55555556 L27.8637832,7.55555556 C27.8637832,7.66766767 27.7514293,7.77977978 27.7514293,7.77977978" id="Shape"></path>
                <path d="M25.1672881,3.40740741 C25.0549341,3.18318318 24.8302262,2.95895896 24.9425802,2.62262262 C25.2796421,2.73473473 25.616704,2.73473473 25.9537658,2.62262262 C26.1784738,2.51051051 26.5155357,2.62262262 26.7402436,2.51051051 L26.7402436,2.28628629 C26.4031817,2.3983984 26.1784738,2.06206206 25.9537658,2.17417417 C25.616704,2.3983984 25.2796421,2.3983984 24.9425802,2.51051051 C24.7178722,2.62262262 23.9313945,2.51051051 23.9313945,2.95895896 C24.2684564,2.95895896 24.7178722,2.95895896 24.9425802,3.2952953 C24.9425802,3.40740741 25.0549341,3.40740741 25.1672881,3.40740741" id="Shape"></path>
                <path d="M26.2908277,5.08908909 C26.4031817,5.31331331 26.6278896,5.31331331 26.7402436,5.31331331 C26.7402436,5.2012012 26.7402436,5.2012012 26.6278896,5.08908909 L26.2908277,5.08908909" id="Shape"></path>
                <path d="M25.9537658,5.64964965 C25.8414119,5.64964965 25.9537658,5.76176176 26.0661198,5.87387387 C26.0661198,5.76176176 26.1784738,5.53753754 25.9537658,5.64964965" id="Shape"></path>
                <path d="M25.7290579,5.31331331 L25.7290579,5.31331331 L25.7290579,5.31331331 C25.8414119,5.2012012 25.7290579,5.08908909 25.616704,5.08908909 L25.616704,5.2012012 C25.616704,5.2012012 25.616704,5.2012012 25.7290579,5.31331331" id="Shape"></path>
                <path d="M26.7402436,6.54654655 C26.7402436,6.54654655 26.7402436,6.65865866 26.7402436,6.54654655 L26.7402436,6.54654655 L26.7402436,6.54654655 C26.8525976,6.43443443 26.8525976,6.32232232 26.8525976,6.32232232 C26.8525976,6.32232232 26.8525976,6.32232232 26.7402436,6.32232232 C26.6278896,6.43443443 26.7402436,6.54654655 26.7402436,6.54654655" id="Shape"></path>
                <path d="M27.0773055,6.54654655 L27.0773055,6.65865866 C27.1896595,6.77077077 27.1896595,6.65865866 27.0773055,6.54654655 C27.1896595,6.65865866 27.1896595,6.65865866 27.0773055,6.54654655 C27.1896595,6.54654655 27.0773055,6.65865866 27.0773055,6.54654655" id="Shape"></path>
                <path d="M26.9649515,6.88288288 L26.9649515,6.88288288 C27.0773055,6.77077077 27.0773055,6.77077077 26.9649515,6.88288288 L27.0773055,6.77077077 L27.0773055,6.77077077 C27.0773055,6.65865866 26.9649515,6.65865866 26.8525976,6.77077077 C26.7402436,6.77077077 26.9649515,6.77077077 26.9649515,6.88288288" id="Shape"></path>
                <path d="M27.0773055,6.88288288 L27.0773055,6.88288288 C27.0773055,6.99499499 27.1896595,7.10710711 27.3020134,6.99499499 C27.3020134,6.99499499 27.4143674,6.88288288 27.3020134,6.88288288 L27.0773055,6.88288288 L27.0773055,6.88288288 Z" id="Shape"></path>
                <path d="M27.6390753,7.10710711 L27.6390753,7.10710711 C27.6390753,6.99499499 27.5267214,6.88288288 27.5267214,6.88288288 C27.5267214,6.88288288 27.4143674,6.99499499 27.5267214,6.99499499 C27.5267214,7.10710711 27.5267214,7.10710711 27.6390753,7.10710711" id="Shape"></path>
                <path d="M27.7514293,7.44344344 L27.8637832,7.44344344 C27.8637832,7.44344344 27.8637832,7.44344344 27.8637832,7.33133133 L27.8637832,7.33133133 L27.8637832,7.21921922 L27.7514293,7.21921922 L27.7514293,7.21921922 L27.6390753,7.21921922 L27.6390753,7.33133133 L27.7514293,7.44344344" id="Shape"></path>
                <path d="M27.5267214,7.66766767 L27.5267214,7.66766767 C27.6390753,7.55555556 27.6390753,7.55555556 27.5267214,7.44344344 C27.5267214,7.44344344 27.5267214,7.44344344 27.4143674,7.44344344 C27.4143674,7.44344344 27.4143674,7.55555556 27.3020134,7.55555556 C27.4143674,7.66766767 27.4143674,7.66766767 27.5267214,7.66766767" id="Shape"></path>
                <path d="M27.1896595,2.06206206 L27.1896595,2.06206206 L27.1896595,2.06206206 C27.0773055,1.94994995 27.0773055,1.94994995 26.9649515,1.94994995 C27.0773055,2.06206206 27.0773055,2.17417417 27.1896595,2.06206206" id="Shape"></path>
                <path d="M31.0096943,4.86486486 C31.1220482,4.97697698 31.2344022,4.86486486 31.2344022,4.97697698 C31.3467562,5.08908909 31.3467562,5.2012012 31.4591101,5.2012012 C31.5714641,5.2012012 31.5714641,5.2012012 31.5714641,5.08908909 C31.5714641,4.86486486 31.5714641,4.64064064 31.3467562,4.64064064 L30.7849863,4.64064064 C30.6726324,4.64064064 30.6726324,4.75275275 30.6726324,4.86486486 C30.7849863,4.75275275 30.8973403,4.75275275 31.0096943,4.86486486" id="Shape"></path>
                <path d="M35.6162068,10.6946947 C35.5038528,10.5825826 35.5038528,10.3583584 35.3914989,10.2462462 C35.2791449,10.1341341 35.166791,10.1341341 35.054437,10.022022 L35.054437,9.7977978 L34.942083,9.68568569 C34.8297291,9.46146146 34.8297291,9.34934935 34.6050211,9.34934935 C34.6050211,9.12512513 34.4926672,9.12512513 34.2679592,9.01301301 L34.2679592,8.9009009 C34.2679592,8.78878879 34.1556053,8.78878879 34.1556053,8.78878879 L34.0432513,8.78878879 C33.9308973,8.67667668 33.8185434,8.56456456 33.8185434,8.45245245 C33.8185434,8.34034034 33.5938354,8.22822823 33.4814815,8.11611612 L33.3691275,8.004004 C33.2567736,8.004004 33.1444196,8.004004 33.1444196,7.89189189 C33.1444196,7.66766767 32.9197117,7.55555556 32.8073577,7.44344344 C32.5826498,7.33133133 32.8073577,6.99499499 32.6950037,6.65865866 C32.6950037,6.54654655 32.5826498,6.54654655 32.4702958,6.54654655 C32.4702958,6.54654655 32.3579418,6.54654655 32.3579418,6.43443443 C32.2455879,6.32232232 32.3579418,6.0980981 32.2455879,5.98598599 C32.1332339,5.76176176 31.908526,5.64964965 31.796172,5.42542543 C31.683818,5.31331331 31.5714641,5.31331331 31.4591101,5.31331331 C31.4591101,5.31331331 31.4591101,5.31331331 31.3467562,5.31331331 L31.2344022,5.2012012 C31.1220482,5.08908909 31.0096943,4.97697698 30.8973403,4.97697698 C30.6726324,4.86486486 30.4479244,4.97697698 30.2232165,4.86486486 C29.9985086,4.86486486 29.7738006,4.86486486 29.6614467,5.08908909 C29.4367388,5.2012012 29.3243848,5.31331331 29.0996769,5.31331331 C28.9873229,5.31331331 29.0996769,5.42542543 29.0996769,5.53753754 C29.0996769,5.64964965 28.8749689,5.76176176 28.9873229,5.76176176 L28.9873229,5.76176176 L29.2120308,5.76176176 C29.3243848,5.76176176 29.3243848,5.87387387 29.3243848,5.87387387 C29.4367388,5.98598599 29.5490927,6.0980981 29.5490927,6.21021021 C29.5490927,6.21021021 29.4367388,6.32232232 29.5490927,6.43443443 C29.6614467,6.54654655 29.6614467,6.65865866 29.6614467,6.77077077 C29.6614467,6.88288288 29.7738006,6.77077077 29.7738006,6.77077077 C29.9985086,6.88288288 29.9985086,7.10710711 29.8861546,7.21921922 L29.8861546,7.55555556 C29.9985086,7.77977978 29.9985086,8.004004 30.1108625,8.11611612 L30.2232165,8.004004 C30.3355705,8.004004 30.3355705,7.89189189 30.4479244,7.89189189 C30.6726324,7.66766767 30.8973403,8.11611612 31.0096943,8.22822823 C31.1220482,8.45245245 31.0096943,8.67667668 31.1220482,8.9009009 C31.2344022,9.12512513 31.3467562,9.23723724 31.4591101,9.34934935 C31.4591101,9.34934935 31.4591101,9.46146146 31.5714641,9.57357357 L31.683818,9.68568569 C31.683818,9.68568569 31.683818,9.57357357 31.796172,9.57357357 L31.908526,9.57357357 C32.1332339,9.7977978 32.1332339,10.2462462 32.4702958,10.2462462 C32.4702958,10.2462462 32.4702958,10.3583584 32.5826498,10.3583584 C32.6950037,10.3583584 32.6950037,10.2462462 32.8073577,10.3583584 C32.8073577,10.4704705 32.9197117,10.5825826 32.9197117,10.5825826 L33.2567736,10.5825826 C33.3691275,10.5825826 33.3691275,10.6946947 33.4814815,10.8068068 L33.5938354,10.9189189 C33.8185434,11.1431431 33.9308973,11.4794795 34.1556053,11.7037037 C34.2679592,11.8158158 34.3803132,11.9279279 34.4926672,11.8158158 L34.4926672,11.7037037 C34.6050211,11.7037037 34.7173751,11.5915916 34.7173751,11.4794795 C34.8297291,11.3673674 34.942083,11.2552553 35.054437,11.1431431 L35.054437,11.1431431 C35.166791,11.031031 35.2791449,11.031031 35.3914989,10.9189189 C35.7285608,10.9189189 35.6162068,10.6946947 35.6162068,10.6946947" id="Shape"></path>
                <polygon id="Shape" points="31.1220482 10.1341341 31.1220482 10.1341341 31.2344022 10.1341341"></polygon>
                <path d="M30.8973403,10.8068068 C30.8973403,10.9189189 31.0096943,10.9189189 31.1220482,10.9189189 C31.2344022,11.031031 31.2344022,11.1431431 31.3467562,11.1431431 C31.4591101,11.2552553 31.4591101,11.031031 31.4591101,10.9189189 L31.5714641,10.9189189 C31.683818,10.8068068 31.5714641,10.5825826 31.4591101,10.4704705 C31.3467562,10.3583584 31.3467562,10.2462462 31.1220482,10.2462462 C31.0096943,10.2462462 31.0096943,10.2462462 30.8973403,10.3583584 C30.7849863,10.4704705 30.8973403,10.5825826 30.8973403,10.6946947 C30.8973403,10.6946947 30.8973403,10.6946947 30.8973403,10.8068068" id="Shape"></path>
                <path d="M31.683818,11.2552553 C31.5714641,11.4794795 31.683818,11.7037037 31.683818,11.9279279 C31.683818,12.04004 31.4591101,12.04004 31.4591101,12.1521522 C31.4591101,12.1521522 31.3467562,12.2642643 31.4591101,12.3763764 C31.4591101,12.4884885 31.683818,12.4884885 31.796172,12.6006006 C32.0208799,12.7127127 32.3579418,12.9369369 32.4702958,13.2732733 C32.5826498,13.3853854 32.5826498,13.4974975 32.5826498,13.6096096 C32.6950037,13.7217217 32.8073577,13.7217217 32.8073577,13.8338338 C32.8073577,13.9459459 32.9197117,13.9459459 32.9197117,13.8338338 C33.0320656,13.7217217 33.0320656,13.4974975 32.9197117,13.3853854 C32.8073577,13.2732733 32.8073577,13.2732733 32.8073577,13.1611612 C32.8073577,12.8248248 32.6950037,12.6006006 32.5826498,12.2642643 C32.4702958,12.1521522 32.3579418,12.04004 32.2455879,11.9279279 L32.2455879,11.8158158 C32.2455879,11.7037037 32.3579418,11.7037037 32.3579418,11.5915916 C32.3579418,11.4794795 32.2455879,11.3673674 32.1332339,11.2552553 C32.1332339,11.2552553 32.1332339,11.2552553 32.0208799,11.2552553 L32.1332339,11.2552553 C31.908526,11.1431431 31.796172,11.1431431 31.683818,11.2552553" id="Shape"></path>
                <path d="M33.3691275,12.8248248 L33.3691275,12.6006006 C33.3691275,12.3763764 33.1444196,12.3763764 33.0320656,12.3763764 L32.9197117,12.3763764 L32.9197117,12.6006006 C33.1444196,12.9369369 33.1444196,13.2732733 33.2567736,13.7217217 C33.2567736,13.8338338 33.5938354,13.7217217 33.5938354,13.6096096 L33.5938354,13.3853854 C33.5938354,13.2732733 33.4814815,13.2732733 33.4814815,13.1611612 C33.4814815,13.049049 33.3691275,12.9369369 33.3691275,12.8248248" id="Shape"></path>
                <path d="M32.9197117,11.8158158 C32.8073577,11.9279279 32.9197117,12.04004 32.9197117,12.1521522 L32.9197117,12.1521522 C33.0320656,12.1521522 33.0320656,12.1521522 33.0320656,12.04004 C32.9197117,12.04004 33.0320656,11.9279279 32.9197117,11.8158158 L32.9197117,11.8158158" id="Shape"></path>
                <path d="M32.9197117,11.5915916 C32.9197117,11.4794795 32.9197117,11.4794795 32.8073577,11.4794795 C32.8073577,11.5915916 32.6950037,11.5915916 32.5826498,11.5915916 C32.4702958,11.7037037 32.5826498,11.7037037 32.6950037,11.8158158 L32.6950037,11.8158158 C32.9197117,11.8158158 33.0320656,11.7037037 32.9197117,11.5915916 L32.9197117,11.5915916" id="Shape"></path>
                <path d="M32.3579418,11.031031 C32.4702958,11.1431431 32.3579418,11.2552553 32.4702958,11.2552553 C32.5826498,11.2552553 32.6950037,11.3673674 32.8073577,11.2552553 C32.9197117,11.2552553 32.8073577,11.1431431 32.6950037,11.1431431 L32.6950037,11.031031 C32.6950037,11.031031 32.6950037,11.031031 32.5826498,11.031031 C32.4702958,10.9189189 32.6950037,10.9189189 32.5826498,10.8068068 L32.5826498,10.6946947 L32.4702958,10.6946947 L32.4702958,10.8068068 C32.3579418,10.9189189 32.2455879,11.031031 32.3579418,11.031031" id="Shape"></path>
                <path d="M32.2455879,10.3583584 C32.1332339,10.3583584 32.0208799,10.3583584 32.0208799,10.2462462 L31.908526,10.2462462 L31.908526,10.2462462 C31.908526,10.2462462 31.796172,10.3583584 31.908526,10.3583584 C32.0208799,10.3583584 32.0208799,10.4704705 32.0208799,10.4704705 C32.0208799,10.5825826 32.1332339,10.4704705 32.1332339,10.5825826 C32.1332339,10.6946947 32.2455879,10.6946947 32.2455879,10.5825826 L32.2455879,10.4704705 C32.2455879,10.4704705 32.2455879,10.3583584 32.2455879,10.4704705 C32.2455879,10.4704705 32.3579418,10.3583584 32.2455879,10.3583584" id="Shape"></path>
                <path d="M24.2684564,15.5155155 L24.2684564,15.5155155 C24.3808103,15.4034034 24.3808103,15.4034034 24.2684564,15.5155155 C24.3808103,15.4034034 24.2684564,15.2912913 24.2684564,15.2912913 C24.2684564,15.2912913 24.1561024,15.2912913 24.1561024,15.4034034 L24.1561024,15.4034034 C24.2684564,15.4034034 24.2684564,15.4034034 24.2684564,15.5155155" id="Shape"></path>
                <path d="M33.0320656,14.0580581 C32.9197117,14.0580581 32.6950037,14.0580581 32.5826498,14.1701702 C32.3579418,14.2822823 32.2455879,14.6186186 32.1332339,14.8428428 C32.0208799,14.954955 31.908526,15.0670671 31.683818,15.0670671 C31.683818,15.0670671 31.5714641,15.0670671 31.5714641,14.954955 L31.5714641,14.7307307 L31.683818,14.6186186 C31.796172,14.5065065 31.683818,14.3943944 31.683818,14.2822823 C31.5714641,14.0580581 31.3467562,13.8338338 31.1220482,13.9459459 C30.8973403,13.9459459 30.7849863,14.2822823 30.5602784,14.5065065 L30.5602784,14.5065065 C30.4479244,14.3943944 30.3355705,14.2822823 30.3355705,14.1701702 C30.3355705,14.1701702 30.3355705,14.1701702 30.3355705,14.0580581 C30.4479244,14.0580581 30.5602784,14.2822823 30.5602784,14.1701702 C30.6726324,14.0580581 30.5602784,13.9459459 30.4479244,13.9459459 C30.3355705,13.9459459 30.3355705,13.8338338 30.2232165,13.8338338 C30.1108625,13.8338338 30.1108625,13.7217217 29.9985086,13.6096096 C29.9985086,13.4974975 29.9985086,13.2732733 29.8861546,13.2732733 C29.7738006,13.2732733 29.6614467,13.2732733 29.5490927,13.1611612 L29.3243848,13.1611612 L29.3243848,13.049049 C29.4367388,13.049049 29.6614467,13.049049 29.5490927,12.8248248 C29.5490927,12.7127127 29.4367388,12.7127127 29.3243848,12.7127127 L29.2120308,12.7127127 L29.2120308,12.8248248 L29.2120308,13.049049 C29.0996769,13.1611612 28.9873229,13.1611612 28.8749689,13.1611612 L28.762615,13.1611612 C28.650261,13.1611612 28.537907,13.049049 28.4255531,13.049049 C28.3131991,13.1611612 28.3131991,13.2732733 28.2008451,13.2732733 C28.0884912,13.2732733 28.0884912,13.2732733 27.9761372,13.3853854 C27.8637832,13.3853854 27.8637832,13.6096096 27.9761372,13.7217217 L27.9761372,13.8338338 C27.8637832,13.8338338 27.8637832,13.7217217 27.8637832,13.7217217 C27.8637832,13.6096096 27.7514293,13.4974975 27.7514293,13.3853854 C27.7514293,13.2732733 27.8637832,13.1611612 27.9761372,13.049049 L27.9761372,12.8248248 C27.8637832,12.7127127 27.8637832,12.7127127 27.7514293,12.7127127 C27.5267214,12.8248248 27.4143674,13.1611612 27.1896595,13.049049 C27.0773055,13.049049 26.9649515,12.8248248 26.8525976,12.8248248 C26.7402436,12.8248248 26.7402436,12.7127127 26.6278896,12.8248248 C26.5155357,12.9369369 26.2908277,13.049049 26.0661198,13.1611612 C25.9537658,13.2732733 25.7290579,13.3853854 25.7290579,13.6096096 C25.616704,13.8338338 25.2796421,13.9459459 25.0549341,13.7217217 C24.9425802,13.6096096 24.8302262,13.4974975 24.7178722,13.4974975 C24.6055183,13.4974975 24.4931643,13.7217217 24.3808103,13.7217217 C24.2684564,13.7217217 24.2684564,13.7217217 24.1561024,13.6096096 L24.1561024,13.4974975 C24.3808103,13.3853854 24.6055183,13.2732733 24.8302262,13.1611612 C24.9425802,13.1611612 24.9425802,13.049049 24.9425802,12.9369369 C24.9425802,12.9369369 24.9425802,12.9369369 24.9425802,12.8248248 L24.9425802,12.7127127 C24.6055183,12.7127127 24.3808103,12.9369369 24.2684564,13.1611612 C24.2684564,13.1611612 24.2684564,13.2732733 24.1561024,13.2732733 C23.9313945,13.2732733 23.8190405,13.3853854 23.5943326,13.2732733 L23.4819786,13.049049 C23.3696247,13.1611612 23.3696247,13.2732733 23.2572707,13.2732733 L23.1449167,13.3853854 C23.0325628,13.4974975 23.2572707,13.7217217 23.1449167,13.8338338 C23.1449167,13.9459459 22.9202088,13.9459459 22.8078548,13.9459459 L22.8078548,14.1701702 C22.8078548,14.2822823 22.9202088,14.1701702 22.9202088,14.2822823 C23.0325628,14.3943944 23.0325628,14.6186186 23.1449167,14.6186186 C23.3696247,14.7307307 23.4819786,14.6186186 23.7066866,14.7307307 C23.8190405,14.7307307 23.9313945,14.8428428 24.0437484,14.954955 C24.0437484,15.0670671 24.1561024,15.0670671 24.1561024,15.1791792 C24.1561024,15.1791792 24.1561024,15.2912913 24.2684564,15.2912913 L24.4931643,15.2912913 C24.6055183,15.2912913 24.4931643,15.4034034 24.6055183,15.5155155 C24.6055183,15.6276276 24.6055183,15.7397397 24.7178722,15.963964 C24.7178722,15.963964 24.7178722,16.1881882 24.6055183,16.1881882 C24.6055183,16.1881882 24.4931643,16.1881882 24.4931643,16.3003003 L24.4931643,16.6366366 L24.6055183,16.6366366 C24.7178722,16.7487487 24.7178722,16.8608609 24.8302262,16.972973 L24.9425802,17.0850851 C24.8302262,17.0850851 24.8302262,17.1971972 24.8302262,17.1971972 C24.8302262,17.1971972 24.9425802,17.3093093 25.0549341,17.1971972 C25.1672881,17.1971972 25.1672881,17.0850851 25.2796421,17.0850851 C25.2796421,17.0850851 25.391996,17.0850851 25.391996,16.972973 C25.391996,16.972973 25.50435,17.0850851 25.50435,17.1971972 C25.391996,17.3093093 25.1672881,17.1971972 25.0549341,17.3093093 C24.9425802,17.3093093 24.9425802,17.3093093 24.8302262,17.4214214 C24.8302262,17.4214214 24.8302262,17.5335335 24.9425802,17.5335335 C25.1672881,17.6456456 25.0549341,17.981982 24.8302262,18.2062062 L24.8302262,18.4304304 L24.7178722,18.4304304 C24.4931643,18.4304304 24.1561024,18.3183183 23.9313945,18.4304304 C23.8190405,18.4304304 23.8190405,18.5425425 23.8190405,18.6546547 L23.8190405,18.6546547 C23.7066866,18.6546547 23.7066866,18.7667668 23.7066866,18.7667668 L23.7066866,18.990991 C23.4819786,19.2152152 23.4819786,19.5515516 23.3696247,19.7757758 C23.3696247,19.8878879 23.4819786,19.8878879 23.4819786,19.8878879 C23.5943326,19.8878879 23.5943326,19.7757758 23.7066866,19.7757758 C23.8190405,19.7757758 23.8190405,20 23.8190405,20 C23.8190405,20.1121121 24.0437484,20.1121121 24.0437484,20 C24.0437484,19.8878879 24.0437484,19.7757758 24.1561024,19.6636637 C24.1561024,19.5515516 24.0437484,19.4394394 24.0437484,19.3273273 C24.0437484,19.2152152 24.0437484,19.1031031 24.1561024,19.1031031 C24.1561024,19.1031031 24.2684564,19.1031031 24.2684564,19.2152152 L24.2684564,19.4394394 L24.2684564,19.6636637 C24.2684564,19.6636637 24.3808103,19.7757758 24.2684564,19.8878879 C24.2684564,19.8878879 24.2684564,20 24.1561024,20 L24.1561024,20.2242242 C24.0437484,20.3363363 24.0437484,20.3363363 24.0437484,20.4484484 C23.8190405,20.4484484 23.5943326,20.3363363 23.7066866,20.1121121 C23.5943326,20.1121121 23.5943326,20.1121121 23.4819786,20.2242242 L23.4819786,20.5605606 C23.3696247,20.6726727 23.3696247,20.7847848 23.2572707,20.8968969 C23.2572707,20.8968969 23.2572707,20.8968969 23.2572707,21.009009 C23.1449167,21.1211211 23.0325628,21.2332332 22.9202088,21.2332332 L22.9202088,21.2332332 C22.8078548,21.3453453 22.6955009,21.2332332 22.6955009,21.3453453 C22.6955009,21.4574575 22.8078548,21.5695696 22.8078548,21.6816817 C22.8078548,21.7937938 22.8078548,21.7937938 22.6955009,21.9059059 L22.246085,21.9059059 L22.246085,21.9059059 C22.246085,22.018018 22.246085,22.1301301 22.133731,22.2422422 C22.0213771,22.3543544 22.133731,22.4664665 22.246085,22.4664665 C22.358439,22.5785786 22.358439,22.6906907 22.4707929,22.6906907 C22.5831469,22.6906907 22.5831469,22.8028028 22.6955009,22.8028028 C22.8078548,22.8028028 22.9202088,22.6906907 22.9202088,22.5785786 C22.9202088,22.4664665 23.0325628,22.5785786 23.1449167,22.5785786 L23.2572707,22.5785786 C23.3696247,22.4664665 23.2572707,22.3543544 23.2572707,22.3543544 C23.3696247,22.2422422 23.5943326,22.018018 23.7066866,21.9059059 C23.8190405,21.9059059 23.8190405,21.7937938 23.9313945,21.7937938 C24.0437484,21.7937938 24.0437484,21.9059059 24.1561024,21.9059059 C24.2684564,21.9059059 24.2684564,22.018018 24.3808103,22.018018 L24.4931643,22.018018 C24.6055183,22.018018 24.7178722,22.2422422 24.8302262,22.2422422 L24.8302262,22.2422422 C24.8302262,22.1301301 24.8302262,22.018018 24.7178722,21.9059059 C24.6055183,21.7937938 24.4931643,21.6816817 24.3808103,21.6816817 L24.3808103,21.5695696 L24.3808103,21.5695696 C24.4931643,21.6816817 24.4931643,21.6816817 24.6055183,21.6816817 C24.7178722,21.7937938 24.7178722,21.9059059 24.8302262,22.018018 C24.9425802,22.018018 24.9425802,22.1301301 25.0549341,22.1301301 C25.1672881,22.1301301 25.2796421,22.1301301 25.391996,22.018018 C25.391996,21.9059059 25.391996,21.9059059 25.2796421,21.9059059 C25.1672881,21.7937938 25.2796421,21.7937938 25.391996,21.6816817 C25.50435,21.5695696 25.391996,21.4574575 25.391996,21.3453453 L25.391996,21.2332332 L25.391996,21.2332332 C25.50435,21.1211211 25.391996,21.009009 25.391996,20.7847848 L25.391996,20.7847848 C25.391996,20.8968969 25.50435,20.8968969 25.616704,20.8968969 C25.7290579,20.8968969 25.8414119,20.7847848 25.8414119,20.6726727 C25.9537658,20.5605606 26.1784738,20.6726727 26.1784738,20.7847848 C26.1784738,20.8968969 26.1784738,21.009009 26.0661198,21.009009 C25.8414119,21.009009 25.616704,21.1211211 25.50435,21.2332332 C25.50435,21.2332332 25.50435,21.2332332 25.391996,21.3453453 C25.2796421,21.4574575 25.2796421,21.4574575 25.2796421,21.5695696 L25.1672881,21.6816817 C25.2796421,21.6816817 25.2796421,21.7937938 25.2796421,21.7937938 C25.391996,21.7937938 25.50435,21.7937938 25.616704,21.6816817 L25.616704,21.4574575 C25.7290579,21.4574575 25.7290579,21.3453453 25.8414119,21.3453453 C26.0661198,21.3453453 26.1784738,21.5695696 26.0661198,21.6816817 L25.9537658,21.6816817 C25.8414119,21.7937938 25.7290579,22.018018 25.616704,22.018018 C25.391996,22.1301301 25.0549341,22.1301301 24.8302262,22.2422422 C24.7178722,22.3543544 24.7178722,22.4664665 24.6055183,22.4664665 C24.4931643,22.4664665 24.3808103,22.5785786 24.2684564,22.4664665 L24.2684564,22.4664665 C24.2684564,22.5785786 24.0437484,22.4664665 23.9313945,22.4664665 C23.9313945,22.4664665 23.9313945,22.3543544 23.8190405,22.2422422 L23.7066866,22.2422422 L23.7066866,22.1301301 L22.8078548,22.1301301 C22.6955009,22.1301301 22.6955009,22.2422422 22.6955009,22.2422422 L22.5831469,22.3543544 C22.4707929,22.4664665 22.358439,22.4664665 22.246085,22.4664665 C22.133731,22.4664665 22.0213771,22.4664665 21.9090231,22.5785786 C21.6843152,22.5785786 21.5719612,22.8028028 21.4596073,22.9149149 C21.3472533,23.027027 21.2348993,23.027027 21.1225454,23.027027 L21.1225454,23.1391391 C20.8978374,23.1391391 20.7854835,23.4754755 20.6731295,23.6996997 L20.6731295,23.9239239 C20.5607755,24.036036 20.5607755,24.2602603 20.3360676,24.3723724 L20.3360676,24.4844845 C20.4484216,24.7087087 20.6731295,24.8208208 20.8978374,25.045045 C20.8978374,25.1571572 21.0101914,25.1571572 21.0101914,25.1571572 C21.1225454,25.2692693 21.1225454,25.3813814 21.2348993,25.6056056 C21.3472533,25.8298298 21.5719612,25.8298298 21.7966692,25.8298298 C21.9090231,25.8298298 22.0213771,25.9419419 22.0213771,25.9419419 C22.246085,25.9419419 22.5831469,26.0540541 22.8078548,25.9419419 C23.1449167,26.0540541 23.5943326,25.9419419 23.9313945,26.0540541 C24.0437484,26.0540541 24.0437484,26.1661662 24.0437484,26.2782783 C24.1561024,26.3903904 24.2684564,26.6146146 24.3808103,26.7267267 C24.4931643,26.8388388 24.7178722,26.8388388 24.8302262,26.8388388 C24.8302262,26.8388388 24.8302262,26.950951 24.9425802,27.0630631 C24.9425802,27.1751752 24.9425802,27.1751752 25.0549341,27.2872873 C25.1672881,27.3993994 25.1672881,27.3993994 25.1672881,27.5115115 C25.1672881,27.6236236 25.0549341,27.7357357 25.0549341,27.95996 L25.0549341,28.1841842 C25.2796421,28.4084084 25.50435,28.6326326 25.7290579,28.7447447 C25.7290579,28.7447447 25.8414119,28.7447447 25.7290579,28.8568569 C25.8414119,28.8568569 25.8414119,28.968969 25.9537658,29.0810811 C25.9537658,29.1931932 25.9537658,29.1931932 26.0661198,29.3053053 C26.1784738,29.4174174 26.2908277,29.5295295 26.4031817,29.6416416 C26.5155357,29.7537538 26.7402436,29.7537538 26.8525976,29.7537538 C26.8525976,29.7537538 26.9649515,29.7537538 26.9649515,29.8658659 C27.0773055,29.8658659 27.3020134,29.977978 27.4143674,29.8658659 C27.5267214,29.7537538 27.5267214,29.6416416 27.6390753,29.6416416 C27.7514293,29.5295295 27.9761372,29.5295295 28.0884912,29.5295295 C28.0884912,29.5295295 28.2008451,29.5295295 28.2008451,29.4174174 C28.2008451,29.3053053 28.3131991,29.3053053 28.3131991,29.1931932 C28.4255531,29.1931932 28.537907,29.0810811 28.650261,29.0810811 C28.8749689,28.968969 28.9873229,28.7447447 29.2120308,28.6326326 C29.4367388,28.5205205 29.6614467,28.5205205 29.7738006,28.4084084 C29.8861546,28.1841842 29.7738006,27.95996 29.7738006,27.7357357 C29.7738006,27.6236236 29.8861546,27.5115115 29.8861546,27.3993994 L29.8861546,26.8388388 C29.8861546,26.7267267 29.7738006,26.6146146 29.7738006,26.5025025 C29.7738006,26.3903904 29.8861546,26.3903904 29.9985086,26.3903904 C30.1108625,26.2782783 30.1108625,26.0540541 30.2232165,25.9419419 C30.2232165,25.9419419 30.3355705,25.9419419 30.3355705,25.8298298 C30.4479244,25.8298298 30.3355705,25.7177177 30.3355705,25.6056056 C30.2232165,25.6056056 30.2232165,25.4934935 30.2232165,25.4934935 C30.1108625,25.2692693 29.8861546,25.045045 29.6614467,24.9329329 C29.5490927,24.9329329 29.5490927,24.8208208 29.5490927,24.8208208 L29.5490927,24.7087087 C29.4367388,24.7087087 29.5490927,24.5965966 29.4367388,24.5965966 L29.5490927,24.5965966 L29.5490927,24.5965966 L29.5490927,24.5965966 C29.6614467,24.4844845 29.6614467,24.2602603 29.7738006,24.1481481 C29.7738006,24.1481481 29.8861546,24.1481481 29.8861546,24.036036 L29.8861546,23.6996997 C29.7738006,23.5875876 29.8861546,23.3633634 29.8861546,23.2512513 C29.8861546,22.9149149 29.8861546,22.6906907 29.7738006,22.3543544 C29.7738006,22.2422422 29.6614467,22.2422422 29.5490927,22.2422422 C29.5490927,22.2422422 29.5490927,22.3543544 29.4367388,22.3543544 C29.4367388,22.3543544 29.4367388,22.4664665 29.3243848,22.5785786 C29.3243848,22.6906907 29.0996769,22.6906907 29.0996769,22.8028028 C29.0996769,22.9149149 29.0996769,22.9149149 28.9873229,23.027027 L28.8749689,23.1391391 C29.3243848,22.8028028 29.2120308,22.8028028 29.2120308,22.9149149 L28.8749689,22.9149149 C28.2008451,22.6906907 27.6390753,22.4664665 27.0773055,22.3543544 L27.0773055,22.3543544 L27.4143674,22.3543544 C27.5267214,22.3543544 27.4143674,22.2422422 27.4143674,22.2422422 C27.5267214,22.2422422 27.6390753,22.3543544 27.7514293,22.4664665 C27.9761372,22.5785786 28.3131991,22.5785786 28.537907,22.6906907 C28.762615,22.6906907 28.8749689,22.9149149 29.0996769,22.9149149 C29.3243848,22.9149149 29.4367388,22.8028028 29.5490927,22.8028028 C29.5490927,22.8028028 29.5490927,22.8028028 29.5490927,22.6906907 C29.6614467,22.5785786 29.7738006,22.4664665 29.7738006,22.3543544 L29.7738006,22.018018 L29.8861546,21.9059059 L29.8861546,21.4574575 C29.9985086,21.4574575 29.9985086,21.3453453 29.9985086,21.3453453 C29.9985086,21.3453453 29.9985086,21.3453453 29.9985086,21.2332332 L29.9985086,21.009009 C29.9985086,20.7847848 29.9985086,20.5605606 29.8861546,20.4484484 C29.8861546,20.3363363 29.7738006,20.3363363 29.6614467,20.3363363 C29.6614467,20.3363363 29.6614467,20.4484484 29.5490927,20.4484484 C29.4367388,20.4484484 29.3243848,20.4484484 29.3243848,20.5605606 C29.2120308,20.5605606 29.2120308,20.6726727 29.2120308,20.6726727 C29.0996769,20.7847848 28.9873229,20.8968969 28.762615,20.8968969 C28.650261,20.8968969 28.537907,20.8968969 28.537907,20.7847848 C28.4255531,20.5605606 28.762615,20.5605606 28.9873229,20.5605606 L29.0996769,20.4484484 C29.0996769,20.3363363 29.2120308,20.2242242 29.3243848,20.2242242 L29.5490927,20.2242242 C29.6614467,20.2242242 29.6614467,20.1121121 29.7738006,20.1121121 C29.7738006,20.1121121 29.7738006,20 29.8861546,19.8878879 C29.8861546,19.7757758 29.9985086,19.7757758 30.1108625,19.6636637 C30.2232165,19.4394394 30.2232165,19.2152152 30.3355705,18.990991 C30.4479244,18.8788789 30.3355705,19.1031031 30.4479244,19.2152152 C30.5602784,19.3273273 30.6726324,19.3273273 30.7849863,19.2152152 C30.8973403,19.1031031 30.7849863,18.990991 30.8973403,18.990991 L31.0096943,18.990991 C31.1220482,18.990991 31.1220482,19.1031031 31.2344022,19.1031031 C31.2344022,19.1031031 31.3467562,18.990991 31.4591101,18.990991 L31.796172,18.990991 C32.0208799,18.8788789 32.4702958,18.990991 32.4702958,18.7667668 C32.4702958,18.4304304 32.1332339,18.0940941 31.796172,17.981982 C31.5714641,17.8698699 31.683818,17.5335335 31.4591101,17.3093093 C31.3467562,17.3093093 31.4591101,17.1971972 31.3467562,17.0850851 C31.3467562,17.0850851 31.3467562,17.0850851 31.2344022,16.972973 L31.1220482,16.8608609 L31.1220482,16.3003003 C31.1220482,16.1881882 31.2344022,16.1881882 31.3467562,16.1881882 C31.4591101,16.0760761 31.5714641,16.0760761 31.5714641,15.963964 L31.5714641,15.5155155 L31.683818,15.4034034 C31.908526,15.4034034 32.2455879,15.5155155 32.4702958,15.2912913 C32.5826498,15.2912913 32.5826498,15.1791792 32.5826498,15.0670671 C32.8073577,14.8428428 33.0320656,14.6186186 33.0320656,14.1701702 C32.9197117,14.2822823 33.0320656,14.2822823 33.0320656,14.0580581 C33.1444196,14.1701702 33.1444196,14.0580581 33.0320656,14.0580581 M27.9761372,20.1121121 C27.9761372,20.1121121 27.9761372,20.2242242 27.9761372,20.1121121 C27.8637832,20.2242242 27.8637832,20.2242242 27.7514293,20.1121121 C27.7514293,20 27.6390753,20 27.6390753,19.8878879 C27.5267214,19.8878879 27.5267214,19.8878879 27.5267214,20 L27.3020134,20 C27.3020134,19.8878879 27.1896595,19.8878879 27.1896595,19.7757758 C27.0773055,19.6636637 27.1896595,19.5515516 27.3020134,19.5515516 C27.4143674,19.5515516 27.4143674,19.5515516 27.4143674,19.6636637 L27.4143674,19.6636637 C27.4143674,19.6636637 27.4143674,19.6636637 27.4143674,19.7757758 C27.5267214,19.8878879 27.5267214,19.7757758 27.6390753,19.7757758 L27.9761372,19.7757758 L27.9761372,19.7757758 C27.9761372,19.8878879 28.0884912,20 27.9761372,20.1121121 L27.9761372,20.1121121" id="Shape"></path>
                <path d="M17.5272185,39.6196196 C18.98782,37.4894895 23.3696247,35.2472472 27.6390753,35.2472472 C31.908526,35.2472472 36.6273925,37.7137137 38.4250559,36.3683684 C38.4250559,36.3683684 36.5150385,37.9379379 32.6950037,37.9379379 C28.8749689,37.9379379 27.4143674,36.032032 24.8302262,36.032032 C22.133731,36.032032 19.4372359,38.1621622 18.2013423,39.955956 L17.5272185,39.6196196 Z" id="Shape"></path>
                <path d="M31.1220482,34.9109109 C31.1220482,34.9109109 32.3579418,34.1261261 33.0320656,32.7807808 C33.7061894,31.4354354 35.3914989,29.1931932 37.1891623,27.8478478 C37.1891623,27.8478478 35.2791449,34.014014 33.2567736,34.2382382 C33.2567736,34.2382382 32.9197117,34.4624625 33.4814815,34.3503504 C34.0432513,34.2382382 36.6273925,33.3413413 37.5262242,33.1171171 C38.4250559,33.005005 40.6721352,32.4444444 41.233905,31.8838839 C41.7956749,31.4354354 42.1327368,31.4354354 42.1327368,31.4354354 C42.1327368,31.4354354 39.6609495,35.5835836 35.166791,35.5835836 C35.166791,35.5835836 32.9197117,35.4714715 31.1220482,34.9109109" id="Shape"></path>
                <path d="M36.4026846,32.7807808 C36.4026846,32.7807808 36.8521004,32.1081081 36.9644544,30.8748749 C37.0768084,29.6416416 37.8632861,26.8388388 39.9980114,23.8118118 C39.9980114,23.8118118 40.3350733,28.6326326 37.8632861,31.6596597 C37.8632861,31.6596597 37.7509321,32.1081081 37.9756401,31.7717718 C38.312702,31.4354354 39.7733035,29.6416416 43.1439224,27.3993994 C43.1439224,27.3993994 44.8292319,25.9419419 44.9415859,25.4934935 C44.9415859,25.3813814 43.5933383,32.3323323 36.4026846,32.7807808" id="Shape"></path>
                <path d="M40.5597813,28.1841842 C40.5597813,28.1841842 40.7844892,27.3993994 40.7844892,26.7267267 C40.7844892,26.0540541 40.4474273,23.8118118 40.4474273,22.8028028 C40.4474273,21.7937938 40.5597813,19.8878879 41.346259,18.6546547 C41.346259,18.6546547 41.346259,19.7757758 41.5709669,20.2242242 C41.7956749,20.6726727 42.1327368,22.6906907 42.1327368,23.027027 C42.1327368,23.2512513 42.0203828,24.9329329 41.6833209,25.8298298 C41.6833209,25.8298298 42.0203828,25.6056056 42.3574447,24.9329329 C42.6945066,24.2602603 43.5933383,23.027027 44.8292319,21.7937938 C46.0651255,20.5605606 46.4021874,19.4394394 46.4021874,19.4394394 C46.4021874,19.4394394 46.7392493,21.6816817 45.0539398,24.036036 C43.3686304,26.3903904 42.6945066,26.0540541 41.7956749,26.950951 C41.7956749,26.950951 40.6721352,28.1841842 40.5597813,28.1841842" id="Shape"></path>
                <path d="M43.1439224,22.6906907 C43.1439224,22.6906907 43.1439224,21.3453453 42.8068606,20.8968969 C42.5821526,20.4484484 41.0091971,17.7577578 41.346259,14.2822823 C41.346259,14.2822823 41.5709669,14.0580581 42.0203828,15.4034034 C42.4697987,16.7487487 43.1439224,17.1971972 43.3686304,18.5425425 C43.5933383,19.8878879 43.5933383,20.4484484 43.5933383,20.4484484 C43.5933383,20.4484484 43.7056923,20.6726727 43.7056923,20.4484484 C43.7056923,20.3363363 43.8180462,18.4304304 44.604524,16.8608609 C45.3910017,15.1791792 46.4021874,13.6096096 46.2898335,12.4884885 C46.2898335,12.4884885 46.7392493,12.4884885 46.6268954,14.2822823 C46.7392493,16.0760761 46.2898335,19.2152152 43.1439224,22.6906907" id="Shape"></path>
                <path d="M44.0427542,17.3093093 C44.0427542,17.3093093 43.4809843,16.0760761 43.1439224,15.6276276 C42.8068606,15.1791792 40.1103654,11.4794795 39.8856575,9.68568569 C39.8856575,9.68568569 40.1103654,9.57357357 40.3350733,10.022022 C40.5597813,10.4704705 41.7956749,11.7037037 42.0203828,11.9279279 C42.2450907,12.1521522 43.5933383,13.4974975 43.7056923,15.0670671 C43.7056923,15.0670671 43.8180462,15.1791792 43.5933383,12.7127127 C43.3686304,10.2462462 44.3798161,8.56456456 43.4809843,6.77077077 C43.4809843,6.77077077 44.716878,6.99499499 45.3910017,12.1521522 C45.3910017,12.1521522 45.3910017,13.9459459 44.3798161,16.1881882 C44.49217,16.0760761 44.1551081,17.3093093 44.0427542,17.3093093" id="Shape"></path>
                <path d="M43.0315685,11.5915916 C43.0315685,11.5915916 42.0203828,10.5825826 41.233905,10.1341341 C40.4474273,9.68568569 37.9756401,7.21921922 37.5262242,5.31331331 C37.5262242,5.31331331 37.6385782,5.08908909 38.4250559,6.0980981 C38.9868258,6.88288288 39.6609495,6.54654655 41.458613,8.78878879 C41.458613,8.78878879 41.6833209,9.34934935 41.7956749,9.23723724 C41.9080288,9.23723724 41.6833209,8.67667668 41.6833209,8.67667668 C41.6833209,8.67667668 41.5709669,7.33133133 41.5709669,6.88288288 C41.5709669,6.43443443 40.7844892,3.74374374 40.5597813,3.40740741 C40.5597813,3.40740741 43.0315685,4.75275275 43.3686304,8.67667668 C43.2562764,8.67667668 43.1439224,11.4794795 43.0315685,11.5915916" id="Shape"></path>
                <path d="M41.0091971,7.44344344 C41.0091971,7.44344344 41.1215511,4.08008008 36.7397465,2.28628629 C36.7397465,2.28628629 38.312702,5.42542543 39.4362416,6.21021021 C40.5597813,6.99499499 41.0091971,7.44344344 41.0091971,7.44344344" id="Shape"></path>
                <path d="M29.5490927,39.6196196 C28.0884912,37.4894895 23.7066866,35.2472472 19.4372359,35.2472472 C15.1677852,35.2472472 10.4489187,37.7137137 8.65125528,36.3683684 C8.65125528,36.3683684 10.5612727,37.9379379 14.3813075,37.9379379 C18.2013423,37.9379379 19.6619438,36.032032 22.246085,36.032032 C24.8302262,36.032032 27.6390753,38.1621622 28.8749689,39.955956 L29.5490927,39.6196196 Z" id="Shape"></path>
                <path d="M15.954263,34.9109109 C15.954263,34.9109109 14.7183694,34.1261261 14.0442456,32.7807808 C13.3701218,31.4354354 11.6848123,29.1931932 9.88714889,27.8478478 C9.88714889,27.8478478 11.7971663,34.014014 13.8195377,34.2382382 C13.8195377,34.2382382 14.1565996,34.4624625 13.5948297,34.3503504 C13.0330599,34.2382382 10.4489187,33.3413413 9.550087,33.1171171 C8.65125528,33.005005 6.40417599,32.4444444 5.84240616,31.8838839 C5.39299031,31.4354354 4.94357445,31.4354354 4.94357445,31.4354354 C4.94357445,31.4354354 7.41536167,35.5835836 11.9095203,35.5835836 C11.9095203,35.5835836 14.1565996,35.4714715 15.954263,34.9109109" id="Shape"></path>
                <path d="M10.6736266,32.7807808 C10.6736266,32.7807808 10.2242108,32.1081081 10.1118568,30.8748749 C9.99950286,29.6416416 9.21302511,26.8388388 7.07829978,23.8118118 C7.07829978,23.8118118 6.74123788,28.6326326 9.21302511,31.6596597 C9.21302511,31.6596597 9.32537907,32.1081081 9.10067114,31.7717718 C8.76360925,31.4354354 7.30300771,29.6416416 3.93238876,27.3993994 C3.93238876,27.3993994 2.24707929,25.9419419 2.13472533,25.4934935 C2.13472533,25.3813814 3.48297291,32.3323323 10.6736266,32.7807808" id="Shape"></path>
                <path d="M6.51652995,28.1841842 C6.51652995,28.1841842 6.29182202,27.3993994 6.29182202,26.7267267 C6.29182202,26.0540541 6.62888392,23.8118118 6.62888392,22.8028028 C6.62888392,21.7937938 6.51652995,19.8878879 5.7300522,18.6546547 C5.7300522,18.6546547 5.7300522,19.7757758 5.50534427,20.2242242 C5.28063634,20.6726727 4.94357445,22.6906907 4.94357445,23.027027 C4.94357445,23.2512513 5.05592841,24.9329329 5.39299031,25.8298298 C5.39299031,25.8298298 5.05592841,25.6056056 4.71886652,24.9329329 C4.38180462,24.2602603 3.48297291,23.027027 2.24707929,21.7937938 C1.01118568,20.5605606 0.674123788,19.4394394 0.674123788,19.4394394 C0.674123788,19.4394394 0.337061894,21.6816817 2.02237136,24.036036 C3.70768084,26.3903904 4.38180462,26.0540541 5.28063634,26.950951 C5.39299031,26.950951 6.40417599,28.1841842 6.51652995,28.1841842" id="Shape"></path>
                <path d="M3.93238876,22.6906907 C3.93238876,22.6906907 4.04474273,21.3453453 4.26945066,20.8968969 C4.49415859,20.4484484 6.06711409,17.7577578 5.7300522,14.2822823 C5.7300522,14.2822823 5.50534427,14.0580581 5.05592841,15.4034034 C4.60651255,16.7487487 3.93238876,17.1971972 3.70768084,18.5425425 C3.37061894,19.8878879 3.37061894,20.4484484 3.37061894,20.4484484 C3.37061894,20.4484484 3.25826498,20.6726727 3.25826498,20.4484484 C3.25826498,20.3363363 3.14591101,18.4304304 2.35943326,16.8608609 C1.57295551,15.1791792 0.561769824,13.6096096 0.674123788,12.4884885 C0.674123788,12.4884885 0.224707929,12.4884885 0.337061894,14.2822823 C0.337061894,16.0760761 0.786477753,19.2152152 3.93238876,22.6906907" id="Shape"></path>
                <path d="M3.03355705,17.3093093 C3.03355705,17.3093093 3.59532687,16.0760761 3.93238876,15.6276276 C4.26945066,15.1791792 6.96594581,11.4794795 7.19065374,9.68568569 C7.19065374,9.68568569 6.96594581,9.57357357 6.74123788,10.022022 C6.51652995,10.4704705 5.28063634,11.7037037 5.05592841,11.9279279 C4.83122048,12.1521522 3.48297291,13.4974975 3.37061894,15.0670671 C3.37061894,15.0670671 3.25826498,15.1791792 3.48297291,12.7127127 C3.70768084,10.2462462 2.69649515,8.56456456 3.59532687,6.77077077 C3.59532687,6.77077077 2.35943326,6.99499499 1.68530947,12.1521522 C1.68530947,12.1521522 1.68530947,13.9459459 2.69649515,16.1881882 C2.58414119,16.0760761 2.92120308,17.3093093 3.03355705,17.3093093" id="Shape"></path>
                <path d="M4.04474273,11.5915916 C4.04474273,11.5915916 5.05592841,10.5825826 5.84240616,10.1341341 C6.62888392,9.68568569 9.10067114,7.21921922 9.550087,5.31331331 C9.550087,5.31331331 9.43773304,5.08908909 8.65125528,6.0980981 C8.08948546,6.88288288 7.41536167,6.54654655 5.61769824,8.78878879 C5.61769824,8.78878879 5.39299031,9.34934935 5.28063634,9.23723724 C5.16828238,9.23723724 5.39299031,8.67667668 5.39299031,8.67667668 C5.39299031,8.67667668 5.7300522,7.21921922 5.7300522,6.77077077 C5.7300522,6.32232232 6.51652995,3.63163163 6.74123788,3.2952953 C6.74123788,3.2952953 4.26945066,4.64064064 3.93238876,8.56456456 C3.8200348,8.67667668 3.93238876,11.4794795 4.04474273,11.5915916" id="Shape"></path>
                <path d="M6.06711409,7.44344344 C6.06711409,7.44344344 5.95476013,4.08008008 10.3365648,2.28628629 C10.3365648,2.28628629 8.76360925,5.42542543 7.6400696,6.21021021 C6.51652995,6.99499499 6.06711409,7.44344344 6.06711409,7.44344344" id="Shape"></path>
            </g>
        </g>
    </g>
</svg>