<?xml version="1.0" standalone="no"?>
<!DOCTYPE svg PUBLIC "-//W3C//DTD SVG 20010904//EN"
 "http://www.w3.org/TR/2001/REC-SVG-20010904/DTD/svg10.dtd">
<svg version="1.0" xmlns="http://www.w3.org/2000/svg"
 width="16.000000pt" height="16.000000pt" viewBox="0 0 16.000000 16.000000"
 preserveAspectRatio="xMidYMid meet">
<metadata>
Created by potrace 1.11, written by Peter Selinger 2001-2013
</metadata>
<g transform="translate(0.000000,16.000000) scale(0.002286,-0.002286)"
fill="#000000" stroke="none">
<path d="M3338 6365 c-2 -1 -37 -5 -78 -9 -41 -3 -88 -9 -105 -12 -308 -54
-520 -123 -754 -245 -231 -121 -394 -241 -587 -434 -206 -205 -329 -375 -454
-624 -140 -279 -214 -545 -246 -881 -5 -53 -5 -351 0 -380 3 -14 7 -52 10 -85
24 -249 113 -546 240 -799 313 -621 873 -1071 1546 -1241 52 -13 111 -26 130
-29 19 -3 44 -8 56 -10 169 -35 514 -41 720 -12 194 27 368 71 541 138 662
255 1185 803 1412 1475 31 93 75 263 87 337 3 21 7 47 9 58 3 11 7 46 10 77 3
31 8 76 11 101 6 55 6 318 0 379 -32 328 -107 595 -245 871 -124 248 -251 422
-460 631 -232 231 -468 389 -766 514 -179 76 -432 144 -587 161 -29 3 -64 8
-78 10 -25 6 -407 14 -412 9z m322 -69 c52 -4 106 -8 120 -10 14 -2 50 -6 80
-10 30 -4 71 -12 90 -16 19 -5 48 -11 63 -14 51 -9 210 -57 308 -92 126 -46
319 -144 444 -225 103 -67 279 -205 327 -256 l28 -29 -151 -149 c-144 -144
-150 -149 -146 -115 6 47 -8 80 -33 80 -15 0 -21 9 -26 39 -7 46 -77 130 -111
134 -11 2 -38 15 -60 29 -28 20 -56 28 -108 33 -62 6 -73 5 -97 -14 -14 -12
-29 -21 -32 -21 -3 0 -33 13 -68 30 -137 64 -357 131 -479 146 -30 3 -58 9
-62 11 -5 3 -56 7 -115 10 -59 3 -109 7 -111 9 -3 3 -5 99 -6 215 0 176 2 212
14 219 8 4 20 6 25 5 6 -2 54 -6 106 -9z m-210 -215 l0 -221 -47 -1 c-51 0
-120 -6 -162 -14 -13 -2 -45 -7 -70 -11 -199 -27 -509 -145 -691 -263 -80 -52
-209 -149 -255 -193 l-40 -38 -153 153 -153 152 61 57 c34 32 75 68 92 80 16
13 51 40 77 60 235 182 650 369 921 413 19 3 42 8 50 10 8 2 38 7 65 11 28 3
67 9 89 13 21 3 79 8 127 9 l89 3 0 -220z m-2 -474 l2 -187 -45 -1 c-53 -2
-63 -3 -130 -14 -74 -11 -76 -12 -125 -25 -25 -7 -52 -13 -60 -15 -55 -11
-240 -92 -325 -143 -69 -41 -201 -140 -229 -171 -11 -11 -24 -21 -30 -21 -6 0
-70 58 -141 130 l-129 129 49 46 c106 99 288 219 434 286 86 41 229 96 266
104 11 2 46 11 77 19 92 25 284 52 358 50 l25 0 3 -187z m262 178 c138 -17
277 -49 400 -93 91 -32 171 -67 182 -78 4 -4 3 -15 -3 -25 -8 -16 -6 -19 14
-19 26 0 45 -31 68 -107 7 -24 20 -45 30 -48 14 -5 17 -17 16 -68 -1 -34 4
-74 11 -89 l11 -28 35 21 c27 15 39 18 54 10 29 -15 48 -51 55 -99 5 -39 2
-45 -31 -77 -27 -25 -40 -31 -49 -23 -15 12 -17 48 -3 48 6 0 10 5 10 10 0 6
-7 10 -15 10 -8 0 -15 3 -16 8 -4 46 -23 72 -50 72 -10 0 -21 5 -24 10 -3 6
-19 10 -34 10 -23 0 -35 10 -65 55 -34 51 -56 69 -56 45 0 -5 4 -10 9 -10 11
0 22 -30 26 -69 1 -14 6 -34 10 -43 10 -26 -3 -22 -65 17 -35 22 -50 35 -40
39 37 11 60 13 60 5 0 -5 5 -9 10 -9 12 0 2 20 -28 59 -18 23 -20 23 -43 7
-13 -9 -33 -16 -44 -16 -12 0 -26 -5 -32 -11 -8 -8 -16 -6 -29 9 -9 11 -22 18
-29 16 -7 -3 -45 6 -84 20 -120 42 -321 79 -431 79 -8 0 -17 3 -20 8 -4 6 -5
309 -1 355 1 12 93 11 191 -1z m1526 -260 c275 -305 469 -694 548 -1100 14
-73 18 -99 31 -205 2 -19 7 -74 10 -122 l5 -88 -223 0 -223 0 1 23 c1 28 -11
167 -20 227 -23 155 -88 376 -146 492 -27 56 -26 72 6 73 32 0 2 83 -40 111
-14 9 -25 22 -25 30 0 22 -41 84 -56 84 -8 0 -14 7 -14 16 0 9 -9 18 -20 21
-11 3 -20 12 -20 19 0 8 -10 18 -21 23 -12 4 -34 25 -48 47 -15 21 -41 48 -58
59 -17 11 -37 31 -45 45 -15 25 -14 27 131 173 80 81 149 147 153 147 3 0 37
-34 74 -75z m-3251 -85 l149 -150 -39 -42 c-22 -23 -42 -45 -45 -48 -3 -3 -21
-25 -40 -50 -19 -25 -37 -47 -41 -50 -21 -16 -138 -211 -183 -305 -67 -139
-147 -381 -160 -487 -4 -26 -10 -67 -15 -91 -4 -24 -9 -77 -10 -117 -1 -41 -4
-77 -7 -82 -3 -4 -99 -8 -214 -8 l-210 0 5 78 c5 85 13 166 21 227 13 96 65
315 94 395 110 304 229 519 409 740 54 66 123 140 131 140 3 0 73 -67 155
-150z m1465 -285 l0 -203 -62 -7 c-193 -22 -354 -95 -544 -246 -6 -5 -64 46
-153 135 l-143 144 68 56 c235 195 523 310 807 322 l27 2 0 -203z m255 184
c250 -40 525 -166 683 -314 l53 -50 -140 -139 -140 -140 -59 47 c-146 114
-357 195 -547 209 l-40 3 0 195 c-1 107 0 198 2 201 4 8 100 2 188 -12z
m-1281 -394 c-228 -276 -352 -569 -368 -865 l-3 -65 -187 -3 -188 -2 5 87 c25
399 181 777 452 1086 l50 57 132 -132 132 -132 -25 -31z m2216 102 c0 -8 9
-22 20 -32 11 -10 20 -13 20 -7 0 27 28 9 49 -31 22 -44 66 -78 88 -70 6 2 16
-5 22 -16 7 -12 24 -21 44 -23 27 -3 41 -15 92 -85 33 -45 68 -85 78 -88 13
-5 28 3 51 29 17 20 34 36 38 36 3 0 20 -33 36 -72 81 -197 126 -386 139 -590
l5 -88 -186 0 c-102 0 -186 3 -187 8 0 4 -2 32 -5 62 -2 30 -8 84 -14 120 -9
53 -8 73 5 109 11 33 12 47 4 57 -14 17 -36 18 -42 2 -3 -8 -6 -6 -6 5 -2 30
-83 240 -108 278 -16 25 -22 44 -18 60 6 26 -24 69 -49 69 -15 0 -39 33 -69
93 -11 20 -23 37 -29 37 -5 0 -25 17 -44 37 l-35 36 38 39 c38 39 63 49 63 25z
m-132 -138 c5 -11 12 -20 17 -19 5 1 17 -12 26 -30 10 -18 26 -38 37 -46 25
-17 82 -102 82 -122 0 -7 -9 -25 -19 -39 -25 -31 -20 -44 27 -68 71 -38 99
-74 132 -170 l18 -53 -23 -12 c-12 -7 -33 -31 -45 -54 -26 -46 -57 -75 -81
-76 -24 0 -30 23 -13 56 12 22 13 33 3 56 -27 66 -81 68 -130 6 -29 -36 -32
-37 -45 -21 -18 24 -18 44 1 37 32 -13 13 22 -22 41 -26 14 -39 30 -45 53 -6
22 -14 32 -28 32 -10 0 -22 5 -25 10 -4 6 -12 9 -19 8 -6 -2 -13 0 -14 5 -1 4
1 7 4 6 11 -1 22 24 17 38 -3 7 -16 13 -28 13 -18 0 -23 -5 -20 -20 2 -11 2
-20 0 -20 -2 0 -27 30 -56 66 l-52 66 139 139 c76 76 142 139 147 139 4 0 11
-9 15 -21z m-1866 -126 c76 -76 138 -140 138 -144 0 -3 -11 -19 -25 -35 -44
-49 -114 -159 -140 -219 -30 -66 -46 -85 -74 -85 -18 0 -49 -37 -42 -50 1 -3
-16 -10 -39 -17 -23 -7 -49 -18 -57 -24 -21 -18 -64 -115 -70 -160 l-6 -39
-105 0 -104 0 6 68 c28 297 141 569 331 796 21 25 41 46 44 46 3 0 68 -62 143
-137z m808 -89 l0 -184 -25 0 c-14 0 -26 0 -27 1 -14 3 -165 -61 -206 -89
l-54 -35 -129 129 c-143 143 -138 125 -54 190 61 47 143 91 235 124 83 31 225
61 248 52 9 -3 12 -50 12 -188z m185 182 c91 -12 194 -45 278 -87 52 -27 153
-95 179 -121 24 -24 15 -40 -17 -28 -28 11 -79 -2 -106 -26 -10 -9 -25 -14
-35 -10 -9 3 -22 2 -29 -4 -9 -8 -15 -8 -20 0 -8 13 -35 13 -35 0 0 -6 11 -15
25 -20 14 -5 25 -15 25 -21 0 -6 -6 -9 -14 -6 -20 8 -69 -40 -62 -59 6 -15
-19 -74 -31 -74 -3 0 -34 14 -69 31 -56 28 -62 33 -47 44 9 7 18 25 19 39 1
35 -26 34 -68 -3 -29 -25 -38 -28 -73 -22 l-39 6 -1 180 c0 99 0 183 2 186 3
7 42 5 118 -5z m400 -286 c4 -6 -4 -21 -16 -34 -18 -19 -28 -22 -42 -15 -17
10 -17 12 5 34 25 26 43 31 53 15z m166 -31 c44 -53 45 -57 14 -52 -15 3 -25
1 -25 -6 0 -7 -13 -17 -29 -22 -33 -12 -47 -35 -31 -54 7 -9 8 -15 1 -19 -6
-4 -14 8 -19 26 -7 25 -4 41 9 67 11 21 15 40 10 49 -8 14 14 52 30 52 3 0 22
-19 40 -41z m-1239 -96 c113 -114 126 -130 114 -145 -10 -13 -27 -18 -68 -18
-30 0 -59 -5 -66 -12 -9 -9 -12 -9 -12 1 0 6 -13 26 -29 44 -27 28 -36 31 -98
33 -48 2 -72 -1 -84 -12 -20 -18 -50 -8 -42 14 19 51 137 221 153 222 3 0 62
-57 132 -127z m973 77 c-3 -5 -14 -10 -23 -10 -15 0 -15 2 -2 10 20 13 33 13
25 0z m-500 -110 c3 -6 -1 -7 -9 -4 -18 7 -21 14 -7 14 6 0 13 -4 16 -10z
m181 -8 c-10 -2 -22 0 -28 6 -6 6 0 7 19 4 21 -5 23 -7 9 -10z m-249 2 c-3 -3
-12 -4 -19 -1 -8 3 -5 6 6 6 11 1 17 -2 13 -5z m-97 -44 c0 -5 -5 -10 -11 -10
-6 0 -8 -8 -5 -18 6 -19 -27 -39 -94 -58 -23 -6 -24 -6 -10 11 17 21 101 84
113 85 4 0 7 -4 7 -10z m169 -94 c9 -3 32 -8 51 -11 40 -7 90 -51 93 -83 0
-12 7 -24 14 -26 7 -3 10 1 6 10 -8 21 24 18 36 -3 5 -10 12 -39 16 -64 6 -37
4 -47 -9 -52 -25 -10 -19 -53 14 -89 17 -18 28 -38 26 -45 -9 -22 10 -23 47
-3 37 20 37 20 37 0 0 -15 -7 -20 -26 -20 -14 0 -34 -5 -45 -11 -20 -10 -20
-12 -4 -29 17 -18 16 -19 -5 -15 -18 3 -20 2 -10 -10 7 -8 16 -12 21 -9 14 8
10 -19 -6 -40 -8 -11 -15 -28 -15 -38 0 -16 -7 -17 -59 -12 -51 5 -62 3 -80
-15 -12 -12 -21 -28 -21 -36 0 -27 -1 -30 -15 -51 -7 -12 -20 -43 -28 -70 -13
-44 -17 -49 -46 -52 -72 -7 -277 92 -252 122 19 23 103 58 155 65 l51 6 32 65
c52 104 41 148 -38 157 -24 3 -48 10 -54 15 -7 8 -5 9 6 5 22 -7 43 8 36 27
-8 21 -40 20 -60 -1 -8 -10 -23 -38 -33 -63 -10 -25 -38 -70 -64 -100 -26 -30
-58 -72 -72 -92 l-25 -38 -36 61 c-19 34 -34 66 -31 73 2 6 24 11 49 11 35 0
45 -4 49 -20 7 -25 15 -16 61 64 34 61 35 65 18 83 -9 10 -23 16 -31 13 -8 -3
-12 0 -9 7 2 7 0 21 -4 30 -11 21 -1 48 17 48 9 0 13 -11 11 -36 -1 -21 3 -39
10 -41 7 -3 10 9 8 35 l-3 40 40 -6 c32 -4 40 -2 36 9 -3 9 -23 14 -57 16 -29
1 -59 4 -67 7 -23 9 -16 36 13 47 15 5 33 19 40 29 8 11 21 20 29 20 21 0 86
34 122 64 25 22 29 32 26 63 -3 34 -3 36 7 16 7 -13 19 -25 28 -27z m1396 -52
c-17 -42 -19 -73 -5 -94 9 -13 12 -13 24 3 13 17 14 16 19 -5 2 -13 5 -47 6
-75 l2 -53 -146 0 c-135 0 -145 1 -145 19 0 11 12 23 29 31 33 13 42 29 36 61
-7 34 13 49 64 49 42 1 81 17 81 34 0 7 42 66 47 66 2 0 -4 -16 -12 -36z
m-2337 -142 c13 -10 23 -30 25 -47 2 -29 0 -30 -41 -33 -53 -4 -93 19 -89 50
7 45 64 61 105 30z m590 -101 c2 -7 -4 -21 -14 -32 -22 -24 -12 -36 20 -21 29
13 66 5 66 -15 0 -10 -4 -11 -19 -3 -13 7 -22 7 -26 0 -3 -5 -17 -10 -31 -10
-14 0 -34 -5 -45 -10 -14 -8 -19 -7 -20 2 0 7 -2 29 -5 48 -2 19 -2 40 0 45 5
14 69 11 74 -4z m-1494 -52 c2 -2 6 -49 9 -104 9 -143 53 -369 92 -462 l14
-33 -39 0 c-23 0 -45 6 -52 15 -37 44 -38 45 -63 33 -13 -6 -22 -15 -19 -20 3
-4 -3 -11 -13 -15 -10 -3 -26 -13 -35 -21 -16 -14 -19 -12 -33 22 -8 20 -21
36 -29 36 -17 0 -29 -27 -15 -36 6 -3 3 -11 -8 -20 -25 -18 -30 -17 -36 7 -5
18 -8 19 -20 8 -13 -12 -12 -16 9 -27 15 -8 24 -21 24 -37 0 -25 -19 -36 -21
-12 0 9 -2 9 -5 0 -3 -7 0 -21 6 -33 8 -16 8 -25 0 -35 -15 -18 6 -31 25 -15
10 8 15 9 15 2 0 -6 -4 -14 -10 -17 -15 -10 -7 -70 10 -70 8 0 15 -7 16 -15 2
-32 17 -60 41 -75 14 -9 27 -14 30 -11 3 3 -1 8 -10 12 -13 5 -14 9 -4 25 10
16 9 21 -3 29 -8 5 -12 10 -8 10 4 0 3 11 -2 24 -7 19 -5 26 7 30 10 4 27 -7
50 -33 27 -32 39 -39 61 -36 23 3 30 -1 39 -26 8 -21 20 -31 42 -35 17 -4 31
-10 31 -15 0 -5 7 -9 15 -9 8 0 26 -22 40 -49 37 -73 61 -86 124 -66 13 4 22
-2 30 -22 11 -27 45 -53 103 -79 15 -7 33 -22 40 -33 7 -12 18 -21 25 -21 7 0
24 -11 39 -25 l28 -26 -153 -152 -152 -152 -56 60 c-137 148 -282 366 -379
571 -50 105 -147 375 -157 439 -3 17 -10 50 -16 75 -21 92 -39 231 -46 357 -4
78 -4 82 18 85 30 4 397 1 401 -3z m453 -3 c3 -3 7 -23 8 -44 1 -20 5 -69 9
-107 l8 -70 -34 -2 c-20 0 -36 -8 -43 -19 -5 -10 -25 -32 -42 -49 -18 -18 -33
-39 -33 -48 0 -9 -4 -17 -8 -17 -4 0 -9 -42 -10 -92 -2 -110 -17 -140 -74
-146 -33 -3 -36 -1 -51 40 -24 62 -64 224 -72 288 -4 30 -9 58 -11 61 -6 11
-16 198 -11 206 6 9 355 9 364 -1z m241 5 c7 -1 -5 -34 -33 -86 -49 -93 -52
-107 -31 -147 17 -33 13 -38 -35 -38 -41 0 -38 -4 -54 74 -12 58 -17 189 -7
195 8 5 85 6 160 2z m236 -37 c9 -36 -6 -50 -53 -47 -22 1 -43 -2 -46 -8 -4
-5 -1 -9 4 -9 6 0 11 -15 11 -34 0 -19 5 -38 12 -42 13 -9 51 34 42 48 -4 5 4
8 17 6 19 -2 26 -14 40 -68 20 -78 59 -182 86 -230 48 -85 123 -190 135 -190
25 0 -7 -40 -132 -165 -129 -129 -141 -138 -156 -123 -18 18 -11 38 12 38 10
0 13 8 10 28 -2 15 -5 29 -7 32 -1 3 -3 14 -4 25 -2 23 -36 85 -47 85 -5 0 -8
29 -8 65 0 49 4 67 15 71 8 4 15 15 15 26 0 13 -5 18 -14 15 -13 -5 -18 10
-28 81 -1 6 -5 12 -10 12 -4 0 -8 10 -8 23 0 32 -9 38 -32 26 -26 -14 -34 -5
-21 23 8 18 6 32 -9 61 -11 20 -26 37 -34 37 -8 0 -14 3 -15 8 0 4 -3 21 -7
37 -3 17 -6 48 -6 69 -1 38 0 40 34 44 42 5 43 5 44 39 1 22 6 29 26 31 14 2
34 7 45 12 53 23 79 16 89 -26z m2330 37 l28 -1 -6 -69 c-4 -37 -9 -79 -11
-92 -3 -13 -8 -37 -10 -54 -38 -213 -178 -493 -329 -655 l-38 -41 -44 45 c-24
26 -45 56 -45 69 -3 52 11 146 22 153 13 8 11 98 -2 128 -12 25 -39 43 -39 26
0 -6 -8 -10 -18 -10 -10 0 -31 -13 -47 -30 -33 -35 -59 -41 -28 -7 11 12 25
32 31 43 6 12 25 24 41 27 20 4 35 17 46 37 8 16 19 30 24 30 5 0 16 21 26 48
10 26 20 49 24 52 3 3 5 3 3 1 -1 -2 5 -12 14 -22 13 -14 21 -16 35 -8 11 5
19 16 19 24 0 17 35 20 45 5 4 -6 13 -7 23 -1 9 5 47 12 84 15 84 9 94 20 68
71 -23 44 -23 45 -12 44 26 -4 42 3 42 21 0 41 -63 49 -75 9 -5 -16 -10 -17
-27 -8 -11 6 -23 20 -26 31 -3 12 -16 41 -29 65 -12 24 -23 47 -23 51 0 6 88
7 234 3z m459 0 c11 -1 2 -157 -17 -271 -48 -293 -171 -574 -352 -805 -104
-133 -127 -156 -143 -146 -12 7 -12 13 -3 24 7 7 10 16 8 18 -2 2 -6 27 -9 55
-5 57 -20 91 -51 116 -29 24 -43 22 -50 -7 -3 -13 -11 -36 -16 -51 l-11 -27
-59 59 c-33 32 -60 63 -60 67 0 4 15 25 34 45 207 226 336 538 362 872 1 14 2
30 3 37 0 6 11 13 24 15 18 2 310 1 340 -1z m510 0 c12 -1 -4 -208 -29 -356
-37 -225 -121 -479 -221 -670 -93 -176 -231 -375 -351 -504 l-57 -62 -154 155
-155 155 42 48 c290 330 467 749 485 1149 2 39 6 75 9 80 5 7 359 11 431 5z
m-3188 -151 c3 -5 18 -10 33 -10 33 0 45 -8 61 -37 6 -13 21 -23 31 -23 15 0
20 -7 20 -27 0 -22 9 -33 40 -51 l40 -23 1 33 c1 27 3 24 9 -15 13 -72 60
-114 60 -53 0 12 9 40 19 61 10 22 17 44 15 50 -2 5 6 16 18 24 20 12 23 12
33 -4 5 -9 24 -36 42 -59 l31 -43 -129 -129 -129 -129 -25 30 c-93 112 -171
270 -191 388 -5 26 8 37 21 17z m960 -220 c0 -37 -4 -55 -14 -58 -10 -3 -12 2
-7 21 3 14 2 36 -3 49 -10 27 -4 51 13 45 6 -2 11 -26 11 -57z m458 -19 c4
-16 13 -19 43 -18 30 2 39 -2 42 -17 2 -10 -1 -23 -8 -30 -9 -8 -17 -5 -32 14
-14 16 -22 21 -25 13 -7 -20 -29 -15 -46 11 -12 17 -13 26 -4 35 16 16 24 14
30 -8z m-882 -7 c33 -40 183 -98 267 -103 7 -1 10 -6 7 -11 -4 -6 -10 -8 -14
-5 -5 2 -17 -5 -27 -16 -19 -21 -19 -21 14 -14 32 7 33 6 30 -22 -2 -21 -12
-32 -40 -46 -43 -19 -41 -17 -28 -51 12 -33 -9 -55 -44 -49 -21 4 -28 0 -37
-23 -7 -16 -11 -36 -11 -45 0 -10 -15 -23 -40 -32 -38 -16 -42 -15 -104 10
-60 23 -189 103 -242 148 l-22 20 127 127 c70 71 133 128 139 128 6 0 17 -7
25 -16z m349 -34 c-20 -12 -33 -1 -19 16 9 11 15 12 23 4 8 -8 7 -13 -4 -20z
m348 -127 c3 -18 -4 -24 -34 -32 -20 -5 -44 -17 -53 -25 -16 -14 -17 -13 -17
18 0 26 3 32 17 29 10 -3 26 4 36 16 22 26 47 23 51 -6z m-8 -99 c0 -15 -41
-58 -70 -74 -23 -13 -43 -13 -35 -1 3 5 1 12 -5 16 -5 3 -10 11 -10 16 0 6 4
8 9 5 16 -10 41 5 41 25 0 21 36 40 58 32 6 -3 12 -11 12 -19z m-192 -53 c28
-28 35 -41 26 -45 -8 -3 -14 0 -14 7 -1 16 -35 57 -49 57 -5 0 -13 5 -16 10
-15 25 18 6 53 -29z m-796 0 c5 -14 158 -113 216 -140 52 -24 65 -44 37 -54
-17 -7 -57 -82 -48 -91 3 -3 -6 -24 -21 -46 -14 -22 -26 -43 -26 -48 0 -4 23
-30 51 -57 27 -26 59 -66 70 -87 11 -21 25 -40 32 -42 76 -21 130 -31 172 -32
83 -2 95 -4 95 -15 0 -17 -182 2 -291 31 -24 7 -52 14 -61 15 -10 2 -59 20
-110 40 -159 63 -277 135 -425 260 -8 7 27 49 129 152 116 116 145 140 159
133 9 -6 19 -14 21 -19z m703 -1 c15 -6 23 -15 19 -21 -4 -8 0 -9 15 -4 13 4
30 0 43 -10 27 -18 27 -17 9 -38 -9 -12 -29 -17 -60 -17 -40 0 -49 4 -68 32
-17 24 -20 36 -12 50 11 21 18 22 54 8z m515 -75 c7 -8 28 -17 49 -21 46 -8
144 -44 138 -51 -3 -2 -47 9 -99 26 -51 17 -106 33 -123 37 -26 6 -27 8 -10
15 29 11 31 11 45 -6z m339 -182 c-14 -17 -31 1 -22 24 4 10 9 11 19 2 11 -9
12 -15 3 -26z m160 -140 c45 -49 90 -97 99 -108 10 -11 31 -30 48 -41 l29 -21
-40 -37 c-57 -53 -211 -169 -270 -203 l-50 -29 0 88 c0 60 3 88 11 88 6 0 17
13 24 30 7 16 18 35 26 41 29 24 19 42 -61 122 -43 42 -47 50 -32 58 9 5 38
30 64 54 27 24 53 45 59 45 6 0 47 -39 93 -87z m-1855 -81 c112 -70 326 -157
431 -175 17 -3 39 -8 50 -10 44 -10 133 -20 180 -21 l50 -1 3 -198 2 -197 -32
4 c-18 3 -67 8 -108 11 -41 4 -84 9 -95 11 -11 2 -36 6 -55 8 -92 12 -306 81
-440 144 -142 67 -319 185 -444 295 -54 48 -38 64 26 26 75 -44 98 -46 164
-13 30 15 57 31 60 36 3 4 31 5 63 2 52 -6 60 -4 79 17 24 25 28 50 11 81 -12
23 -15 23 55 -20z m-539 -21 c3 -5 1 -12 -5 -16 -5 -3 -10 1 -10 9 0 18 6 21
15 7z m1355 -111 c12 -8 9 -10 -13 -10 -16 0 -26 4 -22 10 8 12 16 12 35 0z
m-1301 -69 c95 -88 296 -217 444 -285 158 -73 364 -137 487 -151 30 -3 63 -8
73 -11 15 -5 109 -12 175 -13 l22 -1 0 -221 0 -222 -102 7 c-57 3 -114 8 -128
10 -14 3 -43 7 -66 10 -277 35 -601 154 -874 319 -61 37 -199 133 -210 146 -3
3 -21 18 -41 33 -20 15 -62 50 -93 79 l-57 52 152 153 c170 171 147 161 218
95z m2719 -95 l153 -153 -73 -65 c-258 -229 -549 -392 -878 -491 -63 -19 -131
-38 -151 -41 -20 -3 -42 -8 -50 -10 -13 -5 -55 -12 -119 -22 -87 -13 -157 -18
-240 -18 l-95 -1 1 213 c0 116 3 214 5 216 2 2 49 6 104 9 55 4 134 12 176 20
71 13 79 12 100 -4 13 -10 35 -19 49 -19 14 0 33 -7 43 -15 20 -15 60 -12 65
5 5 15 57 40 82 40 12 0 25 10 32 25 6 14 23 28 37 32 14 3 42 20 61 37 19 17
56 40 83 50 31 11 47 24 47 35 0 10 26 32 67 56 83 48 211 142 281 207 30 26
57 48 60 48 4 0 76 -69 160 -154z m-1343 64 c3 -5 17 -10 31 -10 13 0 24 -4
24 -9 0 -4 11 -24 24 -44 21 -31 23 -41 15 -69 -17 -61 -12 -76 40 -115 27
-21 56 -50 65 -64 l16 -26 -53 -7 c-28 -3 -65 -8 -82 -11 -82 -12 -184 -13
-187 -2 -3 10 -2 315 1 355 1 15 97 17 106 2z"/>
<path d="M3835 6089 c-8 -12 -136 -49 -193 -56 -48 -5 -92 -26 -92 -43 0 -6 7
-11 15 -11 8 -1 24 -3 35 -4 11 -1 27 -3 36 -4 8 0 29 -15 46 -31 17 -17 32
-29 34 -27 3 2 -3 20 -11 40 -26 62 -22 68 38 64 28 -2 63 0 77 4 30 10 75 17
112 18 24 1 34 20 16 29 -28 13 -109 29 -113 21z"/>
<path d="M4553 5733 c-12 -3 -24 -10 -27 -18 -3 -9 0 -12 10 -8 16 6 62 -14
79 -34 6 -7 16 -13 24 -15 17 -4 22 49 5 63 -14 11 -59 17 -91 12z"/>
<path d="M3790 5661 c0 -6 5 -13 10 -16 6 -3 10 1 10 9 0 9 -4 16 -10 16 -5 0
-10 -4 -10 -9z"/>
<path d="M3904 5655 c24 -18 49 -20 44 -2 -3 6 -18 13 -34 15 -28 2 -28 2 -10
-13z"/>
<path d="M3840 5581 c0 -6 5 -13 10 -16 6 -3 10 1 10 9 0 9 -4 16 -10 16 -5 0
-10 -4 -10 -9z"/>
<path d="M3950 5474 c0 -8 5 -12 10 -9 6 3 10 10 10 16 0 5 -4 9 -10 9 -5 0
-10 -7 -10 -16z"/>
<path d="M3991 5439 c-7 -12 -10 -23 -8 -26 3 -3 11 5 17 17 15 28 8 35 -9 9z"/>
<path d="M4010 5400 c0 -5 7 -10 15 -10 8 0 15 5 15 10 0 6 -7 10 -15 10 -8 0
-15 -4 -15 -10z"/>
<path d="M4065 5390 c3 -5 8 -10 11 -10 2 0 4 5 4 10 0 6 -5 10 -11 10 -5 0
-7 -4 -4 -10z"/>
<path d="M4090 5345 c0 -8 7 -15 15 -15 8 0 15 7 15 15 0 8 -7 15 -15 15 -8 0
-15 -7 -15 -15z"/>
<path d="M3014 4998 c-4 -6 0 -14 7 -19 19 -12 56 -11 64 1 3 6 5 10 3 10 -2
0 -18 4 -35 9 -22 6 -35 6 -39 -1z"/>
<path d="M4700 4915 c0 -3 11 -18 25 -33 20 -21 25 -23 25 -9 0 9 0 20 0 25 0
4 -4 7 -9 7 -5 0 -13 3 -17 8 -9 8 -24 10 -24 2z"/>
<path d="M4782 4839 c-7 -10 -10 -30 -6 -44 5 -19 13 -25 35 -25 27 0 28 2 17
20 -7 11 -17 20 -21 20 -5 0 -7 6 -4 13 9 25 -8 38 -21 16z"/>
<path d="M4825 4730 c-4 -6 -11 -8 -16 -5 -5 4 -9 0 -9 -8 0 -20 29 -30 46
-16 7 6 10 17 7 25 -6 16 -19 18 -28 4z"/>
<path d="M4848 4684 c-3 -5 -2 -18 2 -28 3 -11 9 -15 12 -10 3 5 2 18 -2 28
-3 11 -9 15 -12 10z"/>
<path d="M4850 4595 c0 -9 7 -29 15 -45 9 -16 18 -49 21 -74 8 -58 17 -70 44
-61 24 8 24 14 -1 105 -21 80 -27 90 -54 90 -16 0 -25 -6 -25 -15z"/>
<path d="M4508 4733 c-53 -25 -63 -45 -20 -43 42 3 45 1 32 -15 -7 -8 -23 -15
-36 -15 -15 0 -24 -6 -24 -16 0 -9 -11 -25 -25 -36 -27 -21 -33 -46 -12 -52
53 -17 62 -15 80 15 9 17 14 35 11 40 -3 6 5 25 19 42 19 25 23 37 15 51 -7
12 -6 22 3 32 19 23 8 22 -43 -3z"/>
<path d="M4558 4583 c6 -2 18 -2 25 0 6 3 1 5 -13 5 -14 0 -19 -2 -12 -5z"/>
<path d="M3360 4570 c0 -5 5 -10 10 -10 6 0 10 5 10 10 0 6 -4 10 -10 10 -5 0
-10 -4 -10 -10z"/>
<path d="M3405 4570 c3 -5 8 -10 11 -10 2 0 4 5 4 10 0 6 -5 10 -11 10 -5 0
-7 -4 -4 -10z"/>
<path d="M3780 4570 c0 -5 9 -10 20 -10 11 0 20 5 20 10 0 6 -9 10 -20 10 -11
0 -20 -4 -20 -10z"/>
<path d="M3247 4143 c-12 -11 -8 -22 14 -34 17 -9 23 -8 30 2 14 23 -25 52
-44 32z"/>
<path d="M3240 4020 c0 -5 5 -10 11 -10 5 0 7 5 4 10 -3 6 -8 10 -11 10 -2 0
-4 -4 -4 -10z"/>
<path d="M3270 4020 c0 -5 5 -10 10 -10 6 0 10 5 10 10 0 6 -4 10 -10 10 -5 0
-10 -4 -10 -10z"/>
<path d="M3240 3965 c0 -29 3 -30 24 -9 22 21 20 34 -4 34 -15 0 -20 -7 -20
-25z"/>
<path d="M3630 3908 c1 -14 24 -48 33 -48 3 0 1 14 -4 30 -11 30 -29 41 -29
18z"/>
<path d="M3517 3825 c-4 -8 -1 -17 5 -21 7 -4 8 -3 4 4 -4 7 -2 12 3 12 6 0
11 5 11 10 0 15 -17 12 -23 -5z"/>
<path d="M3343 3611 c-2 -23 32 -34 60 -19 20 10 20 11 2 24 -28 20 -60 18
-62 -5z"/>
<path d="M4770 4090 c0 -13 18 -22 24 -11 3 5 -1 11 -9 15 -8 3 -15 1 -15 -4z"/>
<path d="M1500 3441 c0 -5 -3 -16 -6 -25 -8 -20 19 -21 35 -2 10 12 8 17 -8
26 -12 6 -21 7 -21 1z"/>
<path d="M1370 3410 c0 -5 7 -10 15 -10 8 0 15 5 15 10 0 6 -7 10 -15 10 -8 0
-15 -4 -15 -10z"/>
<path d="M1350 3300 c0 -5 5 -10 11 -10 5 0 7 5 4 10 -3 6 -8 10 -11 10 -2 0
-4 -4 -4 -10z"/>
<path d="M1564 2899 c-6 -10 12 -29 29 -29 9 0 9 4 1 24 -7 19 -20 21 -30 5z"/>
<path d="M1610 2821 c0 -12 29 -35 36 -28 11 10 -5 37 -21 37 -8 0 -15 -4 -15
-9z"/>
<path d="M2396 3771 c-7 -10 17 -65 32 -75 4 -2 14 -1 21 4 17 10 5 31 -14 23
-10 -3 -15 1 -15 13 0 27 -16 49 -24 35z"/>
<path d="M2480 3700 c-8 -5 -12 -11 -10 -14 3 -2 14 2 24 10 22 15 10 19 -14
4z"/>
<path d="M2424 3656 c-6 -16 12 -56 30 -68 37 -25 55 13 24 52 -25 32 -46 38
-54 16z"/>
<path d="M2465 3530 c-3 -5 1 -10 9 -10 9 0 16 5 16 10 0 6 -4 10 -9 10 -6 0
-13 -4 -16 -10z"/>
<path d="M2477 3444 c3 -7 9 -14 14 -14 14 0 10 17 -5 23 -10 4 -13 1 -9 -9z"/>
<path d="M4467 3304 c-8 -8 1 -24 14 -24 5 0 9 7 9 15 0 15 -12 20 -23 9z"/>
<path d="M5453 5988 c74 -138 165 -285 194 -316 7 -7 13 -17 13 -21 0 -17 132
-144 205 -197 44 -32 97 -74 119 -94 l39 -35 -6 61 c-14 130 -99 305 -202 416
-85 90 -196 170 -326 234 -38 19 -71 34 -74 34 -4 0 14 -37 38 -82z"/>
<path d="M1014 5898 c-171 -129 -315 -386 -348 -618 -4 -25 -9 -65 -13 -90 -7
-47 -6 -297 1 -365 2 -22 4 -53 5 -68 1 -35 8 -33 63 18 45 42 112 95 235 184
93 67 263 246 344 362 71 99 145 238 155 289 7 30 6 32 -14 21 -11 -6 -48 -42
-83 -81 -40 -45 -97 -93 -163 -136 -110 -73 -248 -205 -303 -291 -32 -50 -63
-73 -48 -35 6 17 34 129 41 167 1 11 13 79 24 150 21 129 81 356 120 456 12
28 19 53 17 55 -2 3 -17 -6 -33 -18z"/>
<path d="M5965 5895 c25 -56 87 -253 109 -345 27 -112 32 -149 41 -303 3 -53
10 -109 15 -123 24 -62 1 -74 -30 -15 -34 67 -215 243 -315 306 -85 54 -104
70 -179 156 -17 20 -44 44 -59 54 l-28 18 7 -29 c19 -79 97 -217 192 -344 86
-113 256 -279 357 -348 50 -33 124 -91 165 -127 l75 -66 7 27 c4 16 10 58 12
94 14 176 19 228 25 265 9 49 -16 211 -48 311 -59 183 -180 360 -315 460 -33
24 -38 26 -31 9z"/>
<path d="M551 5385 c-60 -69 -121 -213 -161 -381 -49 -210 -72 -397 -55 -474
2 -13 7 -42 10 -65 10 -66 55 -224 91 -319 19 -48 34 -96 34 -105 0 -24 40
-141 48 -141 4 0 25 38 46 83 22 45 104 177 182 292 152 226 230 355 292 487
40 82 82 199 82 225 0 31 -31 9 -76 -54 -26 -36 -92 -112 -145 -168 -133 -137
-151 -159 -209 -241 -52 -76 -110 -205 -110 -248 0 -13 -4 -27 -8 -30 -5 -3
-8 11 -6 32 1 20 6 89 11 152 15 215 10 392 -17 580 -9 62 -7 270 4 314 4 16
13 44 21 62 18 44 5 43 -34 -1z"/>
<path d="M6394 5400 c30 -96 37 -135 38 -210 2 -80 -10 -248 -17 -260 -16 -26
-23 -299 -11 -435 12 -142 16 -275 6 -228 -5 22 -21 72 -36 110 -46 115 -102
191 -267 363 -60 63 -134 148 -163 188 -75 100 -100 95 -62 -13 59 -169 164
-359 346 -625 47 -69 98 -143 113 -165 15 -22 48 -82 73 -133 26 -51 50 -90
55 -88 4 3 15 33 25 68 9 35 24 83 32 108 8 25 33 98 54 162 44 130 45 134 64
271 13 88 13 130 2 207 -2 14 -7 48 -10 75 -4 28 -16 88 -27 135 -11 47 -23
95 -25 108 -25 126 -114 319 -167 362 l-30 24 7 -24z"/>
<path d="M157 4583 c-32 -52 -37 -275 -11 -463 28 -204 111 -435 228 -634 56
-95 189 -278 247 -340 l27 -30 7 40 c23 150 37 200 88 306 82 170 122 304 163
538 8 50 12 291 5 320 l-7 24 -25 -34 c-14 -19 -44 -83 -67 -141 -23 -58 -63
-144 -88 -190 -67 -120 -83 -161 -111 -284 -35 -155 -40 -182 -42 -242 -1 -13
-5 -23 -10 -23 -4 0 -11 32 -15 71 -18 193 -63 333 -197 607 -118 241 -157
341 -166 423 -5 54 -14 71 -26 52z"/>
<path d="M6789 4575 c-4 -105 -31 -178 -151 -425 -55 -113 -113 -237 -129
-277 -31 -77 -74 -245 -84 -333 -11 -95 -12 -101 -19 -107 -3 -3 -6 0 -7 8 -5
93 -39 315 -53 357 -15 41 -76 168 -116 237 -12 22 -38 80 -57 129 -63 167
-102 211 -104 119 -2 -114 -1 -153 5 -227 15 -190 79 -412 173 -606 58 -120
82 -202 83 -282 0 -27 3 -48 8 -47 9 0 121 140 184 229 156 221 275 510 306
745 12 88 13 380 2 430 -5 21 -16 45 -24 54 -15 14 -16 14 -17 -4z"/>
<path d="M909 3650 c-2 -73 -7 -103 -33 -186 -26 -84 -48 -183 -66 -302 -11
-64 -8 -225 4 -287 2 -11 7 -40 11 -65 4 -25 13 -66 20 -92 8 -29 10 -48 4
-48 -5 0 -32 35 -59 78 -27 42 -65 103 -85 135 -59 93 -149 201 -319 382 -66
70 -157 203 -182 264 -23 58 -33 37 -27 -58 15 -264 145 -534 357 -745 32 -32
111 -92 175 -134 84 -54 142 -102 208 -170 51 -53 95 -93 98 -91 2 3 -2 38 -9
78 -18 93 -15 161 20 471 11 95 12 352 1 447 -13 119 -56 268 -99 338 l-18 30
-1 -45z"/>
<path d="M6032 3618 c-31 -74 -46 -126 -57 -187 -3 -19 -7 -37 -9 -40 -8 -13
-19 -171 -20 -266 0 -104 6 -206 24 -360 20 -177 22 -287 7 -365 -8 -41 -14
-76 -12 -78 2 -2 54 47 117 110 82 83 137 128 203 168 187 112 374 345 460
573 23 62 34 104 50 182 9 47 18 215 12 215 -3 0 -20 -28 -37 -61 -17 -34 -48
-87 -70 -118 -41 -59 -56 -77 -187 -218 -118 -127 -191 -221 -277 -359 -41
-66 -84 -129 -96 -139 l-20 -18 15 49 c23 74 37 171 49 332 2 24 0 62 -4 85
-5 23 -10 60 -13 82 -10 69 -37 188 -57 250 -22 70 -32 120 -35 181 -1 24 -4
46 -7 49 -3 4 -19 -27 -36 -67z"/>
<path d="M1108 2929 c-6 -17 -2 -194 7 -274 33 -321 118 -580 255 -781 28 -41
50 -79 50 -86 0 -7 -49 37 -109 97 -194 196 -325 307 -552 468 -124 89 -204
158 -302 265 -31 34 -57 57 -57 51 0 -20 73 -205 110 -280 131 -260 342 -477
587 -602 92 -47 247 -101 323 -112 24 -4 47 -8 50 -10 3 -2 39 -7 80 -11 69
-6 73 -6 65 12 -34 81 -57 168 -70 259 -14 105 -18 123 -51 238 -65 228 -174
457 -332 703 -28 44 -51 70 -54 63z"/>
<path d="M5818 2858 c-205 -312 -341 -648 -383 -943 -3 -22 -8 -56 -11 -75 -6
-38 -40 -143 -56 -174 -10 -18 -7 -18 53 -12 561 57 986 428 1164 1016 5 16
-9 5 -42 -35 -69 -83 -192 -193 -304 -271 -219 -155 -352 -266 -532 -444 -76
-76 -139 -134 -142 -131 -2 4 22 45 54 93 32 47 72 117 90 154 31 64 97 249
107 298 20 100 45 238 49 271 8 68 18 335 12 335 -3 0 -30 -37 -59 -82z"/>
<path d="M5405 2311 c-149 -119 -385 -399 -490 -583 -26 -45 -66 -112 -89
-148 -41 -66 -149 -182 -199 -215 -15 -9 -24 -21 -21 -26 4 -8 61 -26 109 -35
11 -2 31 -6 45 -9 35 -7 58 -12 110 -20 25 -3 59 -9 75 -12 125 -20 314 -24
405 -8 159 29 347 110 478 208 78 57 191 167 266 257 111 132 108 154 -11 74
-92 -62 -143 -87 -239 -117 -86 -27 -225 -62 -284 -71 -43 -7 -96 -22 -330
-96 -292 -93 -367 -111 -334 -81 5 5 26 14 47 21 121 38 294 298 432 650 36
91 96 260 92 260 -1 -1 -29 -22 -62 -49z"/>
<path d="M1520 2345 c0 -11 81 -229 119 -320 91 -218 223 -439 307 -516 35
-33 102 -69 126 -69 18 0 24 -11 12 -22 -7 -8 -107 20 -284 77 -153 50 -314
95 -521 144 -167 40 -277 84 -348 137 -54 40 -99 64 -122 64 -18 0 76 -122
166 -215 129 -132 249 -221 385 -283 98 -45 147 -60 275 -87 90 -19 280 -11
480 20 66 10 257 54 264 60 3 4 -14 23 -39 43 -104 86 -155 150 -246 308 -127
222 -314 450 -500 612 -56 48 -74 60 -74 47z"/>
<path d="M2769 1286 c-2 -2 -33 -7 -69 -10 -36 -3 -76 -8 -90 -11 -14 -2 -65
-11 -115 -19 -91 -15 -319 -64 -430 -92 -33 -9 -69 -18 -79 -20 -11 -2 -63
-12 -115 -23 -155 -32 -161 -32 -282 -37 -71 -2 -129 0 -148 7 -55 19 -46 2
15 -29 112 -56 290 -112 410 -127 27 -4 69 -11 93 -15 61 -11 321 -10 406 1
120 17 289 67 471 140 252 101 380 130 529 120 26 -2 28 -3 10 -11 -11 -5 -74
-32 -139 -60 -135 -58 -278 -139 -381 -216 -74 -55 -182 -157 -214 -203 l-20
-28 45 -21 c57 -28 58 -28 81 7 34 55 153 180 231 242 142 115 276 192 425
244 l78 28 64 -18 c88 -24 272 -118 378 -194 89 -63 257 -222 314 -296 l30
-40 47 23 c42 21 45 25 35 45 -7 12 -49 59 -95 104 -134 132 -365 272 -594
363 -75 29 -75 29 -35 31 158 7 253 -13 485 -106 342 -136 436 -157 690 -161
303 -3 521 43 738 157 42 22 68 37 57 33 -79 -27 -243 -29 -375 -5 -67 12
-307 65 -410 91 -75 19 -249 55 -305 64 -16 2 -50 8 -75 11 -25 4 -54 9 -65
12 -63 13 -139 18 -295 17 -185 -1 -293 -15 -477 -60 l-102 -25 -78 20 c-72
18 -191 41 -288 56 -46 7 -351 16 -356 11z"/>
</g>
</svg>
