<?xml version="1.0" encoding="UTF-8"?>
<svg width="40px" height="40px" viewBox="0 0 40 40" version="1.1" xmlns="http://www.w3.org/2000/svg" xmlns:xlink="http://www.w3.org/1999/xlink">
    <!-- Generator: Sketch 42 (36781) - http://www.bohemiancoding.com/sketch -->
    <title>mobile</title>
    <desc>Created with Sketch.</desc>
    <defs></defs>
    <g id="Page-1" stroke="none" stroke-width="1" fill="none" fill-rule="evenodd">
        <g id="mobile" fill-rule="nonzero" fill="#026CB6">
            <g id="ocha-logo" transform="translate(1.000000, 4.000000)">
                <path d="M16.1019282,13.8177177 C16.1019282,12.1528529 17.4742516,10.7654655 19.1210397,10.7654655 C20.7678278,10.7654655 22.1401513,12.1528529 22.1401513,13.8177177 C22.1401513,15.4825826 20.7678278,16.86997 19.1210397,16.86997 L19.1210397,16.684985 L19.1210397,16.5 C20.5848514,16.5 21.7741984,15.2975976 21.7741984,13.8177177 C21.7741984,12.3378378 20.5848514,11.1354354 19.1210397,11.1354354 C17.6572281,11.1354354 16.4678811,12.3378378 16.4678811,13.8177177 C16.4678811,15.2975976 17.6572281,16.5 19.1210397,16.5 L19.1210397,16.684985 L19.1210397,16.86997 C17.4742516,16.86997 16.1019282,15.4825826 16.1019282,13.8177177" id="Shape"></path>
                <path d="M13.7232343,13.8177177 C13.7232343,10.7654655 16.1934164,8.26816817 19.212528,8.26816817 C22.2316395,8.26816817 24.7018217,10.7654655 24.7018217,13.8177177 C24.7018217,16.86997 22.2316395,19.3672673 19.212528,19.3672673 L19.212528,19.1822823 L19.212528,18.9972973 C22.048663,18.9972973 24.3358688,16.684985 24.3358688,13.8177177 C24.3358688,10.9504505 22.048663,8.63813814 19.212528,8.63813814 C16.3763929,8.63813814 14.0891872,10.9504505 14.0891872,13.8177177 C14.0891872,16.684985 16.3763929,18.9972973 19.212528,18.9972973 L19.212528,19.1822823 L19.212528,19.3672673 C16.1934164,19.3672673 13.7232343,16.86997 13.7232343,13.8177177" id="Shape"></path>
                <path d="M11.0700756,13.8177177 C11.0700756,9.28558559 14.7296048,5.58588589 19.212528,5.58588589 C23.6954512,5.58588589 27.3549803,9.28558559 27.3549803,13.8177177 C27.3549803,18.3498498 23.6954512,22.0495495 19.212528,22.0495495 L19.212528,21.8645646 L19.212528,21.5870871 C23.5124747,21.5870871 26.8975391,18.0723724 26.9890274,13.8177177 C26.9890274,9.47057057 23.5124747,6.04834835 19.212528,5.95585586 C14.9125812,5.95585586 11.5275168,9.47057057 11.4360286,13.8177177 C11.4360286,18.1648649 14.9125812,21.5870871 19.212528,21.5870871 L19.212528,21.7720721 L19.212528,21.9570571 C14.7296048,22.0495495 11.0700756,18.3498498 11.0700756,13.8177177" id="Shape"></path>
                <path d="M8.50840524,13.8177177 C8.50840524,7.8981982 13.2657931,3.08858859 19.212528,3.08858859 C25.0677746,3.08858859 29.8251625,7.8981982 29.8251625,13.8177177 C29.8251625,19.7372372 25.0677746,24.5468468 19.212528,24.5468468 L19.212528,24.3618619 L19.212528,24.1768769 C24.8847981,24.1768769 29.4592095,19.5522523 29.4592095,13.8177177 C29.4592095,8.08318318 24.8847981,3.45855856 19.212528,3.45855856 C13.5402578,3.45855856 8.96584638,8.08318318 8.96584638,13.8177177 C8.96584638,19.5522523 13.5402578,24.1768769 19.212528,24.1768769 L19.212528,24.3618619 L19.212528,24.5468468 C13.2657931,24.5468468 8.50840524,19.7372372 8.50840524,13.8177177" id="Shape"></path>
                <path d="M5.76375839,13.8177177 C5.76375839,6.32582583 11.8019815,0.221321321 19.212528,0.221321321 C26.6230745,0.221321321 32.6612975,6.32582583 32.6612975,13.8177177 C32.6612975,21.3096096 26.6230745,27.4141141 19.212528,27.4141141 L19.212528,27.2291291 L19.212528,27.0441441 C26.440098,27.0441441 32.2953446,21.1246246 32.2953446,13.8177177 C32.2953446,6.51081081 26.440098,0.591291291 19.212528,0.591291291 C11.9849579,0.591291291 6.1297113,6.51081081 6.1297113,13.8177177 C6.1297113,21.1246246 11.9849579,27.0441441 19.212528,27.0441441 L19.212528,27.2291291 L19.212528,27.4141141 C11.7104932,27.4141141 5.76375839,21.3096096 5.76375839,13.8177177" id="Shape"></path>
                <rect id="Rectangle-path" x="18.9380633" y="0.406306306" width="0.365952914" height="10.5441441"></rect>
                <polygon id="Shape" points="9.69775221 4.47597598 9.9722169 4.1984985 17.2912752 11.5978979 17.0168105 11.8753754"></polygon>
                <rect id="Rectangle-path" x="5.94673485" y="13.6327327" width="10.429658" height="0.36996997"></rect>
                <polygon id="Shape" points="9.69775221 23.1594595 17.0168105 15.7600601 17.2912752 16.0375375 9.9722169 23.4369369"></polygon>
                <rect id="Rectangle-path" x="18.9380633" y="16.684985" width="0.365952914" height="10.5441441"></rect>
                <rect id="Rectangle-path" transform="translate(25.060948, 19.295739) rotate(-44.829839) translate(-25.060948, -19.295739) " x="24.5610017" y="14.067067" width="0.365951018" height="10.4515975"></rect>
                <rect id="Rectangle-path" x="22.048663" y="13.6327327" width="10.429658" height="0.36996997"></rect>
                <polygon id="Shape" points="21.0422925 11.5978979 28.452839 4.1984985 28.6358155 4.47597598 21.3167572 11.8753754"></polygon>
                <path d="M17.1082987,14.6501502 C17.1997869,14.6501502 17.1997869,14.7426426 17.1997869,14.8351351 L17.2912752,14.8351351 C17.4742516,14.6501502 17.5657399,14.3726727 17.6572281,14.1876877 C17.6572281,14.1876877 17.7487163,14.1876877 17.7487163,14.0951952 C17.7487163,14.0027027 17.5657399,13.9102102 17.5657399,13.8177177 C17.4742516,14.0027027 17.2912752,13.8177177 17.1997869,13.9102102 L17.1997869,14.0027027 L17.2912752,14.0027027 L17.2912752,14.1876877 L17.2912752,14.1876877 C17.1997869,14.0951952 17.1082987,14.0951952 17.0168105,14.0951952 C17.1082987,14.0951952 17.0168105,14.0951952 17.0168105,14.1876877 C16.833834,14.1876877 16.6508576,14.1876877 16.5593693,14.2801802 C16.4678811,14.2801802 16.4678811,14.2801802 16.3763929,14.1876877 C16.2849047,14.2801802 16.2849047,14.3726727 16.1934164,14.3726727 L16.1019282,14.2801802 C16.1934164,14.1876877 16.2849047,14.1876877 16.2849047,14.0951952 L16.2849047,13.8177177 C16.3763929,13.7252252 16.3763929,13.6327327 16.4678811,13.6327327 C16.5593693,13.6327327 16.7423458,13.7252252 16.833834,13.6327327 L16.9253223,13.7252252 C16.9253223,13.7252252 16.9253223,13.7252252 16.9253223,13.8177177 C16.833834,13.9102102 16.7423458,13.9102102 16.7423458,14.0027027 C16.7423458,14.0951952 16.7423458,14.0951952 16.833834,14.0951952 C16.9253223,14.0951952 16.9253223,14.0027027 17.0168105,14.0027027 C17.0168105,13.9102102 17.1082987,14.0027027 17.1082987,14.0027027 L17.1082987,14.0027027 L17.3827634,14.0027027 C17.4742516,14.0027027 17.4742516,13.7252252 17.3827634,13.6327327 L17.3827634,13.5402402 C17.3827634,13.5402402 17.3827634,13.5402402 17.3827634,13.4477477 C17.3827634,13.3552553 17.5657399,13.3552553 17.5657399,13.4477477 L17.5657399,13.5402402 C17.5657399,13.5402402 17.5657399,13.6327327 17.6572281,13.5402402 L17.6572281,13.5402402 L17.6572281,13.3552553 C17.6572281,13.3552553 17.7487163,13.4477477 17.8402045,13.4477477 L18.023181,13.4477477 C18.1146692,13.4477477 18.1146692,13.3552553 18.023181,13.2627628 L17.9316928,13.2627628 C17.8402045,13.3552553 17.7487163,13.3552553 17.7487163,13.3552553 C17.6572281,13.3552553 17.6572281,13.2627628 17.5657399,13.2627628 C17.4742516,13.2627628 17.3827634,13.3552553 17.3827634,13.2627628 C17.2912752,13.2627628 17.2912752,13.1702703 17.2912752,13.0777778 L17.3827634,12.9852853 C17.4742516,12.9852853 17.5657399,12.9852853 17.6572281,12.8927928 C17.6572281,12.8003003 17.7487163,12.7078078 17.7487163,12.7078078 L17.8402045,12.7078078 C17.9316928,12.7078078 18.023181,12.7078078 18.1146692,12.6153153 C18.2061575,12.6153153 18.2976457,12.5228228 18.3891339,12.4303303 C18.4806221,12.4303303 18.4806221,12.3378378 18.5721104,12.3378378 C18.5721104,12.3378378 18.5721104,12.2453453 18.6635986,12.2453453 L18.6635986,11.7828829 C18.6635986,11.6903904 18.7550868,11.6903904 18.7550868,11.6903904 L18.6635986,11.6903904 C18.6635986,11.6903904 18.5721104,11.5978979 18.6635986,11.5978979 C18.6635986,11.5978979 18.8465751,11.5978979 18.8465751,11.5054054 C18.9380633,11.4129129 18.8465751,11.2279279 18.7550868,11.2279279 C18.6635986,11.1354354 18.5721104,11.2279279 18.4806221,11.2279279 C18.4806221,11.2279279 18.4806221,11.3204204 18.3891339,11.3204204 C18.2976457,11.3204204 18.2061575,11.2279279 18.2976457,11.1354354 L18.2976457,11.1354354 C18.2976457,11.1354354 18.2976457,11.1354354 18.2976457,11.0429429 L18.2061575,11.0429429 L17.9316928,11.3204204 C17.9316928,11.3204204 17.9316928,11.3204204 17.9316928,11.4129129 L17.9316928,11.4129129 C17.9316928,11.5054054 17.9316928,11.5978979 17.8402045,11.5978979 L17.8402045,11.5978979 L17.7487163,11.5978979 C17.7487163,11.6903904 17.9316928,11.6903904 17.8402045,11.7828829 C17.7487163,11.8753754 17.6572281,11.8753754 17.4742516,11.9678679 C17.1997869,12.0603604 16.9253223,11.9678679 16.6508576,11.9678679 L16.1934164,11.9678679 C16.1019282,11.9678679 16.1019282,12.0603604 16.01044,12.1528529 L16.01044,12.1528529 L16.01044,11.9678679 C16.01044,11.8753754 15.9189517,11.9678679 15.9189517,11.8753754 C15.7359753,11.5054054 15.2785341,11.5978979 14.9125812,11.5978979 C14.821093,11.5978979 14.821093,11.6903904 14.821093,11.6903904 C14.7296048,11.7828829 14.6381165,11.6903904 14.5466283,11.6903904 L14.4551401,11.7828829 C14.3636519,11.7828829 14.2721636,11.6903904 14.1806754,11.7828829 C14.0891872,11.8753754 14.0891872,11.8753754 13.9976989,11.8753754 L13.9976989,11.9678679 L13.9062107,11.9678679 C13.8147225,11.9678679 13.631746,11.9678679 13.631746,12.0603604 L13.631746,12.0603604 C13.631746,12.1528529 13.631746,12.3378378 13.5402578,12.3378378 C13.4487696,12.3378378 13.2657931,12.3378378 13.1743049,12.4303303 C13.0828167,12.4303303 13.0828167,12.5228228 12.9913284,12.5228228 C12.808352,12.8927928 12.6253755,13.1702703 12.6253755,13.6327327 L12.6253755,13.6327327 L12.6253755,13.7252252 C12.4423991,14.0951952 12.3509108,14.2801802 12.0764461,14.7426426 C11.9849579,14.9276276 11.8934697,15.2975976 12.0764461,15.3900901 C12.1679344,15.4825826 12.0764461,15.5750751 11.8934697,15.5750751 C11.7104932,15.5750751 11.5275168,15.5750751 11.5275168,15.3900901 C11.5275168,15.2975976 11.3445403,15.2975976 11.2530521,15.2975976 L11.2530521,15.2975976 L11.1615639,15.2975976 L10.8870992,15.2975976 C10.7041227,15.2975976 10.7041227,15.5750751 10.6126345,15.6675676 C10.5211463,15.7600601 10.3381698,15.7600601 10.3381698,15.8525526 L10.3381698,16.0375375 C10.3381698,16.0375375 10.2466816,16.0375375 10.2466816,16.13003 L10.2466816,16.2225225 C10.2466816,16.4075075 10.1551934,16.5 10.2466816,16.684985 L10.2466816,16.7774775 C10.2466816,16.9624625 10.2466816,17.054955 10.1551934,17.2399399 C10.0637051,17.4249249 9.88072867,17.4249249 9.69775221,17.4249249 L9.42328753,17.4249249 L8.87435815,17.4249249 L8.78286993,17.4249249 C8.6913817,17.4249249 8.6913817,17.3324324 8.59989347,17.3324324 C8.50840524,17.2399399 8.50840524,17.1474474 8.50840524,17.1474474 C8.41691701,17.054955 8.23394056,17.1474474 8.14245233,17.2399399 C8.23394056,17.2399399 8.14245233,17.3324324 8.14245233,17.3324324 C8.0509641,17.3324324 7.95947587,17.4249249 7.86798764,17.5174174 C7.77649941,17.6099099 7.68501119,17.3324324 7.68501119,17.2399399 C7.68501119,17.1474474 7.59352296,17.1474474 7.50203473,17.1474474 C7.50203473,17.1474474 7.50203473,17.1474474 7.50203473,17.2399399 L7.4105465,17.2399399 C7.31905827,17.3324324 7.50203473,17.3324324 7.50203473,17.3324324 L7.50203473,17.4249249 L7.4105465,17.4249249 C7.4105465,17.5174174 7.31905827,17.5174174 7.31905827,17.5174174 L7.31905827,17.5174174 L7.31905827,17.5174174 C7.22757004,17.5174174 7.22757004,17.6099099 7.22757004,17.5174174 L7.22757004,17.3324324 L7.13608182,17.3324324 C7.13608182,17.4249249 7.13608182,17.4249249 7.04459359,17.4249249 L7.04459359,17.5174174 L7.22757004,17.5174174 C7.31905827,17.6099099 7.31905827,17.7024024 7.31905827,17.7948949 L7.31905827,17.7948949 C7.31905827,17.8873874 7.31905827,17.9798799 7.22757004,17.8873874 C7.13608182,17.7948949 7.22757004,17.7024024 7.22757004,17.6099099 L7.13608182,17.6099099 C7.22757004,17.7948949 7.04459359,17.8873874 7.22757004,18.0723724 C7.31905827,18.1648649 7.04459359,18.2573574 7.13608182,18.2573574 C7.13608182,18.2573574 7.22757004,18.3498498 7.31905827,18.3498498 L7.31905827,18.2573574 C7.31905827,18.2573574 7.4105465,18.1648649 7.4105465,18.2573574 L7.4105465,18.3498498 L7.31905827,18.3498498 L7.31905827,18.6273273 L7.31905827,18.7198198 C7.31905827,18.8123123 7.50203473,18.7198198 7.50203473,18.8123123 C7.50203473,18.9048048 7.4105465,18.9048048 7.50203473,18.9972973 C7.50203473,18.9972973 7.59352296,18.9972973 7.59352296,19.0897898 L7.59352296,19.1822823 C7.59352296,19.1822823 7.68501119,19.1822823 7.68501119,19.2747748 C7.77649941,19.2747748 7.77649941,19.2747748 7.77649941,19.1822823 C7.86798764,19.1822823 7.86798764,19.0897898 7.86798764,18.9972973 C7.86798764,18.9972973 7.86798764,18.9048048 7.77649941,18.9972973 L7.77649941,18.8123123 C7.77649941,18.7198198 7.68501119,18.7198198 7.68501119,18.6273273 C7.77649941,18.6273273 7.77649941,18.6273273 7.86798764,18.5348348 C7.86798764,18.5348348 7.95947587,18.5348348 7.95947587,18.6273273 C7.95947587,18.6273273 7.95947587,18.6273273 7.95947587,18.7198198 C8.0509641,18.7198198 8.0509641,18.8123123 8.0509641,18.8123123 C8.14245233,18.8123123 8.14245233,18.9048048 8.23394056,18.9972973 L8.50840524,18.9972973 L8.50840524,18.9048048 L8.59989347,18.9972973 C8.59989347,19.0897898 8.59989347,19.1822823 8.6913817,19.2747748 L8.78286993,19.2747748 L8.87435815,19.3672673 L8.96584638,19.3672673 C9.05733461,19.3672673 9.05733461,19.4597598 9.05733461,19.4597598 L9.05733461,19.4597598 C9.14882284,19.4597598 9.24031107,19.4597598 9.24031107,19.5522523 C9.3317993,19.6447447 9.3317993,19.7372372 9.42328753,19.9222222 C9.42328753,20.0147147 9.51477575,20.0147147 9.51477575,20.0147147 C9.51477575,20.0147147 9.51477575,20.1072072 9.60626398,20.1072072 C9.69775221,20.1996997 9.78924044,20.1996997 9.88072867,20.1996997 C9.88072867,20.1996997 9.9722169,20.1072072 10.0637051,20.1072072 L10.1551934,20.1072072 C10.2466816,20.2921922 10.2466816,20.4771772 10.429658,20.4771772 C10.5211463,20.4771772 10.5211463,20.5696697 10.6126345,20.6621622 L10.795611,20.6621622 C10.795611,20.6621622 10.795611,20.7546547 10.8870992,20.7546547 C10.9785874,20.8471471 11.0700756,20.8471471 11.0700756,20.9396396 L11.0700756,21.0321321 C11.1615639,21.0321321 11.2530521,20.9396396 11.2530521,21.0321321 C11.3445403,21.1246246 11.4360286,21.1246246 11.4360286,21.2171171 L11.5275168,21.2171171 L11.5275168,21.1246246 C11.5275168,21.0321321 11.619005,21.1246246 11.7104932,21.0321321 C11.8019815,21.0321321 11.8019815,20.8471471 11.8019815,20.8471471 C11.8934697,20.8471471 11.9849579,20.9396396 12.0764461,21.0321321 L12.1679344,21.0321321 C12.2594226,21.1246246 12.2594226,21.3096096 12.3509108,21.3096096 C12.5338873,21.3096096 12.5338873,21.4021021 12.7168637,21.4945946 C12.808352,21.4945946 12.8998402,21.5870871 12.9913284,21.5870871 L13.0828167,21.5870871 C13.1743049,21.5870871 13.1743049,21.5870871 13.2657931,21.4945946 C13.3572813,21.4021021 13.5402578,21.4021021 13.631746,21.3096096 L13.7232343,21.2171171 C13.9062107,21.1246246 14.1806754,21.3096096 14.3636519,21.2171171 C14.4551401,21.2171171 14.4551401,21.2171171 14.5466283,21.1246246 C14.6381165,21.0321321 14.7296048,20.8471471 14.6381165,20.7546547 C14.5466283,20.5696697 14.4551401,20.2921922 14.3636519,20.1072072 C14.2721636,20.0147147 14.1806754,19.9222222 14.0891872,19.8297297 L13.9976989,19.8297297 C13.9062107,19.8297297 13.9062107,19.7372372 13.9062107,19.6447447 C13.9062107,19.6447447 13.8147225,19.6447447 13.8147225,19.5522523 L13.8147225,19.3672673 L13.8147225,19.2747748 C13.7232343,19.2747748 13.631746,19.1822823 13.4487696,19.1822823 C13.4487696,19.1822823 13.3572813,19.1822823 13.3572813,19.0897898 L13.3572813,18.9972973 C13.4487696,18.9048048 13.5402578,18.9048048 13.631746,18.9048048 L13.631746,18.8123123 L13.631746,18.6273273 C13.631746,18.6273273 13.631746,18.5348348 13.5402578,18.5348348 C13.5402578,18.4423423 13.631746,18.3498498 13.5402578,18.2573574 C13.4487696,18.1648649 13.3572813,18.0723724 13.3572813,17.9798799 C13.3572813,17.9798799 13.2657931,17.9798799 13.2657931,17.8873874 L13.2657931,17.4249249 C13.2657931,17.3324324 13.1743049,17.3324324 13.2657931,17.2399399 L13.3572813,17.1474474 C13.4487696,17.1474474 13.4487696,17.054955 13.4487696,16.9624625 C13.3572813,16.86997 13.2657931,16.9624625 13.2657931,16.9624625 C13.2657931,16.9624625 13.2657931,16.9624625 13.2657931,16.86997 L13.2657931,16.684985 L13.1743049,16.5924925 L13.1743049,16.4075075 C13.1743049,16.4075075 13.1743049,16.315015 13.0828167,16.4075075 L13.0828167,16.2225225 C13.0828167,16.13003 12.9913284,16.0375375 12.8998402,16.13003 L12.8998402,16.13003 C12.8998402,16.13003 12.808352,16.2225225 12.7168637,16.13003 L12.7168637,16.0375375 C12.7168637,16.0375375 12.808352,16.0375375 12.808352,15.945045 C12.8998402,15.8525526 12.808352,15.7600601 12.808352,15.7600601 C12.7168637,15.6675676 12.6253755,15.5750751 12.7168637,15.4825826 C12.6253755,15.4825826 12.4423991,15.4825826 12.4423991,15.2975976 C12.4423991,15.1126126 12.4423991,15.0201201 12.3509108,14.9276276 L12.3509108,14.6501502 C12.3509108,14.6501502 12.3509108,14.5576577 12.4423991,14.5576577 C12.6253755,14.5576577 12.808352,14.5576577 12.808352,14.4651652 C12.8998402,14.3726727 12.7168637,14.1876877 12.808352,14.1876877 C12.9913284,14.0951952 13.1743049,14.1876877 13.3572813,14.0027027 C13.4487696,14.0027027 13.4487696,13.9102102 13.3572813,13.8177177 C13.3572813,13.7252252 13.2657931,13.6327327 13.2657931,13.6327327 C13.1743049,13.5402402 13.0828167,13.6327327 12.9913284,13.4477477 L12.9913284,13.2627628 C12.9913284,13.1702703 13.0828167,13.1702703 13.1743049,13.0777778 C13.3572813,12.9852853 13.4487696,13.0777778 13.631746,13.1702703 L13.7232343,13.2627628 C13.7232343,13.2627628 13.7232343,13.2627628 13.7232343,13.3552553 C13.7232343,13.5402402 13.8147225,13.7252252 13.7232343,13.9102102 C13.7232343,14.0027027 13.631746,14.0027027 13.631746,14.0951952 L13.7232343,14.0951952 C13.7232343,14.1876877 13.8147225,14.3726727 13.7232343,14.4651652 C13.631746,14.5576577 13.631746,14.4651652 13.4487696,14.4651652 C13.3572813,14.4651652 13.3572813,14.4651652 13.3572813,14.5576577 L13.4487696,14.6501502 C13.8147225,14.7426426 13.9062107,14.7426426 14.2721636,14.8351351 C14.3636519,14.8351351 14.3636519,14.9276276 14.4551401,14.9276276 L14.6381165,14.9276276 L14.7296048,14.9276276 C14.7296048,15.0201201 14.821093,15.0201201 14.821093,15.0201201 C14.9125812,15.1126126 14.9125812,15.2975976 15.0040695,15.2975976 C15.0955577,15.2051051 15.1870459,15.2975976 15.1870459,15.2975976 C15.0955577,15.3900901 15.1870459,15.4825826 15.1870459,15.5750751 C15.2785341,15.6675676 15.3700224,15.6675676 15.4615106,15.7600601 C15.5529988,15.8525526 15.6444871,15.8525526 15.6444871,15.7600601 C15.6444871,15.6675676 15.5529988,15.5750751 15.6444871,15.4825826 C15.7359753,15.6675676 15.6444871,15.8525526 15.7359753,16.0375375 L15.7359753,16.0375375 C15.8274635,16.13003 15.8274635,16.2225225 15.9189517,16.2225225 C16.01044,16.2225225 16.01044,16.13003 16.01044,16.0375375 L16.01044,15.945045 C16.01044,15.8525526 16.01044,15.8525526 16.1019282,15.7600601 C16.1019282,15.6675676 16.1934164,15.5750751 16.1934164,15.4825826 L16.1934164,15.3900901 C16.1934164,15.2975976 16.3763929,15.2051051 16.4678811,15.2051051 C16.4678811,15.2051051 16.4678811,15.2051051 16.4678811,15.1126126 C16.5593693,15.1126126 16.4678811,14.9276276 16.5593693,14.9276276 C16.5593693,14.8351351 16.6508576,14.8351351 16.6508576,14.7426426 C16.6508576,14.7426426 16.7423458,14.6501502 16.6508576,14.6501502 C17.1082987,14.7426426 17.1082987,14.6501502 17.1082987,14.6501502" id="Shape"></path>
                <path d="M13.2657931,14.4651652 L13.1743049,14.4651652 L13.1743049,14.5576577 L13.2657931,14.6501502 L13.2657931,14.9276276 C13.2657931,15.0201201 13.3572813,15.1126126 13.4487696,15.0201201 C13.5402578,14.9276276 13.631746,14.7426426 13.5402578,14.6501502 C13.3572813,14.6501502 13.4487696,14.5576577 13.2657931,14.4651652" id="Shape"></path>
                <path d="M13.0828167,15.2975976 L13.0828167,15.2975976 C13.1743049,15.4825826 13.2657931,15.3900901 13.3572813,15.3900901 L13.3572813,15.2975976 C13.2657931,15.2051051 13.2657931,15.2051051 13.0828167,15.2975976 C13.1743049,15.2051051 13.0828167,15.2051051 13.0828167,15.2051051 L13.0828167,15.2975976" id="Shape"></path>
                <path d="M13.3572813,15.6675676 C13.3572813,15.4825826 13.2657931,15.4825826 13.1743049,15.5750751 C13.0828167,15.6675676 13.1743049,15.8525526 13.2657931,15.945045 C13.2657931,15.945045 13.2657931,16.0375375 13.3572813,16.0375375 C13.3572813,16.13003 13.4487696,16.0375375 13.5402578,16.0375375 C13.5402578,15.945045 13.5402578,15.945045 13.631746,15.945045 C13.5402578,15.8525526 13.4487696,15.6675676 13.3572813,15.6675676" id="Shape"></path>
                <path d="M13.0828167,14.9276276 C13.0828167,14.8351351 12.9913284,14.8351351 13.0828167,14.9276276 C12.9913284,14.9276276 12.9913284,14.9276276 12.9913284,15.0201201 C12.9913284,15.1126126 12.9913284,15.2051051 13.0828167,15.2051051 C13.0828167,15.2051051 13.1743049,15.2051051 13.1743049,15.1126126 C13.0828167,15.0201201 13.0828167,15.0201201 13.0828167,14.9276276" id="Shape"></path>
                <path d="M13.4487696,15.4825826 L13.5402578,15.3900901 L13.631746,15.3900901 C13.631746,15.3900901 13.631746,15.3900901 13.631746,15.2975976 C13.5402578,15.2975976 13.5402578,15.3900901 13.4487696,15.3900901 C13.3572813,15.3900901 13.4487696,15.4825826 13.4487696,15.4825826" id="Shape"></path>
                <path d="M13.3572813,16.315015 C13.3572813,16.4075075 13.3572813,16.4075075 13.4487696,16.4075075 L13.5402578,16.4075075 L13.5402578,16.315015 L13.3572813,16.315015 C13.3572813,16.2225225 13.3572813,16.315015 13.3572813,16.315015" id="Shape"></path>
                <path d="M13.5402578,16.9624625 C13.5402578,16.86997 13.631746,16.86997 13.5402578,16.7774775 L13.4487696,16.7774775 C13.4487696,16.86997 13.5402578,16.9624625 13.5402578,16.9624625" id="Shape"></path>
                <path d="M7.77649941,19.2747748 L7.77649941,19.3672673 L7.95947587,19.3672673 C7.86798764,19.3672673 7.86798764,19.1822823 7.77649941,19.2747748" id="Shape"></path>
                <path d="M8.32542878,19.9222222 C8.23394056,20.0147147 8.41691701,20.1072072 8.50840524,20.1072072 L8.50840524,19.9222222 C8.50840524,19.9222222 8.41691701,19.8297297 8.32542878,19.9222222" id="Shape"></path>
                <path d="M8.59989347,20.2921922 C8.59989347,20.4771772 8.6913817,20.5696697 8.78286993,20.5696697 C8.87435815,20.3846847 8.78286993,20.2921922 8.59989347,20.2921922" id="Shape"></path>
                <path d="M17.8402045,15.4825826 C18.023181,15.3900901 18.2061575,15.3900901 18.3891339,15.3900901 C18.7550868,15.3900901 18.7550868,14.8351351 18.9380633,14.5576577 C18.9380633,14.4651652 18.9380633,14.2801802 18.8465751,14.1876877 C18.7550868,14.0027027 18.2976457,14.1876877 18.2061575,14.0027027 C18.1146692,13.9102102 18.4806221,14.0951952 18.4806221,13.9102102 C18.4806221,13.8177177 18.4806221,13.8177177 18.3891339,13.7252252 L18.2061575,13.7252252 C18.023181,13.9102102 17.9316928,14.1876877 17.8402045,14.4651652 C17.5657399,14.8351351 17.1997869,15.1126126 17.0168105,15.5750751 C17.0168105,15.6675676 17.0168105,15.6675676 17.1082987,15.7600601 C17.3827634,15.8525526 17.6572281,15.5750751 17.8402045,15.4825826" id="Shape"></path>
                <path d="M19.4869926,14.5576577 C19.3955044,14.5576577 19.3955044,14.5576577 19.3040162,14.6501502 L19.3040162,14.8351351 L19.3955044,14.8351351 C19.3955044,14.7426426 19.3955044,14.7426426 19.3040162,14.7426426 C19.4869926,14.6501502 19.4869926,14.5576577 19.4869926,14.5576577" id="Shape"></path>
                <path d="M18.2976457,15.945045 C18.3891339,16.13003 18.7550868,16.0375375 18.7550868,15.945045 C18.7550868,15.8525526 18.4806221,15.7600601 18.3891339,15.7600601 C18.2061575,15.7600601 18.4806221,15.8525526 18.2976457,15.945045" id="Shape"></path>
                <path d="M18.7550868,17.1474474 C18.8465751,17.054955 18.8465751,16.9624625 18.8465751,16.86997 L18.5721104,17.1474474 L18.7550868,17.1474474" id="Shape"></path>
                <path d="M20.4018749,14.6501502 L20.4018749,14.5576577 L20.2188985,14.5576577 C20.1274102,14.5576577 20.1274102,14.4651652 20.1274102,14.3726727 C20.1274102,14.2801802 20.035922,14.1876877 20.035922,14.0951952 C19.9444338,14.0951952 19.9444338,14.2801802 19.9444338,14.2801802 C20.1274102,14.4651652 20.2188985,14.7426426 20.4018749,14.6501502" id="Shape"></path>
                <path d="M18.2061575,13.5402402 C18.1146692,13.4477477 18.1146692,13.5402402 18.2061575,13.5402402 C18.1146692,13.6327327 18.2061575,13.6327327 18.2061575,13.5402402 L18.2061575,13.5402402" id="Shape"></path>
                <path d="M7.4105465,17.054955 C7.4105465,17.054955 7.4105465,16.9624625 7.31905827,16.9624625 L7.22757004,16.9624625 L7.22757004,17.054955 C7.22757004,17.054955 7.31905827,17.1474474 7.4105465,17.054955" id="Shape"></path>
                <path d="M8.0509641,17.054955 C8.14245233,17.054955 8.23394056,16.9624625 8.14245233,16.86997 L8.14245233,16.86997 C8.0509641,16.7774775 7.86798764,16.86997 7.95947587,16.9624625 C7.86798764,17.054955 7.95947587,17.1474474 8.0509641,17.054955" id="Shape"></path>
                <path d="M18.4806221,10.5804805 C18.4806221,10.487988 18.5721104,10.487988 18.5721104,10.3954955 L18.4806221,10.3954955 C18.3891339,10.3954955 18.3891339,10.487988 18.4806221,10.5804805 C18.3891339,10.487988 18.3891339,10.487988 18.4806221,10.5804805 C18.3891339,10.5804805 18.4806221,10.5804805 18.4806221,10.5804805" id="Shape"></path>
                <path d="M18.7550868,10.487988 C18.7550868,10.487988 18.8465751,10.3954955 18.7550868,10.3954955 L18.6635986,10.3954955 C18.6635986,10.3954955 18.6635986,10.487988 18.7550868,10.487988" id="Shape"></path>
                <path d="M17.7487163,12.8927928 C17.7487163,12.9852853 17.9316928,13.1702703 18.023181,13.0777778 C18.1146692,12.9852853 18.023181,12.8927928 18.023181,12.8927928 C17.9316928,12.8003003 17.8402045,12.8003003 17.7487163,12.8927928" id="Shape"></path>
                <path d="M18.023181,13.6327327 L18.023181,13.5402402 L17.8402045,13.5402402 C17.8402045,13.5402402 17.8402045,13.5402402 17.7487163,13.5402402 C17.7487163,13.5402402 17.7487163,13.6327327 17.8402045,13.6327327 C17.8402045,13.5402402 17.9316928,13.6327327 18.023181,13.6327327" id="Shape"></path>
                <path d="M17.7487163,13.8177177 C17.6572281,13.8177177 17.7487163,13.9102102 17.7487163,14.0027027 C17.8402045,14.0027027 17.8402045,14.0027027 17.9316928,13.9102102 C17.9316928,13.8177177 18.023181,13.7252252 17.9316928,13.7252252 C17.8402045,13.7252252 17.7487163,13.7252252 17.7487163,13.8177177" id="Shape"></path>
                <path d="M17.5657399,13.5402402 C17.5657399,13.6327327 17.4742516,13.7252252 17.5657399,13.8177177 C17.5657399,13.9102102 17.6572281,13.8177177 17.6572281,13.8177177 C17.6572281,13.7252252 17.6572281,13.6327327 17.7487163,13.6327327 L17.6572281,13.6327327 C17.6572281,13.6327327 17.6572281,13.6327327 17.6572281,13.5402402 L17.5657399,13.5402402" id="Shape"></path>
                <path d="M24.5188452,20.1072072 C24.6103334,20.1072072 24.5188452,20.0147147 24.5188452,20.1072072 L24.5188452,20.1072072 L24.5188452,20.1072072" id="Shape"></path>
                <path d="M19.212528,16.5 C19.212528,16.5924925 19.212528,16.5 19.212528,16.5 L19.1210397,16.4075075 C19.1210397,16.315015 19.0295515,16.5 18.9380633,16.4075075 L18.9380633,16.4075075 C19.0295515,16.5 18.9380633,16.5 18.8465751,16.5924925 C18.8465751,16.684985 18.9380633,16.684985 18.9380633,16.684985 C18.9380633,16.7774775 18.8465751,16.7774775 18.9380633,16.86997 L18.8465751,16.9624625 C18.8465751,16.9624625 18.7550868,17.054955 18.8465751,17.054955 C18.9380633,17.1474474 19.0295515,16.9624625 19.1210397,16.9624625 L19.212528,16.9624625 C19.3040162,16.9624625 19.3040162,16.86997 19.3955044,16.7774775 L19.212528,16.7774775 C19.212528,16.7774775 19.1210397,16.7774775 19.212528,16.5 C19.212528,16.5924925 19.212528,16.5 19.212528,16.5" id="Shape"></path>
                <path d="M19.7614573,18.2573574 C19.7614573,18.3498498 19.8529456,18.3498498 19.7614573,18.2573574 C19.8529456,18.2573574 19.8529456,18.1648649 19.8529456,18.0723724 L19.7614573,18.0723724 L19.7614573,18.2573574" id="Shape"></path>
                <path d="M19.8529456,18.0723724 C19.9444338,18.0723724 19.8529456,17.9798799 19.8529456,17.9798799 L19.7614573,17.9798799 C19.7614573,17.9798799 19.7614573,18.0723724 19.8529456,18.0723724" id="Shape"></path>
                <path d="M20.4018749,18.3498498 C20.4018749,18.3498498 20.4018749,18.2573574 20.4018749,18.3498498 C20.3103867,18.3498498 20.3103867,18.2573574 20.2188985,18.3498498 L20.1274102,18.3498498 L20.1274102,18.4423423 C20.3103867,18.3498498 20.3103867,18.3498498 20.4018749,18.3498498" id="Shape"></path>
                <path d="M21.3167572,18.2573574 L21.3167572,18.1648649 C21.225269,18.1648649 21.1337808,18.2573574 21.0422925,18.1648649 L21.0422925,18.2573574 C21.0422925,18.2573574 21.0422925,18.2573574 20.9508043,18.2573574 C21.1337808,18.3498498 21.225269,18.2573574 21.3167572,18.2573574" id="Shape"></path>
                <path d="M21.6827101,17.8873874 C21.6827101,18.0723724 21.8656866,17.9798799 21.8656866,17.8873874 C21.9571748,17.7948949 21.8656866,17.7948949 21.6827101,17.8873874 L21.7741984,17.7948949 C21.7741984,17.8873874 21.6827101,17.8873874 21.6827101,17.8873874" id="Shape"></path>
                <path d="M26.0741451,14.9276276 C26.0741451,15.0201201 26.1656333,15.0201201 26.2571216,15.0201201 C26.3486098,15.0201201 26.440098,15.0201201 26.5315862,14.9276276 C26.5315862,14.7426426 26.440098,14.6501502 26.2571216,14.6501502 C26.0741451,14.7426426 26.0741451,14.8351351 26.0741451,14.9276276" id="Shape"></path>
                <path d="M26.0741451,19.6447447 L25.9826569,19.6447447 C25.8911686,20.1072072 25.4337275,20.7546547 25.9826569,21.0321321 C26.1656333,21.2171171 26.440098,20.9396396 26.5315862,20.7546547 C26.5315862,20.4771772 26.5315862,19.8297297 26.0741451,19.6447447" id="Shape"></path>
                <path d="M24.7018217,17.6099099 C24.6103334,17.6099099 24.6103334,17.7948949 24.7018217,17.7948949 C24.7018217,17.7948949 24.7933099,17.7948949 24.7933099,17.7024024 L24.7933099,17.6099099 C24.7933099,17.6099099 24.7933099,17.6099099 24.7018217,17.6099099" id="Shape"></path>
                <path d="M25.0677746,22.327027 L25.0677746,22.512012 C25.0677746,22.512012 25.250751,22.4195195 25.0677746,22.327027 L25.0677746,22.327027" id="Shape"></path>
                <path d="M27.1720038,11.5054054 L27.0805156,11.5054054 L27.0805156,11.6903904 C26.8975391,12.0603604 26.440098,12.5228228 26.7145627,12.9852853 L26.7145627,12.9852853 C26.8060509,12.8927928 26.8975391,12.8003003 26.9890274,12.6153153 C27.0805156,12.3378378 27.2634921,12.0603604 27.3549803,11.6903904 C27.3549803,11.6903904 27.2634921,11.5054054 27.1720038,11.5054054" id="Shape"></path>
                <path d="M26.3486098,13.1702703 C26.3486098,13.2627628 26.3486098,13.2627628 26.440098,13.2627628 C26.5315862,13.2627628 26.5315862,13.1702703 26.440098,13.1702703 C26.440098,13.0777778 26.440098,13.0777778 26.3486098,13.1702703" id="Shape"></path>
                <path d="M21.6827101,10.303003 C21.5912219,10.118018 21.4997337,10.303003 21.4082454,10.303003 L21.3167572,10.2105105 L21.225269,10.2105105 C21.1337808,10.2105105 21.225269,10.3954955 21.3167572,10.3954955 C21.4082454,10.3954955 21.4082454,10.303003 21.4082454,10.3954955 C21.4997337,10.487988 21.4082454,10.672973 21.5912219,10.5804805 C21.6827101,10.5804805 21.7741984,10.487988 21.8656866,10.487988 C21.9571748,10.487988 21.9571748,10.3954955 21.9571748,10.303003 C22.048663,10.303003 22.1401513,10.2105105 22.2316395,10.303003 C22.2316395,10.303003 22.2316395,10.3954955 22.3231277,10.3954955 C22.3231277,10.487988 22.414616,10.487988 22.5061042,10.487988 C22.5975924,10.487988 22.6890806,10.487988 22.7805689,10.3954955 C22.8720571,10.303003 22.8720571,10.2105105 22.7805689,10.118018 L22.5975924,10.118018 C22.5061042,10.118018 22.5061042,10.0255255 22.414616,10.0255255 C22.048663,9.93303303 21.8656866,10.2105105 21.6827101,10.303003" id="Shape"></path>
                <path d="M22.5061042,10.487988 C22.5061042,10.487988 22.414616,10.487988 22.5061042,10.487988 L22.414616,10.487988 L22.5061042,10.487988 Z" id="Shape"></path>
                <path d="M20.7678278,10.487988 L21.0422925,10.487988 L21.0422925,10.487988 C21.0422925,10.303003 20.8593161,10.3954955 20.7678278,10.3954955 C20.8593161,10.303003 20.8593161,10.3954955 20.7678278,10.487988 C20.7678278,10.3954955 20.7678278,10.3954955 20.7678278,10.487988 C20.6763396,10.3954955 20.7678278,10.487988 20.7678278,10.487988" id="Shape"></path>
                <path d="M21.1337808,11.0429429 C21.225269,10.9504505 21.4082454,10.857958 21.4997337,10.7654655 C21.4997337,10.7654655 21.4997337,10.7654655 21.4997337,10.672973 L21.4997337,10.672973 C21.4997337,10.5804805 21.4082454,10.5804805 21.3167572,10.487988 C21.3167572,10.5804805 21.225269,10.5804805 21.225269,10.5804805 C21.1337808,10.672973 21.0422925,10.672973 21.0422925,10.7654655 L21.0422925,10.9504505 C21.1337808,11.2279279 21.1337808,11.1354354 21.1337808,11.0429429" id="Shape"></path>
                <path d="M19.7614573,10.118018 L19.7614573,10.2105105 C19.8529456,10.303003 19.8529456,10.2105105 19.7614573,10.118018 L19.7614573,10.118018" id="Shape"></path>
                <path d="M16.4678811,8.08318318 C16.5593693,8.17567568 16.7423458,8.17567568 16.833834,8.17567568 L16.9253223,8.08318318 C16.833834,7.99069069 16.7423458,8.08318318 16.7423458,7.99069069 L16.6508576,7.99069069 C16.5593693,7.8981982 16.4678811,7.99069069 16.4678811,8.08318318 C16.3763929,8.08318318 16.4678811,8.08318318 16.4678811,8.08318318" id="Shape"></path>
                <path d="M24.7933099,9.56306306 C24.7933099,9.65555556 24.7018217,9.56306306 24.6103334,9.65555556 L24.6103334,9.74804805 C24.7018217,9.84054054 24.7933099,9.74804805 24.8847981,9.74804805 L24.8847981,9.74804805 C24.8847981,9.74804805 24.9762864,9.65555556 24.9762864,9.74804805 L24.9762864,9.84054054 C24.8847981,9.84054054 24.8847981,9.93303303 24.8847981,9.93303303 L24.7018217,9.93303303 C24.7018217,9.93303303 24.7018217,9.93303303 24.6103334,9.93303303 L24.6103334,9.93303303 L24.6103334,10.118018 C24.5188452,10.2105105 24.2443805,10.303003 24.3358688,10.487988 C24.427357,10.5804805 24.6103334,10.5804805 24.7933099,10.5804805 L24.7933099,10.5804805 C24.7933099,10.3954955 24.8847981,10.3954955 24.9762864,10.303003 C24.9762864,10.303003 24.9762864,10.2105105 24.8847981,10.2105105 L24.8847981,10.118018 C24.9762864,10.118018 24.9762864,10.0255255 24.9762864,10.0255255 L24.9762864,9.93303303 C25.0677746,9.93303303 25.1592628,9.84054054 25.1592628,9.84054054 C25.1592628,9.74804805 25.0677746,9.65555556 25.0677746,9.56306306 C25.0677746,9.56306306 25.0677746,9.47057057 25.1592628,9.47057057 C25.1592628,9.47057057 25.1592628,9.47057057 25.1592628,9.37807808 C25.1592628,9.37807808 25.1592628,9.37807808 25.0677746,9.37807808 C25.0677746,9.37807808 24.9762864,9.37807808 25.0677746,9.47057057 C24.9762864,9.47057057 24.8847981,9.47057057 24.7933099,9.56306306 C24.7933099,9.37807808 24.8847981,9.56306306 24.7933099,9.56306306" id="Shape"></path>
                <path d="M23.8784276,10.487988 C23.8784276,10.5804805 23.9699158,10.5804805 24.0614041,10.487988 L24.0614041,10.487988 L23.8784276,10.487988" id="Shape"></path>
                <path d="M25.1592628,10.303003 C25.0677746,10.3954955 25.250751,10.3954955 25.3422393,10.3954955 L25.3422393,10.3954955 L25.3422393,10.3954955 C25.3422393,10.303003 25.250751,10.303003 25.1592628,10.303003" id="Shape"></path>
                <path d="M25.5252157,9.84054054 C25.4337275,9.84054054 25.4337275,9.84054054 25.5252157,9.84054054 C25.4337275,9.84054054 25.4337275,9.93303303 25.5252157,9.84054054 C25.5252157,9.93303303 25.5252157,9.93303303 25.5252157,9.84054054 L25.5252157,9.84054054" id="Shape"></path>
                <path d="M23.4209865,6.14084084 C23.5124747,6.23333333 23.6039629,6.23333333 23.6039629,6.32582583 L23.6039629,6.6957958 L23.6954512,6.78828829 L23.6954512,6.97327327 C23.6954512,7.06576577 23.7869394,7.25075075 23.7869394,7.34324324 C23.8784276,7.34324324 23.8784276,7.43573574 23.8784276,7.43573574 C23.8784276,7.52822823 23.8784276,7.52822823 23.9699158,7.62072072 C23.9699158,7.71321321 24.0614041,7.62072072 24.1528923,7.71321321 C24.2443805,7.80570571 24.3358688,7.99069069 24.427357,8.08318318 C24.427357,8.08318318 24.5188452,8.08318318 24.5188452,8.17567568 L24.5188452,8.26816817 C24.7018217,8.26816817 24.9762864,8.36066066 24.8847981,8.63813814 C24.9762864,8.54564565 25.0677746,8.54564565 25.0677746,8.45315315 C25.0677746,8.36066066 25.1592628,8.17567568 25.0677746,8.08318318 C25.0677746,7.99069069 24.9762864,7.99069069 24.8847981,7.8981982 L24.8847981,7.71321321 C24.8847981,7.62072072 24.7933099,7.62072072 24.7933099,7.62072072 C24.7933099,7.52822823 24.7018217,7.34324324 24.8847981,7.34324324 C24.8847981,7.34324324 24.8847981,7.34324324 24.8847981,7.25075075 L24.7018217,7.25075075 L24.7018217,7.15825826 C24.7018217,7.06576577 24.7018217,6.97327327 24.6103334,6.88078078 C24.5188452,6.78828829 24.427357,6.78828829 24.3358688,6.78828829 C24.2443805,6.6957958 24.2443805,6.6957958 24.1528923,6.6957958 L23.9699158,6.6957958 C23.7869394,6.51081081 23.6954512,6.32582583 23.6039629,6.14084084 C23.5124747,6.04834835 23.4209865,6.04834835 23.3294982,6.14084084 C23.4209865,6.04834835 23.4209865,6.04834835 23.4209865,6.14084084 C23.4209865,6.04834835 23.4209865,6.04834835 23.4209865,6.14084084 C23.4209865,6.04834835 23.4209865,6.14084084 23.4209865,6.14084084" id="Shape"></path>
                <path d="M22.5975924,6.41831832 C22.5061042,6.51081081 22.5975924,6.6033033 22.5975924,6.6033033 L22.9635453,6.6033033 C23.0550336,6.6033033 23.0550336,6.51081081 23.0550336,6.51081081 C23.1465218,6.41831832 23.23801,6.51081081 23.4209865,6.41831832 C23.4209865,6.51081081 23.4209865,6.51081081 23.5124747,6.51081081 C23.5124747,6.41831832 23.5124747,6.32582583 23.4209865,6.32582583 C23.3294982,6.23333333 23.3294982,6.14084084 23.23801,6.04834835 L23.1465218,6.04834835 C23.1465218,6.23333333 23.0550336,6.14084084 22.8720571,6.23333333 C22.8720571,6.23333333 22.8720571,6.23333333 22.8720571,6.32582583 L22.8720571,6.32582583 C22.8720571,6.32582583 22.8720571,6.32582583 22.8720571,6.23333333 L22.6890806,6.23333333 C22.6890806,6.32582583 22.5975924,6.41831832 22.5975924,6.41831832" id="Shape"></path>
                <path d="M20.4933632,2.81111111 C20.4018749,2.62612613 20.2188985,2.44114114 20.3103867,2.16366366 C20.5848514,2.25615616 20.8593161,2.25615616 21.1337808,2.16366366 C21.3167572,2.07117117 21.5912219,2.16366366 21.7741984,2.07117117 L21.7741984,1.88618619 C21.4997337,1.97867868 21.3167572,1.7012012 21.1337808,1.79369369 C20.8593161,1.97867868 20.5848514,1.97867868 20.3103867,2.07117117 C20.1274102,2.16366366 19.4869926,2.07117117 19.4869926,2.44114114 C19.7614573,2.44114114 20.1274102,2.44114114 20.3103867,2.71861862 C20.3103867,2.81111111 20.4018749,2.81111111 20.4933632,2.81111111" id="Shape"></path>
                <path d="M21.4082454,4.1984985 C21.4997337,4.38348348 21.6827101,4.38348348 21.7741984,4.38348348 C21.7741984,4.29099099 21.7741984,4.29099099 21.6827101,4.1984985 L21.4082454,4.1984985" id="Shape"></path>
                <path d="M21.1337808,4.66096096 C21.0422925,4.66096096 21.1337808,4.75345345 21.225269,4.84594595 C21.225269,4.75345345 21.3167572,4.56846847 21.1337808,4.66096096" id="Shape"></path>
                <path d="M20.9508043,4.38348348 L20.9508043,4.38348348 L20.9508043,4.38348348 C21.0422925,4.29099099 20.9508043,4.1984985 20.8593161,4.1984985 L20.8593161,4.29099099 C20.8593161,4.29099099 20.8593161,4.29099099 20.9508043,4.38348348" id="Shape"></path>
                <path d="M21.7741984,5.4009009 C21.7741984,5.4009009 21.7741984,5.49339339 21.7741984,5.4009009 L21.7741984,5.4009009 L21.7741984,5.4009009 C21.8656866,5.30840841 21.8656866,5.21591592 21.8656866,5.21591592 C21.8656866,5.21591592 21.8656866,5.21591592 21.7741984,5.21591592 C21.6827101,5.30840841 21.7741984,5.4009009 21.7741984,5.4009009" id="Shape"></path>
                <path d="M22.048663,5.4009009 L22.048663,5.49339339 C22.1401513,5.58588589 22.1401513,5.49339339 22.048663,5.4009009 C22.1401513,5.49339339 22.1401513,5.49339339 22.048663,5.4009009 C22.1401513,5.4009009 22.048663,5.49339339 22.048663,5.4009009" id="Shape"></path>
                <path d="M21.9571748,5.67837838 L21.9571748,5.67837838 C22.048663,5.58588589 22.048663,5.58588589 21.9571748,5.67837838 L22.048663,5.58588589 L22.048663,5.58588589 C22.048663,5.49339339 21.9571748,5.49339339 21.8656866,5.58588589 C21.7741984,5.58588589 21.9571748,5.58588589 21.9571748,5.67837838" id="Shape"></path>
                <path d="M22.048663,5.67837838 L22.048663,5.67837838 C22.048663,5.77087087 22.1401513,5.86336336 22.2316395,5.77087087 C22.2316395,5.77087087 22.3231277,5.67837838 22.2316395,5.67837838 L22.048663,5.67837838 L22.048663,5.67837838 Z" id="Shape"></path>
                <path d="M22.5061042,5.86336336 L22.5061042,5.86336336 C22.5061042,5.77087087 22.414616,5.67837838 22.414616,5.67837838 C22.414616,5.67837838 22.3231277,5.77087087 22.414616,5.77087087 C22.414616,5.86336336 22.414616,5.86336336 22.5061042,5.86336336" id="Shape"></path>
                <path d="M22.5975924,6.14084084 L22.6890806,6.14084084 C22.6890806,6.14084084 22.6890806,6.14084084 22.6890806,6.04834835 L22.6890806,6.04834835 L22.6890806,5.95585586 L22.5975924,5.95585586 L22.5975924,5.95585586 L22.5061042,5.95585586 L22.5061042,6.04834835 L22.5975924,6.14084084" id="Shape"></path>
                <path d="M22.414616,6.32582583 L22.414616,6.32582583 C22.5061042,6.23333333 22.5061042,6.23333333 22.414616,6.14084084 C22.414616,6.14084084 22.414616,6.14084084 22.3231277,6.14084084 C22.3231277,6.14084084 22.3231277,6.23333333 22.2316395,6.23333333 C22.3231277,6.32582583 22.3231277,6.32582583 22.414616,6.32582583" id="Shape"></path>
                <path d="M22.1401513,1.7012012 L22.1401513,1.7012012 L22.1401513,1.7012012 C22.048663,1.60870871 22.048663,1.60870871 21.9571748,1.60870871 C22.048663,1.7012012 22.048663,1.79369369 22.1401513,1.7012012" id="Shape"></path>
                <path d="M25.250751,4.01351351 C25.3422393,4.10600601 25.4337275,4.01351351 25.4337275,4.10600601 C25.5252157,4.1984985 25.5252157,4.29099099 25.616704,4.29099099 C25.7081922,4.29099099 25.7081922,4.29099099 25.7081922,4.1984985 C25.7081922,4.01351351 25.7081922,3.82852853 25.5252157,3.82852853 L25.0677746,3.82852853 C24.9762864,3.82852853 24.9762864,3.92102102 24.9762864,4.01351351 C25.0677746,3.92102102 25.1592628,3.92102102 25.250751,4.01351351" id="Shape"></path>
                <path d="M29.0017684,8.82312312 C28.9102802,8.73063063 28.9102802,8.54564565 28.8187919,8.45315315 C28.7273037,8.36066066 28.6358155,8.36066066 28.5443273,8.26816817 L28.5443273,8.08318318 L28.452839,7.99069069 C28.3613508,7.80570571 28.3613508,7.71321321 28.1783743,7.71321321 C28.1783743,7.52822823 28.0868861,7.52822823 27.9039097,7.43573574 L27.9039097,7.34324324 C27.9039097,7.25075075 27.8124214,7.25075075 27.8124214,7.25075075 L27.7209332,7.25075075 C27.629445,7.15825826 27.5379567,7.06576577 27.5379567,6.97327327 C27.5379567,6.88078078 27.3549803,6.78828829 27.2634921,6.6957958 L27.1720038,6.6033033 C27.0805156,6.6033033 26.9890274,6.6033033 26.9890274,6.51081081 C26.9890274,6.32582583 26.8060509,6.23333333 26.7145627,6.14084084 C26.5315862,6.04834835 26.7145627,5.77087087 26.6230745,5.49339339 C26.6230745,5.4009009 26.5315862,5.4009009 26.440098,5.4009009 C26.440098,5.4009009 26.3486098,5.4009009 26.3486098,5.30840841 C26.2571216,5.21591592 26.3486098,5.03093093 26.2571216,4.93843844 C26.1656333,4.75345345 25.9826569,4.66096096 25.8911686,4.47597598 C25.7996804,4.38348348 25.7081922,4.38348348 25.616704,4.38348348 C25.616704,4.38348348 25.616704,4.38348348 25.5252157,4.38348348 L25.4337275,4.29099099 C25.3422393,4.1984985 25.250751,4.10600601 25.1592628,4.10600601 C24.9762864,4.01351351 24.7933099,4.10600601 24.6103334,4.01351351 C24.427357,4.01351351 24.2443805,4.01351351 24.1528923,4.1984985 C23.9699158,4.29099099 23.8784276,4.38348348 23.6954512,4.38348348 C23.6039629,4.38348348 23.6954512,4.47597598 23.6954512,4.56846847 C23.6954512,4.66096096 23.5124747,4.75345345 23.6039629,4.75345345 L23.6039629,4.75345345 L23.7869394,4.75345345 C23.8784276,4.75345345 23.8784276,4.84594595 23.8784276,4.84594595 C23.9699158,4.93843844 24.0614041,5.03093093 24.0614041,5.12342342 C24.0614041,5.12342342 23.9699158,5.21591592 24.0614041,5.30840841 C24.1528923,5.4009009 24.1528923,5.49339339 24.1528923,5.58588589 C24.1528923,5.67837838 24.2443805,5.58588589 24.2443805,5.58588589 C24.427357,5.67837838 24.427357,5.86336336 24.3358688,5.95585586 L24.3358688,6.23333333 C24.427357,6.41831832 24.427357,6.6033033 24.5188452,6.6957958 L24.6103334,6.6033033 C24.7018217,6.6033033 24.7018217,6.51081081 24.7933099,6.51081081 C24.9762864,6.32582583 25.1592628,6.6957958 25.250751,6.78828829 C25.3422393,6.97327327 25.250751,7.15825826 25.3422393,7.34324324 C25.4337275,7.52822823 25.5252157,7.62072072 25.616704,7.71321321 C25.616704,7.71321321 25.616704,7.80570571 25.7081922,7.8981982 L25.7996804,7.99069069 C25.7996804,7.99069069 25.7996804,7.8981982 25.8911686,7.8981982 L25.9826569,7.8981982 C26.1656333,8.08318318 26.1656333,8.45315315 26.440098,8.45315315 C26.440098,8.45315315 26.440098,8.54564565 26.5315862,8.54564565 C26.6230745,8.54564565 26.6230745,8.45315315 26.7145627,8.54564565 C26.7145627,8.63813814 26.8060509,8.73063063 26.8060509,8.73063063 L27.0805156,8.73063063 C27.1720038,8.73063063 27.1720038,8.82312312 27.2634921,8.91561562 L27.3549803,9.00810811 C27.5379567,9.19309309 27.629445,9.47057057 27.8124214,9.65555556 C27.9039097,9.74804805 27.9953979,9.84054054 28.0868861,9.74804805 L28.0868861,9.65555556 C28.1783743,9.65555556 28.2698626,9.56306306 28.2698626,9.47057057 C28.3613508,9.37807808 28.452839,9.28558559 28.5443273,9.19309309 L28.5443273,9.19309309 C28.6358155,9.1006006 28.7273037,9.1006006 28.8187919,9.00810811 C29.0932566,9.00810811 29.0017684,8.82312312 29.0017684,8.82312312" id="Shape"></path>
                <polygon id="Shape" points="25.3422393 8.36066066 25.3422393 8.36066066 25.4337275 8.36066066"></polygon>
                <path d="M25.1592628,8.91561562 C25.1592628,9.00810811 25.250751,9.00810811 25.3422393,9.00810811 C25.4337275,9.1006006 25.4337275,9.19309309 25.5252157,9.19309309 C25.616704,9.28558559 25.616704,9.1006006 25.616704,9.00810811 L25.7081922,9.00810811 C25.7996804,8.91561562 25.7081922,8.73063063 25.616704,8.63813814 C25.5252157,8.54564565 25.5252157,8.45315315 25.3422393,8.45315315 C25.250751,8.45315315 25.250751,8.45315315 25.1592628,8.54564565 C25.0677746,8.63813814 25.1592628,8.73063063 25.1592628,8.82312312 C25.1592628,8.82312312 25.1592628,8.82312312 25.1592628,8.91561562" id="Shape"></path>
                <path d="M25.7996804,9.28558559 C25.7081922,9.47057057 25.7996804,9.65555556 25.7996804,9.84054054 C25.7996804,9.93303303 25.616704,9.93303303 25.616704,10.0255255 C25.616704,10.0255255 25.5252157,10.118018 25.616704,10.2105105 C25.616704,10.303003 25.7996804,10.303003 25.8911686,10.3954955 C26.0741451,10.487988 26.3486098,10.672973 26.440098,10.9504505 C26.5315862,11.0429429 26.5315862,11.1354354 26.5315862,11.2279279 C26.6230745,11.3204204 26.7145627,11.3204204 26.7145627,11.4129129 C26.7145627,11.5054054 26.8060509,11.5054054 26.8060509,11.4129129 C26.8975391,11.3204204 26.8975391,11.1354354 26.8060509,11.0429429 C26.7145627,10.9504505 26.7145627,10.9504505 26.7145627,10.857958 C26.7145627,10.5804805 26.6230745,10.3954955 26.5315862,10.118018 C26.440098,10.0255255 26.3486098,9.93303303 26.2571216,9.84054054 L26.2571216,9.74804805 C26.2571216,9.65555556 26.3486098,9.65555556 26.3486098,9.56306306 C26.3486098,9.47057057 26.2571216,9.37807808 26.1656333,9.28558559 C26.1656333,9.28558559 26.1656333,9.28558559 26.0741451,9.28558559 L26.1656333,9.28558559 C25.9826569,9.19309309 25.8911686,9.19309309 25.7996804,9.28558559" id="Shape"></path>
                <path d="M27.1720038,10.5804805 L27.1720038,10.3954955 C27.1720038,10.2105105 26.9890274,10.2105105 26.8975391,10.2105105 L26.8060509,10.2105105 L26.8060509,10.3954955 C26.9890274,10.672973 26.9890274,10.9504505 27.0805156,11.3204204 C27.0805156,11.4129129 27.3549803,11.3204204 27.3549803,11.2279279 L27.3549803,11.0429429 C27.3549803,10.9504505 27.2634921,10.9504505 27.2634921,10.857958 C27.2634921,10.7654655 27.1720038,10.672973 27.1720038,10.5804805" id="Shape"></path>
                <path d="M26.8060509,9.74804805 C26.7145627,9.84054054 26.8060509,9.93303303 26.8060509,10.0255255 L26.8060509,10.0255255 C26.8975391,10.0255255 26.8975391,10.0255255 26.8975391,9.93303303 C26.8060509,9.93303303 26.8975391,9.84054054 26.8060509,9.74804805 L26.8060509,9.74804805" id="Shape"></path>
                <path d="M26.8060509,9.56306306 C26.8060509,9.47057057 26.8060509,9.47057057 26.7145627,9.47057057 C26.7145627,9.56306306 26.6230745,9.56306306 26.5315862,9.56306306 C26.440098,9.65555556 26.5315862,9.65555556 26.6230745,9.74804805 L26.6230745,9.74804805 C26.8060509,9.74804805 26.8975391,9.65555556 26.8060509,9.56306306 L26.8060509,9.56306306" id="Shape"></path>
                <path d="M26.3486098,9.1006006 C26.440098,9.19309309 26.3486098,9.28558559 26.440098,9.28558559 C26.5315862,9.28558559 26.6230745,9.37807808 26.7145627,9.28558559 C26.8060509,9.28558559 26.7145627,9.19309309 26.6230745,9.19309309 L26.6230745,9.1006006 C26.6230745,9.1006006 26.6230745,9.1006006 26.5315862,9.1006006 C26.440098,9.00810811 26.6230745,9.00810811 26.5315862,8.91561562 L26.5315862,8.82312312 L26.440098,8.82312312 L26.440098,8.91561562 C26.3486098,9.00810811 26.2571216,9.1006006 26.3486098,9.1006006" id="Shape"></path>
                <path d="M26.2571216,8.54564565 C26.1656333,8.54564565 26.0741451,8.54564565 26.0741451,8.45315315 L25.9826569,8.45315315 L25.9826569,8.45315315 C25.9826569,8.45315315 25.8911686,8.54564565 25.9826569,8.54564565 C26.0741451,8.54564565 26.0741451,8.63813814 26.0741451,8.63813814 C26.0741451,8.73063063 26.1656333,8.63813814 26.1656333,8.73063063 C26.1656333,8.82312312 26.2571216,8.82312312 26.2571216,8.73063063 L26.2571216,8.63813814 C26.2571216,8.63813814 26.2571216,8.54564565 26.2571216,8.63813814 C26.2571216,8.63813814 26.3486098,8.54564565 26.2571216,8.54564565" id="Shape"></path>
                <path d="M19.7614573,12.8003003 L19.7614573,12.8003003 C19.8529456,12.7078078 19.8529456,12.7078078 19.7614573,12.8003003 C19.8529456,12.7078078 19.7614573,12.6153153 19.7614573,12.6153153 C19.7614573,12.6153153 19.6699691,12.6153153 19.6699691,12.7078078 L19.6699691,12.7078078 C19.7614573,12.7078078 19.7614573,12.7078078 19.7614573,12.8003003" id="Shape"></path>
                <path d="M26.8975391,11.5978979 C26.8060509,11.5978979 26.6230745,11.5978979 26.5315862,11.6903904 C26.3486098,11.7828829 26.2571216,12.0603604 26.1656333,12.2453453 C26.0741451,12.3378378 25.9826569,12.4303303 25.7996804,12.4303303 C25.7996804,12.4303303 25.7081922,12.4303303 25.7081922,12.3378378 L25.7081922,12.1528529 L25.7996804,12.0603604 C25.8911686,11.9678679 25.7996804,11.8753754 25.7996804,11.7828829 C25.7081922,11.5978979 25.5252157,11.4129129 25.3422393,11.5054054 C25.1592628,11.5054054 25.0677746,11.7828829 24.8847981,11.9678679 L24.8847981,11.9678679 C24.7933099,11.8753754 24.7018217,11.7828829 24.7018217,11.6903904 C24.7018217,11.6903904 24.7018217,11.6903904 24.7018217,11.5978979 C24.7933099,11.5978979 24.8847981,11.7828829 24.8847981,11.6903904 C24.9762864,11.5978979 24.8847981,11.5054054 24.7933099,11.5054054 C24.7018217,11.5054054 24.7018217,11.4129129 24.6103334,11.4129129 C24.5188452,11.4129129 24.5188452,11.3204204 24.427357,11.2279279 C24.427357,11.1354354 24.427357,10.9504505 24.3358688,10.9504505 C24.2443805,10.9504505 24.1528923,10.9504505 24.0614041,10.857958 L23.8784276,10.857958 L23.8784276,10.7654655 C23.9699158,10.7654655 24.1528923,10.7654655 24.0614041,10.5804805 C24.0614041,10.487988 23.9699158,10.487988 23.8784276,10.487988 L23.7869394,10.487988 L23.7869394,10.5804805 L23.7869394,10.7654655 C23.6954512,10.857958 23.6039629,10.857958 23.5124747,10.857958 L23.4209865,10.857958 C23.3294982,10.857958 23.23801,10.7654655 23.1465218,10.7654655 C23.0550336,10.857958 23.0550336,10.9504505 22.9635453,10.9504505 C22.8720571,10.9504505 22.8720571,10.9504505 22.7805689,11.0429429 C22.6890806,11.0429429 22.6890806,11.2279279 22.7805689,11.3204204 L22.7805689,11.4129129 C22.6890806,11.4129129 22.6890806,11.3204204 22.6890806,11.3204204 C22.6890806,11.2279279 22.5975924,11.1354354 22.5975924,11.0429429 C22.5975924,10.9504505 22.6890806,10.857958 22.7805689,10.7654655 L22.7805689,10.5804805 C22.6890806,10.487988 22.6890806,10.487988 22.5975924,10.487988 C22.414616,10.5804805 22.3231277,10.857958 22.1401513,10.7654655 C22.048663,10.7654655 21.9571748,10.5804805 21.8656866,10.5804805 C21.7741984,10.5804805 21.7741984,10.487988 21.6827101,10.5804805 C21.5912219,10.672973 21.4082454,10.7654655 21.225269,10.857958 C21.1337808,10.9504505 20.9508043,11.0429429 20.9508043,11.2279279 C20.8593161,11.4129129 20.5848514,11.5054054 20.4018749,11.3204204 C20.3103867,11.2279279 20.2188985,11.1354354 20.1274102,11.1354354 C20.035922,11.1354354 19.9444338,11.3204204 19.8529456,11.3204204 C19.7614573,11.3204204 19.7614573,11.3204204 19.6699691,11.2279279 L19.6699691,11.1354354 C19.8529456,11.0429429 20.035922,10.9504505 20.2188985,10.857958 C20.3103867,10.857958 20.3103867,10.7654655 20.3103867,10.672973 C20.3103867,10.672973 20.3103867,10.672973 20.3103867,10.5804805 L20.3103867,10.487988 C20.035922,10.487988 19.8529456,10.672973 19.7614573,10.857958 C19.7614573,10.857958 19.7614573,10.9504505 19.6699691,10.9504505 C19.4869926,10.9504505 19.3955044,11.0429429 19.212528,10.9504505 L19.1210397,10.7654655 C19.0295515,10.857958 19.0295515,10.9504505 18.9380633,10.9504505 L18.8465751,11.0429429 C18.7550868,11.1354354 18.9380633,11.3204204 18.8465751,11.4129129 C18.8465751,11.5054054 18.6635986,11.5054054 18.5721104,11.5054054 L18.5721104,11.6903904 C18.5721104,11.7828829 18.6635986,11.6903904 18.6635986,11.7828829 C18.7550868,11.8753754 18.7550868,12.0603604 18.8465751,12.0603604 C19.0295515,12.1528529 19.1210397,12.0603604 19.3040162,12.1528529 C19.3955044,12.1528529 19.4869926,12.2453453 19.5784809,12.3378378 C19.5784809,12.4303303 19.6699691,12.4303303 19.6699691,12.5228228 C19.6699691,12.5228228 19.6699691,12.6153153 19.7614573,12.6153153 L19.9444338,12.6153153 C20.035922,12.6153153 19.9444338,12.7078078 20.035922,12.8003003 C20.035922,12.8927928 20.035922,12.9852853 20.1274102,13.1702703 C20.1274102,13.1702703 20.1274102,13.3552553 20.035922,13.3552553 C20.035922,13.3552553 19.9444338,13.3552553 19.9444338,13.4477477 L19.9444338,13.7252252 L20.035922,13.7252252 C20.1274102,13.8177177 20.1274102,13.9102102 20.2188985,14.0027027 L20.3103867,14.0951952 C20.2188985,14.0951952 20.2188985,14.1876877 20.2188985,14.1876877 C20.2188985,14.1876877 20.3103867,14.2801802 20.4018749,14.1876877 C20.4933632,14.1876877 20.4933632,14.0951952 20.5848514,14.0951952 C20.5848514,14.0951952 20.6763396,14.0951952 20.6763396,14.0027027 C20.6763396,14.0027027 20.7678278,14.0951952 20.7678278,14.1876877 C20.6763396,14.2801802 20.4933632,14.1876877 20.4018749,14.2801802 C20.3103867,14.2801802 20.3103867,14.2801802 20.2188985,14.3726727 C20.2188985,14.3726727 20.2188985,14.4651652 20.3103867,14.4651652 C20.4933632,14.5576577 20.4018749,14.8351351 20.2188985,15.0201201 L20.2188985,15.2051051 L20.1274102,15.2051051 C19.9444338,15.2051051 19.6699691,15.1126126 19.4869926,15.2051051 C19.3955044,15.2051051 19.3955044,15.2975976 19.3955044,15.3900901 L19.3955044,15.3900901 C19.3040162,15.3900901 19.3040162,15.4825826 19.3040162,15.4825826 L19.3040162,15.6675676 C19.1210397,15.8525526 19.1210397,16.13003 19.0295515,16.315015 C19.0295515,16.4075075 19.1210397,16.4075075 19.1210397,16.4075075 C19.212528,16.4075075 19.212528,16.315015 19.3040162,16.315015 C19.3955044,16.315015 19.3955044,16.5 19.3955044,16.5 C19.3955044,16.5924925 19.5784809,16.5924925 19.5784809,16.5 C19.5784809,16.4075075 19.5784809,16.315015 19.6699691,16.2225225 C19.6699691,16.13003 19.5784809,16.0375375 19.5784809,15.945045 C19.5784809,15.8525526 19.5784809,15.7600601 19.6699691,15.7600601 C19.6699691,15.7600601 19.7614573,15.7600601 19.7614573,15.8525526 L19.7614573,16.0375375 L19.7614573,16.2225225 C19.7614573,16.2225225 19.8529456,16.315015 19.7614573,16.4075075 C19.7614573,16.4075075 19.7614573,16.5 19.6699691,16.5 L19.6699691,16.684985 C19.5784809,16.7774775 19.5784809,16.7774775 19.5784809,16.86997 C19.3955044,16.86997 19.212528,16.7774775 19.3040162,16.5924925 C19.212528,16.5924925 19.212528,16.5924925 19.1210397,16.684985 L19.1210397,16.9624625 C19.0295515,17.054955 19.0295515,17.1474474 18.9380633,17.2399399 C18.9380633,17.2399399 18.9380633,17.2399399 18.9380633,17.3324324 C18.8465751,17.4249249 18.7550868,17.5174174 18.6635986,17.5174174 L18.6635986,17.5174174 C18.5721104,17.6099099 18.4806221,17.5174174 18.4806221,17.6099099 C18.4806221,17.7024024 18.5721104,17.7948949 18.5721104,17.8873874 C18.5721104,17.9798799 18.5721104,17.9798799 18.4806221,18.0723724 L18.1146692,18.0723724 L18.1146692,18.0723724 C18.1146692,18.1648649 18.1146692,18.2573574 18.023181,18.3498498 C17.9316928,18.4423423 18.023181,18.5348348 18.1146692,18.5348348 C18.2061575,18.6273273 18.2061575,18.7198198 18.2976457,18.7198198 C18.3891339,18.7198198 18.3891339,18.8123123 18.4806221,18.8123123 C18.5721104,18.8123123 18.6635986,18.7198198 18.6635986,18.6273273 C18.6635986,18.5348348 18.7550868,18.6273273 18.8465751,18.6273273 L18.9380633,18.6273273 C19.0295515,18.5348348 18.9380633,18.4423423 18.9380633,18.4423423 C19.0295515,18.3498498 19.212528,18.1648649 19.3040162,18.0723724 C19.3955044,18.0723724 19.3955044,17.9798799 19.4869926,17.9798799 C19.5784809,17.9798799 19.5784809,18.0723724 19.6699691,18.0723724 C19.7614573,18.0723724 19.7614573,18.1648649 19.8529456,18.1648649 L19.9444338,18.1648649 C20.035922,18.1648649 20.1274102,18.3498498 20.2188985,18.3498498 L20.2188985,18.3498498 C20.2188985,18.2573574 20.2188985,18.1648649 20.1274102,18.0723724 C20.035922,17.9798799 19.9444338,17.8873874 19.8529456,17.8873874 L19.8529456,17.7948949 L19.8529456,17.7948949 C19.9444338,17.8873874 19.9444338,17.8873874 20.035922,17.8873874 C20.1274102,17.9798799 20.1274102,18.0723724 20.2188985,18.1648649 C20.3103867,18.1648649 20.3103867,18.2573574 20.4018749,18.2573574 C20.4933632,18.2573574 20.5848514,18.2573574 20.6763396,18.1648649 C20.6763396,18.0723724 20.6763396,18.0723724 20.5848514,18.0723724 C20.4933632,17.9798799 20.5848514,17.9798799 20.6763396,17.8873874 C20.7678278,17.7948949 20.6763396,17.7024024 20.6763396,17.6099099 L20.6763396,17.5174174 L20.6763396,17.5174174 C20.7678278,17.4249249 20.6763396,17.3324324 20.6763396,17.1474474 L20.6763396,17.1474474 C20.6763396,17.2399399 20.7678278,17.2399399 20.8593161,17.2399399 C20.9508043,17.2399399 21.0422925,17.1474474 21.0422925,17.054955 C21.1337808,16.9624625 21.3167572,17.054955 21.3167572,17.1474474 C21.3167572,17.2399399 21.3167572,17.3324324 21.225269,17.3324324 C21.0422925,17.3324324 20.8593161,17.4249249 20.7678278,17.5174174 C20.7678278,17.5174174 20.7678278,17.5174174 20.6763396,17.6099099 C20.5848514,17.7024024 20.5848514,17.7024024 20.5848514,17.7948949 L20.4933632,17.8873874 C20.5848514,17.8873874 20.5848514,17.9798799 20.5848514,17.9798799 C20.6763396,17.9798799 20.7678278,17.9798799 20.8593161,17.8873874 L20.8593161,17.7024024 C20.9508043,17.7024024 20.9508043,17.6099099 21.0422925,17.6099099 C21.225269,17.6099099 21.3167572,17.7948949 21.225269,17.8873874 L21.1337808,17.8873874 C21.0422925,17.9798799 20.9508043,18.1648649 20.8593161,18.1648649 C20.6763396,18.2573574 20.4018749,18.2573574 20.2188985,18.3498498 C20.1274102,18.4423423 20.1274102,18.5348348 20.035922,18.5348348 C19.9444338,18.5348348 19.8529456,18.6273273 19.7614573,18.5348348 L19.7614573,18.5348348 C19.7614573,18.6273273 19.5784809,18.5348348 19.4869926,18.5348348 C19.4869926,18.5348348 19.4869926,18.4423423 19.3955044,18.3498498 L19.3040162,18.3498498 L19.3040162,18.2573574 L18.5721104,18.2573574 C18.4806221,18.2573574 18.4806221,18.3498498 18.4806221,18.3498498 L18.3891339,18.4423423 C18.2976457,18.5348348 18.2061575,18.5348348 18.1146692,18.5348348 C18.023181,18.5348348 17.9316928,18.5348348 17.8402045,18.6273273 C17.6572281,18.6273273 17.5657399,18.8123123 17.4742516,18.9048048 C17.3827634,18.9972973 17.2912752,18.9972973 17.1997869,18.9972973 L17.1997869,19.0897898 C17.0168105,19.0897898 16.9253223,19.3672673 16.833834,19.5522523 L16.833834,19.7372372 C16.7423458,19.8297297 16.7423458,20.0147147 16.5593693,20.1072072 L16.5593693,20.1996997 C16.6508576,20.3846847 16.833834,20.4771772 17.0168105,20.6621622 C17.0168105,20.7546547 17.1082987,20.7546547 17.1082987,20.7546547 C17.1997869,20.8471471 17.1997869,20.9396396 17.2912752,21.1246246 C17.3827634,21.3096096 17.5657399,21.3096096 17.7487163,21.3096096 C17.8402045,21.3096096 17.9316928,21.4021021 17.9316928,21.4021021 C18.1146692,21.4021021 18.3891339,21.4945946 18.5721104,21.4021021 C18.8465751,21.4945946 19.212528,21.4021021 19.4869926,21.4945946 C19.5784809,21.4945946 19.5784809,21.5870871 19.5784809,21.6795796 C19.6699691,21.7720721 19.7614573,21.9570571 19.8529456,22.0495495 C19.9444338,22.142042 20.1274102,22.142042 20.2188985,22.142042 C20.2188985,22.142042 20.2188985,22.2345345 20.3103867,22.327027 C20.3103867,22.4195195 20.3103867,22.4195195 20.4018749,22.512012 C20.4933632,22.6045045 20.4933632,22.6045045 20.4933632,22.696997 C20.4933632,22.7894895 20.4018749,22.881982 20.4018749,23.066967 L20.4018749,23.251952 C20.5848514,23.4369369 20.7678278,23.6219219 20.9508043,23.7144144 C20.9508043,23.7144144 21.0422925,23.7144144 20.9508043,23.8069069 C21.0422925,23.8069069 21.0422925,23.8993994 21.1337808,23.9918919 C21.1337808,24.0843844 21.1337808,24.0843844 21.225269,24.1768769 C21.3167572,24.2693694 21.4082454,24.3618619 21.4997337,24.4543544 C21.5912219,24.5468468 21.7741984,24.5468468 21.8656866,24.5468468 C21.8656866,24.5468468 21.9571748,24.5468468 21.9571748,24.6393393 C22.048663,24.6393393 22.2316395,24.7318318 22.3231277,24.6393393 C22.414616,24.5468468 22.414616,24.4543544 22.5061042,24.4543544 C22.5975924,24.3618619 22.7805689,24.3618619 22.8720571,24.3618619 C22.8720571,24.3618619 22.9635453,24.3618619 22.9635453,24.2693694 C22.9635453,24.1768769 23.0550336,24.1768769 23.0550336,24.0843844 C23.1465218,24.0843844 23.23801,23.9918919 23.3294982,23.9918919 C23.5124747,23.8993994 23.6039629,23.7144144 23.7869394,23.6219219 C23.9699158,23.5294294 24.1528923,23.5294294 24.2443805,23.4369369 C24.3358688,23.251952 24.2443805,23.066967 24.2443805,22.881982 C24.2443805,22.7894895 24.3358688,22.696997 24.3358688,22.6045045 L24.3358688,22.142042 C24.3358688,22.0495495 24.2443805,21.9570571 24.2443805,21.8645646 C24.2443805,21.7720721 24.3358688,21.7720721 24.427357,21.7720721 C24.5188452,21.6795796 24.5188452,21.4945946 24.6103334,21.4021021 C24.6103334,21.4021021 24.7018217,21.4021021 24.7018217,21.3096096 C24.7933099,21.3096096 24.7018217,21.2171171 24.7018217,21.1246246 C24.6103334,21.1246246 24.6103334,21.0321321 24.6103334,21.0321321 C24.5188452,20.8471471 24.3358688,20.6621622 24.1528923,20.5696697 C24.0614041,20.5696697 24.0614041,20.4771772 24.0614041,20.4771772 L24.0614041,20.3846847 C23.9699158,20.3846847 24.0614041,20.2921922 23.9699158,20.2921922 L24.0614041,20.2921922 L24.0614041,20.2921922 L24.0614041,20.2921922 C24.1528923,20.1996997 24.1528923,20.0147147 24.2443805,19.9222222 C24.2443805,19.9222222 24.3358688,19.9222222 24.3358688,19.8297297 L24.3358688,19.5522523 C24.2443805,19.4597598 24.3358688,19.2747748 24.3358688,19.1822823 C24.3358688,18.9048048 24.3358688,18.7198198 24.2443805,18.4423423 C24.2443805,18.3498498 24.1528923,18.3498498 24.0614041,18.3498498 C24.0614041,18.3498498 24.0614041,18.4423423 23.9699158,18.4423423 C23.9699158,18.4423423 23.9699158,18.5348348 23.8784276,18.6273273 C23.8784276,18.7198198 23.6954512,18.7198198 23.6954512,18.8123123 C23.6954512,18.9048048 23.6954512,18.9048048 23.6039629,18.9972973 L23.5124747,19.0897898 C23.8784276,18.8123123 23.7869394,18.8123123 23.7869394,18.9048048 L23.5124747,18.9048048 C22.9635453,18.7198198 22.5061042,18.5348348 22.048663,18.4423423 L22.048663,18.4423423 L22.3231277,18.4423423 C22.414616,18.4423423 22.3231277,18.3498498 22.3231277,18.3498498 C22.414616,18.3498498 22.5061042,18.4423423 22.5975924,18.5348348 C22.7805689,18.6273273 23.0550336,18.6273273 23.23801,18.7198198 C23.4209865,18.7198198 23.5124747,18.9048048 23.6954512,18.9048048 C23.8784276,18.9048048 23.9699158,18.8123123 24.0614041,18.8123123 C24.0614041,18.8123123 24.0614041,18.8123123 24.0614041,18.7198198 C24.1528923,18.6273273 24.2443805,18.5348348 24.2443805,18.4423423 L24.2443805,18.1648649 L24.3358688,18.0723724 L24.3358688,17.7024024 C24.427357,17.7024024 24.427357,17.6099099 24.427357,17.6099099 C24.427357,17.6099099 24.427357,17.6099099 24.427357,17.5174174 L24.427357,17.3324324 C24.427357,17.1474474 24.427357,16.9624625 24.3358688,16.86997 C24.3358688,16.7774775 24.2443805,16.7774775 24.1528923,16.7774775 C24.1528923,16.7774775 24.1528923,16.86997 24.0614041,16.86997 C23.9699158,16.86997 23.8784276,16.86997 23.8784276,16.9624625 C23.7869394,16.9624625 23.7869394,17.054955 23.7869394,17.054955 C23.6954512,17.1474474 23.6039629,17.2399399 23.4209865,17.2399399 C23.3294982,17.2399399 23.23801,17.2399399 23.23801,17.1474474 C23.1465218,16.9624625 23.4209865,16.9624625 23.6039629,16.9624625 L23.6954512,16.86997 C23.6954512,16.7774775 23.7869394,16.684985 23.8784276,16.684985 L24.0614041,16.684985 C24.1528923,16.684985 24.1528923,16.5924925 24.2443805,16.5924925 C24.2443805,16.5924925 24.2443805,16.5 24.3358688,16.4075075 C24.3358688,16.315015 24.427357,16.315015 24.5188452,16.2225225 C24.6103334,16.0375375 24.6103334,15.8525526 24.7018217,15.6675676 C24.7933099,15.5750751 24.7018217,15.7600601 24.7933099,15.8525526 C24.8847981,15.945045 24.9762864,15.945045 25.0677746,15.8525526 C25.1592628,15.7600601 25.0677746,15.6675676 25.1592628,15.6675676 L25.250751,15.6675676 C25.3422393,15.6675676 25.3422393,15.7600601 25.4337275,15.7600601 C25.4337275,15.7600601 25.5252157,15.6675676 25.616704,15.6675676 L25.8911686,15.6675676 C26.0741451,15.5750751 26.440098,15.6675676 26.440098,15.4825826 C26.440098,15.2051051 26.1656333,14.9276276 25.8911686,14.8351351 C25.7081922,14.7426426 25.7996804,14.4651652 25.616704,14.2801802 C25.5252157,14.2801802 25.616704,14.1876877 25.5252157,14.0951952 C25.5252157,14.0951952 25.5252157,14.0951952 25.4337275,14.0027027 L25.3422393,13.9102102 L25.3422393,13.4477477 C25.3422393,13.3552553 25.4337275,13.3552553 25.5252157,13.3552553 C25.616704,13.2627628 25.7081922,13.2627628 25.7081922,13.1702703 L25.7081922,12.8003003 L25.7996804,12.7078078 C25.9826569,12.7078078 26.2571216,12.8003003 26.440098,12.6153153 C26.5315862,12.6153153 26.5315862,12.5228228 26.5315862,12.4303303 C26.7145627,12.2453453 26.8975391,12.0603604 26.8975391,11.6903904 C26.8060509,11.7828829 26.8975391,11.7828829 26.8975391,11.5978979 C26.9890274,11.6903904 26.9890274,11.5978979 26.8975391,11.5978979 M22.7805689,16.5924925 C22.7805689,16.5924925 22.7805689,16.684985 22.7805689,16.5924925 C22.6890806,16.684985 22.6890806,16.684985 22.5975924,16.5924925 C22.5975924,16.5 22.5061042,16.5 22.5061042,16.4075075 C22.414616,16.4075075 22.414616,16.4075075 22.414616,16.5 L22.2316395,16.5 C22.2316395,16.4075075 22.1401513,16.4075075 22.1401513,16.315015 C22.048663,16.2225225 22.1401513,16.13003 22.2316395,16.13003 C22.3231277,16.13003 22.3231277,16.13003 22.3231277,16.2225225 L22.3231277,16.2225225 C22.3231277,16.2225225 22.3231277,16.2225225 22.3231277,16.315015 C22.414616,16.4075075 22.414616,16.315015 22.5061042,16.315015 L22.7805689,16.315015 L22.7805689,16.315015 C22.7805689,16.4075075 22.8720571,16.5 22.7805689,16.5924925 L22.7805689,16.5924925" id="Shape"></path>
                <path d="M14.2721636,32.6861862 C15.4615106,30.9288288 19.0295515,29.078979 22.5061042,29.078979 C25.9826569,29.078979 29.8251625,31.1138138 31.2889741,30.0039039 C31.2889741,30.0039039 29.7336742,31.2987988 26.6230745,31.2987988 C23.5124747,31.2987988 22.3231277,29.7264264 20.2188985,29.7264264 C18.023181,29.7264264 15.8274635,31.4837838 14.821093,32.9636637 L14.2721636,32.6861862 Z" id="Shape"></path>
                <path d="M25.3422393,28.8015015 C25.3422393,28.8015015 26.3486098,28.1540541 26.8975391,27.0441441 C27.4464685,25.9342342 28.8187919,24.0843844 30.2826036,22.9744745 C30.2826036,22.9744745 28.7273037,28.0615616 27.0805156,28.2465465 C27.0805156,28.2465465 26.8060509,28.4315315 27.2634921,28.339039 C27.7209332,28.2465465 29.8251625,27.5066066 30.5570683,27.3216216 C31.2889741,27.2291291 33.1187387,26.7666667 33.5761798,26.3042042 C34.033621,25.9342342 34.3080857,25.9342342 34.3080857,25.9342342 C34.3080857,25.9342342 32.2953446,29.3564565 28.6358155,29.3564565 C28.6358155,29.3564565 26.8060509,29.263964 25.3422393,28.8015015" id="Shape"></path>
                <path d="M29.642186,27.0441441 C29.642186,27.0441441 30.0081389,26.4891892 30.0996271,25.4717718 C30.1911154,24.4543544 30.831533,22.142042 32.5698093,19.6447447 C32.5698093,19.6447447 32.844274,23.6219219 30.831533,26.1192192 C30.831533,26.1192192 30.7400447,26.4891892 30.9230212,26.2117117 C31.1974859,25.9342342 32.3868329,24.4543544 35.1314797,22.6045045 C35.1314797,22.6045045 36.5038031,21.4021021 36.5952914,21.0321321 C36.5952914,20.9396396 35.4974326,26.6741742 29.642186,27.0441441" id="Shape"></path>
                <path d="M33.0272505,23.251952 C33.0272505,23.251952 33.2102269,22.6045045 33.2102269,22.0495495 C33.2102269,21.4945946 32.9357622,19.6447447 32.9357622,18.8123123 C32.9357622,17.9798799 33.0272505,16.4075075 33.6676681,15.3900901 C33.6676681,15.3900901 33.6676681,16.315015 33.8506445,16.684985 C34.033621,17.054955 34.3080857,18.7198198 34.3080857,18.9972973 C34.3080857,19.1822823 34.2165974,20.5696697 33.9421327,21.3096096 C33.9421327,21.3096096 34.2165974,21.1246246 34.4910621,20.5696697 C34.7655268,20.0147147 35.4974326,18.9972973 36.5038031,17.9798799 C37.5101736,16.9624625 37.7846383,16.0375375 37.7846383,16.0375375 C37.7846383,16.0375375 38.059103,17.8873874 36.6867796,19.8297297 C35.3144562,21.7720721 34.7655268,21.4945946 34.033621,22.2345345 C34.033621,22.2345345 33.1187387,23.251952 33.0272505,23.251952" id="Shape"></path>
                <path d="M35.1314797,18.7198198 C35.1314797,18.7198198 35.1314797,17.6099099 34.857015,17.2399399 C34.6740386,16.86997 33.3932034,14.6501502 33.6676681,11.7828829 C33.6676681,11.7828829 33.8506445,11.5978979 34.2165974,12.7078078 C34.5825503,13.8177177 35.1314797,14.1876877 35.3144562,15.2975976 C35.4974326,16.4075075 35.4974326,16.86997 35.4974326,16.86997 C35.4974326,16.86997 35.5889208,17.054955 35.5889208,16.86997 C35.5889208,16.7774775 35.6804091,15.2051051 36.3208267,13.9102102 C36.9612443,12.5228228 37.7846383,11.2279279 37.6931501,10.303003 C37.6931501,10.303003 38.059103,10.303003 37.9676148,11.7828829 C38.059103,13.2627628 37.6931501,15.8525526 35.1314797,18.7198198" id="Shape"></path>
                <path d="M35.8633855,14.2801802 C35.8633855,14.2801802 35.4059444,13.2627628 35.1314797,12.8927928 C34.857015,12.5228228 32.6612975,9.47057057 32.4783211,7.99069069 C32.4783211,7.99069069 32.6612975,7.8981982 32.844274,8.26816817 C33.0272505,8.63813814 34.033621,9.65555556 34.2165974,9.84054054 C34.3995739,10.0255255 35.4974326,11.1354354 35.5889208,12.4303303 C35.5889208,12.4303303 35.6804091,12.5228228 35.4974326,10.487988 C35.3144562,8.45315315 36.1378502,7.06576577 35.4059444,5.58588589 C35.4059444,5.58588589 36.4123149,5.77087087 36.9612443,10.0255255 C36.9612443,10.0255255 36.9612443,11.5054054 36.1378502,13.3552553 C36.2293384,13.2627628 35.9548738,14.2801802 35.8633855,14.2801802" id="Shape"></path>
                <path d="M35.0399915,9.56306306 C35.0399915,9.56306306 34.2165974,8.73063063 33.5761798,8.36066066 C32.9357622,7.99069069 30.9230212,5.95585586 30.5570683,4.38348348 C30.5570683,4.38348348 30.6485565,4.1984985 31.2889741,5.03093093 C31.7464153,5.67837838 32.2953446,5.4009009 33.7591563,7.25075075 C33.7591563,7.25075075 33.9421327,7.71321321 34.033621,7.62072072 C34.1251092,7.62072072 33.9421327,7.15825826 33.9421327,7.15825826 C33.9421327,7.15825826 33.8506445,6.04834835 33.8506445,5.67837838 C33.8506445,5.30840841 33.2102269,3.08858859 33.0272505,2.81111111 C33.0272505,2.81111111 35.0399915,3.92102102 35.3144562,7.15825826 C35.2229679,7.15825826 35.1314797,9.47057057 35.0399915,9.56306306" id="Shape"></path>
                <path d="M33.3932034,6.14084084 C33.3932034,6.14084084 33.4846916,3.36606607 29.9166507,1.88618619 C29.9166507,1.88618619 31.1974859,4.47597598 32.1123682,5.12342342 C33.0272505,5.77087087 33.3932034,6.14084084 33.3932034,6.14084084" id="Shape"></path>
                <path d="M24.0614041,32.6861862 C22.8720571,30.9288288 19.3040162,29.078979 15.8274635,29.078979 C12.3509108,29.078979 8.50840524,31.1138138 7.04459359,30.0039039 C7.04459359,30.0039039 8.59989347,31.2987988 11.7104932,31.2987988 C14.821093,31.2987988 16.01044,29.7264264 18.1146692,29.7264264 C20.2188985,29.7264264 22.5061042,31.4837838 23.5124747,32.9636637 L24.0614041,32.6861862 Z" id="Shape"></path>
                <path d="M12.9913284,28.8015015 C12.9913284,28.8015015 11.9849579,28.1540541 11.4360286,27.0441441 C10.8870992,25.9342342 9.51477575,24.0843844 8.0509641,22.9744745 C8.0509641,22.9744745 9.60626398,28.0615616 11.2530521,28.2465465 C11.2530521,28.2465465 11.5275168,28.4315315 11.0700756,28.339039 C10.6126345,28.2465465 8.50840524,27.5066066 7.77649941,27.3216216 C7.04459359,27.2291291 5.21482902,26.7666667 4.75738788,26.3042042 C4.39143496,25.9342342 4.02548205,25.9342342 4.02548205,25.9342342 C4.02548205,25.9342342 6.03822307,29.3564565 9.69775221,29.3564565 C9.69775221,29.3564565 11.5275168,29.263964 12.9913284,28.8015015" id="Shape"></path>
                <path d="M8.6913817,27.0441441 C8.6913817,27.0441441 8.32542878,26.4891892 8.23394056,25.4717718 C8.14245233,24.4543544 7.50203473,22.142042 5.76375839,19.6447447 C5.76375839,19.6447447 5.4892937,23.6219219 7.50203473,26.1192192 C7.50203473,26.1192192 7.59352296,26.4891892 7.4105465,26.2117117 C7.13608182,25.9342342 5.94673485,24.4543544 3.20208799,22.6045045 C3.20208799,22.6045045 1.82976457,21.4021021 1.73827634,21.0321321 C1.73827634,20.9396396 2.83613508,26.6741742 8.6913817,27.0441441" id="Shape"></path>
                <path d="M5.30631725,23.251952 C5.30631725,23.251952 5.12334079,22.6045045 5.12334079,22.0495495 C5.12334079,21.4945946 5.39780548,19.6447447 5.39780548,18.8123123 C5.39780548,17.9798799 5.30631725,16.4075075 4.66589965,15.3900901 C4.66589965,15.3900901 4.66589965,16.315015 4.48292319,16.684985 C4.29994673,17.054955 4.02548205,18.7198198 4.02548205,18.9972973 C4.02548205,19.1822823 4.11697028,20.5696697 4.39143496,21.3096096 C4.39143496,21.3096096 4.11697028,21.1246246 3.84250559,20.5696697 C3.56804091,20.0147147 2.83613508,18.9972973 1.82976457,17.9798799 C0.823394056,16.9624625 0.54892937,16.0375375 0.54892937,16.0375375 C0.54892937,16.0375375 0.274464685,17.8873874 1.64678811,19.8297297 C3.01911154,21.7720721 3.56804091,21.4945946 4.29994673,22.2345345 C4.39143496,22.2345345 5.21482902,23.251952 5.30631725,23.251952" id="Shape"></path>
                <path d="M3.20208799,18.7198198 C3.20208799,18.7198198 3.29357622,17.6099099 3.47655268,17.2399399 C3.65952914,16.86997 4.94036433,14.6501502 4.66589965,11.7828829 C4.66589965,11.7828829 4.48292319,11.5978979 4.11697028,12.7078078 C3.75101736,13.8177177 3.20208799,14.1876877 3.01911154,15.2975976 C2.74464685,16.4075075 2.74464685,16.86997 2.74464685,16.86997 C2.74464685,16.86997 2.65315862,17.054955 2.65315862,16.86997 C2.65315862,16.7774775 2.5616704,15.2051051 1.9212528,13.9102102 C1.2808352,12.5228228 0.457441142,11.2279279 0.54892937,10.303003 C0.54892937,10.303003 0.182976457,10.303003 0.274464685,11.7828829 C0.274464685,13.2627628 0.640417599,15.8525526 3.20208799,18.7198198" id="Shape"></path>
                <path d="M2.47018217,14.2801802 C2.47018217,14.2801802 2.92762331,13.2627628 3.20208799,12.8927928 C3.47655268,12.5228228 5.67227016,9.47057057 5.85524662,7.99069069 C5.85524662,7.99069069 5.67227016,7.8981982 5.4892937,8.26816817 C5.30631725,8.63813814 4.29994673,9.65555556 4.11697028,9.84054054 C3.93399382,10.0255255 2.83613508,11.1354354 2.74464685,12.4303303 C2.74464685,12.4303303 2.65315862,12.5228228 2.83613508,10.487988 C3.01911154,8.45315315 2.19571748,7.06576577 2.92762331,5.58588589 C2.92762331,5.58588589 1.9212528,5.77087087 1.37232343,10.0255255 C1.37232343,10.0255255 1.37232343,11.5054054 2.19571748,13.3552553 C2.10422925,13.2627628 2.37869394,14.2801802 2.47018217,14.2801802" id="Shape"></path>
                <path d="M3.29357622,9.56306306 C3.29357622,9.56306306 4.11697028,8.73063063 4.75738788,8.36066066 C5.39780548,7.99069069 7.4105465,5.95585586 7.77649941,4.38348348 C7.77649941,4.38348348 7.68501119,4.1984985 7.04459359,5.03093093 C6.58715244,5.67837838 6.03822307,5.4009009 4.57441142,7.25075075 C4.57441142,7.25075075 4.39143496,7.71321321 4.29994673,7.62072072 C4.20845851,7.62072072 4.39143496,7.15825826 4.39143496,7.15825826 C4.39143496,7.15825826 4.66589965,5.95585586 4.66589965,5.58588589 C4.66589965,5.21591592 5.30631725,2.9960961 5.4892937,2.71861862 C5.4892937,2.71861862 3.47655268,3.82852853 3.20208799,7.06576577 C3.11059977,7.15825826 3.20208799,9.47057057 3.29357622,9.56306306" id="Shape"></path>
                <path d="M4.94036433,6.14084084 C4.94036433,6.14084084 4.84887611,3.36606607 8.41691701,1.88618619 C8.41691701,1.88618619 7.13608182,4.47597598 6.22119953,5.12342342 C5.30631725,5.77087087 4.94036433,6.14084084 4.94036433,6.14084084" id="Shape"></path>
            </g>
        </g>
    </g>
</svg>