<?xml version="1.0" encoding="UTF-8"?>
<svg width="52px" height="60px" viewBox="0 0 52 60" version="1.1" xmlns="http://www.w3.org/2000/svg" xmlns:xlink="http://www.w3.org/1999/xlink">
    <!-- Generator: Sketch 48.2 (47327) - http://www.bohemiancoding.com/sketch -->
    <title>tb copy</title>
    <desc>Created with Sketch.</desc>
    <defs>
        <polygon id="path-1" points="0 44.4971524 183.343473 44.4971524 183.343473 -0.000164634147 0 -0.000164634147"></polygon>
    </defs>
    <g id="Page-1" stroke="none" stroke-width="1" fill="none" fill-rule="evenodd">
        <g id="tb-copy">
            <g id="Page-1" transform="translate(0.200000, 8.000000)">
                <path d="M21.5640111,18.4430305 C21.5640111,16.1288232 23.4221084,14.2580305 25.697031,14.2580305 C27.9838783,14.2646159 29.8219204,16.1310183 29.8273407,18.4430305 C29.8219204,20.75175 27.9817102,22.6148598 25.697031,22.6187012 L25.697031,22.3569329 L25.697031,22.0896768 C27.6960575,22.0896768 29.3053606,20.4603476 29.3053606,18.4430305 C29.3053606,16.4196768 27.6917212,14.7903476 25.697031,14.7903476 C23.7050509,14.7903476 22.0897854,16.4196768 22.0849071,18.4430305 C22.0897854,20.4603476 23.7050509,22.0852866 25.697031,22.0896768 L25.697031,22.3569329 L25.697031,22.6187012 C23.4221084,22.6187012 21.5640111,20.7555915 21.5640111,18.4430305" id="Fill-9" fill="#026CB6"></path>
                <path d="M18.2805774,18.4430305 C18.2805774,14.3002866 21.596208,10.9280305 25.6977898,10.9280305 C29.7879889,10.9280305 33.1139181,14.2969939 33.1139181,18.4430305 C33.1139181,22.5802866 29.7879889,25.9465061 25.6977898,25.9476037 L25.6977898,25.6869329 L25.6977898,25.4213232 C29.4947478,25.4136402 32.5870597,22.2872378 32.5935642,18.4430305 C32.5870597,14.5883963 29.4947478,11.464189 25.6977898,11.4554085 C21.8899912,11.464189 18.8128562,14.5883963 18.8041836,18.4430305 C18.8128562,22.2872378 21.8899912,25.4136402 25.6977898,25.4213232 L25.6977898,25.6869329 L25.6977898,25.9476037 C21.596208,25.9476037 18.2805774,22.5802866 18.2805774,18.4430305" id="Fill-11" fill="#026CB6"></path>
                <path d="M14.6985907,18.4430305 C14.6985907,12.2922988 19.6256925,7.3137622 25.697573,7.3137622 C31.7645752,7.3137622 36.6851726,12.2922988 36.6878827,18.4430305 C36.6851726,24.5833354 31.7645752,29.5662622 25.697573,29.5662622 L25.697573,29.3012012 L25.697573,29.0355915 C31.4772965,29.026811 36.155604,24.2924817 36.1659027,18.4430305 C36.155604,12.5831524 31.4772965,7.85211585 25.697573,7.83784756 C19.9173075,7.85211585 15.2324956,12.5831524 15.2216549,18.4430305 C15.2324956,24.2924817 19.9173075,29.026811 25.697573,29.0355915 L25.697573,29.3012012 L25.697573,29.5662622 C19.6256925,29.5662622 14.6985907,24.5877256 14.6985907,18.4430305" id="Fill-13" fill="#026CB6"></path>
                <path d="M11.2791062,18.4430305 C11.2791062,10.3688232 17.7309535,3.84107927 25.6956217,3.84107927 C33.663,3.84107927 40.124604,10.3688232 40.124604,18.4430305 C40.124604,26.5035183 33.663,33.0411402 25.6956217,33.0411402 L25.6956217,32.7760793 L25.6956217,32.5115671 C33.3768053,32.4962012 39.588531,26.2110183 39.6015398,18.4430305 C39.588531,10.6651646 33.3768053,4.37943293 25.6956217,4.3662622 C18.0166062,4.37943293 11.8151792,10.6651646 11.8005442,18.4430305 C11.8151792,26.2110183 18.0166062,32.4962012 25.6956217,32.5115671 L25.6956217,32.7760793 L25.6956217,33.0411402 C17.7309535,33.0411402 11.2791062,26.5035183 11.2791062,18.4430305" id="Fill-15" fill="#026CB6"></path>
                <path d="M7.49331416,18.4430305 C7.49331416,8.26260366 15.6433584,0.00345731707 25.6948628,0.000164634147 C35.7479934,0.00345731707 43.9012898,8.26260366 43.9012898,18.4430305 C43.9012898,28.621811 35.7479934,36.8710793 25.6948628,36.8710793 L25.6948628,36.6049207 L25.6948628,36.3420549 C35.4617987,36.3233963 43.3630487,28.3309573 43.3803938,18.4430305 C43.3630487,8.55345732 35.4617987,0.54729878 25.6948628,0.529189024 C15.9333473,0.54729878 8.03209735,8.55345732 8.01312611,18.4430305 C8.03209735,28.3309573 15.9333473,36.3233963 25.6948628,36.3420549 L25.6948628,36.6049207 L25.6948628,36.8710793 C15.6433584,36.8710793 7.49331416,28.621811 7.49331416,18.4430305" id="Fill-17" fill="#026CB6"></path>
                <mask id="mask-2" fill="white">
                    <use xlink:href="#path-1"></use>
                </mask>
                <g id="Clip-20"></g>
                <polygon id="Fill-19" fill="#026CB6" mask="url(#mask-2)" points="25.4285066 14.5277012 27.2472566 14.5277012 27.2472566 0.266542683 25.4285066 0.266542683"></polygon>
                <polygon id="Fill-21" fill="#026CB6" mask="url(#mask-2)" points="12.832146 5.78035976 13.2023562 5.40883537 23.1476217 15.4827988 22.7768695 15.859811"></polygon>
                <polygon id="Fill-22" fill="#026CB6" mask="url(#mask-2)" points="7.75110619 19.9691341 21.8239712 19.9691341 21.8239712 18.1803841 7.75110619 18.1803841"></polygon>
                <polygon id="Fill-23" fill="#026CB6" mask="url(#mask-2)" points="12.832146 31.0880305 22.7768695 21.034372 23.1476217 21.4058963 13.2023562 31.4644939"></polygon>
                <polygon id="Fill-24" fill="#026CB6" mask="url(#mask-2)" points="25.4285066 36.6051402 27.2472566 36.6051402 27.2472566 22.3571524 25.4285066 22.3571524"></polygon>
                <polygon id="Fill-25" fill="#026CB6" mask="url(#mask-2)" points="28.2473617 21.4061159 28.6175719 21.0334939 38.5650055 31.0887988 38.1953374 31.4636159"></polygon>
                <polygon id="Fill-26" fill="#026CB6" mask="url(#mask-2)" points="29.5647788 19.9785091 43.6419801 19.9785091 43.6419801 18.1803841 29.5647788 18.1803841"></polygon>
                <polygon id="Fill-27" fill="#026CB6" mask="url(#mask-2)" points="28.2473617 15.4826341 38.1953374 5.40921951 38.5650055 5.78019512 28.6175719 15.8596463"></polygon>
                <path d="M22.9334093,19.6236768 C23.0884314,19.6044695 23.0634978,19.7444085 23.1166173,19.8344085 C23.1166173,19.83825 23.158354,19.83825 23.1822035,19.8344085 C23.419615,19.5709939 23.5692168,19.2647744 23.6293827,18.9053232 C23.6293827,18.8800793 23.6965951,18.8487988 23.6965951,18.8350793 C23.6602788,18.6737378 23.4884535,18.6155671 23.4114845,18.4827622 C23.3231327,18.7220305 23.081927,18.5261159 22.9008872,18.6430061 C22.898177,18.6462988 22.883,18.7127012 22.9334093,18.7297134 C22.9957434,18.763189 23.0884314,18.7346524 23.1106549,18.7834939 C23.1540177,18.8487988 23.1540177,18.9574573 23.0884314,19.0364817 C23.081927,19.0589817 23.0304336,19.0545915 23.0304336,19.0364817 C22.9355774,18.8526402 22.7865177,18.8800793 22.6195708,18.8800793 C22.6889513,18.9409939 22.5653673,18.9223354 22.5935531,18.9574573 C22.362104,18.8965427 22.1371593,19.0079451 21.9122146,19.0304451 C21.8450022,19.0364817 21.7539403,18.9837988 21.6937743,18.9223354 C21.6135531,19.0079451 21.5192389,19.1797134 21.3907765,19.1314207 C21.3474137,19.1111159 21.2736969,19.0079451 21.3241062,18.9837988 C21.4514845,18.9053232 21.565854,18.815872 21.627104,18.6918476 C21.6764292,18.5870305 21.627104,18.4652012 21.6829336,18.3603841 C21.7474358,18.2259329 21.8542168,18.1024573 21.978885,18.1101402 C22.1198142,18.1101402 22.3794491,18.2374573 22.4986969,18.0816037 C22.5415177,18.0398963 22.6282434,18.1672134 22.6797367,18.2259329 C22.699792,18.2462378 22.6710642,18.2769695 22.6499248,18.3038598 C22.5653673,18.3889207 22.4314845,18.3971524 22.3794491,18.5261159 C22.3404226,18.6144695 22.3902898,18.6918476 22.4569602,18.7127012 C22.5653673,18.763189 22.5978894,18.6144695 22.6499248,18.5376402 C22.7100907,18.4652012 22.775135,18.5261159 22.8315066,18.5376402 C22.8315066,18.5140427 22.8271704,18.4827622 22.8315066,18.4827622 C22.959427,18.4437988 23.1019823,18.4652012 23.235865,18.4652012 C23.3919712,18.4652012 23.3068717,18.140872 23.2938628,17.9526402 C23.2938628,17.9092866 23.2895265,17.8538598 23.2938628,17.8077622 C23.2938628,17.7863598 23.2938628,17.758372 23.3068717,17.733128 C23.3518606,17.628311 23.5545819,17.5997744 23.5860199,17.7122744 C23.5908982,17.7512378 23.5990288,17.7863598 23.6082434,17.8198354 C23.6190841,17.8763598 23.6467279,17.9092866 23.7155664,17.8763598 C23.7334535,17.8659329 23.755677,17.848372 23.7589292,17.8198354 C23.7854889,17.758372 23.7719381,17.6590427 23.8136748,17.6244695 C23.8716726,17.5630061 23.9583982,17.7205061 24.0559646,17.733128 C24.1529889,17.758372 24.261396,17.758372 24.3416173,17.7002012 C24.4104558,17.6590427 24.4104558,17.5772744 24.3519159,17.4944085 C24.3302345,17.4576402 24.2744049,17.4516037 24.261396,17.465872 C24.1725022,17.5630061 24.0559646,17.5394085 23.9583982,17.5394085 C23.8646261,17.5394085 23.8218053,17.4269085 23.7459204,17.3703841 C23.6602788,17.3089207 23.5545819,17.435689 23.4543053,17.3923354 C23.3616173,17.3489817 23.3133761,17.2567866 23.3675796,17.1684329 C23.3919712,17.1239817 23.4543053,17.083372 23.5090509,17.0509939 C23.6250465,16.9939207 23.7589292,16.9939207 23.8218053,16.8923963 C23.8716726,16.80075 23.9041947,16.6909939 23.9106991,16.585628 C23.9172035,16.5291037 23.970865,16.5291037 24.0033872,16.5241646 C24.1378119,16.4769695 24.29175,16.5098963 24.4104558,16.450628 C24.5448805,16.3979451 24.6478673,16.2794085 24.782292,16.1877622 C24.8467942,16.1520915 24.9085863,16.113128 24.9833872,16.0950183 C25.0207876,16.0845915 25.0430111,16.0192866 25.0505996,15.99075 C25.0760752,15.7630061 25.0148252,15.5500793 25.0505996,15.3091646 C25.0657765,15.2455061 25.1633429,15.2070915 25.1134757,15.1362988 C25.1010088,15.1099573 25.0072367,15.153311 24.9833872,15.1225793 C24.9313518,15.0775793 24.8863628,14.988128 24.9622478,14.9392866 C25.0207876,14.8860549 25.1481659,14.9327012 25.1915288,14.8520305 C25.2668717,14.7417256 25.2278451,14.5364817 25.1069712,14.4969695 C24.9833872,14.4311159 24.8467942,14.5491037 24.705323,14.5194695 C24.7215841,14.5737988 24.6456991,14.5935549 24.6267279,14.5935549 C24.4521925,14.6500793 24.4364735,14.4311159 24.4689956,14.313128 C24.4689956,14.2862378 24.4852566,14.2736159 24.5031438,14.2823963 C24.5448805,14.2862378 24.5530111,14.2297134 24.5616836,14.1775793 C24.5231991,14.1775793 24.4733319,14.1726402 24.4364735,14.1775793 C24.2819934,14.2571524 24.215323,14.4228841 24.062469,14.5013598 C24.0424137,14.5194695 24.0424137,14.5491037 24.0559646,14.5737988 C24.062469,14.5935549 24.0841504,14.6220915 24.107458,14.6111159 C24.107458,14.7093476 24.1378119,14.8739817 23.970865,14.8344695 C23.9583982,14.8273354 23.9583982,14.7900183 23.9453894,14.7872744 C23.9041947,14.7559939 23.8087965,14.7334939 23.7854889,14.7872744 C23.7589292,14.900872 23.9827898,14.9475183 23.9280442,15.0616646 C23.8418606,15.2153232 23.6293827,15.2455061 23.4543053,15.3300183 C23.0884314,15.4737988 22.7128009,15.3091646 22.3230774,15.3925793 C22.1198142,15.4337378 21.9122146,15.4052012 21.6981106,15.3464817 C21.5468827,15.31575 21.5192389,15.4512988 21.4379336,15.5550183 C21.4319712,15.535811 21.4232987,15.5155061 21.3951128,15.5220915 C21.3848142,15.4436159 21.4319712,15.3821524 21.4146261,15.3014817 C21.4064956,15.238372 21.306219,15.2455061 21.2823695,15.193372 C21.0292389,14.7093476 20.4151128,14.7702622 19.9478783,14.8520305 C19.8616947,14.8602622 19.8275465,14.9475183 19.7733429,15.0045915 C19.6757765,15.0902012 19.5456881,14.9925183 19.4421593,15.0616646 C19.3971704,15.0902012 19.376573,15.15825 19.3375465,15.1670305 C19.1977013,15.2070915 19.0459314,15.0616646 18.9266836,15.1362988 C18.8448363,15.2070915 18.7456438,15.2153232 18.6610863,15.2570305 C18.6312743,15.280628 18.6312743,15.3442866 18.6220597,15.4013598 C18.6220597,15.4436159 18.5510531,15.4337378 18.5272035,15.4337378 C18.397115,15.4737988 18.2041504,15.4052012 18.1792168,15.5967256 L18.2258319,15.5967256 C18.2778673,15.7465427 18.2041504,15.9161159 18.0626792,15.9753841 C17.9022367,16.0319085 17.722281,16.0192866 17.5623805,16.0845915 C17.4864956,16.113128 17.3824248,16.1877622 17.3520708,16.2574573 C17.0989403,16.7129451 16.8593606,17.1805061 16.8420155,17.7002012 L16.8420155,17.758372 C16.8420155,17.7896524 16.895677,17.8236768 16.895677,17.8352012 C16.6490509,18.3735549 16.482646,18.6462988 16.1959093,19.1637988 C16.0761195,19.3695915 15.9357323,19.878311 16.146042,20.0528232 C16.252281,20.140628 16.0896704,20.3502622 15.9357323,20.3645305 C15.7389735,20.3722134 15.4771704,20.3217256 15.4072478,20.1060549 C15.3714735,20.013311 15.211573,19.9962988 15.0852788,19.978189 L15.1031659,19.978189 L15.0077677,19.9699573 C14.8625022,19.9699573 14.7074801,19.9392256 14.5866062,19.978189 C14.3632876,20.0396524 14.3459425,20.3030671 14.246208,20.4803232 C14.1773695,20.6400183 13.9220708,20.6005061 13.8478119,20.7519695 C13.8114956,20.8178232 13.8835863,20.9242866 13.8272146,21.0214207 C13.787646,21.0823354 13.7036305,21.0823354 13.679781,21.1564207 C13.664604,21.1959329 13.6564735,21.2530061 13.6304558,21.2903232 C13.573542,21.498311 13.5345155,21.6865427 13.5822146,21.8923354 C13.5865509,21.9516037 13.5865509,22.0130671 13.6044381,22.0525793 C13.6564735,22.2687988 13.5865509,22.458128 13.4938628,22.6326402 C13.3529336,22.8378841 13.1084757,22.8378841 12.883531,22.9086768 C12.7908429,22.9503841 12.6759314,22.8521524 12.5637301,22.8784939 C12.3078894,22.9262378 12.057469,22.8170305 11.8146372,22.8998963 C11.8005442,22.9086768 11.7523031,22.9399573 11.7333319,22.9586159 C11.6070376,23.0091037 11.5636748,22.8691646 11.4932102,22.80825 C11.4200354,22.7330671 11.4108208,22.6002622 11.3327677,22.5580061 C11.1853341,22.4888598 10.984781,22.5717256 10.8807102,22.7209939 C10.9500907,22.7116646 10.878542,22.7989207 10.9327456,22.7989207 C10.771219,22.80825 10.6492611,22.9503841 10.5235088,23.0091037 C10.3598142,23.10075 10.3229558,22.80825 10.3072367,22.6326402 C10.2898916,22.5453841 10.1522146,22.4888598 10.0280885,22.5536159 C10.0064071,22.5794085 9.97876327,22.6002622 9.97876327,22.6452622 C9.94190487,22.6452622 9.91209292,22.6002622 9.87523451,22.6326402 C9.76682743,22.758311 9.96141814,22.7423963 10.019958,22.8170305 C10.0562743,22.8521524 10.0085752,22.8949573 9.96792257,22.9262378 C9.91209292,22.970689 9.82482522,22.8784939 9.81886283,22.9262378 C9.79067699,23.0091037 9.74080973,23.0535549 9.67413938,23.0272134 C9.67413938,23.0535549 9.66546681,23.0601402 9.67413938,23.0755061 C9.67413938,23.10075 9.69311062,23.1166646 9.71696018,23.10075 C9.65408407,23.1254451 9.59175,23.1638598 9.54621903,23.1270915 C9.4876792,23.10075 9.50719248,23.0025183 9.4876792,22.9262378 C9.47412832,22.9086768 9.41071018,22.9262378 9.41071018,22.9503841 C9.39065487,23.0755061 9.42317699,23.1166646 9.28875221,23.1254451 C9.3039292,23.1715427 9.25243584,23.2494695 9.31910619,23.2637378 C9.39065487,23.298311 9.47412832,23.2192866 9.53754646,23.2637378 C9.63782301,23.3663598 9.62373009,23.5260549 9.65408407,23.6709329 C9.65408407,23.6802622 9.62373009,23.6901402 9.61072124,23.6901402 C9.63782301,23.7675183 9.65408407,23.9573963 9.54621903,23.8761768 C9.41396239,23.7966037 9.5657323,23.6050793 9.48930531,23.4870915 C9.47412832,23.4645915 9.39715929,23.478311 9.33428319,23.478311 C9.41071018,23.6709329 9.24593142,23.8761768 9.41071018,24.0605671 C9.47412832,24.1434329 9.21286726,24.2575793 9.30826549,24.3580061 C9.3651792,24.4145305 9.4616615,24.4716037 9.54621903,24.4897134 C9.59175,24.4941037 9.54621903,24.3936768 9.56193805,24.3580061 C9.57440487,24.3152012 9.71262389,24.2663598 9.74080973,24.3294695 C9.75598673,24.3717256 9.7755,24.4244085 9.7755,24.4897134 C9.71262389,24.4716037 9.64595354,24.5028841 9.59175,24.5286768 C9.64595354,24.6510549 9.5657323,24.738311 9.54621903,24.8568476 C9.54621903,24.883189 9.58470354,24.9320305 9.59175,24.9627622 C9.62373009,25.0593476 9.77766814,24.9720915 9.82482522,25.0511159 C9.8627677,25.1142256 9.75598673,25.1872134 9.79067699,25.2717256 C9.81886283,25.3287988 9.90938274,25.295872 9.94840929,25.3430671 C10.0064071,25.3787378 9.9852677,25.4528232 9.97876327,25.5252622 C10.0367611,25.5192256 10.1305332,25.5817866 10.1039735,25.6591646 C10.173354,25.6877012 10.1863628,25.6064817 10.1825686,25.558189 C10.3359646,25.5675183 10.2730885,25.4171524 10.2877235,25.295872 C10.2367721,25.3222134 10.2405664,25.210811 10.1825686,25.2536159 C10.1522146,25.17075 10.1863628,25.0763598 10.1522146,25.0028232 C10.1110199,24.9150183 9.9852677,24.8969085 9.96792257,24.7811159 C10.0736195,24.8047134 10.1522146,24.7652012 10.218885,24.6510549 C10.2552013,24.5945305 10.3489735,24.6773963 10.387458,24.7569695 C10.4053451,24.7745305 10.3917942,24.7986768 10.3917942,24.8310549 C10.4899027,24.7986768 10.4899027,24.8969085 10.5235088,24.940811 C10.602104,24.9962378 10.6275796,25.0944695 10.7159314,25.1290427 C10.8525243,25.17075 10.984781,25.17075 11.1208319,25.1466037 C11.1099912,25.0812988 11.1208319,25.0154451 11.1571482,24.9962378 C11.2178562,24.940811 11.2482102,25.0593476 11.3240951,25.0653841 C11.2899469,25.1992866 11.3593274,25.3101402 11.4671925,25.3787378 C11.4932102,25.383128 11.5387412,25.368311 11.5636748,25.383128 C11.6070376,25.4171524 11.6270929,25.4884939 11.6878009,25.5109939 C11.7333319,25.5192256 11.7783208,25.4884939 11.8146372,25.4923354 C11.8845597,25.5109939 11.8845597,25.5675183 11.8954004,25.6394085 C11.904073,25.6459939 11.9409314,25.6684939 11.9409314,25.6942866 C12.0655996,25.6684939 12.2065288,25.7025183 12.2428451,25.8117256 C12.3078894,25.9785549 12.4206327,26.105872 12.4948916,26.2523963 C12.5230774,26.3297744 12.6520819,26.3555671 12.669427,26.4214207 C12.6759314,26.4779451 12.7144159,26.5136159 12.7344712,26.5262378 C12.8190288,26.6222744 12.9415288,26.6530061 13.0656549,26.6842866 C13.1084757,26.7023963 13.1800243,26.6140427 13.2559093,26.5794695 C13.2949358,26.5652012 13.3420929,26.605811 13.3464292,26.6140427 C13.4635088,26.8066646 13.4938628,27.065689 13.679781,27.1748963 C13.7751792,27.2319695 13.802823,27.3494085 13.9025575,27.3762988 C13.9627235,27.3889207 14.0342721,27.3280061 14.0949801,27.3762988 C14.1345487,27.4037378 14.1470155,27.4849573 14.1773695,27.4942866 C14.3161305,27.5595915 14.4239956,27.6430061 14.4521814,27.7939207 C14.4565177,27.8186159 14.4722367,27.8669085 14.5080111,27.8751402 C14.6337633,27.8888598 14.7378341,27.8010549 14.8023363,27.8669085 C14.8950243,27.9519695 15.012646,27.9909329 15.0939513,28.0765427 C15.1178009,28.1116646 15.1877235,28.1380061 15.211573,28.1116646 C15.2435531,28.0677622 15.2256659,27.9909329 15.2538518,27.9519695 C15.288542,27.8828232 15.3790619,27.905872 15.4468164,27.8828232 C15.5292058,27.8487988 15.5373363,27.6918476 15.6267721,27.6841646 C15.7801681,27.6611159 15.8408761,27.8487988 15.9639181,27.9234329 C15.9720487,27.9360549 16.0197478,27.9519695 16.0370929,27.9678841 C16.1715177,28.0419695 16.1108097,28.2872744 16.2707102,28.3053841 C16.4593385,28.3053841 16.558531,28.4755061 16.727646,28.5062378 C16.8550243,28.5462988 16.956927,28.5786768 17.0712965,28.6500183 C17.1081549,28.6747134 17.1726571,28.6747134 17.2154779,28.6598963 C17.2875686,28.6313598 17.3520708,28.5978841 17.4106106,28.5539817 C17.5726792,28.4535549 17.7824469,28.4442256 17.9472257,28.3361159 C17.9819159,28.3086768 18.0171482,28.263128 18.0626792,28.2455671 C18.334781,28.1248354 18.6372367,28.3503841 18.9212633,28.1989207 C18.9901018,28.1692866 19.0855,28.1692866 19.1678894,28.1116646 C19.3375465,27.9909329 19.3874137,27.7489207 19.3342942,27.5595915 C19.2150465,27.2572134 19.1115177,26.9449573 18.9028341,26.6842866 C18.8041836,26.5575183 18.6697588,26.4850793 18.5510531,26.3555671 C18.5272035,26.31825 18.4312633,26.3297744 18.3759757,26.3028841 C18.2648584,26.2523963 18.2822035,26.1190427 18.304427,26.0098354 C18.304427,25.9703232 18.1830111,25.9703232 18.1634978,25.9302622 C18.1228451,25.8561768 18.1634978,25.773311 18.1721704,25.7025183 C18.1792168,25.6684939 18.1309757,25.6394085 18.1228451,25.6394085 C17.9624027,25.6064817 17.8176792,25.5345915 17.6556106,25.558189 C17.6030332,25.5675183 17.5553341,25.5109939 17.508177,25.4802622 C17.4799912,25.4528232 17.5168496,25.3995915 17.5406991,25.3930061 C17.6333872,25.3101402 17.7439624,25.2536159 17.8588739,25.210811 C17.8176792,25.153189 17.8128009,25.0653841 17.8502013,25.0439817 C17.9103673,24.9803232 17.8957323,24.8667256 17.8740509,24.8047134 C17.8740509,24.7811159 17.8502013,24.7284329 17.7873252,24.7284329 C17.799792,24.5753232 17.8865177,24.4595305 17.799792,24.3228841 C17.7033097,24.1966646 17.5726792,24.1220305 17.5406991,23.9573963 C17.5406991,23.9425793 17.4604779,23.9003232 17.4604779,23.8761768 C17.4604779,23.6901402 17.5168496,23.4870915 17.4799912,23.298311 C17.4523473,23.2192866 17.3634535,23.1254451 17.4328341,23.0755061 C17.4604779,23.0535549 17.5298584,23.0025183 17.5905664,22.9871524 C17.7179447,22.9399573 17.7613075,22.8521524 17.6989735,22.7637988 C17.6333872,22.6721524 17.5016726,22.7637988 17.4062743,22.7330671 C17.3634535,22.7209939 17.3574912,22.6875183 17.3520708,22.6452622 C17.3303894,22.5717256 17.4062743,22.4487988 17.3374358,22.4087378 C17.278896,22.3867866 17.2252345,22.3291646 17.1970487,22.2874573 C17.1363407,22.1952622 17.1856659,22.0849573 17.2572146,21.9922134 C17.2154779,21.9977012 17.233365,21.9186768 17.1856659,21.9450183 C17.1726571,21.8440427 17.2447478,21.7342866 17.2030111,21.6475793 C17.1726571,21.5592256 17.0989403,21.4494695 16.9916173,21.498311 C16.9802345,21.498311 16.9916173,21.5290427 16.9802345,21.5290427 C16.9216947,21.5855671 16.8550243,21.6014817 16.7926903,21.5466037 C16.7791394,21.5290427 16.7791394,21.4747134 16.7926903,21.4324573 C16.8355111,21.3775793 16.9216947,21.4017256 16.972104,21.3627622 C17.0582876,21.2716646 16.9802345,21.148189 16.9395819,21.0993476 C16.8073252,20.9813598 16.7514956,20.8765427 16.7791394,20.7119085 C16.6279115,20.6899573 16.3959204,20.6696524 16.405135,20.4567256 C16.4159757,20.2673963 16.3726128,20.0923354 16.3270819,19.9002622 C16.2902235,19.7641646 16.2994381,19.6236768 16.3834535,19.5276402 C16.405135,19.4969085 16.4338628,19.4414817 16.4745155,19.438189 C16.6691062,19.4096524 16.9119381,19.4524573 17.0219712,19.2647744 C17.0908097,19.1314207 16.9395819,18.9223354 17.0582876,18.8350793 C17.2572146,18.6819695 17.5553341,18.7834939 17.799792,18.6430061 C17.8740509,18.5870305 17.8632102,18.4827622 17.8415288,18.3971524 C17.8084646,18.3038598 17.7499248,18.2023354 17.6989735,18.1150793 C17.6138739,17.9921524 17.4198252,18.0536159 17.3634535,17.9202622 C17.3374358,17.848372 17.3374358,17.7753841 17.3634535,17.7122744 C17.4062743,17.615689 17.4908319,17.5284329 17.5905664,17.4801402 C17.8084646,17.3923354 18.0171482,17.4576402 18.2041504,17.5679451 C18.2648584,17.5997744 18.3217721,17.6678232 18.3645929,17.733128 C18.3759757,17.758372 18.3841062,17.7896524 18.397115,17.8198354 C18.4551128,18.070628 18.5402124,18.3400793 18.4551128,18.5705671 C18.4166283,18.6462988 18.3217721,18.6951402 18.3477898,18.815872 C18.4101239,18.763189 18.4312633,18.8487988 18.4312633,18.8652622 C18.4767942,19.0364817 18.5792389,19.2746524 18.4312633,19.3838598 C18.2496814,19.4969085 18.2648584,19.3454451 18.074604,19.3838598 C17.9819159,19.3937378 17.9103673,19.3652012 17.921208,19.4524573 C17.9282544,19.5034939 18.0008872,19.6143476 18.0464181,19.6324573 C18.4865509,19.7444085 18.7147478,19.7811768 19.177646,19.855811 C19.2752124,19.878311 19.3516394,19.9962988 19.4660088,20.013311 C19.5521925,20.0264817 19.6475907,20.073128 19.7424469,19.9567866 C19.7733429,19.9167256 19.8616947,19.9567866 19.8730774,19.9825793 C19.8942168,20.073128 19.9478783,20.073128 20.0064181,20.1060549 C20.1468053,20.1730061 20.1018164,20.5368476 20.2899027,20.4210549 C20.3896372,20.3502622 20.4763628,20.4259939 20.5885642,20.4034939 C20.4763628,20.5560549 20.5343606,20.7119085 20.6422257,20.8238598 C20.7294934,20.9336159 20.8563296,20.9813598 20.9625686,21.0823354 C21.044958,21.1816646 21.1772146,21.1564207 21.1896814,21.0214207 C21.2113628,20.8765427 21.0595929,20.7119085 21.2395487,20.5867866 C21.4146261,20.8370305 21.1896814,21.148189 21.3728894,21.3775793 C21.3848142,21.4017256 21.3951128,21.4105061 21.4064956,21.4324573 C21.4883429,21.5378232 21.5571814,21.6475793 21.6677566,21.6338598 C21.7474358,21.6080671 21.7821261,21.5290427 21.8216947,21.4439817 C21.8238628,21.4105061 21.8368717,21.3775793 21.8450022,21.3704451 C21.8553009,21.2903232 21.8905332,21.2359939 21.9122146,21.16575 C21.9512412,21.0559939 22.0894602,20.9665427 22.0650686,20.8370305 C22.0650686,20.7975183 22.0542279,20.7453841 22.0542279,20.7119085 C22.0650686,20.5368476 22.2564071,20.4259939 22.4190177,20.4567256 C22.4683429,20.4638598 22.4314845,20.4259939 22.4748473,20.3925183 C22.545854,20.3376402 22.5290509,20.1730061 22.5935531,20.0923354 C22.6477566,20.0204451 22.7100907,19.9523963 22.7469491,19.878311 C22.775135,19.8344085 22.8271704,19.7811768 22.8054889,19.715872 C22.8699912,19.715872 22.8699912,19.6324573 22.9334093,19.6236768" id="Fill-28" fill="#026CB6" mask="url(#mask-2)"></path>
                <path d="M18.2534507,19.3439594 C18.0153257,19.2458652 17.8222007,19.31759 17.6647007,19.4104104 C17.5072007,19.5032308 17.4753257,19.6224206 17.5878257,19.6941455 C17.6984507,19.8070067 17.8222007,19.9409634 17.8409507,20.051715 C17.8409507,20.2953685 17.7378257,20.5316387 17.8072007,20.7890043 C17.9103257,20.9809738 18.3134507,21.3216668 18.5309507,21.0991088 C18.7859507,20.8522909 19.1759507,20.4725711 18.8684507,20.1687953 C18.6284507,19.8882245 18.7859507,19.5137786 18.2534507,19.3439594" id="Fill-29" fill="#026CB6" mask="url(#mask-2)"></path>
                <path d="M17.507198,20.7718578 C17.565323,20.9218578 17.640323,21.0324828 17.702198,21.2012328 C17.827823,21.5499828 18.405323,21.3868578 18.605948,21.1449828 C18.639698,21.0062328 18.605948,20.7718578 18.448448,20.6368578 C18.292823,20.4587328 18.037823,20.4906078 17.897198,20.4024828 C17.790323,20.3687328 17.677823,20.2487328 17.597198,20.2806078 C17.467823,20.4024828 17.467823,20.6087328 17.507198,20.7718578" id="Fill-30" fill="#026CB6" mask="url(#mask-2)"></path>
                <path d="M18.5659824,21.1762184 C18.5659824,20.7192835 18.0230792,20.5859569 17.6280823,20.8539046 C17.1147604,21.1762184 17.7098658,21.75483 18.0996425,22.1638709 C18.1553249,22.259659 18.2318881,22.3929856 18.3084514,22.5030124 C18.4946394,22.6531666 18.8565748,22.6013893 18.9731598,22.4318186 C19.0740841,22.277781 19.1436871,22.2195315 19.2602721,22.0706717 C19.4116586,21.75483 19.164568,21.1762184 18.5659824,21.1762184" id="Fill-31" fill="#026CB6" mask="url(#mask-2)"></path>
                <path d="M17.8337354,19.9774755 C17.8337354,19.8724755 17.6687354,19.8724755 17.6331104,19.8856005 C17.3762354,19.9774755 17.3049854,20.1856005 17.2581104,20.4274755 C17.1906104,20.7706005 17.3049854,21.0931005 17.5431104,21.3574755 C17.6462354,21.4868505 17.8337354,21.3256005 17.9162354,21.0931005 C18.0737354,20.7406005 17.8656104,20.3581005 17.8337354,19.9774755" id="Fill-32" fill="#026CB6" mask="url(#mask-2)"></path>
                <path d="M18.1586207,21.381133 C18.2561207,21.308008 18.4436207,21.141133 18.4079957,20.923633 C18.5729957,20.955508 18.7492457,20.923633 18.8617457,20.728633 C18.9779957,20.649883 18.7492457,20.528008 18.8036207,20.394883 C18.4436207,20.289883 18.2054957,20.649883 17.9204957,20.903008 C17.6729957,21.141133 18.0179957,21.495508 18.1586207,21.381133" id="Fill-33" fill="#026CB6" mask="url(#mask-2)"></path>
                <path d="M17.8160629,21.8308772 C17.7560629,22.1590022 17.8160629,22.3783772 18.0316879,22.4421272 C18.1441879,22.4758772 18.3523129,22.5321272 18.3523129,22.3783772 C18.3766879,22.1758772 18.5116879,21.9808772 18.3766879,21.7990022 C18.3523129,21.7727522 18.2548129,21.7990022 18.2360629,21.7990022 C18.0316879,21.6958772 17.9566879,21.9808772 17.8160629,21.8308772" id="Fill-34" fill="#026CB6" mask="url(#mask-2)"></path>
                <path d="M18.4688739,23.2817652 C18.5738739,23.0230152 18.7932489,22.7736402 18.3863739,22.5148902 C18.3038739,22.4886402 18.1051239,22.4886402 17.9813739,22.4886402 C17.9813739,22.8692652 18.2082489,23.1673902 18.4688739,23.2817652" id="Fill-35" fill="#026CB6" mask="url(#mask-2)"></path>
                <path d="M10.2888818,25.8955893 C10.2138818,25.9349643 10.1838818,26.3530893 10.2888818,26.4599643 C10.4145068,26.5912143 10.7463818,26.5480893 10.9413818,26.5480893 C10.7970068,26.2087143 10.8101318,25.6199643 10.2888818,25.8955893" id="Fill-36" fill="#026CB6" mask="url(#mask-2)"></path>
                <path d="M11.1008499,26.7444226 C10.8514749,27.1869226 11.3839749,27.6575476 12.0270999,27.7137976 C12.0270999,27.5037976 12.1020999,27.2337976 11.9914749,27.0669226 C11.7664749,26.7706726 11.2133499,26.4987976 11.1008499,26.7444226" id="Fill-37" fill="#026CB6" mask="url(#mask-2)"></path>
                <path d="M11.4280541,27.1747866 C11.3511791,27.9566616 11.6586791,28.4891616 12.4518041,28.5960366 C12.5418041,27.7691616 12.2286791,27.2872866 11.4280541,27.1747866" id="Fill-38" fill="#026CB6" mask="url(#mask-2)"></path>
                <path d="M23.9174204,20.7453293 C24.1228518,20.678378 24.3781504,20.6213049 24.6177301,20.6213049 C25.1630177,20.6092317 25.1299535,19.9089878 25.4101858,19.466122 C25.4703518,19.3563659 25.3749535,19.111061 25.2996106,18.9974634 C25.1136925,18.6950854 24.5385929,19.0364268 24.4057942,18.7219756 C24.3304513,18.5419756 24.7955177,18.8355732 24.8383385,18.5556951 C24.8475531,18.4827073 24.8020221,18.3888659 24.7478186,18.3603293 C24.6719336,18.315878 24.5272102,18.3081951 24.4692124,18.3603293 C24.1770553,18.6089268 24.1228518,19.0364268 23.9716239,19.3212439 C23.6599535,19.8645366 23.1016571,20.2580122 22.8051637,20.8655122 C22.7580066,20.9549634 22.8268451,21.0301463 22.9005619,21.0625244 C23.3070885,21.2002683 23.5862367,20.8177683 23.9174204,20.7453293" id="Fill-39" fill="#026CB6" mask="url(#mask-2)"></path>
                <path d="M26.7184798,19.3932439 C26.4484798,19.4907439 26.1559798,19.5582439 26.0134798,19.7476189 C25.9009798,20.0157439 25.8578548,20.4676189 26.0134798,20.7188689 C26.1034798,20.8388689 26.5309798,20.8538689 26.6434798,20.7188689 C26.8441048,20.4957439 26.5684798,20.2332439 26.3434798,20.1038689 C26.5684798,19.9013689 26.7991048,19.7476189 26.7184798,19.3932439" id="Fill-40" fill="#026CB6" mask="url(#mask-2)"></path>
                <path d="M24.5105761,21.9993565 C25.0738056,22.7099815 26.5127776,22.4662315 26.3574039,21.7893565 C26.1879054,21.1987315 25.2362417,20.8537315 24.5882629,21.0543565 C24.171579,21.1987315 25.320991,21.6918565 24.5105761,21.9993565" id="Fill-41" fill="#026CB6" mask="url(#mask-2)"></path>
                <path d="M25.5712013,23.9100732 C26.1843263,23.6438232 25.8693263,23.0438232 25.9518263,22.5188232 C25.3143263,22.7963232 24.9730763,23.2519482 24.8755763,23.9100732 C25.1212013,23.9100732 25.3555763,23.9925732 25.5712013,23.9100732" id="Fill-42" fill="#026CB6" mask="url(#mask-2)"></path>
                <path d="M28.5610419,20.7512816 C28.6210419,20.7166406 28.6791669,20.3947676 28.5610419,20.2778541 C28.4279169,20.2027985 28.1485419,20.2778541 27.9160419,20.2331094 C27.6422919,20.1421767 27.5447919,19.9559811 27.4904169,19.7250408 C27.4904169,19.4262619 27.1304169,19.2184157 27.2279169,18.8965427 C26.7554169,19.0567575 26.7816669,19.4609029 26.9372919,19.6398816 C27.3497919,20.1277429 27.6422919,20.9071663 28.5610419,20.7512816" id="Fill-43" fill="#026CB6" mask="url(#mask-2)"></path>
                <path d="M24.616811,18.0783154 C24.333686,17.9264404 24.114311,18.1214404 24.333686,18.3764404 C24.436811,18.5095654 24.766811,18.4214404 24.963686,18.4383154 C24.864311,18.3164404 24.804311,18.1514404 24.616811,18.0783154" id="Fill-44" fill="#026CB6" mask="url(#mask-2)"></path>
                <path d="M10.3232219,23.2708262 C10.4207219,23.1039512 10.2107219,22.9858262 10.0775969,22.8377012 C9.89197188,22.6727012 9.67447188,22.8808262 9.52259688,22.6727012 C9.52259688,22.8377012 9.48509688,23.0420762 9.58822188,23.1639512 C9.71759688,23.3739512 10.0775969,23.5389512 10.3232219,23.2708262" id="Fill-45" fill="#026CB6" mask="url(#mask-2)"></path>
                <path d="M11.0469513,23.4650028 C11.3450763,23.3168778 11.7519513,23.1950028 11.5569513,22.7487528 C11.5569513,22.7168778 11.4800763,22.7487528 11.4125763,22.7487528 C10.9419513,22.4637528 10.3213263,22.5743778 10.4338263,23.1443778 C10.4488263,23.3900028 10.7563263,23.6600028 11.0469513,23.4650028" id="Fill-46" fill="#026CB6" mask="url(#mask-2)"></path>
                <path d="M24.8951239,14.6068079 C25.0132489,14.3236829 25.4838739,14.2599329 25.4163739,13.9468079 C25.3882489,13.8136829 25.0826239,13.8136829 24.9532489,13.8136829 C24.7394989,13.8286829 24.7826239,14.1286829 24.7826239,14.3986829 C24.6926239,14.3761829 24.6269989,14.3986829 24.6269989,14.4718079 C24.6269989,14.6068079 24.8557489,14.6499329 24.8951239,14.6068079" id="Fill-47" fill="#026CB6" mask="url(#mask-2)"></path>
                <path d="M25.4997856,14.3010067 C25.5729106,14.2260067 25.8354106,14.0178817 25.6179106,13.8360067 C25.4397856,13.6710067 25.1472856,13.6710067 25.0591606,13.7535067 C24.8547856,13.9841317 25.1866606,14.5166317 25.4997856,14.3010067" id="Fill-48" fill="#026CB6" mask="url(#mask-2)"></path>
                <path d="M23.8270802,17.4110153 C23.6395802,17.9060153 24.5302052,18.5172653 24.9727052,18.2266403 C25.3270802,18.0072653 25.1677052,17.3866403 24.8208302,17.2103903 C24.5002052,17.0360153 23.9395802,17.1128903 23.8270802,17.4110153" id="Fill-49" fill="#026CB6" mask="url(#mask-2)"></path>
                <path d="M24.9386077,18.6010407 C25.1336077,18.4229157 24.9386077,18.1679157 24.7829827,18.0704157 C24.6086077,17.9222907 24.2786077,18.0047907 24.0198577,18.0704157 C23.9523577,18.1079157 23.8773577,18.0179157 23.7798577,18.0047907 C23.7217327,18.2129157 23.9223577,18.3104157 24.0198577,18.3104157 C24.3761077,18.3104157 24.6779827,18.8016657 24.9386077,18.6010407" id="Fill-50" fill="#026CB6" mask="url(#mask-2)"></path>
                <path d="M23.8290494,18.7267906 C23.5871744,18.8842906 23.6340494,19.3417906 23.8871744,19.5386656 C24.1646744,19.6717906 24.5246744,19.6099156 24.6652994,19.2742906 C24.7627994,18.9911656 24.9446744,18.5936656 24.6652994,18.3911656 C24.3315494,18.1549156 24.1646744,18.5317906 23.8290494,18.7267906" id="Fill-51" fill="#026CB6" mask="url(#mask-2)"></path>
                <path d="M23.5604976,18.0850183 C23.5904976,18.5443933 23.3448726,18.9681433 23.4554976,19.3937683 C23.5211226,19.6431433 23.8679976,19.5606433 23.9204976,19.3937683 C24.0554976,18.9962683 23.9204976,18.6493933 24.2336226,18.3756433 C24.1304976,18.3493933 23.9917476,18.1825183 23.9917476,18.4806433 C24.0217476,18.3756433 24.1154976,18.2856433 24.0554976,18.1993933 C23.9204976,18.0456433 23.7554976,18.0850183 23.5604976,18.0850183" id="Fill-52" fill="#026CB6" mask="url(#mask-2)"></path>
                <path d="M25.1306582,25.0814634 C25.1531582,25.0964634 25.1681582,25.0814634 25.1906582,25.0964634 C25.2056582,25.0964634 25.2281582,25.0964634 25.2431582,25.0814634 L25.1306582,25.0814634 Z" id="Fill-53" fill="#026CB6" mask="url(#mask-2)"></path>
                <path d="M33.1069502,27.0035854 C33.1407002,26.9867104 33.1144502,26.9285854 33.1069502,26.8985854 C33.0994502,26.9698354 33.0019502,27.0335854 32.9344502,27.0035854 C33.0019502,27.0035854 33.0994502,27.0335854 33.1069502,27.0035854" id="Fill-54" fill="#026CB6" mask="url(#mask-2)"></path>
                <path d="M26.7567931,22.2403588 C26.6270262,22.2662239 26.6461963,22.1705229 26.6270262,22.1584525 C26.5046324,22.0808571 26.3792893,22.0808571 26.3379998,21.9808453 C26.2097075,21.8342761 26.0032601,22.0808571 25.7555232,22.0722354 C25.7260307,22.0722354 25.6626219,22.1196548 25.6965382,22.1705229 C25.9221557,22.3438194 25.6626219,22.4110687 25.4856669,22.5343592 C25.3691716,22.6679957 25.7083352,22.6800661 25.7850157,22.8171514 C25.8970871,22.9766531 25.6036369,23.1111518 25.6626219,23.2827239 C25.5918399,23.3275568 25.4856669,23.40429 25.3308314,23.5448239 C25.2910165,23.5612052 25.1612496,23.7017391 25.226133,23.7672641 C25.4443774,23.9190062 25.8395768,23.6120733 26.074042,23.5887946 C26.2922865,23.5887946 26.3262028,23.5887946 26.5046324,23.5137857 C26.7567931,23.4301551 26.9912584,23.3749762 27.0812105,23.2154745 C27.1166015,23.1559847 26.6860112,23.1266709 26.5547696,23.1180491 C26.7567931,22.8326705 26.4795637,22.7421425 26.5665666,22.4334852 C26.5665666,22.4188283 26.8216766,22.2403588 26.7567931,22.2403588" id="Fill-55" fill="#026CB6" mask="url(#mask-2)"></path>
                <path d="M26.6510092,25.1508169 C26.6510092,25.1770669 26.8160092,25.1939419 26.8591342,25.1508169 C27.1310092,24.9558169 27.1553842,24.5920669 27.0185092,24.3839419 C26.9228842,24.2058169 26.5347592,24.2058169 26.4953842,24.4776919 C26.4203842,24.7158169 26.5347592,24.9558169 26.6510092,25.1508169" id="Fill-56" fill="#026CB6" mask="url(#mask-2)"></path>
                <path d="M26.9365659,24.5685155 C27.1990659,24.5160155 27.0340659,24.2441405 26.9065659,24.0828905 C26.8240659,23.9928905 26.6159409,23.9460155 26.5840659,24.0210155 C26.3984409,24.3191405 26.5840659,24.7110155 26.9365659,24.5685155" id="Fill-57" fill="#026CB6" mask="url(#mask-2)"></path>
                <path d="M28.2443599,24.7122713 C28.1843599,24.6953963 28.1243599,24.6072713 28.1618599,24.5791463 C27.9424849,24.5791463 27.7118599,24.4310213 27.4418599,24.5022713 C27.3762349,24.5022713 27.1831099,24.4591463 27.0518599,24.4591463 C27.0162349,24.6691463 26.9412349,24.9691463 27.2037349,25.0441463 C27.5787349,25.0760213 27.9574849,25.0760213 28.2443599,24.7122713" id="Fill-58" fill="#026CB6" mask="url(#mask-2)"></path>
                <path d="M29.7411294,24.7267928 C29.8311294,24.7267928 29.7636294,24.3236678 29.6886294,24.2955428 C29.3098794,24.2186678 28.9780044,24.6217928 28.5823794,24.4886678 C28.5823794,24.6555428 28.5448794,24.7605428 28.4530044,24.8486678 C28.4267544,24.8936678 28.2917544,24.8805428 28.1998794,24.8805428 C28.6198794,25.3886678 29.2836294,24.8936678 29.7411294,24.7267928" id="Fill-59" fill="#026CB6" mask="url(#mask-2)"></path>
                <path d="M29.1306431,24.2630945 C29.2937681,24.9362195 30.0437681,24.6230945 30.1168931,24.1580945 C30.1168931,23.8299695 29.6668931,23.8299695 29.5281431,24.0680945 C29.5637681,24.0137195 29.5862681,23.9330945 29.6387681,23.8524695 C29.4437681,24.0137195 29.0706431,24.0137195 29.1306431,24.2630945" id="Fill-60" fill="#026CB6" mask="url(#mask-2)"></path>
                <path d="M35.0524388,20.6645505 C34.909696,21.0283005 35.5159124,21.1014255 35.8119716,21.2214255 C36.1767588,21.3301755 36.7812129,21.2814255 36.8798993,20.9214255 C37.0473137,20.2783005 36.3794183,19.6183005 35.7414813,19.7008005 C35.1916571,19.7533005 35.2357136,20.2464255 35.0524388,20.6645505" id="Fill-61" fill="#026CB6" mask="url(#mask-2)"></path>
                <path d="M35.4601219,26.3757073 C35.3560551,26.3554024 35.150734,26.3554024 35.150734,26.3757073 C34.9069738,26.9930854 33.9272454,27.8486341 35.0935441,28.2629634 C35.6110657,28.4533902 36.2457797,28.0774756 36.3254706,27.8821098 C36.5195412,27.4156463 36.4295374,26.6533902 35.4601219,26.3757073" id="Fill-62" fill="#026CB6" mask="url(#mask-2)"></path>
                <path d="M33.3774736,23.6747993 C33.0568486,23.8547993 32.9949736,24.6272993 33.5030986,24.6272993 C33.7168486,24.6272993 33.9380986,24.4604243 34.1124736,24.3310493 C34.2999736,24.1191743 34.2755986,23.8229243 34.0580986,23.7572993 C33.8274736,23.6747993 33.5668486,23.5491743 33.3774736,23.6747993" id="Fill-63" fill="#026CB6" mask="url(#mask-2)"></path>
                <path d="M33.7312878,30.0631893 C33.5306628,30.4156893 33.5831628,30.8544393 33.9262878,31.0869393 C33.9187878,30.7719393 34.5056628,30.3838143 34.0781628,30.0631893 C33.9187878,29.9000643 33.7987878,29.9956893 33.7312878,30.0631893" id="Fill-64" fill="#026CB6" mask="url(#mask-2)"></path>
                <path d="M37.1824086,15.3299085 C37.0221342,15.316189 36.9645998,15.3447256 36.9091203,15.3919207 C36.8690517,15.473689 36.9317231,15.5697256 36.8690517,15.6602744 C36.4930234,16.2233232 35.278637,16.7309451 35.8529534,17.3620427 C35.8529534,17.3708232 35.9382276,17.3708232 35.9567208,17.3620427 C36.2926805,17.2391159 36.4930234,17.0722866 36.6728183,16.8966768 C37.0221342,16.5097866 37.3282993,16.1124695 37.566656,15.6707012 C37.6087794,15.5357012 37.5173409,15.346372 37.1824086,15.3299085" id="Fill-65" fill="#026CB6" mask="url(#mask-2)"></path>
                <path d="M35.4737592,17.736266 C35.3125092,18.034391 35.6818842,18.274391 35.9387592,18.141266 C36.1862592,18.034391 36.3437592,17.618141 36.1168842,17.548766 C35.9387592,17.453141 35.5862592,17.453141 35.4737592,17.736266" id="Fill-66" fill="#026CB6" mask="url(#mask-2)"></path>
                <path d="M29.1408529,14.2715048 C29.0698462,13.736713 28.8898905,14.2423574 28.7429989,14.1789934 C28.6822909,14.1663207 28.652479,13.9800306 28.6167046,13.9800306 C28.5641272,14.009178 28.5137179,14.0307218 28.4768595,14.1105604 C28.377125,14.2423574 28.45301,14.5959283 28.5532865,14.5503062 C28.6307976,14.5503062 28.6822909,14.2981177 28.7148131,14.453993 C28.7879878,14.7365962 28.7386626,15.2333696 28.928917,15.1319873 C29.050333,15.0610197 29.1262179,14.8595223 29.2579325,14.8265731 C29.3901892,14.812633 29.4042821,14.4742695 29.3901892,14.2423574 C29.5267821,14.2056063 29.6888507,13.9432795 29.7750343,14.2056063 C29.8178551,14.2981177 29.8297799,14.4958132 29.8639281,14.6149374 C29.9045808,14.8392458 29.9972688,14.889937 30.0953772,14.9000752 C30.2157091,14.8265731 30.3387511,14.8595223 30.4303551,14.6149374 C30.5252113,14.3437397 30.5165387,14.009178 30.3956648,13.8190862 C30.3463396,13.736713 30.2574458,13.8431645 30.2075785,13.736713 C30.1051338,13.6099851 30.0325011,13.4021514 29.9300564,13.3121745 C29.5690608,13.0878661 29.357125,13.8190862 29.1408529,14.2715048" id="Fill-67" fill="#026CB6" mask="url(#mask-2)"></path>
                <path d="M30.5262777,13.983622 C30.3987777,13.983622 30.2637777,13.983622 30.1231527,13.976122 C30.1081527,13.976122 30.0931527,13.976122 30.0837777,13.983622 L30.5262777,13.983622 Z" id="Fill-68" fill="#026CB6" mask="url(#mask-2)"></path>
                <path d="M28.15063,14.3464451 C28.57813,14.2714451 28.966255,14.2714451 29.416255,14.3201951 L29.416255,14.2414451 C29.37688,13.5233201 28.673755,13.6039451 28.276255,13.8814451 C28.238755,13.8814451 28.276255,13.9939451 28.276255,13.9939451 C28.126255,14.0633201 27.942505,13.9658201 27.848755,14.0295701 C27.68563,14.2414451 27.946255,14.4345701 28.15063,14.3464451" id="Fill-69" fill="#026CB6" mask="url(#mask-2)"></path>
                <path d="M28.6055699,15.6299337 C28.9716426,15.1940968 29.4982471,14.9053895 30.0608588,14.6624868 C30.1013668,14.6624868 30.0608588,14.5500575 30.0608588,14.4862088 C30.036854,14.5278492 30.0173501,14.5597736 29.9888445,14.6291744 C29.8763222,14.3848836 29.684284,14.2155457 29.4442364,14.1072805 C29.4262328,14.3182589 29.1696819,14.4612245 29.0616605,14.5500575 C28.7736033,14.7443797 28.4150321,14.9609101 28.2875068,15.2371252 C28.192988,15.4689239 28.1404776,15.8256439 28.3430178,15.9699975 C28.4690428,16.0463384 28.5350559,15.746527 28.6055699,15.6299337" id="Fill-70" fill="#026CB6" mask="url(#mask-2)"></path>
                <path d="M26.4826686,13.5432658 C26.4376686,13.7513908 26.3851686,14.0007658 26.6532936,14.0438908 C26.9851686,14.1395158 26.9851686,13.6145158 26.8201686,13.5132658 C26.7132936,13.4382658 26.5276686,13.3913908 26.4826686,13.5432658" id="Fill-71" fill="#026CB6" mask="url(#mask-2)"></path>
                <path d="M22.16755,11.1508912 C22.6063001,11.3983912 23.1436458,11.3983912 23.6103313,11.4246412 C23.6892078,11.4246412 23.950486,11.1058912 23.8124522,10.8902662 C23.5577471,10.6483912 23.1502188,10.8433912 22.9218058,10.4965162 L22.6983226,10.4477662 C22.3187298,10.3033912 22.2135612,10.7065162 22.0015808,10.9408912 C21.8980555,11.1058912 22.1544039,11.1508912 22.16755,11.1508912" id="Fill-72" fill="#026CB6" mask="url(#mask-2)"></path>
                <path d="M33.6132949,12.7608535 C33.5305668,12.8433206 33.3684197,12.8047568 33.2170273,12.8433206 C33.1417447,12.8587461 33.1491902,12.9667246 33.1864179,13.0023219 C33.3328466,13.1512374 33.5049211,13.0663971 33.7084322,13.033173 C33.6530044,13.0901287 33.7597237,13.080636 33.7886785,13.0966548 C33.8805067,13.1423381 33.9202162,12.9827434 34.0103899,13.033173 C34.0368629,13.0521582 34.0368629,13.1423381 34.0103899,13.1512374 C33.8771976,13.2040401 33.8771976,13.298373 33.7597237,13.3357502 C33.6827865,13.3737206 33.5305668,13.3737206 33.4619025,13.2687086 C33.4528024,13.2556562 33.3891017,13.2687086 33.3502195,13.2687086 L33.3891017,13.2687086 C33.3328466,13.3410898 33.3891017,13.4644938 33.3328466,13.4971247 C33.1012079,13.643667 32.5833299,13.7617314 32.8116595,13.984808 C32.9829067,14.1509288 33.3684197,14.1034657 33.6827865,14.0838872 C33.7200142,14.0838872 33.7597237,14.0417637 33.7497963,14.0204053 C33.7200142,13.8097878 33.8771976,13.7741905 34.0699541,13.6697717 C34.1485458,13.6229019 34.0103899,13.5564536 33.9169071,13.4971247 C33.8316971,13.4686468 33.9202162,13.3410898 34.0103899,13.3410898 C34.1320002,13.3357502 34.1320002,13.2277716 34.2378922,13.2509099 L34.2378922,13.1138602 C34.4232031,13.1275059 34.5779047,13.0379193 34.5390225,12.9234146 C34.4802855,12.7750924 34.2900109,12.6457555 34.3603298,12.4831944 C34.372739,12.4244588 34.4397488,12.3597903 34.5613591,12.3372454 C34.6217506,12.3277527 34.6548419,12.2713903 34.6068595,12.2429125 C34.5779047,12.2239272 34.5390225,12.2322333 34.505104,12.2322333 C34.505104,12.2856292 34.3892846,12.2660507 34.4232031,12.3087675 C34.2205193,12.3372454 34.0294173,12.3087675 33.854861,12.3841152 C33.6530044,12.4547165 33.7357325,12.6457555 33.6132949,12.7608535" id="Fill-73" fill="#026CB6" mask="url(#mask-2)"></path>
                <path d="M32.0024204,14.0553129 C32.0342954,14.5634379 32.5930454,14.3084379 32.8855454,14.1453129 C32.6980454,14.2109379 32.8405454,13.9803129 32.6980454,13.9653129 C32.4430454,13.9184379 32.2424204,14.0553129 32.0024204,14.0553129" id="Fill-74" fill="#026CB6" mask="url(#mask-2)"></path>
                <path d="M33.8951192,13.7834447 C33.5913692,14.2015697 34.4163692,14.2015697 34.7463692,14.0328197 C34.7613692,14.0328197 34.7538692,13.9784447 34.7463692,13.9484447 C34.7744942,13.8659447 34.7463692,13.8284447 34.6807442,13.7834447 C34.3638692,13.5884447 33.9757442,13.6315697 33.8951192,13.7834447" id="Fill-75" fill="#026CB6" mask="url(#mask-2)"></path>
                <path d="M34.5223219,13.0772933 C34.4173219,13.0322933 34.2466969,13.0641683 34.1116969,13.0641683 C34.2991969,13.1522933 34.2991969,13.5422933 34.5898219,13.4822933 C34.5748219,13.4372933 34.5354469,13.3922933 34.5354469,13.2872933 C34.5223219,13.2291683 34.5748219,13.1241683 34.5223219,13.0772933" id="Fill-76" fill="#026CB6" mask="url(#mask-2)"></path>
                <path d="M31.4836925,8.01087805 C31.5980619,8.07563415 31.676115,8.17276829 31.7108053,8.27484146 C31.7650088,8.40929268 31.6674425,8.58380488 31.7557942,8.72045122 C31.7731394,8.77697561 31.8295111,8.8164878 31.8517345,8.84502439 C31.9075642,8.90813415 31.8484823,9.02996341 31.8685376,9.11282927 C31.9184049,9.28953659 31.9314137,9.45526829 31.9525531,9.62484146 C32.0219336,9.60892683 32.0219336,9.73130488 32.1086593,9.70112195 C32.1086593,9.80593902 32.1585265,9.88770732 32.1731615,9.99032927 C32.2035155,10.1055732 32.3373982,10.0474024 32.4127412,10.1302683 C32.5309049,10.2970976 32.6431062,10.4655732 32.8203518,10.583561 C32.8740133,10.6186829 32.9547765,10.6186829 32.9845885,10.6691707 C32.9970553,10.691122 32.9845885,10.7322805 33.0127743,10.7322805 C33.2463916,10.7723415 33.5775752,10.8969146 33.4604956,11.1855732 C33.5499314,11.1202683 33.6577965,11.0719756 33.6848982,10.971 C33.7325973,10.7931951 33.7705398,10.5989268 33.6941128,10.4255122 C33.6480398,10.3355122 33.5168673,10.2872195 33.4908496,10.1873415 C33.467,10.1154512 33.4908496,10.0474024 33.4919336,9.99032927 C33.4995221,9.88770732 33.3547987,9.92447561 33.3304071,9.87563415 C33.2745774,9.74941463 33.2285044,9.53868293 33.467,9.56063415 C33.4751305,9.56063415 33.4328518,9.5139878 33.4453186,9.47173171 C33.3629292,9.47173171 33.2897544,9.486 33.2117013,9.47173171 C33.1574978,9.46459756 33.1574978,9.38612195 33.1574978,9.35978049 C33.1336482,9.22862195 33.2014027,9.06069512 33.0859491,8.97014634 C32.9845885,8.90593902 32.8523319,8.88563415 32.7515133,8.8164878 C32.6664137,8.7435 32.5932389,8.68971951 32.4951305,8.63264634 C32.4349646,8.59313415 32.3298097,8.68971951 32.2837367,8.63264634 C32.0864358,8.40929268 31.9482168,8.14752439 31.7650088,7.89728049 C31.6934602,7.81715854 31.553073,7.81715854 31.4267788,7.8380122 C31.3899204,7.84569512 31.4094336,7.8857561 31.4018451,7.90715854 C31.4191903,7.90715854 31.4381615,7.90715854 31.4511704,7.91429268 C31.492365,7.93569512 31.4658053,7.98837805 31.4836925,8.01087805" id="Fill-77" fill="#026CB6" mask="url(#mask-2)"></path>
                <path d="M30.3591561,9.03093413 C30.2329377,9.29772293 30.2839105,9.63760455 30.4068925,9.71557022 C30.5873201,9.82642767 30.8478479,9.81302731 31.0727756,9.77526269 C31.1957576,9.74480735 31.2734305,9.54989316 31.3397761,9.37081575 C31.4595217,9.09428125 31.7766859,9.25386724 32.0121318,9.12717301 C31.9765318,9.34645148 32.0800956,9.32817827 32.1610048,9.41467144 C32.1521048,9.17102871 32.1521048,8.84211101 32.0469228,8.73369 C31.8341315,8.53999402 31.8219951,8.25736845 31.7079131,7.96134253 C31.6852585,7.86023079 31.5638946,8.01372571 31.5638946,8.06123605 C31.5889765,8.5643583 31.3090305,8.47055584 31.0824847,8.60577756 C31.0727756,8.63745112 31.0946211,8.73369 31.0727756,8.76901819 C31.0727756,8.78850961 31.0404119,8.78850961 31.0015754,8.76901819 C30.962739,8.70079823 30.9311844,8.67034289 30.936039,8.55826723 C30.8235751,8.55826723 30.6617566,8.55826723 30.6140202,8.67034289 C30.5484837,8.84211101 30.4319744,8.87865742 30.3591561,9.03093413" id="Fill-78" fill="#026CB6" mask="url(#mask-2)"></path>
                <path d="M27.4173429,4.05374896 C27.2829181,3.69465562 27.0726084,3.36389159 27.1289801,2.9029658 C27.5143673,3.09591148 27.8596438,3.00326693 28.245031,2.82793137 C28.5312257,2.71614538 28.8596991,2.91215369 29.1393894,2.66025239 C29.1729956,2.6150786 29.1404735,2.48108854 29.1404735,2.3792561 C28.8206726,2.58828059 28.5529071,1.99566171 28.2650863,2.25445393 C27.8883717,2.58828059 27.4840133,2.67020593 27.1181394,2.80725862 C26.8194779,2.9029658 26.0497876,2.82793137 26.0156394,3.44811391 C26.4259602,3.45500483 26.882896,3.50170994 27.1376527,4.02465398 C27.1772212,4.08743789 27.3214027,4.05374896 27.4173429,4.05374896" id="Fill-79" fill="#026CB6" mask="url(#mask-2)"></path>
                <path d="M28.6845675,5.39715814 C29.0726925,6.07590814 29.7683175,6.22590814 30.4133175,6.46028314 C30.5239425,6.11528314 30.3383175,5.95215814 30.1301925,5.76090814 C29.6783175,5.39715814 29.2133175,5.35215814 28.6845675,5.39715814" id="Fill-80" fill="#026CB6" mask="url(#mask-2)"></path>
                <path d="M28.4646341,6.0526528 C28.2265091,6.1651528 28.4946341,6.5082778 28.7365091,6.7032778 C28.6896341,6.4032778 29.0852591,5.7882778 28.4646341,6.0526528" id="Fill-81" fill="#026CB6" mask="url(#mask-2)"></path>
                <path d="M28.5318407,6.19902439 C28.5899657,6.22527439 28.7268407,6.22527439 28.7849657,6.19902439 C28.8168407,6.18402439 28.7849657,6.10152439 28.7849657,6.03589939 C28.7849657,5.57839939 28.3218407,5.44527439 27.9318407,5.40027439 C27.9318407,5.49777439 27.8943407,5.72277439 27.9693407,5.74152439 C28.2018407,5.85589939 28.2618407,6.03589939 28.5318407,6.19902439" id="Fill-82" fill="#026CB6" mask="url(#mask-2)"></path>
                <path d="M29.277951,7.63409835 C29.307951,7.69409835 29.448576,7.77097335 29.525451,7.69409835 C29.622951,7.59659835 29.682951,7.47284835 29.622951,7.29097335 L29.622951,7.36784835 C29.531076,7.21784835 29.724201,6.98909835 29.525451,6.85597335 C29.448576,6.82784835 29.336076,6.79597335 29.307951,6.85597335 C29.037951,7.10534835 29.277951,7.36784835 29.277951,7.63409835" id="Fill-83" fill="#026CB6" mask="url(#mask-2)"></path>
                <path d="M29.6214792,7.07946282 C29.5783542,7.28946282 29.6214792,7.43946282 29.7414792,7.55758782 C29.8483542,7.59508782 29.9308542,7.55758782 29.9683542,7.48446282 C29.8483542,7.41133782 29.8483542,7.34196282 29.8483542,7.21633782 C29.8933542,6.91446282 29.6608542,7.21633782 29.6214792,7.07946282" id="Fill-84" fill="#026CB6" mask="url(#mask-2)"></path>
                <path d="M29.777228,7.91019863 C29.835353,8.11082363 30.034103,7.83519863 30.090353,7.58582363 C30.090353,7.57082363 30.112853,7.54269863 30.120353,7.52207363 C30.159728,7.54832363 30.187853,7.57082363 30.217853,7.60457363 C30.202853,7.56332363 30.165353,7.52207363 30.137228,7.47519863 C29.940353,7.22957363 29.582228,7.03269863 29.379728,7.27269863 C29.154728,7.54269863 29.634728,7.54269863 29.777228,7.91019863" id="Fill-85" fill="#026CB6" mask="url(#mask-2)"></path>
                <path d="M29.6766333,7.4524002 C29.8116333,7.5349002 29.4910083,7.4842752 29.5810083,7.6192752 C29.8416333,7.9680252 30.2916333,8.1480252 30.6122583,8.0430252 C30.7697583,7.9380252 30.9628833,7.6192752 30.8016333,7.5030252 C30.5372583,7.3399002 30.1697583,7.4524002 29.8416333,7.4524002 L29.6766333,7.4524002 Z" id="Fill-86" fill="#026CB6" mask="url(#mask-2)"></path>
                <path d="M30.5785406,8.18601642 C30.7604156,8.08476642 30.5935406,7.94789142 30.5785406,7.84101642 C30.4885406,7.60101642 30.3554156,7.37789142 30.1904156,7.52789142 C30.0347906,7.61601642 29.9129156,7.99101642 30.1472906,8.12789142 C30.2354156,8.19351642 30.4210406,8.27976642 30.5785406,8.18601642" id="Fill-87" fill="#026CB6" mask="url(#mask-2)"></path>
                <path d="M30.7096627,8.85563212 C30.7977877,8.94563212 31.0452877,8.76375712 31.1559127,8.67375712 C31.2177877,8.67375712 31.1877877,8.51813212 31.1877877,8.42250712 C31.2852877,8.46375712 31.3284127,8.42250712 31.3284127,8.33250712 C31.4127877,8.18813212 31.3752877,8.00063212 31.1877877,7.94250712 C31.0677877,7.89563212 30.9121627,8.09063212 30.7696627,7.97250712 C30.7377877,7.97250712 30.7977877,7.89563212 30.7696627,7.83938212 C30.6421627,7.73438212 30.4527877,7.65000712 30.3571627,7.74750712 C30.1884127,7.89563212 30.1884127,8.16000712 30.2671627,8.32500712 C30.3571627,8.49563212 30.5352877,8.67375712 30.7096627,8.85563212" id="Fill-88" fill="#026CB6" mask="url(#mask-2)"></path>
                <path d="M30.260167,8.87945936 C30.335167,8.87945936 30.423292,8.79695936 30.440167,8.71445936 C30.483292,8.53258436 30.483292,8.39195936 30.440167,8.19133436 C30.423292,8.06008436 30.301417,8.06008436 30.222667,8.12195936 C30.087667,8.19133436 30.100792,8.39195936 29.939542,8.43695936 C29.982667,8.64508436 30.087667,8.84758436 30.260167,8.87945936" id="Fill-89" fill="#026CB6" mask="url(#mask-2)"></path>
                <path d="M30.2092954,2.26996378 C30.1717954,2.26996378 30.1117954,2.23808878 30.1117954,2.19496378 C30.1117954,2.17996378 30.1717954,2.14246378 30.2092954,2.11808878 C29.9936704,1.88558878 29.7442954,2.05058878 29.4911704,1.99996378 C29.6580454,2.26996378 29.9017954,2.49308878 30.2092954,2.26996378" id="Fill-90" fill="#026CB6" mask="url(#mask-2)"></path>
                <path d="M34.1418612,5.85720773 C34.2755173,6.02764657 34.5667355,5.82341382 34.7101713,6.02764657 C34.8470873,6.24657231 34.9557508,6.60361228 35.2035035,6.60361228 C35.359979,6.60361228 35.472989,6.49194546 35.4925484,6.30387502 C35.5371005,5.75288741 35.3719319,5.11961898 34.9785701,4.87130723 C34.6015078,4.72143859 34.2070593,4.72143859 33.8289104,4.733193 C33.5865908,4.733193 33.5865908,5.11961898 33.6909078,5.27242621 C33.8071777,5.45902735 33.9712596,5.65297499 34.1418612,5.85720773" id="Fill-91" fill="#026CB6" mask="url(#mask-2)"></path>
                <path d="M38.9715863,11.663122 C38.8377035,11.493 38.8268628,11.3086098 38.737969,11.1725122 C38.6582898,11.043 38.4593628,11.0281829 38.355292,10.8772683 C38.3032566,10.8048293 38.3986549,10.678061 38.3211438,10.6187927 C38.2750708,10.5842195 38.2257456,10.5419634 38.2192412,10.5019024 C38.1536549,10.3273902 38.0728916,10.2110488 37.911365,10.1309268 C37.9644845,9.92403659 37.7774823,9.82360976 37.5872279,9.76708537 C37.5790973,9.75830488 37.605115,9.70178049 37.605115,9.67928049 C37.5980686,9.59970732 37.4988761,9.57610976 37.4338319,9.5525122 C37.4083562,9.53879268 37.3557788,9.5525122 37.3476482,9.53879268 C37.2495398,9.40763415 37.115115,9.30720732 37.0701261,9.19745122 C37.0126704,9.01086585 36.8370509,8.90659756 36.685281,8.80287805 C36.6294513,8.77653659 36.5822942,8.61903659 36.5541084,8.61903659 C36.4478695,8.61903659 36.302604,8.62617073 36.287427,8.50543902 C36.2679137,8.2755 36.0863319,8.13281707 35.9172168,7.99452439 C35.6727588,7.81781707 35.889031,7.43421951 35.8028473,7.15434146 C35.7811659,7.03854878 35.6559558,7.03854878 35.5453805,7.03854878 C35.5058119,7.03854878 35.4678695,7.00068293 35.445646,6.95952439 C35.3502478,6.78610976 35.4245066,6.59403659 35.3133894,6.4332439 C35.1415642,6.18903659 34.9507677,6.0002561 34.7605133,5.75714634 C34.6515642,5.63476829 34.496542,5.65397561 34.3621173,5.64135366 C34.3236327,5.63476829 34.3003252,5.61062195 34.2650929,5.58592683 C34.2152257,5.55354878 34.2000487,5.49373171 34.1718628,5.44379268 C34.0948938,5.3082439 33.9268628,5.24732927 33.7891858,5.18092683 C33.531177,5.07336585 33.255281,5.12879268 32.9842633,5.08928049 C32.7685332,5.07336585 32.5300376,5.1507439 32.3695951,5.28684146 C32.1820509,5.42952439 31.9609004,5.5052561 31.7218628,5.54915854 C31.6302588,5.56671951 31.755469,5.6825122 31.7218628,5.75220732 C31.6671173,5.84440244 31.5354027,5.94373171 31.5901482,6.03043902 C31.617792,6.05239024 31.541365,6.03976829 31.5679248,6.0705 C31.6199602,6.12318293 31.7104801,6.08312195 31.7841969,6.08312195 C31.8687544,6.09684146 31.8991084,6.18903659 31.9489757,6.22964634 C32.0541305,6.34269512 32.1739204,6.44696341 32.2362544,6.58470732 C32.2622721,6.63793902 32.1619956,6.73617073 32.2102367,6.78610976 C32.3441195,6.92440244 32.3186438,7.04897561 32.3186438,7.21745122 C32.3186438,7.28714634 32.4633673,7.22184146 32.4958894,7.24434146 C32.6904801,7.34970732 32.7289646,7.59885366 32.6753031,7.8002561 C32.6444071,7.90726829 32.6552478,8.06202439 32.7007788,8.14818293 C32.7988872,8.33915854 32.8194845,8.61903659 32.9978142,8.76007317 C33.0384668,8.69860976 33.086708,8.61903659 33.118146,8.62617073 C33.2747942,8.64592683 33.2769624,8.52519512 33.3745288,8.46757317 C33.6677699,8.26726829 33.914396,8.658 33.9946173,8.8857439 C34.0753805,9.11239024 33.9946173,9.40434146 34.0948938,9.62440244 C34.1718628,9.84391463 34.3079137,10.020622 34.5203916,10.1309268 C34.5686327,10.1572683 34.5789314,10.2873293 34.6222942,10.3839146 C34.6439757,10.440439 34.6976372,10.5134268 34.7821947,10.4547073 C34.8298938,10.4261707 34.8055022,10.3208049 34.8862655,10.2873293 C34.9507677,10.2659268 35.0206903,10.310378 35.0613429,10.3449512 C35.2499712,10.5842195 35.2944181,11.0715366 35.6819735,11.043 C35.6727588,11.1022683 35.7139535,11.1467195 35.7529801,11.1620854 C35.8332013,11.1862317 35.889031,11.0715366 35.9432345,11.1769024 C36.0039425,11.2652561 36.0364646,11.3783049 36.1183119,11.4227561 C36.2505686,11.4650122 36.3958341,11.4139756 36.5275487,11.4485488 C36.6142743,11.4726951 36.685281,11.5753171 36.747073,11.663122 C36.7833894,11.7201951 36.8283783,11.7887927 36.8825819,11.8453171 C37.1416748,12.1015976 37.2414093,12.4868415 37.5552478,12.6833049 C37.6517301,12.7491585 37.7433341,12.8715366 37.8820951,12.8347683 C37.9227478,12.8347683 37.8945619,12.7716585 37.9384668,12.7617805 C38.0674712,12.7491585 38.1411881,12.6405 38.1943075,12.5592805 C38.2902478,12.4297683 38.4333451,12.3123293 38.6019181,12.2322073 C38.6040863,12.2239756 38.6019181,12.1756829 38.6040863,12.1712927 C38.7184558,12.0752561 38.8637212,12.0511098 38.9715863,11.9484878 C39.0664425,11.8760488 39.0154912,11.7114146 38.9715863,11.663122" id="Fill-92" fill="#026CB6" mask="url(#mask-2)"></path>
                <path d="M34.0075177,11.0720305 C34.1200177,11.0870305 34.2081427,11.1320305 34.2925177,11.1695305 C34.3806427,11.1901555 34.4556427,11.1845305 34.5550177,11.2239055 L34.0075177,11.0720305 Z" id="Fill-93" fill="#026CB6" mask="url(#mask-2)"></path>
                <path d="M33.7829045,12.2561502 C33.8980757,12.4052898 34.1584628,12.4315534 34.3474939,12.524414 C34.5578065,12.6594839 34.6579554,12.8527089 34.8407271,12.9361896 C35.2175374,13.0947091 35.0710696,12.6182125 35.2525895,12.461569 C35.3176862,12.4315534 35.5167322,12.4887705 35.563051,12.4315534 C35.7871342,12.201747 35.5167322,11.8443746 35.2400709,11.6173821 C35.0109803,11.4560486 34.8357197,11.2027926 34.5089839,11.1052421 C34.337479,11.0789785 34.1722333,11.0846064 34.0733363,11.2299942 C33.8980757,11.430723 34.0783437,11.7008628 33.949402,11.9034677 C33.8730385,12.010398 33.7290745,12.1351501 33.7829045,12.2561502" id="Fill-94" fill="#026CB6" mask="url(#mask-2)"></path>
                <path d="M34.7267207,12.3598537 C34.6582535,12.5908902 34.7051866,12.8411341 34.6775789,13.0930244 C34.6582535,13.2181463 34.4683123,13.1923537 34.3893541,13.2999146 C34.3435253,13.3586341 34.3236477,13.464 34.3346908,13.5375366 C34.3634029,13.7038171 34.5505833,13.6911951 34.667088,13.7521098 C34.9757425,13.9057683 35.2545806,14.1335122 35.4329266,14.444122 C35.4975287,14.5494878 35.5229278,14.6943659 35.6145855,14.781622 C35.7067954,14.8732683 35.876859,14.8732683 35.9055711,15.0400976 C35.9188228,15.1054024 36.0358796,15.1279024 36.0877821,15.0905854 C36.2495635,14.9605244 36.2324467,14.7086341 36.119255,14.5736341 C36.0447141,14.5006463 35.9734861,14.4051585 35.9734861,14.3261341 C35.962443,13.9842439 35.8619509,13.6643049 35.6764269,13.3718049 C35.55937,13.2093659 35.3611465,13.1221098 35.2402246,12.9728415 C35.2269729,12.9404634 35.1850091,12.8855854 35.2153776,12.8411341 C35.2545806,12.761561 35.3407168,12.7099756 35.3611465,12.6144878 C35.3793676,12.4383293 35.1800397,12.3730244 35.1320023,12.204 C35.1320023,12.1957683 35.0767868,12.204 35.0436575,12.204 L35.1402846,12.2325366 C34.9757425,12.1628415 34.7686844,12.1957683 34.7267207,12.3598537" id="Fill-95" fill="#026CB6" mask="url(#mask-2)"></path>
                <path d="M37.2143881,14.1504075 C37.1498352,14.0459766 37.2143881,13.9100195 37.1845944,13.77866 C37.1498352,13.5527216 36.6942409,13.5185681 36.3416829,13.5185681 C36.184025,13.5185681 35.9854008,13.4890122 35.9494001,13.5881887 C35.9270549,13.6729156 35.9270549,13.765524 36.0549192,13.8725821 C36.7091377,14.271915 36.6545161,14.840045 36.9400384,15.3030873 C37.0343849,15.492245 37.6513613,15.339868 37.7543976,15.1415151 C37.8177091,15.0377411 37.8301231,14.9273991 37.7903983,14.826909 C37.699776,14.7211646 37.5098416,14.6541712 37.4651511,14.5385749 C37.4167365,14.3914522 37.2528715,14.2922757 37.2143881,14.1504075" id="Fill-96" fill="#026CB6" mask="url(#mask-2)"></path>
                <path d="M36.1600078,12.9870976 C35.7175078,13.3320976 36.3400078,13.6902226 36.2181328,14.1720976 L36.3981328,14.1720976 C36.6831328,14.3033476 36.6831328,13.9620976 36.7450078,13.8233476 C36.2181328,13.8570976 36.3081328,13.2852226 36.3400078,12.9870976 C36.3006328,12.9870976 36.2181328,12.9420976 36.1600078,12.9870976" id="Fill-97" fill="#026CB6" mask="url(#mask-2)"></path>
                <path d="M36.819373,13.0625396 C36.853123,12.7887896 36.791248,12.5000396 36.476248,12.4494146 C36.416248,12.8937896 35.992498,12.7887896 35.752498,13.0100396 C35.452498,13.2500396 35.771248,13.6381646 36.091873,13.7656646 C36.166873,13.7656646 36.166873,13.8912896 36.215623,13.8912896 C36.819373,14.1406646 37.299373,13.6512896 37.061248,13.0625396 C37.061248,13.0250396 36.918748,13.0625396 36.819373,13.0625396" id="Fill-98" fill="#026CB6" mask="url(#mask-2)"></path>
                <path d="M35.4108292,12.6101123 C35.9489542,12.83119 35.4183292,13.232307 35.8402042,13.3607174 C36.1364542,13.4983945 36.7345792,13.5725284 37.0195792,13.3792509 C37.2370792,13.2640786 37.0120792,12.9794576 36.5658292,12.9582765 C36.3858292,12.947686 36.3970792,12.7173416 36.4402042,12.5571595 C36.3164542,12.5571595 36.2283292,12.4989115 36.1758292,12.4618446 C35.7483292,12.2553289 36.5414542,12.1030897 36.3089542,11.8396498 C36.2283292,11.7814018 36.2808292,11.6529914 36.1758292,11.641077 C36.0164542,11.5854767 35.8402042,11.6529914 35.7783292,11.7814018 C35.6358292,11.8978978 35.8833292,12.050137 35.7858292,12.1878141 C35.6714542,12.3652058 35.1895792,12.4989115 35.4108292,12.6101123" id="Fill-99" fill="#026CB6" mask="url(#mask-2)"></path>
                <path d="M36.325051,11.487622 C36.079426,11.375122 35.681926,11.631997 35.481301,11.189497 C35.455051,11.136997 35.254426,11.136997 35.183176,11.189497 C35.113801,11.228872 35.113801,11.303872 35.066926,11.339497 C34.926301,11.541997 34.761301,11.690122 34.926301,11.841997 C35.149426,12.005122 35.201926,12.168247 35.331301,12.350122 C35.481301,12.633247 35.891926,12.350122 35.972551,12.601372 C36.040051,12.845122 36.266926,12.925747 36.435676,12.805747 C36.638176,12.708247 36.467551,12.350122 36.533176,12.168247 C36.409426,12.252622 36.467551,11.931997 36.366301,12.078247 C36.435676,11.870122 36.565051,11.570122 36.325051,11.487622" id="Fill-100" fill="#026CB6" mask="url(#mask-2)"></path>
                <path d="M26.7028538,17.6102764 L26.8678538,17.6102764 C26.8847288,17.5202764 26.8678538,17.4152764 26.9747288,17.3046514 C27.0703538,17.1602764 26.9109788,16.9484014 26.8153538,16.8471514 C26.6653538,16.6821514 26.3672288,16.8471514 26.4722288,17.1602764 L26.6222288,17.1602764 C26.5866038,17.3046514 26.5866038,17.4434014 26.7028538,17.6102764" id="Fill-101" fill="#026CB6" mask="url(#mask-2)"></path>
                <path d="M30.5510122,22.2276951 C30.5510122,22.2518415 30.5623949,22.2869634 30.5380033,22.2951951 C30.4886781,22.3572073 30.3840653,22.3215366 30.3591316,22.2425122 C30.3228153,22.1645854 30.2848728,22.0773293 30.2073617,22.0460488 C30.1336449,22.0284878 30.0664325,22.0367195 30.0295741,22.1162927 C29.9520631,22.0592195 29.8767201,22.1020244 29.8051715,22.0850122 C29.829021,21.9642805 29.7097732,21.9708659 29.644729,21.8923902 C29.5693861,21.8215976 29.5975719,21.6778171 29.7097732,21.6405 C29.7937887,21.6009878 29.8675055,21.672878 29.8848507,21.7700122 C29.8767201,21.7524512 29.8675055,21.7524512 29.8631692,21.7343415 C29.8631692,21.7700122 29.8463662,21.7919634 29.8631692,21.8161098 C29.9390542,21.888 30.0295741,21.7919634 30.1141316,21.8550732 C30.211156,21.9143415 30.3455808,21.8215976 30.4556139,21.888 C30.4621184,21.888 30.4447732,21.9450732 30.4843418,21.9450732 C30.6073838,21.9642805 30.6523728,22.0773293 30.6231029,22.170622 C30.6138883,22.1947683 30.594375,22.2386707 30.5510122,22.2276951 M36.1968529,15.4436707 C36.045625,15.3822073 35.87651,15.4623293 35.7355808,15.5506829 C35.4352931,15.7059878 35.3984347,16.1126341 35.2103485,16.3283049 C35.0797179,16.4770244 34.9312002,16.5483659 34.7517865,16.5384878 C34.7301051,16.5384878 34.6612666,16.5099512 34.65151,16.4506829 C34.65151,16.3623293 34.6227821,16.2712317 34.6889104,16.2009878 C34.7496184,16.1521463 34.8173728,16.1126341 34.8574834,16.0412927 C34.942583,15.9068415 34.8764546,15.7460488 34.8477268,15.6209268 C34.7734679,15.3443415 34.4905254,15.1813537 34.2308905,15.2290976 C33.9685454,15.2806829 33.8151493,15.5550732 33.6682577,15.7932439 C33.6682577,15.7932439 33.6162223,15.803122 33.6162223,15.7932439 C33.5164878,15.6708659 33.3869414,15.6044634 33.3175608,15.4738537 C33.3007577,15.4623293 33.3007577,15.4337927 33.3175608,15.4052561 C33.4216316,15.4623293 33.5164878,15.6209268 33.626521,15.5550732 C33.733302,15.4908659 33.6400719,15.3465366 33.5582246,15.3158049 C33.4677046,15.285622 33.3798949,15.1934268 33.2633573,15.2071463 C33.1836781,15.2109878 33.0866538,15.0897073 33.0579259,14.9920244 C33.0254038,14.8438537 33.013479,14.6501341 32.8855586,14.6111707 C32.7511338,14.5540976 32.6253816,14.5491585 32.4958352,14.4525732 C32.4351272,14.4223902 32.3614104,14.4800122 32.3028706,14.4750732 C32.3446073,14.4311707 32.309917,14.3351341 32.3288883,14.3351341 C32.4909569,14.3170244 32.6904259,14.3170244 32.5939436,14.1337317 C32.5500387,14.0459268 32.4633131,13.9586707 32.3614104,14.0300122 C32.3288883,14.0459268 32.2687223,14.0459268 32.2578816,14.0892805 C32.2362002,14.1200122 32.2296958,14.1644634 32.2107246,14.1902561 C32.1819967,14.2599512 32.2616759,14.3922073 32.2107246,14.4311707 C32.1082799,14.5014146 31.9613883,14.4970244 31.8361781,14.5842805 C31.8210011,14.5936098 31.77276,14.5936098 31.7516206,14.5842805 C31.6415874,14.5491585 31.4703042,14.4223902 31.4188108,14.4800122 C31.3407577,14.5733049 31.3239546,14.6940366 31.2301825,14.7417805 C31.1494192,14.7823902 31.0464325,14.7862317 30.962417,14.8273902 C30.8128153,14.8861098 30.8995409,15.0776341 30.962417,15.215378 C30.9916869,15.2642195 30.9705476,15.3443415 30.9185122,15.3822073 C30.8128153,15.4436707 30.7911338,15.3092195 30.7656582,15.2570854 C30.7212113,15.1226341 30.6832688,14.9695244 30.6832688,14.8273902 C30.6697179,14.6808659 30.8556361,14.5842805 30.8995409,14.4443415 C30.9293529,14.3592805 30.9559126,14.2599512 30.8957467,14.1644634 C30.8279923,14.058 30.7212113,14.0108049 30.6231029,14.0415366 C30.3591316,14.1117805 30.2848728,14.5733049 30.0214436,14.4525732 C29.8848507,14.400439 29.7688551,14.2599512 29.6219635,14.1902561 C29.5395741,14.1337317 29.460979,14.0761098 29.3650387,14.1469024 C29.1823728,14.2862927 28.95526,14.3702561 28.7601272,14.4662927 C28.5850498,14.5491585 28.4321958,14.7555 28.3297511,14.9475732 C28.2191759,15.1934268 27.7812113,15.3300732 27.6354038,15.0397683 C27.5643971,14.900378 27.4175055,14.7862317 27.2613993,14.7900732 C27.118844,14.8147683 27.0684347,15.0046463 26.9112445,15.0397683 C26.796333,15.0611707 26.7291206,15.020561 26.6862998,14.9327561 C26.6787113,14.9086098 26.6787113,14.8674512 26.6862998,14.8608659 C26.9004038,14.6808659 27.1210122,14.5491585 27.3871515,14.4443415 C27.5139878,14.400439 27.532417,14.2599512 27.4841759,14.1337317 C27.4820077,14.1117805 27.4727931,14.0761098 27.4538219,14.0459268 C27.4429812,13.9784268 27.4321405,13.8752561 27.4082909,13.8752561 C27.0841538,13.9015976 26.8131361,14.1337317 26.6510675,14.4311707 C26.6299281,14.4750732 26.612583,14.5365366 26.5843971,14.5365366 C26.3789657,14.5195244 26.168656,14.6375122 25.9962887,14.5195244 C25.9588883,14.4970244 25.9095631,14.2572073 25.8857135,14.2819024 C25.801698,14.3702561 25.7512887,14.4800122 25.6759458,14.5733049 C25.6542644,14.6221463 25.5978927,14.6457439 25.5675387,14.6940366 C25.4510011,14.8740366 25.6759458,15.0611707 25.6239104,15.2071463 C25.587594,15.2806829 25.3989657,15.2806829 25.2759237,15.3092195 C25.2152157,15.3300732 25.2152157,15.4337927 25.219552,15.5150122 C25.2282246,15.5792195 25.2997732,15.5698902 25.3409679,15.5967805 C25.4607577,15.7147683 25.4705144,15.9200122 25.6239104,15.9908049 C25.8103706,16.078061 26.0363993,16.0193415 26.26026,16.078061 C26.4049834,16.1126341 26.5133905,16.2141585 26.5757246,16.3623293 C26.612583,16.4419024 26.7291206,16.4847073 26.735625,16.6087317 C26.7426715,16.6493415 26.796333,16.6910488 26.8548728,16.7195854 C26.9215431,16.7448293 27.0082688,16.672939 27.072771,16.7025732 C27.1676272,16.730561 27.1291427,16.857878 27.1524502,16.9347073 C27.1985232,17.0834268 27.1210122,17.2453171 27.2760343,17.3918415 C27.3340321,17.442878 27.2158684,17.5965366 27.149198,17.6815976 C27.1210122,17.7117805 27.0256139,17.7117805 27.0147732,17.7573293 C26.9757467,17.8923293 27.0082688,18.0119634 27.072771,18.1151341 C27.1210122,18.1760488 27.1968971,18.1151341 27.2158684,18.1590366 C27.3302378,18.3033659 27.3779369,18.4652561 27.4727931,18.5964146 C27.5139878,18.6469024 27.5600608,18.7127561 27.6164325,18.7347073 C27.54651,18.7484268 27.5269967,18.8356829 27.54651,18.8653171 C27.5893308,18.9223902 27.685271,18.958061 27.7356803,18.905378 C27.8121073,18.8526951 27.899375,18.8356829 27.97526,18.7632439 C28.0207909,18.7127561 28.098844,18.7303171 28.1460011,18.6820244 C28.1996626,18.7347073 28.2457356,18.8483049 28.2094192,18.8971463 C28.0945077,19.008 27.8885343,18.9322683 27.7541095,19.0189756 C27.6635896,19.0606829 27.5746958,19.0365366 27.5269967,19.1111707 C27.4820077,19.1594634 27.5269967,19.265378 27.6072179,19.2752561 C27.899375,19.3383659 27.6722622,19.7642195 27.532417,19.9776951 C27.4966427,20.0265366 27.532417,20.1061098 27.5139878,20.1983049 C27.5031471,20.2345244 27.4494856,20.258122 27.4175055,20.258122 C27.1372732,20.2833659 26.8548728,20.1834878 26.6017423,20.2762317 C26.5133905,20.3025732 26.4700277,20.4255 26.4282909,20.5303171 L26.4781582,20.5303171 C26.4049834,20.5369024 26.4049834,20.6170244 26.3870962,20.6614756 C26.3724613,20.7119634 26.3789657,20.8090976 26.3486117,20.8540976 C26.1019856,21.1284878 26.0678374,21.4747683 26.0239325,21.7919634 C26.015802,21.888 26.1345077,21.9516585 26.2011781,21.9516585 C26.2705586,21.9516585 26.367583,21.870439 26.4282909,21.870439 C26.5562113,21.888 26.5236892,22.0850122 26.5713883,22.170622 C26.6250498,22.2688537 26.8131361,22.2869634 26.8331914,22.1547073 C26.8651715,22.0460488 26.8651715,21.9143415 26.9004038,21.8161098 C26.9394303,21.6778171 26.796333,21.5861707 26.7681471,21.4588537 C26.735625,21.3403171 26.796333,21.2355 26.8651715,21.1564756 C26.9112445,21.1087317 26.9844192,21.1652561 27.0147732,21.2355 C27.0402489,21.3046463 27.0402489,21.4017805 27.0684347,21.4835488 C27.0841538,21.5691585 27.0256139,21.672878 27.072771,21.7343415 C27.1210122,21.7919634 27.149198,21.870439 27.1291427,21.9450732 C27.1210122,21.9801951 27.072771,22.0125732 27.0478374,22.0592195 C27.0147732,22.1547073 27.072771,22.2869634 26.9936338,22.3215366 C26.9112445,22.3868415 26.9215431,22.5059268 26.8218086,22.5147073 C26.6017423,22.5273293 26.3312666,22.4087927 26.4049834,22.1547073 C26.3144635,22.1464756 26.2212334,22.1464756 26.1816648,22.2276951 C26.1345077,22.3292195 26.1816648,22.4883659 26.123667,22.5717805 C26.0418197,22.6727561 25.9870741,22.7814146 25.8943861,22.8862317 C25.8645741,22.9087317 25.9372069,22.9257439 25.9095631,22.9586707 C25.7903153,23.1008049 25.6542644,23.1534878 25.5089989,23.2637927 C25.5008684,23.2637927 25.4938219,23.2637927 25.4938219,23.2895854 C25.3989657,23.355439 25.2385232,23.2500732 25.2022069,23.3653171 C25.1474613,23.4865976 25.3187445,23.5694634 25.3751162,23.6901951 C25.4103485,23.7714146 25.388125,23.8674512 25.2759237,23.885561 C25.1138551,23.9245244 24.9729259,23.900378 24.8021847,23.8762317 C24.8021847,23.9245244 24.7588219,23.9157439 24.7588219,23.9327561 C24.7311781,24.0781829 24.7588219,24.1967195 24.6477046,24.322939 C24.5788662,24.4145854 24.6851051,24.5281829 24.7479812,24.6077561 C24.8173617,24.7037927 24.8477157,24.8355 24.9366095,24.8574512 C25.0070741,24.8805 25.0656139,24.9408659 25.1312002,24.9320854 C25.2667091,24.8969634 25.3669856,24.845378 25.4206471,24.6966585 C25.4401604,24.6077561 25.587594,24.7087317 25.6840763,24.6774512 C25.7079259,24.6692195 25.7583352,24.6511098 25.7767644,24.6390366 C25.8504812,24.5506829 25.7583352,24.4244634 25.801698,24.3717805 C25.9480476,24.1967195 26.1171626,24.0518415 26.3144635,23.9245244 C26.3789657,23.8674512 26.4781582,23.8109268 26.5757246,23.8455 C26.6510675,23.8674512 26.7166538,23.9157439 26.796333,23.9492195 C26.8722179,23.9859878 26.9318418,24.038122 27.0082688,24.0825732 C27.0256139,24.0995854 27.0841538,24.1220854 27.1210122,24.1390976 C27.2505586,24.1967195 27.3302378,24.358061 27.4727931,24.4409268 C27.5139878,24.4634268 27.4841759,24.3844024 27.5269967,24.4145854 C27.532417,24.2839756 27.5031471,24.1544634 27.4429812,24.0781829 C27.3567976,23.9492195 27.2158684,23.885561 27.1210122,23.7801951 C27.0841538,23.7494634 27.0841538,23.6578171 27.1372732,23.6007439 C27.149198,23.5765976 27.1968971,23.5765976 27.1985232,23.6007439 C27.2760343,23.670439 27.3519192,23.670439 27.4321405,23.7105 C27.5893308,23.7801951 27.5600608,24.0216585 27.7134569,24.0995854 C27.7958462,24.1434878 27.8392091,24.2664146 27.9362334,24.2839756 C28.0511449,24.322939 28.2343529,24.2839756 28.2999392,24.1434878 C28.3492644,24.060622 28.2544082,24.0123293 28.1953263,23.958 C28.0809569,23.8674512 28.2544082,23.8284878 28.3102378,23.7587927 C28.4099723,23.6375122 28.3102378,23.5332439 28.2999392,23.4174512 C28.2863883,23.3653171 28.3216206,23.3367805 28.3492644,23.3137317 C28.3492644,23.3137317 28.3579369,23.2983659 28.3725719,23.2895854 C28.4376162,23.1452561 28.3769082,22.9872073 28.4321958,22.8483659 C28.4533352,22.8170854 28.4901936,22.820378 28.4901936,22.8297073 C28.5308462,22.8999512 28.6110675,22.9498902 28.6826162,22.9257439 C28.7969856,22.8950122 28.8896737,22.837939 28.9704369,22.7336707 C29.0696294,22.6003171 29.2810232,22.6727561 29.3341427,22.7989756 C29.3569082,22.8950122 29.3243861,23.0272683 29.2512113,23.0536098 C28.9980808,23.0920244 28.7969856,23.1836707 28.6110675,23.3137317 C28.5850498,23.3367805 28.5525277,23.355439 28.5373507,23.385622 C28.4376162,23.4602561 28.3985896,23.5332439 28.4533352,23.6901951 C28.4641759,23.7494634 28.3861228,23.8109268 28.3297511,23.8674512 C28.4251493,23.900378 28.4251493,24.0216585 28.5135011,24.038122 C28.6712334,24.0781829 28.8164989,24.0825732 28.9292423,23.9728171 C28.95526,23.9327561 28.98724,23.8455 28.9704369,23.7714146 C29.0717976,23.7587927 29.1411781,23.6616585 29.2512113,23.6375122 C29.4701936,23.6007439 29.5975719,23.8455 29.5395741,24.038122 C29.5260232,24.0781829 29.4701936,24.0781829 29.4528485,24.0913537 C29.3373949,24.273 29.2512113,24.4508049 29.0717976,24.5281829 C28.7969856,24.6692195 28.4641759,24.6390366 28.2191759,24.7811707 C28.1264878,24.845378 28.098844,25.010561 27.960625,25.0511707 C27.8392091,25.0813537 27.685271,25.1532439 27.5600608,25.0511707 L27.5600608,25.0758659 C27.5600608,25.1708049 27.2760343,25.1076951 27.1372732,25.0511707 C27.0922843,25.0325122 27.1210122,24.8969634 27.0624723,24.845378 C27.0147732,24.8135488 26.9215431,24.8574512 26.9004038,24.8047683 C26.8722179,24.7745854 26.9004038,24.7037927 26.8651715,24.6966585 C26.5415763,24.6390366 26.2402046,24.7383659 25.9095631,24.7037927 C25.8222954,24.6966585 25.832052,24.8135488 25.7583352,24.8667805 C25.6976272,24.8969634 25.6390874,24.9562317 25.5756692,24.980378 C25.4466648,25.047878 25.3057356,25.1428171 25.1474613,25.0857439 C25.0092423,25.1290976 24.8840321,25.1466585 24.7588219,25.1708049 C24.5533905,25.2108659 24.4368529,25.3831829 24.269906,25.5022683 C24.1381914,25.5917195 23.9864215,25.6065366 23.841698,25.5988537 C23.7999613,25.5988537 23.8216427,25.6685488 23.7853263,25.6685488 C23.5620077,25.7250732 23.3614546,26.0098902 23.2362445,26.253 C23.1972179,26.3183049 23.244917,26.4121463 23.2048064,26.4692195 C23.0882688,26.6525122 23.030271,26.833061 22.8703706,26.9839756 C22.8530254,27.0015366 22.8530254,27.050378 22.8595299,27.0778171 C23.0373175,27.328061 23.2487113,27.4943415 23.4308352,27.7489756 C23.473656,27.8186707 23.5620077,27.8186707 23.5901936,27.8817805 C23.6601162,28.0420244 23.7593086,28.1858049 23.841698,28.3361707 C23.9582356,28.5463537 24.2612334,28.6314146 24.5230365,28.5463537 C24.6178927,28.5183659 24.7311781,28.6111098 24.8173617,28.6314146 C25.1138551,28.6599512 25.4293197,28.7296463 25.7079259,28.5787317 C26.123667,28.7071463 26.5562113,28.5260488 26.9318418,28.7071463 C27.0082688,28.7296463 27.0082688,28.8701341 27.0624723,28.9617805 C27.149198,29.1275122 27.2505586,29.2948902 27.4082909,29.4150732 C27.5421737,29.5100122 27.730802,29.573122 27.914552,29.5873902 C27.9660454,29.5873902 27.97526,29.7218415 28.0207909,29.7767195 C28.0749945,29.8464146 28.0511449,29.9600122 28.1156471,30.0132439 C28.2094192,30.1026951 28.2863883,30.1669024 28.2804259,30.2920244 C28.2804259,30.4467805 28.098844,30.5784878 28.2094192,30.7771463 C28.2343529,30.8402561 28.1953263,30.9439756 28.2262223,30.982939 C28.4641759,31.2216585 28.6853263,31.4450122 28.9726051,31.6573902 C28.9980808,31.6815366 29.0495741,31.7194024 29.0278927,31.778122 C29.139552,31.8088537 29.1520188,31.9202561 29.2251936,31.9817195 C29.2810232,32.053061 29.2512113,32.1633659 29.308125,32.2347073 C29.4051493,32.3537927 29.5113883,32.4646463 29.6219635,32.570561 C29.7688551,32.7039146 29.9694082,32.6731829 30.1423175,32.7110488 C30.1829701,32.7362927 30.2312113,32.7692195 30.2810785,32.7851341 C30.4447732,32.8378171 30.6231029,32.8548293 30.7656582,32.7406829 C30.8480476,32.6731829 30.9185122,32.5442195 30.9987334,32.4964756 C31.1217754,32.3933049 31.314198,32.4015366 31.4833131,32.3686098 C31.5174613,32.3653171 31.5684126,32.3450122 31.589552,32.3011098 C31.6112334,32.2023293 31.6995852,32.1501951 31.6930808,32.053061 C31.8210011,32.0475732 31.9180254,31.9817195 32.0215542,31.9268415 C32.2296958,31.8176341 32.3885122,31.6052561 32.5820188,31.4351341 C32.7787777,31.2496463 33.106167,31.3314146 33.2118639,31.125622 C33.3175608,30.9187317 33.1701272,30.6394024 33.2633573,30.4023293 C33.3175608,30.2920244 33.3869414,30.1614146 33.3977821,30.0390366 C33.4129591,29.8332439 33.4216316,29.6208659 33.4064546,29.4150732 C33.3977821,29.2948902 33.27474,29.1719634 33.289375,29.0550732 C33.2985896,28.970561 33.4454812,28.970561 33.4758352,28.898122 C33.549552,28.7296463 33.6162223,28.5540366 33.702406,28.3970854 C33.7154148,28.3658049 33.7766648,28.350439 33.82599,28.3169634 C33.902417,28.2631829 33.8362887,28.178122 33.8520077,28.0958049 C33.7896737,28.0765976 33.7609458,28.0069024 33.733302,27.967939 C33.5582246,27.7182439 33.3977821,27.4773293 33.1083352,27.3565976 C33.0378706,27.3362927 33.0324502,27.2578171 32.99776,27.1990976 C32.9717423,27.1749512 33.0080586,27.0975732 32.9814989,27.0690366 C32.9039878,27.0262317 32.9348838,26.9532439 32.9153706,26.8989146 L32.9842091,26.8989146 C32.9814989,26.8961707 32.9842091,26.8917805 32.9842091,26.8917805 C32.9543971,26.8917805 32.9430144,26.8676341 32.9430144,26.8588537 C33.0080586,26.6843415 33.106167,26.5262927 33.2373396,26.4121463 C33.27474,26.3759268 33.3750166,26.3759268 33.3869414,26.330378 C33.4216316,26.180561 33.4129591,26.0274512 33.3430365,25.8995854 C33.2373396,25.7157439 33.3311117,25.5346463 33.3007577,25.3612317 C33.27474,25.0160488 33.27474,24.7037927 33.1180918,24.3937317 C33.0866538,24.2971463 32.99776,24.2252561 32.8790542,24.2576341 C32.8205144,24.2664146 32.8270188,24.3448902 32.7923285,24.3937317 C32.7511338,24.4409268 32.7424613,24.502939 32.722948,24.5901951 C32.6757909,24.7037927 32.5218529,24.7383659 32.4828263,24.8574512 C32.4633131,24.9320854 32.4443418,25.0023293 32.4134458,25.0511707 C32.3592423,25.1076951 32.309917,25.1861707 32.2362002,25.1993415 C32.1131582,25.2437927 31.9977046,25.2717805 31.881167,25.2959268 C31.7559569,25.3222683 31.619906,25.3222683 31.4833131,25.2822073 C30.7759569,25.0813537 30.1710454,24.8047683 29.460979,24.6077561 C29.4528485,24.6077561 29.4528485,24.5594634 29.460979,24.5506829 C29.5693861,24.4941585 29.6880918,24.575378 29.8051715,24.543 C29.8848507,24.5281829 29.7883684,24.4145854 29.829021,24.4145854 C29.9780808,24.4508049 30.0967865,24.5506829 30.242594,24.6077561 C30.5380033,24.7087317 30.8279923,24.7383659 31.1418308,24.8047683 C31.3846626,24.8574512 31.5532356,25.0325122 31.7836007,25.0939756 C31.9809015,25.1532439 32.1082799,25.0023293 32.2616759,24.9408659 C32.2687223,24.9408659 32.2578816,24.8805 32.2687223,24.8574512 C32.3381029,24.7306829 32.4633131,24.6648293 32.5153485,24.543 C32.5500387,24.4590366 32.4958352,24.322939 32.5500387,24.2252561 C32.5760564,24.1791585 32.6557356,24.1303171 32.6757909,24.0781829 C32.7142754,23.9245244 32.6904259,23.7675732 32.6904259,23.6133659 C32.7787777,23.6232439 32.8432799,23.5261098 32.8205144,23.4865976 C32.7982909,23.4646463 32.7923285,23.4256829 32.7787777,23.4037317 C32.7787777,23.3137317 32.7923285,23.2193415 32.8112998,23.1249512 C32.8568308,22.8999512 32.7923285,22.6809878 32.7007246,22.4883659 C32.6557356,22.3868415 32.5218529,22.3615976 32.41724,22.3868415 C32.3830918,22.4087927 32.370083,22.4658659 32.3381029,22.4883659 C32.2296958,22.4960488 32.1391759,22.545439 32.0714215,22.6003171 C31.9809015,22.6727561 31.9852378,22.8297073 31.9071847,22.8950122 C31.77276,23.0091585 31.6415874,23.1271463 31.4654259,23.197939 C31.3532246,23.2500732 31.1895299,23.1836707 31.1673064,23.0920244 C31.0599834,22.7989756 31.4507909,22.8516585 31.6475498,22.7989756 C31.6757356,22.7814146 31.7218086,22.7336707 31.74349,22.6941585 C31.7976936,22.590439 31.8210011,22.4422683 31.9310343,22.3868415 C32.003125,22.3615976 32.0871405,22.3615976 32.1592312,22.3698293 C32.2296958,22.3868415 32.2838993,22.2869634 32.3592423,22.2425122 C32.41724,22.2161707 32.4134458,22.1020244 32.4351272,22.0367195 C32.4692754,21.9187317 32.6020741,21.8550732 32.6557356,21.7524512 C32.7787777,21.5296463 32.7787777,21.1959878 32.9543971,21.0214756 C33.0758131,20.9243415 33.013479,21.1817195 33.0579259,21.2355 C33.1338108,21.3403171 33.3430365,21.330439 33.4129591,21.253061 C33.4758352,21.1866585 33.4064546,21.0297073 33.518656,20.9665976 C33.5679812,20.9550732 33.626521,20.9550732 33.6682577,20.9665976 C33.7528153,21.0214756 33.8520077,21.1153171 33.9381914,21.0620854 C33.9994414,21.0214756 34.0639436,20.9336707 34.1273617,20.9117195 C34.2308905,20.8765976 34.34526,20.9117195 34.4487887,20.865622 C34.7040874,20.745439 35.2374502,20.9117195 35.2103485,20.6614756 C35.1642754,20.258122 34.8401383,19.9387317 34.4905254,19.7505 C34.208667,19.6149512 34.314906,19.2187317 34.0639436,18.9975732 C33.9994414,18.9487317 34.0319635,18.8483049 33.97776,18.7835488 C33.9604148,18.7632439 33.9240985,18.7303171 33.8850719,18.7127561 C33.8476715,18.6820244 33.8070188,18.6469024 33.8070188,18.6348293 C33.8476715,18.4251951 33.748479,18.2259878 33.8585122,18.0536707 C33.9143418,17.968061 34.0384679,17.9269024 34.1121847,17.8659878 C34.2005365,17.7902561 34.3620631,17.7337317 34.3620631,17.6157439 C34.3620631,17.4516585 34.34526,17.2738537 34.376156,17.1031829 C34.3880808,17.0466585 34.4905254,16.9978171 34.5468971,16.9978171 C34.8401383,16.9939756 35.1561449,17.0713537 35.4244524,16.893 C35.493833,16.8309878 35.5019635,16.7448293 35.5453263,16.6877561 C35.7561781,16.3765976 36.0754369,16.1351341 36.0624281,15.7317805 C36.0559237,15.660439 36.168125,15.6401341 36.1968529,15.5550732 C36.214198,15.5150122 36.214198,15.4436707 36.1968529,15.4436707" id="Fill-102" fill="#026CB6" mask="url(#mask-2)"></path>
                <path d="M19.0808927,44.0680061 C20.6744768,41.6786159 25.50076,39.115811 30.2311029,39.115811 C34.9852954,39.115811 40.1221648,41.898128 42.1553396,40.4252012 C42.1553396,40.4252012 40.078802,42.2411159 35.8894104,42.2411159 C31.6935144,42.2411159 30.0966781,40.1014207 27.185406,40.1014207 C24.2741338,40.1014207 21.1899524,42.4913598 19.9069546,44.4971524 L19.0808927,44.0680061 Z" id="Fill-103" fill="#026CB6" mask="url(#mask-2)"></path>
                <path d="M34.0488208,38.7677744 C34.0488208,38.7677744 35.4358894,37.9314329 36.1562544,36.3877134 C36.8928805,34.8352134 38.7948827,32.3821646 40.7104358,30.8730183 C40.7104358,30.8730183 38.5558451,37.7580183 36.3394624,38.0642378 C36.3394624,38.0642378 35.9893075,38.2793598 36.6142743,38.1750915 C37.2414093,38.0642378 40.0795066,37.0094817 41.0893186,36.8327744 C42.0888319,36.6615549 44.5507566,36.096311 45.2125819,35.4306402 C45.7697942,34.8697866 46.1465088,34.948811 46.1465088,34.948811 C46.1465088,34.948811 43.408146,39.5733841 38.4853805,39.5733841 C38.4853805,39.5733841 36.0624823,39.36375 34.0488208,38.7677744" id="Fill-104" fill="#026CB6" mask="url(#mask-2)"></path>
                <path d="M39.8714735,36.3877683 C39.8714735,36.3877683 40.3885752,35.5843537 40.4942721,34.2041707 C40.6026792,32.8371585 41.4336195,29.6838659 43.7952677,26.2419146 C43.7952677,26.2419146 44.1389181,31.6814268 41.4618053,35.0191098 C41.4618053,35.0191098 41.2991947,35.5053293 41.6428451,35.1508171 C41.9940841,34.7995976 43.6781881,32.7367317 47.3315066,30.2353902 C47.3315066,30.2353902 49.2264624,28.6598415 49.3343274,28.1379512 C49.3343274,28.1379512 47.8491504,35.8592927 39.8714735,36.3877683" id="Fill-105" fill="#026CB6" mask="url(#mask-2)"></path>
                <path d="M44.491458,31.2220427 C44.491458,31.2220427 44.6974314,30.3478354 44.6974314,29.6097256 C44.6974314,28.8705183 44.384135,26.3422866 44.384135,25.216189 C44.384135,24.091189 44.491458,21.9921037 45.3505841,20.5696646 C45.3505841,20.5696646 45.3505841,21.8219817 45.6275642,22.386128 C45.9067124,22.9392988 46.2183827,25.1865549 46.2183827,25.4620427 C46.2183827,25.7430183 46.1468341,27.6434451 45.6617124,28.6597866 C45.6617124,28.6597866 46.0124093,28.4534451 46.3956283,27.7180793 C46.773969,26.9689939 47.7062699,25.606372 49.1356173,24.1702134 C50.5546659,22.7335061 50.8641681,21.4016159 50.8641681,21.4016159 C50.8641681,21.4016159 51.2121549,23.9243598 49.3735708,26.578811 C47.5349867,29.2645427 46.773969,28.7958841 45.7701195,29.8879573 C45.7701195,29.8879573 44.6210044,31.2983232 44.491458,31.2220427" id="Fill-106" fill="#026CB6" mask="url(#mask-2)"></path>
                <path d="M47.3556814,25.1532988 C47.3556814,25.1532988 47.2955155,23.6046402 47.0207035,23.1162256 C46.7280044,22.615189 45.0802168,19.5754939 45.4238673,15.6786037 C45.4238673,15.6786037 45.6965111,15.4343963 46.2174071,16.9457378 C46.7280044,18.4570793 47.4705929,18.9048841 47.7058363,20.4206159 C47.9584248,21.9187866 47.9584248,22.5542744 47.9584248,22.5542744 C47.9584248,22.5542744 48.1232035,22.7639085 48.1232035,22.5910427 C48.1232035,22.4093963 48.3004491,20.3811037 49.1357257,18.5267744 C49.9623296,16.6675061 51.0691659,14.9092134 50.9694314,13.6761037 C50.9694314,13.6761037 51.4545531,13.7150671 51.3792102,15.7148232 C51.3163341,17.7206159 50.7927279,21.1960427 47.3556814,25.1532988" id="Fill-107" fill="#026CB6" mask="url(#mask-2)"></path>
                <path d="M48.2709082,19.008439 C48.2709082,19.008439 47.671417,17.6156341 47.2556759,17.1469756 C46.8404768,16.7024634 43.9595586,12.4488659 43.7232312,10.516061 C43.7232312,10.516061 43.9595586,10.3838049 44.2392489,10.8705732 C44.5200232,11.3699634 45.9065498,12.7616707 46.1461294,12.9773415 C46.3954657,13.1913659 47.8492046,14.7702073 47.9857976,16.4500244 C47.9857976,16.4500244 48.1234746,16.6294756 47.8492046,13.8175244 C47.5743927,11.0154512 48.7533197,9.19789024 47.7814502,7.22228049 C47.7814502,7.22228049 49.1359967,7.43465854 49.8563617,13.1913659 C49.8563617,13.1913659 49.8265498,15.2289878 48.7852998,17.7199024 C48.7852998,17.7199024 48.4351449,19.008439 48.2709082,19.008439" id="Fill-108" fill="#026CB6" mask="url(#mask-2)"></path>
                <path d="M47.2233706,12.7011951 C47.2233706,12.7011951 46.1463462,11.5750976 45.2774635,11.0493659 C44.4183374,10.5165 41.7141228,7.81759756 41.227375,5.71137805 C41.227375,5.71137805 41.4035365,5.47595122 42.2659148,6.62619512 C42.9282821,7.5069878 43.6117887,7.07784146 45.5950962,9.60881707 C45.5950962,9.60881707 45.8742445,10.174061 46.0130055,10.1307073 C46.1463462,10.1060122 45.9409148,9.53802439 45.9409148,9.53802439 C45.9409148,9.53802439 45.5539015,7.96576829 45.5213794,7.39284146 C45.4910254,6.83253659 44.6969436,3.8565 44.4183374,3.46906098 C44.4183374,3.46906098 47.0824414,5.00839024 47.4705387,9.35912195 C47.4705387,9.35912195 47.3556272,12.5200976 47.2233706,12.7011951" id="Fill-109" fill="#026CB6" mask="url(#mask-2)"></path>
                <path d="M44.9334878,8.0612561 C44.9334878,8.0612561 45.1139856,4.26534146 40.1749591,2.33857317 C40.1749591,2.33857317 41.8850808,5.89137805 43.1675365,6.73210976 C44.4483662,7.57668293 44.9334878,8.0612561 44.9334878,8.0612561" id="Fill-110" fill="#026CB6" mask="url(#mask-2)"></path>
                <path d="M32.317885,44.0680061 C30.7221327,41.6786159 25.8958496,39.115811 21.1595442,39.115811 C16.4161925,39.115811 11.2744447,41.898128 9.23476549,40.4252012 C9.23476549,40.4252012 11.3129292,42.2411159 15.5142456,42.2411159 C19.701469,42.2411159 21.3069779,40.1014207 24.2160819,40.1014207 C27.1181394,40.1014207 30.1958164,42.4913598 31.4836925,44.4971524 L32.317885,44.0680061 Z" id="Fill-111" fill="#026CB6" mask="url(#mask-2)"></path>
                <path d="M17.352667,38.7677744 C17.352667,38.7677744 15.9639723,37.9314329 15.2257201,36.3877134 C14.503729,34.8352134 12.5968485,32.3821646 10.6883418,30.8730183 C10.6883418,30.8730183 12.8337179,37.7580183 15.0620254,38.0642378 C15.0620254,38.0642378 15.407844,38.2793598 14.7850454,38.1750915 C14.1579104,38.0642378 11.3133086,37.0094817 10.3072909,36.8327744 C9.30344137,36.6615549 6.84205863,36.096311 6.18131748,35.4306402 C5.62681527,34.8697866 5.24359624,34.948811 5.24359624,34.948811 C5.24359624,34.948811 7.98250111,39.5733841 12.9123131,39.5733841 C12.9123131,39.5733841 15.3319591,39.36375 17.352667,38.7677744" id="Fill-112" fill="#026CB6" mask="url(#mask-2)"></path>
                <path d="M11.5210166,36.3877683 C11.5210166,36.3877683 11.006625,35.5843537 10.8982179,34.2041707 C10.7968573,32.8371585 9.96158075,29.6838659 7.60589491,26.2419146 C7.60589491,26.2419146 7.25790819,31.6814268 9.92309624,35.0191098 C9.92309624,35.0191098 10.1041361,35.5053293 9.75614934,35.1508171 C9.40924668,34.7995976 7.71213385,32.7367317 4.06260951,30.2353902 C4.06260951,30.2353902 2.15952323,28.6598415 2.05978872,28.1379512 C2.05978872,28.1379512 3.55038606,35.8592927 11.5210166,36.3877683" id="Fill-113" fill="#026CB6" mask="url(#mask-2)"></path>
                <path d="M6.91160177,31.2220427 C6.91160177,31.2220427 6.70400221,30.3478354 6.70400221,29.6097256 C6.70400221,28.8705183 7.01567257,26.3422866 7.01567257,25.216189 C7.01567257,24.091189 6.91160177,21.9921037 6.0438031,20.5696646 C6.0438031,20.5696646 6.0438031,21.8219817 5.77007522,22.386128 C5.48875885,22.9392988 5.17654646,25.1865549 5.17654646,25.4620427 C5.17654646,25.7430183 5.24375885,27.6434451 5.73267478,28.6597866 C5.73267478,28.6597866 5.38902434,28.4534451 4.99713274,27.7180793 C4.61716593,26.9689939 3.68215487,25.606372 2.26581637,24.1702134 C0.853272124,22.7335061 0.532387168,21.4016159 0.532387168,21.4016159 C0.532387168,21.4016159 0.189278761,23.9243598 2.02515265,26.578811 C3.86156858,29.2645427 4.61716593,28.7958841 5.62643584,29.8879573 C5.62643584,29.8879573 6.77338274,31.2983232 6.91160177,31.2220427" id="Fill-114" fill="#026CB6" mask="url(#mask-2)"></path>
                <path d="M4.03306858,25.1532988 C4.03306858,25.1532988 4.10407522,23.6046402 4.37888717,23.1162256 C4.65369912,22.615189 6.32154204,19.5754939 5.97247124,15.6786037 C5.97247124,15.6786037 5.69603319,15.4343963 5.17676327,16.9457378 C4.65369912,18.4570793 3.93496018,18.9048841 3.68237168,20.4206159 C3.44008186,21.9187866 3.44008186,22.5542744 3.44008186,22.5542744 C3.44008186,22.5542744 3.27367699,22.7639085 3.27367699,22.5910427 C3.27367699,22.4093963 3.08938496,20.3811037 2.26549115,18.5267744 C1.43726106,16.6675061 0.320126106,14.9092134 0.424738938,13.6761037 C0.424738938,13.6761037 -0.0641769911,13.7150671 0.00682964602,15.7148232 C0.0767522124,17.7206159 0.59764823,21.1960427 4.03306858,25.1532988" id="Fill-115" fill="#026CB6" mask="url(#mask-2)"></path>
                <path d="M3.12900774,19.008439 C3.12900774,19.008439 3.71874226,17.6156341 4.13827765,17.1469756 C4.55835509,16.7024634 7.42409624,12.4488659 7.67505863,10.516061 C7.67505863,10.516061 7.42409624,10.3838049 7.14982633,10.8705732 C6.8723042,11.3699634 5.48902987,12.7616707 5.24348783,12.9773415 C4.99686173,13.1913659 3.55016925,14.7702073 3.39894137,16.4500244 C3.39894137,16.4500244 3.27318916,16.6294756 3.55016925,13.8175244 C3.81847677,11.0154512 2.64984845,9.19789024 3.62171792,7.22228049 C3.62171792,7.22228049 2.26554535,7.43465854 1.53217146,13.1913659 C1.53217146,13.1913659 1.56902987,15.2289878 2.6091958,17.7199024 C2.6091958,17.7199024 2.9598927,19.008439 3.12900774,19.008439" id="Fill-116" fill="#026CB6" mask="url(#mask-2)"></path>
                <path d="M4.17334735,12.7011951 C4.17334735,12.7011951 5.24386726,11.5750976 6.11383407,11.0493659 C6.98163274,10.5165 9.67825885,7.81759756 10.1731372,5.71137805 C10.1731372,5.71137805 9.99372345,5.47595122 9.12863496,6.62619512 C8.47114602,7.5069878 7.77246239,7.07784146 5.8065,9.60881707 C5.8065,9.60881707 5.52735177,10.174061 5.38913274,10.1307073 C5.24386726,10.1060122 5.45634513,9.53802439 5.45634513,9.53802439 C5.45634513,9.53802439 5.84064823,7.96576829 5.86883407,7.39284146 C5.90135619,6.83253659 6.70411062,3.8565 6.98163274,3.46906098 C6.98163274,3.46906098 4.30506195,5.00839024 3.93485177,9.35912195 C3.93485177,9.35912195 4.03296018,12.5200976 4.17334735,12.7011951" id="Fill-117" fill="#026CB6" mask="url(#mask-2)"></path>
                <path d="M6.46431416,8.0612561 C6.46431416,8.0612561 6.28435841,4.26534146 11.2071239,2.33857317 C11.2071239,2.33857317 9.51109513,5.89137805 8.22918142,6.73210976 C6.94889381,7.57668293 6.46431416,8.0612561 6.46431416,8.0612561" id="Fill-118" fill="#026CB6" mask="url(#mask-2)"></path>
            </g>
        </g>
    </g>
</svg>