<?xml version="1.0" encoding="UTF-8"?>
<svg width="135px" height="33px" viewBox="0 0 135 33" version="1.1" xmlns="http://www.w3.org/2000/svg" xmlns:xlink="http://www.w3.org/1999/xlink">
    <!-- Generator: Sketch 48.2 (47327) - http://www.bohemiancoding.com/sketch -->
    <title>Page 1</title>
    <desc>Created with Sketch.</desc>
    <defs>
        <polygon id="path-1" points="0 33 135 33 135 0 0 0"></polygon>
    </defs>
    <g id="Footer---Mobile-example" stroke="none" stroke-width="1" fill="none" fill-rule="evenodd" transform="translate(-93.000000, -393.000000)">
        <g id="Page-1" transform="translate(93.000000, 393.000000)">
            <path d="M63.8217118,16.5 C63.8217118,11.7083002 60.5504279,7.78207211 55.5006013,7.78207211 C50.4507747,7.78207211 47.1794908,11.7083002 47.1794908,16.5 C47.1794908,21.2913022 50.4507747,25.2159401 55.5006013,25.2159401 C60.5504279,25.2159401 63.8217118,21.2913022 63.8217118,16.5 Z M44,16.5 C44,10.0087634 48.7680336,5 55.5006013,5 C62.2331689,5 67,10.0087634 67,16.5 C67,22.9904415 62.2331689,28 55.5006013,28 C48.7680336,28 44,22.9904415 44,16.5 Z" id="Fill-1" fill="#FEFEFE"></path>
            <path d="M86.1434851,10.2858575 C84.9398669,8.68054067 82.9563908,7.78207211 81.0026861,7.78207211 C76.2230113,7.78207211 73.0656885,11.7083002 73.0656885,16.6844643 C73.0656885,21.2913022 76.0420626,25.2159401 81.0026861,25.2159401 C83.4373741,25.2159401 85.3006044,24.1035883 86.5633788,22.2812079 L89,24.1667992 C88.3674528,25.0620873 85.8129057,28 80.9423699,28 C74.1788323,28 70,22.1873855 70,16.6844643 C70,9.88591973 74.5387965,5 81.0920006,5 C83.8901325,5 86.8348019,6.08134269 88.5472416,8.40106129 L86.1434851,10.2858575 Z" id="Fill-3" fill="#FEFEFE"></path>
            <polygon id="Fill-5" fill="#FEFEFE" points="93 6 96.0893823 6 96.0893823 15.1335985 107.907305 15.1335985 107.907305 6 111 6 111 28 107.907305 28 107.907305 17.9313026 96.0893823 17.9313026 96.0893823 28 93 28"></polygon>
            <path d="M128.167396,19.9501571 L124.032446,9.85348664 L123.967957,9.85348664 L119.770533,19.9501571 L128.167396,19.9501571 Z M122.780151,6 L125.504809,6 L135,28 L131.490189,28 L129.266127,22.5604418 L118.705659,22.5604418 L116.51102,28 L113,28 L122.780151,6 Z" id="Fill-7" fill="#FEFEFE"></path>
            <path d="M16,14.0033476 C16,12.3425665 17.3491637,11 19.0009839,11 C20.6614628,11.004726 21.9960643,12.3441418 22,14.0033476 C21.9960643,15.6601904 20.6598885,16.9972432 19.0009839,17 L19.0009839,16.8121431 L19.0009839,16.6203479 C20.4524762,16.6203479 21.6209905,15.4510666 21.6209905,14.0033476 C21.6209905,12.5512964 20.4493276,11.3820151 19.0009839,11.3820151 C17.5546081,11.3820151 16.3817645,12.5512964 16.3782224,14.0033476 C16.3817645,15.4510666 17.5546081,16.6171972 19.0009839,16.6203479 L19.0009839,16.8121431 L19.0009839,17 C17.3491637,17 16,15.6629472 16,14.0033476" id="Fill-9" fill="#FEFEFE"></path>
            <path d="M13,13.5038182 C13,10.4697651 15.458781,8 18.500402,8 C21.5335818,8 24,10.4673536 24,13.5038182 C24,16.5338522 21.5335818,18.9991962 18.500402,19 L18.500402,18.8090906 L18.500402,18.6145639 C21.3161222,18.6089371 23.6092962,16.3192298 23.6141197,13.5038182 C23.6092962,10.6807702 21.3161222,8.39267054 18.500402,8.38623991 C15.6766425,8.39267054 13.3947234,10.6807702 13.388292,13.5038182 C13.3947234,16.3192298 15.6766425,18.6089371 18.500402,18.6145639 L18.500402,18.8090906 L18.500402,19 C15.458781,19 13,16.5338522 13,13.5038182" id="Fill-11" fill="#FEFEFE"></path>
            <path d="M11,13.0021702 C11,8.57966904 14.5850917,5 19.0031552,5 C23.4176691,5 26.998028,8.57966904 27,13.0021702 C26.998028,17.4171743 23.4176691,21 19.0031552,21 L19.0031552,20.8094158 L19.0031552,20.618437 C23.2086373,20.6121236 26.6126997,17.2080446 26.6201933,13.0021702 C26.6126997,8.78879874 23.2086373,5.38708723 19.0031552,5.37682804 C14.7972786,5.38708723 11.3884835,8.78879874 11.3805955,13.0021702 C11.3884835,17.2080446 14.7972786,20.6121236 19.0031552,20.618437 L19.0031552,20.8094158 L19.0031552,21 C14.5850917,21 11,17.420331 11,13.0021702" id="Fill-13" fill="#FEFEFE"></path>
            <path d="M8,13.5013813 C8,7.69460054 12.6970517,3 18.495462,3 C24.2958453,3 29,7.69460054 29,13.5013813 C29,19.2982954 24.2958453,24 18.495462,24 L18.495462,23.8093744 L18.495462,23.6191434 C24.0874908,23.6080926 28.60973,19.0879363 28.6192006,13.5013813 C28.60973,7.90772238 24.0874908,3.38717134 18.495462,3.37769926 C12.9050116,3.38717134 8.39027003,7.90772238 8.37961554,13.5013813 C8.39027003,19.0879363 12.9050116,23.6080926 18.495462,23.6191434 L18.495462,23.8093744 L18.495462,24 C12.6970517,24 8,19.2982954 8,13.5013813" id="Fill-15" fill="#FEFEFE"></path>
            <path d="M5,13.5054252 C5,6.05045619 10.8201849,0.00241118073 17.9982581,0 C25.1774926,0.00241118073 31,6.05045619 31,13.5054252 C31,20.9591885 25.1774926,27 17.9982581,27 L17.9982581,26.8050962 L17.9982581,26.6126036 C24.9731126,26.5989403 30.6156263,20.7462009 30.6280129,13.5054252 C30.6156263,6.26344382 24.9731126,0.400657865 17.9982581,0.387396371 C11.0272745,0.400657865 5.38476083,6.26344382 5.37121291,13.5054252 C5.38476083,20.7462009 11.0272745,26.5989403 17.9982581,26.6126036 L17.9982581,26.8050962 L17.9982581,27 C10.8201849,27 5,20.9591885 5,13.5054252" id="Fill-17" fill="#FEFEFE"></path>
            <mask id="mask-2" fill="white">
                <use xlink:href="#path-1"></use>
            </mask>
            <g id="Clip-20"></g>
            <polygon id="Fill-19" fill="#FEFEFE" mask="url(#mask-2)" points="19 11 19.97 11 19.97 0 19 0"></polygon>
            <polygon id="Fill-21" fill="#FEFEFE" mask="url(#mask-2)" points="9 4.28439403 9.2871105 4 17 11.7114052 16.7124691 12"></polygon>
            <polygon id="Fill-22" fill="#FEFEFE" mask="url(#mask-2)" points="6 13.954 17 13.954 17 13 6 13"></polygon>
            <polygon id="Fill-23" fill="#FEFEFE" mask="url(#mask-2)" points="9 22.7112491 16.7124691 15 17 15.2849626 9.2871105 23"></polygon>
            <polygon id="Fill-24" fill="#FEFEFE" mask="url(#mask-2)" points="19 27 19.97 27 19.97 16 19 16"></polygon>
            <polygon id="Fill-25" fill="#FEFEFE" mask="url(#mask-2)" points="20 15.2858045 20.2870502 15 28 22.7125118 27.7133701 23"></polygon>
            <polygon id="Fill-26" fill="#FEFEFE" mask="url(#mask-2)" points="22 13.959 33 13.959 33 13 22 13"></polygon>
            <polygon id="Fill-27" fill="#FEFEFE" mask="url(#mask-2)" points="20 11.71139 27.7133701 4 28 4.28398887 20.2870502 12"></polygon>
            <path d="M16.4157493,15.1347205 C16.5226875,15.120144 16.5054876,15.226344 16.5421308,15.2946452 C16.5421308,15.2975605 16.5709218,15.2975605 16.5873738,15.2946452 C16.7511463,15.0947393 16.8543454,14.8623487 16.8958494,14.5895604 C16.8958494,14.5704028 16.9422142,14.5466639 16.9422142,14.5362522 C16.9171622,14.4138098 16.7986328,14.3696639 16.7455377,14.268878 C16.6845904,14.4504592 16.5182005,14.3017792 16.3933147,14.3904874 C16.3914451,14.3929863 16.3809757,14.4433792 16.4157493,14.4562898 C16.4587489,14.4816945 16.5226875,14.460038 16.5380178,14.4971039 C16.5679305,14.5466639 16.5679305,14.6291251 16.5226875,14.6890969 C16.5182005,14.7061722 16.4826791,14.7028404 16.4826791,14.6890969 C16.4172449,14.5495792 16.3144197,14.5704028 16.1992555,14.5704028 C16.247116,14.616631 16.1618646,14.602471 16.1813079,14.6291251 C16.0216484,14.5828969 15.8664759,14.6674404 15.7113034,14.6845157 C15.6649385,14.6890969 15.6021217,14.6491157 15.5606177,14.602471 C15.5052791,14.6674404 15.4402188,14.7977957 15.3516022,14.7611463 C15.3216894,14.7457369 15.2708377,14.6674404 15.3056113,14.6491157 C15.3934801,14.5895604 15.472375,14.5216757 15.5146268,14.4275533 C15.5486526,14.3480074 15.5146268,14.255551 15.5531395,14.1760051 C15.5976348,14.0739698 15.671295,13.9802639 15.7572942,13.9860945 C15.8545108,13.9860945 16.0336135,14.0827156 16.1158737,13.964438 C16.1454125,13.9327862 16.2052381,14.0294074 16.2407595,14.0739698 C16.2545942,14.0893792 16.234777,14.1127015 16.2201945,14.1331086 C16.1618646,14.1976615 16.0695089,14.2039086 16.0336135,14.3017792 C16.006692,14.368831 16.0410917,14.4275533 16.0870826,14.4433792 C16.1618646,14.4816945 16.1842992,14.368831 16.2201945,14.3105251 C16.2616985,14.255551 16.3065676,14.3017792 16.3454542,14.3105251 C16.3454542,14.2926168 16.342463,14.268878 16.3454542,14.268878 C16.4336969,14.2393086 16.5320352,14.255551 16.6243909,14.255551 C16.7320769,14.255551 16.6733731,14.0094168 16.6643992,13.8665674 C16.6643992,13.8336662 16.661408,13.7916027 16.6643992,13.7566191 C16.6643992,13.7403768 16.6643992,13.7191368 16.6733731,13.6999791 C16.7044076,13.6204332 16.8442498,13.5987768 16.8659366,13.6841532 C16.8693018,13.7137227 16.8749104,13.7403768 16.8812669,13.7657815 C16.8887451,13.808678 16.9078145,13.8336662 16.955301,13.808678 C16.96764,13.800765 16.9829703,13.787438 16.9852138,13.7657815 C17.0035354,13.7191368 16.9941876,13.6437556 17.0229787,13.6175179 C17.062987,13.5708732 17.1228126,13.6904003 17.1901163,13.6999791 C17.2570462,13.7191368 17.3318281,13.7191368 17.3871667,13.6749909 C17.4346533,13.6437556 17.4346533,13.5817015 17.394271,13.5188144 C17.3793146,13.4909109 17.3408019,13.4863297 17.3318281,13.4971579 C17.2705069,13.5708732 17.1901163,13.552965 17.1228126,13.552965 C17.0581262,13.552965 17.0285873,13.4675885 16.97624,13.424692 C16.9171622,13.3780473 16.8442498,13.474252 16.7750765,13.4413509 C16.711138,13.4084497 16.67786,13.3384826 16.715251,13.2714308 C16.7320769,13.2376967 16.7750765,13.2068779 16.8128414,13.1823061 C16.8928581,13.1389932 16.9852138,13.1389932 17.0285873,13.0619461 C17.062987,12.9923955 17.0854216,12.9091014 17.0899085,12.829139 C17.0943954,12.7862426 17.1314125,12.7862426 17.1538471,12.7824943 C17.2465767,12.7466778 17.3527671,12.7716661 17.4346533,12.7266873 C17.5273829,12.6867061 17.5984257,12.5967484 17.6911554,12.5271978 C17.7356506,12.5001272 17.7782763,12.4705578 17.8298759,12.4568143 C17.8556756,12.4489013 17.8710059,12.3993413 17.8762407,12.3776849 C17.8938144,12.2048495 17.8515626,12.0432589 17.8762407,11.8604283 C17.8867101,11.8121177 17.9540139,11.7829648 17.9196142,11.7292401 C17.9110143,11.7092495 17.8463279,11.7421507 17.8298759,11.7188283 C17.7939805,11.6846777 17.762946,11.616793 17.8152934,11.5797271 C17.8556756,11.5393295 17.9435444,11.5747295 17.9734572,11.5135083 C18.0254307,11.4297977 17.9985092,11.2740377 17.9151273,11.2440518 C17.8298759,11.1940753 17.7356506,11.2836165 17.6380602,11.2611271 C17.6492775,11.3023577 17.5969301,11.3173506 17.5838433,11.3173506 C17.4634443,11.3602471 17.4526009,11.1940753 17.4750355,11.1045341 C17.4750355,11.0841271 17.4862528,11.0745482 17.4985918,11.0812118 C17.5273829,11.0841271 17.5329915,11.0412306 17.5389741,11.0016659 C17.5124265,11.0016659 17.4780268,10.9979176 17.4526009,11.0016659 C17.3460367,11.0620541 17.3000458,11.1878283 17.1946032,11.2473836 C17.1807686,11.2611271 17.1807686,11.2836165 17.1901163,11.3023577 C17.1946032,11.3173506 17.2095596,11.3390071 17.2256377,11.3306777 C17.2256377,11.4052259 17.2465767,11.5301671 17.1314125,11.5001812 C17.1228126,11.4947671 17.1228126,11.4664471 17.1138387,11.4643648 C17.0854216,11.4406259 17.0196135,11.4235506 17.0035354,11.4643648 C16.9852138,11.5505742 17.1396385,11.5859742 17.1018736,11.6726001 C17.042422,11.7892119 16.8958494,11.8121177 16.7750765,11.8762542 C16.5226875,11.9853695 16.263568,11.8604283 15.9947269,11.9237319 C15.8545108,11.9549672 15.7113034,11.9333107 15.563609,11.8887483 C15.4592882,11.865426 15.4402188,11.9682942 15.3841323,12.0470072 C15.3800193,12.0324307 15.3740368,12.0170213 15.3545935,12.0220189 C15.3474892,11.9624636 15.3800193,11.9158189 15.3680542,11.8545977 C15.3624456,11.8067036 15.2932723,11.8121177 15.2768202,11.772553 C15.1022044,11.4052259 14.6785647,11.4514542 14.3562545,11.5135083 C14.2968029,11.5197554 14.2732465,11.5859742 14.2358556,11.6292871 C14.1685518,11.6942565 14.0788135,11.6201248 14.0073967,11.6726001 C13.9763622,11.6942565 13.9621537,11.7458989 13.9352322,11.7525624 C13.8387634,11.7829648 13.7340687,11.6726001 13.6518086,11.7292401 C13.5953482,11.7829648 13.5269227,11.7892119 13.4685928,11.8208636 C13.4480278,11.8387719 13.4480278,11.8870825 13.4416713,11.9303954 C13.4416713,11.9624636 13.3926891,11.9549672 13.3762371,11.9549672 C13.2864988,11.9853695 13.1533869,11.9333107 13.1361871,12.0786589 L13.1683433,12.0786589 C13.2042386,12.1923554 13.1533869,12.3210449 13.0557965,12.3660237 C12.9451192,12.4089202 12.8209812,12.3993413 12.7106778,12.4489013 C12.6583304,12.4705578 12.5865398,12.5271978 12.5656008,12.5800896 C12.390985,12.9257602 12.2257169,13.2805932 12.2137518,13.6749909 L12.2137518,13.7191368 C12.2137518,13.7428756 12.2507688,13.7686968 12.2507688,13.7774427 C12.0806399,14.1860004 11.9658496,14.3929863 11.7680514,14.7857181 C11.6854173,14.9418946 11.5885747,15.3279628 11.7336517,15.4604005 C11.806938,15.5270358 11.6947651,15.6861276 11.5885747,15.6969558 C11.4528455,15.7027864 11.2722471,15.6644711 11.2240127,15.5007982 C11.1993347,15.4304146 11.0890313,15.417504 11.0019103,15.4037605 L11.0142494,15.4037605 L10.9484413,15.3975134 C10.8482334,15.3975134 10.7412953,15.3741911 10.6579134,15.4037605 C10.5038626,15.4504052 10.4918975,15.6503111 10.4230981,15.7848311 C10.3756116,15.9060241 10.1995001,15.8760382 10.1482744,15.9909841 C10.1232225,16.0409606 10.1729525,16.1217559 10.1340659,16.1954712 C10.1067705,16.2416994 10.0488145,16.2416994 10.0323624,16.297923 C10.021893,16.3279088 10.0162843,16.3712218 9.99833664,16.3995418 C9.95907612,16.5573842 9.93215462,16.7002336 9.96505867,16.8564101 C9.96804995,16.9013889 9.96804995,16.9480336 9.98038897,16.9780195 C10.0162843,17.1421089 9.96804995,17.2857913 9.90411139,17.418229 C9.80689486,17.573989 9.63826157,17.573989 9.48308903,17.6277137 C9.41915047,17.6593655 9.33988161,17.5848172 9.2624823,17.6048078 C9.0859969,17.6410408 8.91325061,17.5581631 8.74573905,17.6210502 C8.7360174,17.6277137 8.70273943,17.6514525 8.68965259,17.6656125 C8.60253163,17.7039278 8.57261885,17.5977278 8.52401059,17.5514996 C8.47353277,17.4944431 8.46717631,17.3936572 8.41333331,17.361589 C8.31162986,17.3091137 8.17328326,17.3720007 8.10149259,17.4852807 C8.14935304,17.4782007 8.09999696,17.5444196 8.13738793,17.5444196 C8.02596283,17.5514996 7.94183314,17.6593655 7.85508608,17.7039278 C7.74216535,17.7734784 7.71673949,17.5514996 7.7058961,17.418229 C7.69393099,17.3520101 7.59895792,17.3091137 7.51333259,17.3582572 C7.49837621,17.3778313 7.47930681,17.3936572 7.47930681,17.4278078 C7.45388095,17.4278078 7.43331591,17.3936572 7.40789005,17.418229 C7.33310811,17.5136007 7.4673417,17.5015231 7.50772395,17.5581631 C7.5327759,17.5848172 7.49987184,17.6173019 7.47182861,17.6410408 C7.43331591,17.6747749 7.37311645,17.6048078 7.36900344,17.6410408 C7.34956013,17.7039278 7.31516044,17.7376619 7.26916954,17.7176714 C7.26916954,17.7376619 7.26318699,17.7426596 7.26916954,17.7543208 C7.26916954,17.7734784 7.28225638,17.7855561 7.29870841,17.7734784 C7.25533488,17.7922196 7.21233526,17.8213725 7.18092685,17.793469 C7.1405446,17.7734784 7.15400535,17.6989302 7.1405446,17.6410408 C7.13119685,17.6277137 7.08744942,17.6410408 7.08744942,17.6593655 C7.07361476,17.7543208 7.09604934,17.7855561 7.00331973,17.7922196 C7.0137892,17.8272031 6.97826778,17.886342 7.02425867,17.8971702 C7.07361476,17.9234078 7.13119685,17.8634361 7.17494429,17.8971702 C7.24411759,17.9750502 7.23439594,18.0962432 7.25533488,18.2061914 C7.25533488,18.2132714 7.23439594,18.2207679 7.2254221,18.2207679 C7.24411759,18.2794902 7.25533488,18.4235891 7.18092685,18.3619514 C7.08969287,18.3015632 7.1943876,18.1562149 7.14166633,18.0666737 C7.13119685,18.0495984 7.07810167,18.0600102 7.03472814,18.0600102 C7.08744942,18.2061914 6.97378086,18.3619514 7.08744942,18.5018856 C7.13119685,18.5647726 6.95097237,18.6513985 7.01678048,18.7276126 C7.056041,18.7705091 7.12259693,18.8138221 7.18092685,18.8275656 C7.21233526,18.8308974 7.18092685,18.7546832 7.19177023,18.7276126 C7.20037015,18.6951279 7.29571713,18.658062 7.31516044,18.7059562 C7.32562991,18.7380244 7.33909066,18.7780056 7.33909066,18.8275656 C7.29571713,18.8138221 7.24972624,18.8375609 7.21233526,18.857135 C7.24972624,18.950008 7.1943876,19.0162268 7.18092685,19.1061845 C7.18092685,19.126175 7.20747444,19.1632409 7.21233526,19.1865633 C7.23439594,19.2598621 7.3405863,19.1936433 7.37311645,19.2536151 C7.39929013,19.3015092 7.32562991,19.3568998 7.34956013,19.4210363 C7.36900344,19.4643492 7.43144636,19.439361 7.45836786,19.4751774 C7.49837621,19.502248 7.48379373,19.5584716 7.47930681,19.6134457 C7.51931515,19.6088645 7.58400153,19.6563422 7.56567996,19.7150645 C7.6135404,19.736721 7.62251423,19.6750833 7.61989687,19.6384339 C7.72571332,19.6455139 7.68233979,19.531401 7.69243535,19.439361 C7.65728784,19.4593515 7.65990521,19.374808 7.61989687,19.4072927 C7.59895792,19.3444057 7.62251423,19.2727727 7.59895792,19.2169656 C7.57054078,19.1503303 7.48379373,19.1365868 7.47182861,19.0487115 C7.54474101,19.0666197 7.59895792,19.0366339 7.64494882,18.950008 C7.67000077,18.9071115 7.73468715,18.9699986 7.76123474,19.0303868 C7.77357376,19.0437139 7.76422602,19.0620386 7.76422602,19.0866103 C7.83190368,19.0620386 7.83190368,19.1365868 7.85508608,19.1699045 C7.90930299,19.211968 7.92687675,19.2865162 7.98782404,19.3127539 C8.08204929,19.3444057 8.17328326,19.3444057 8.2671346,19.3260809 C8.25965641,19.2765209 8.2671346,19.2265445 8.29218655,19.211968 C8.33406444,19.1699045 8.35500339,19.2598621 8.40735075,19.2644433 C8.38379444,19.3660621 8.43165488,19.4501892 8.50606292,19.502248 C8.52401059,19.5055798 8.555419,19.4943351 8.57261885,19.5055798 C8.60253163,19.531401 8.61636629,19.5855422 8.65824418,19.6026174 C8.68965259,19.6088645 8.7206871,19.5855422 8.74573905,19.5884574 C8.79397341,19.6026174 8.79397341,19.6455139 8.8014516,19.7000716 C8.80743416,19.7050692 8.83286002,19.7221445 8.83286002,19.7417186 C8.91885926,19.7221445 9.01607579,19.7479657 9.04112774,19.8308434 C9.0859969,19.9574504 9.16377013,20.0540716 9.21499576,20.1652693 C9.23443907,20.2239916 9.32342958,20.2435658 9.33539469,20.2935422 C9.33988161,20.3364387 9.3664292,20.3635093 9.38026386,20.3730881 C9.43859378,20.4459705 9.52309738,20.4692928 9.6087227,20.4930317 C9.63826157,20.5067752 9.68761766,20.4397234 9.73996502,20.4134858 C9.76688652,20.4026575 9.79941666,20.4334764 9.80240794,20.4397234 C9.88317244,20.5859046 9.90411139,20.7824788 10.0323624,20.8653564 C10.0981705,20.9086694 10.1172399,20.9977941 10.1860393,21.0182011 C10.2275433,21.02778 10.2768994,20.9815517 10.3187773,21.0182011 C10.3460727,21.0390247 10.3546726,21.1006623 10.3756116,21.1077423 C10.4713324,21.1573023 10.5457405,21.2206059 10.5651838,21.3351353 C10.5681751,21.3538765 10.5790184,21.3905259 10.6036965,21.3967729 C10.6904435,21.4071847 10.7622342,21.3405494 10.8067295,21.3905259 C10.870668,21.4550788 10.9518064,21.4846483 11.0078929,21.5496177 C11.0243449,21.5762718 11.0725793,21.5962624 11.0890313,21.5762718 C11.111092,21.5429541 11.098753,21.4846483 11.1181963,21.4550788 C11.1421265,21.4026035 11.2045694,21.4200953 11.2513081,21.4026035 C11.3081424,21.3767824 11.3137511,21.2576718 11.3754462,21.2518412 C11.4812626,21.2343494 11.5231405,21.3767824 11.608018,21.4334224 C11.6136267,21.4430012 11.6465307,21.4550788 11.6584958,21.4671565 C11.7512254,21.52338 11.7093475,21.7095424 11.8196509,21.7232859 C11.9497715,21.7232859 12.018197,21.8523918 12.1348568,21.8757142 C12.2227256,21.9061165 12.2930206,21.9306883 12.3719156,21.9848295 C12.3973414,22.0035707 12.4418367,22.0035707 12.4713756,21.992326 C12.5211056,21.9706695 12.5656008,21.9452648 12.6059831,21.9119471 C12.7177821,21.835733 12.8624851,21.828653 12.9761537,21.7466083 C13.0000839,21.7257847 13.0243881,21.6912177 13.0557965,21.6778906 C13.2434992,21.5862671 13.4521408,21.7574365 13.6480695,21.6424906 C13.695556,21.6200012 13.7613641,21.6200012 13.8181984,21.5762718 C13.9352322,21.4846483 13.9696318,21.3009847 13.9329887,21.1573023 C13.8507286,20.927827 13.7793118,20.6908552 13.6353565,20.4930317 C13.567305,20.396827 13.4745754,20.3418528 13.3926891,20.2435658 C13.3762371,20.2152458 13.3100551,20.2239916 13.2719163,20.2035846 C13.1952648,20.1652693 13.2072299,20.0640669 13.2225602,19.9811893 C13.2225602,19.9512034 13.1388044,19.9512034 13.1253437,19.920801 C13.0973005,19.8645775 13.1253437,19.8016904 13.1313262,19.7479657 C13.1361871,19.7221445 13.1029091,19.7000716 13.0973005,19.7000716 C12.9866232,19.6750833 12.8867893,19.6205257 12.7749903,19.6384339 C12.738721,19.6455139 12.705817,19.6026174 12.6732868,19.5792951 C12.6538435,19.5584716 12.6792694,19.5180739 12.6957214,19.5130763 C12.75966,19.4501892 12.8359376,19.4072927 12.9152064,19.374808 C12.8867893,19.3310786 12.8834241,19.2644433 12.9092239,19.2482009 C12.9507278,19.1998903 12.9406323,19.1136809 12.9256759,19.0666197 C12.9256759,19.0487115 12.9092239,19.0087303 12.8658503,19.0087303 C12.8744503,18.892535 12.9342758,18.8046597 12.8744503,18.7009585 C12.8078943,18.6051703 12.7177821,18.5485303 12.6957214,18.4235891 C12.6957214,18.4123444 12.6403828,18.3802761 12.6403828,18.3619514 C12.6403828,18.2207679 12.6792694,18.0666737 12.6538435,17.9234078 C12.6347741,17.8634361 12.5734529,17.7922196 12.6213134,17.7543208 C12.6403828,17.7376619 12.6882432,17.6989302 12.7301211,17.687269 C12.8179899,17.6514525 12.8479027,17.5848172 12.804903,17.5177654 C12.75966,17.4482149 12.6687999,17.5177654 12.6029918,17.4944431 C12.5734529,17.4852807 12.5693399,17.459876 12.5656008,17.4278078 C12.5506444,17.3720007 12.6029918,17.2787113 12.5555053,17.2483089 C12.515123,17.2316501 12.4781059,17.1879207 12.4586626,17.1562689 C12.4167848,17.0863019 12.4508105,17.0025913 12.5001666,16.9322077 C12.4713756,16.9363724 12.4837146,16.8764007 12.4508105,16.8963913 C12.4418367,16.8197607 12.4915667,16.7364665 12.4627756,16.6706642 C12.4418367,16.6036124 12.390985,16.5203183 12.3169509,16.5573842 C12.3090987,16.5573842 12.3169509,16.5807065 12.3090987,16.5807065 C12.2687165,16.623603 12.2227256,16.6356806 12.179726,16.5940336 C12.1703782,16.5807065 12.1703782,16.5394759 12.179726,16.5074077 C12.2092649,16.4657606 12.2687165,16.4840853 12.3034901,16.4545159 C12.3629417,16.3853818 12.3090987,16.2916759 12.2810555,16.25461 C12.1898215,16.1650688 12.1513088,16.0855229 12.1703782,15.9605817 C12.0660574,15.9439229 11.9060241,15.9285135 11.9123805,15.7669229 C11.9198587,15.6232405 11.8899459,15.4903864 11.8585375,15.3446217 C11.8331117,15.241337 11.8394681,15.1347205 11.8974241,15.0618381 C11.9123805,15.0385158 11.9321977,14.9964522 11.960241,14.9939534 C12.0944746,14.9722969 12.2619861,15.0047816 12.3378898,14.8623487 C12.3853763,14.7611463 12.2810555,14.602471 12.3629417,14.5362522 C12.5001666,14.4200569 12.705817,14.4971039 12.8744503,14.3904874 C12.9256759,14.3480074 12.9181977,14.268878 12.9032413,14.2039086 C12.8804328,14.1331086 12.8400506,14.0560615 12.804903,13.9898427 C12.7461992,13.8965533 12.6123395,13.943198 12.5734529,13.8419956 C12.5555053,13.787438 12.5555053,13.7320474 12.5734529,13.6841532 C12.6029918,13.6108544 12.6613217,13.5446356 12.7301211,13.5079862 C12.8804328,13.4413509 13.0243881,13.4909109 13.1533869,13.5746215 C13.1952648,13.5987768 13.2345253,13.6504191 13.2640642,13.6999791 C13.2719163,13.7191368 13.2775249,13.7428756 13.2864988,13.7657815 C13.3265071,13.9561086 13.3852109,14.1605957 13.3265071,14.3355133 C13.2999595,14.3929863 13.2345253,14.4300522 13.252473,14.5216757 C13.2954726,14.4816945 13.3100551,14.5466639 13.3100551,14.5591581 C13.3414635,14.6890969 13.4121324,14.8698451 13.3100551,14.9527228 C13.1847953,15.0385158 13.1952648,14.9235699 13.0640225,14.9527228 C13.0000839,14.9602193 12.9507278,14.9385628 12.958206,15.0047816 C12.9630669,15.0435134 13.0131708,15.1276405 13.0445792,15.141384 C13.3481939,15.226344 13.5056099,15.2542475 13.8249288,15.3108875 C13.8922325,15.3279628 13.9449538,15.417504 14.0238488,15.4304146 C14.0833004,15.4404099 14.1491085,15.4758099 14.2145427,15.3875181 C14.2358556,15.3571158 14.2968029,15.3875181 14.304655,15.4070923 C14.3192374,15.4758099 14.3562545,15.4758099 14.3966368,15.5007982 C14.4934794,15.5516076 14.4624449,15.8277276 14.5921915,15.7398523 C14.6609909,15.6861276 14.7208165,15.7436005 14.7982158,15.7265252 C14.7208165,15.8423041 14.7608248,15.9605817 14.8352329,16.0455418 C14.8954323,16.1288359 14.9829272,16.1650688 15.0562135,16.2416994 C15.1130478,16.3170806 15.2042818,16.297923 15.2128817,16.1954712 C15.2278381,16.0855229 15.1231434,15.9605817 15.2472814,15.8656264 C15.3680542,16.055537 15.2128817,16.2916759 15.3392632,16.4657606 C15.3474892,16.4840853 15.3545935,16.4907489 15.3624456,16.5074077 C15.4189059,16.58737 15.4663925,16.6706642 15.5426701,16.6602524 C15.5976348,16.6406783 15.621565,16.5807065 15.6488604,16.5161536 C15.6503561,16.4907489 15.6593299,16.4657606 15.6649385,16.4603465 C15.6720428,16.3995418 15.696347,16.3583112 15.7113034,16.305003 C15.7382249,16.2217088 15.8335718,16.1538241 15.8167459,16.055537 C15.8167459,16.0255512 15.8092677,15.9859864 15.8092677,15.9605817 C15.8167459,15.8277276 15.948736,15.7436005 16.0609089,15.7669229 C16.0949347,15.772337 16.0695089,15.7436005 16.0994216,15.7181958 C16.1484038,15.6765488 16.1368126,15.5516076 16.1813079,15.4903864 C16.2186989,15.4358287 16.2616985,15.3841864 16.2871243,15.3279628 C16.3065676,15.2946452 16.342463,15.2542475 16.3275066,15.2046875 C16.3720018,15.2046875 16.3720018,15.141384 16.4157493,15.1347205" id="Fill-28" fill="#FEFEFE" mask="url(#mask-2)"></path>
            <path d="M13.39068,14.0250712 C13.26368,13.9727543 13.16068,14.0110075 13.07668,14.0605117 C12.99268,14.110016 12.97568,14.1735839 13.03568,14.2118371 C13.09468,14.2720297 13.16068,14.3434733 13.17068,14.4025409 C13.17068,14.5324894 13.11568,14.6585001 13.15268,14.7957618 C13.20768,14.8981455 13.42268,15.0798485 13.53868,14.9611509 C13.67468,14.8295147 13.88268,14.6269975 13.71868,14.4649837 C13.59068,14.3153459 13.67468,14.1156414 13.39068,14.0250712" id="Fill-29" fill="#FEFEFE" mask="url(#mask-2)"></path>
            <path d="M13.012278,14.2648445 C13.043278,14.3448445 13.083278,14.4038445 13.116278,14.4938445 C13.183278,14.6798445 13.491278,14.5928445 13.598278,14.4638445 C13.616278,14.3898445 13.598278,14.2648445 13.514278,14.1928445 C13.431278,14.0978445 13.295278,14.1148445 13.220278,14.0678445 C13.163278,14.0498445 13.103278,13.9858445 13.060278,14.0028445 C12.991278,14.0678445 12.991278,14.1778445 13.012278,14.2648445" id="Fill-30" fill="#FEFEFE" mask="url(#mask-2)"></path>
            <path d="M13.606532,15.2450902 C13.606532,15.0013916 13.3169836,14.9302841 13.1063186,15.0731895 C12.8325469,15.2450902 13.1499365,15.5536831 13.3578174,15.7718382 C13.3875147,15.8229251 13.4283484,15.8940327 13.4691821,15.9527136 C13.5684824,16.0327959 13.7615146,16.0051813 13.8236933,15.9147436 C13.8775196,15.8325902 13.9146412,15.8015239 13.9768198,15.722132 C14.0575593,15.5536831 13.9257777,15.2450902 13.606532,15.2450902" id="Fill-31" fill="#FEFEFE" mask="url(#mask-2)"></path>
            <path d="M13.3172281,14.0521793 C13.3172281,13.9961793 13.2292281,13.9961793 13.2102281,14.0031793 C13.0732281,14.0521793 13.0352281,14.1631793 13.0102281,14.2921793 C12.9742281,14.4751793 13.0352281,14.6471793 13.1622281,14.7881793 C13.2172281,14.8571793 13.3172281,14.7711793 13.3612281,14.6471793 C13.4452281,14.4591793 13.3342281,14.2551793 13.3172281,14.0521793" id="Fill-32" fill="#FEFEFE" mask="url(#mask-2)"></path>
            <path d="M13.1733918,14.5359761 C13.2253918,14.4969761 13.3253918,14.4079761 13.3063918,14.2919761 C13.3943918,14.3089761 13.4883918,14.2919761 13.5483918,14.1879761 C13.6103918,14.1459761 13.4883918,14.0809761 13.5173918,14.0099761 C13.3253918,13.9539761 13.1983918,14.1459761 13.0463918,14.2809761 C12.9143918,14.4079761 13.0983918,14.5969761 13.1733918,14.5359761" id="Fill-33" fill="#FEFEFE" mask="url(#mask-2)"></path>
            <path d="M13.0117185,16.0293005 C12.9797185,16.2043005 13.0117185,16.3213005 13.1267185,16.3553005 C13.1867185,16.3733005 13.2977185,16.4033005 13.2977185,16.3213005 C13.3107185,16.2133005 13.3827185,16.1093005 13.3107185,16.0123005 C13.2977185,15.9983005 13.2457185,16.0123005 13.2357185,16.0123005 C13.1267185,15.9573005 13.0867185,16.1093005 13.0117185,16.0293005" id="Fill-34" fill="#FEFEFE" mask="url(#mask-2)"></path>
            <path d="M13.26,16.423 C13.316,16.285 13.433,16.152 13.216,16.014 C13.172,16 13.066,16 13,16 C13,16.203 13.121,16.362 13.26,16.423" id="Fill-35" fill="#FEFEFE" mask="url(#mask-2)"></path>
            <path d="M8.03624663,19.0380352 C7.99624663,19.0590352 7.98024663,19.2820352 8.03624663,19.3390352 C8.10324663,19.4090352 8.28024663,19.3860352 8.38424663,19.3860352 C8.30724663,19.2050352 8.31424663,18.8910352 8.03624663,19.0380352" id="Fill-36" fill="#FEFEFE" mask="url(#mask-2)"></path>
            <path d="M8.03344012,19.0509301 C7.90044012,19.2869301 8.18444012,19.5379301 8.52744012,19.5679301 C8.52744012,19.4559301 8.56744012,19.3119301 8.50844012,19.2229301 C8.38844012,19.0649301 8.09344012,18.9199301 8.03344012,19.0509301" id="Fill-37" fill="#FEFEFE" mask="url(#mask-2)"></path>
            <path d="M8.00609704,20 C7.96509704,20.417 8.12909704,20.701 8.55209704,20.758 C8.60009704,20.317 8.43309704,20.06 8.00609704,20" id="Fill-38" fill="#FEFEFE" mask="url(#mask-2)"></path>
            <path d="M18.2817663,16.6240809 C18.5152556,16.5515219 18.8054231,16.4896683 19.0777246,16.4896683 C19.6974877,16.4765839 19.6599077,15.7176881 19.9784142,15.2377281 C20.0467976,15.118779 19.9383698,14.8529275 19.8527366,14.7298151 C19.6414257,14.4021101 18.9877788,14.7720421 18.8368425,14.4312527 C18.7512092,14.236176 19.2797945,14.5543651 19.3284638,14.2510447 C19.3389369,14.1719435 19.2871873,14.0702419 19.2255806,14.0393151 C19.1393313,13.9911407 18.9748414,13.9828143 18.9089223,14.0393151 C18.5768623,14.308735 18.5152556,14.7720421 18.343373,15.0807152 C17.9891346,15.6695137 17.3545859,16.0959465 17.0175973,16.7543302 C16.9639995,16.8512738 17.04224,16.932754 17.1260251,16.967844 C17.5880752,17.1171252 17.9053495,16.7025873 18.2817663,16.6240809" id="Fill-39" fill="#FEFEFE" mask="url(#mask-2)"></path>
            <path d="M19.4299674,14 C19.2859674,14.052 19.1299674,14.088 19.0539674,14.189 C18.9939674,14.332 18.9709674,14.573 19.0539674,14.707 C19.1019674,14.771 19.3299674,14.779 19.3899674,14.707 C19.4969674,14.588 19.3499674,14.448 19.2299674,14.379 C19.3499674,14.271 19.4729674,14.189 19.4299674,14" id="Fill-40" fill="#FEFEFE" mask="url(#mask-2)"></path>
            <path d="M19.0088068,15.534586 C19.3091958,15.913586 20.0766476,15.783586 19.9937816,15.422586 C19.9033824,15.107586 19.3958284,14.923586 19.0502397,15.030586 C18.8280083,15.107586 19.441028,15.370586 19.0088068,15.534586" id="Fill-41" fill="#FEFEFE" mask="url(#mask-2)"></path>
            <path d="M19.371,17.742 C19.698,17.6 19.53,17.28 19.574,17 C19.234,17.148 19.052,17.391 19,17.742 C19.131,17.742 19.256,17.786 19.371,17.742" id="Fill-42" fill="#FEFEFE" mask="url(#mask-2)"></path>
            <path d="M19.9199426,14.9891941 C19.9519426,14.9707189 19.9829426,14.7990533 19.9199426,14.7366994 C19.8489426,14.6966698 19.6999426,14.7366994 19.5759426,14.7128356 C19.4299426,14.6643381 19.3779426,14.5650338 19.3489426,14.4418657 C19.3489426,14.2825169 19.1569426,14.1716656 19.2089426,14 C18.9569426,14.0854479 18.9709426,14.3009921 19.0539426,14.3964474 C19.2739426,14.6566401 19.4299426,15.0723326 19.9199426,14.9891941" id="Fill-43" fill="#FEFEFE" mask="url(#mask-2)"></path>
            <path d="M18.198645,13.0284723 C18.047645,12.9474723 17.930645,13.0514723 18.047645,13.1874723 C18.102645,13.2584723 18.278645,13.2114723 18.383645,13.2204723 C18.330645,13.1554723 18.298645,13.0674723 18.198645,13.0284723" id="Fill-44" fill="#FEFEFE" mask="url(#mask-2)"></path>
            <path d="M7.43054571,17.319 C7.48254571,17.23 7.37054571,17.167 7.29954571,17.088 C7.20054571,17 7.08454571,17.111 7.00354571,17 C7.00354571,17.088 6.98354571,17.197 7.03854571,17.262 C7.10754571,17.374 7.29954571,17.462 7.43054571,17.319" id="Fill-45" fill="#FEFEFE" mask="url(#mask-2)"></path>
            <path d="M8.33413439,17.4625998 C8.49313439,17.3835998 8.71013439,17.3185998 8.60613439,17.0805998 C8.60613439,17.0635998 8.56513439,17.0805998 8.52913439,17.0805998 C8.27813439,16.9285998 7.94713439,16.9875998 8.00713439,17.2915998 C8.01513439,17.4225998 8.17913439,17.5665998 8.33413439,17.4625998" id="Fill-46" fill="#FEFEFE" mask="url(#mask-2)"></path>
            <path d="M19.143,10.423 C19.206,10.272 19.457,10.238 19.421,10.071 C19.406,10 19.243,10 19.174,10 C19.06,10.008 19.083,10.168 19.083,10.312 C19.035,10.3 19,10.312 19,10.351 C19,10.423 19.122,10.446 19.143,10.423" id="Fill-47" fill="#FEFEFE" mask="url(#mask-2)"></path>
            <path d="M19.268586,10.3209016 C19.307586,10.2809016 19.447586,10.1699016 19.331586,10.0729016 C19.236586,9.98490159 19.080586,9.98490159 19.033586,10.0289016 C18.924586,10.1519016 19.101586,10.4359016 19.268586,10.3209016" id="Fill-48" fill="#FEFEFE" mask="url(#mask-2)"></path>
            <path d="M18.0136352,13.1560989 C17.9136352,13.4200989 18.3886352,13.7460989 18.6246352,13.5910989 C18.8136352,13.4740989 18.7286352,13.1430989 18.5436352,13.0490989 C18.3726352,12.9560989 18.0736352,12.9970989 18.0136352,13.1560989" id="Fill-49" fill="#FEFEFE" mask="url(#mask-2)"></path>
            <path d="M18.6235347,13.3272399 C18.7275347,13.2322399 18.6235347,13.0962399 18.5405347,13.0442399 C18.4475347,12.9652399 18.2715347,13.0092399 18.1335347,13.0442399 C18.0975347,13.0642399 18.0575347,13.0162399 18.0055347,13.0092399 C17.9745347,13.1202399 18.0815347,13.1722399 18.1335347,13.1722399 C18.3235347,13.1722399 18.4845347,13.4342399 18.6235347,13.3272399" id="Fill-50" fill="#FEFEFE" mask="url(#mask-2)"></path>
            <path d="M18.0846072,14.2192168 C17.9556072,14.3032168 17.9806072,14.5472168 18.1156072,14.6522168 C18.2636072,14.7232168 18.4556072,14.6902168 18.5306072,14.5112168 C18.5826072,14.3602168 18.6796072,14.1482168 18.5306072,14.0402168 C18.3526072,13.9142168 18.2636072,14.1152168 18.0846072,14.2192168" id="Fill-51" fill="#FEFEFE" mask="url(#mask-2)"></path>
            <path d="M18.0713708,13.0024092 C18.0873708,13.2474092 17.9563708,13.4734092 18.0153708,13.7004092 C18.0503708,13.8334092 18.2353708,13.7894092 18.2633708,13.7004092 C18.3353708,13.4884092 18.2633708,13.3034092 18.4303708,13.1574092 C18.3753708,13.1434092 18.3013708,13.0544092 18.3013708,13.2134092 C18.3173708,13.1574092 18.3673708,13.1094092 18.3353708,13.0634092 C18.2633708,12.9814092 18.1753708,13.0024092 18.0713708,13.0024092" id="Fill-52" fill="#FEFEFE" mask="url(#mask-2)"></path>
            <path d="M19,19 C19.012,19.008 19.02,19 19.032,19.008 C19.04,19.008 19.052,19.008 19.06,19 L19,19 Z" id="Fill-53" fill="#FEFEFE" mask="url(#mask-2)"></path>
            <path d="M24.092,20.056 C24.11,20.047 24.096,20.016 24.092,20 C24.088,20.038 24.036,20.072 24,20.056 C24.036,20.056 24.088,20.072 24.092,20.056" id="Fill-54" fill="#FEFEFE" mask="url(#mask-2)"></path>
            <path d="M19.8258788,16.1632756 C19.7566697,16.1770704 19.7668938,16.1260298 19.7566697,16.1195923 C19.691393,16.0782081 19.6245434,16.0782081 19.6025223,16.0248684 C19.5340998,15.9466982 19.4239945,16.0782081 19.2918681,16.0736098 C19.2761388,16.0736098 19.2423208,16.0989002 19.2604095,16.1260298 C19.3807388,16.2184546 19.2423208,16.2543209 19.1479448,16.3200759 C19.085814,16.3913487 19.2667012,16.3977862 19.3075975,16.4708983 C19.3673689,16.5559659 19.2108621,16.6276986 19.2423208,16.7192037 C19.2045704,16.7431145 19.1479448,16.7840389 19.0653658,16.8589904 C19.0441312,16.867727 18.9749222,16.9426785 19.0095267,16.9776251 C19.1259237,17.0585543 19.3366967,16.8948567 19.4617449,16.8824414 C19.5781419,16.8824414 19.5962306,16.8824414 19.691393,16.8424367 C19.8258788,16.7978337 19.9509269,16.7684049 19.9989014,16.6833373 C20.0177766,16.6516094 19.7881284,16.6359754 19.7181329,16.6313772 C19.8258788,16.4791752 19.6780231,16.4308936 19.7244246,16.2662764 C19.7244246,16.2584593 19.8604833,16.1632756 19.8258788,16.1632756" id="Fill-55" fill="#FEFEFE" mask="url(#mask-2)"></path>
            <path d="M19.0958011,18.4749837 C19.0958011,18.4889837 19.1838011,18.4979837 19.2068011,18.4749837 C19.3518011,18.3709837 19.3648011,18.1769837 19.2918011,18.0659837 C19.2408011,17.9709837 19.0338011,17.9709837 19.0128011,18.1159837 C18.9728011,18.2429837 19.0338011,18.3709837 19.0958011,18.4749837" id="Fill-56" fill="#FEFEFE" mask="url(#mask-2)"></path>
            <path d="M19.2270329,18.3119151 C19.3670329,18.2839151 19.2790329,18.1389151 19.2110329,18.0529151 C19.1670329,18.0049151 19.0560329,17.9799151 19.0390329,18.0199151 C18.9400329,18.1789151 19.0390329,18.3879151 19.2270329,18.3119151" id="Fill-57" fill="#FEFEFE" mask="url(#mask-2)"></path>
            <path d="M19.6561779,18.135 C19.6241779,18.126 19.5921779,18.079 19.6121779,18.064 C19.4951779,18.064 19.3721779,17.985 19.2281779,18.023 C19.1931779,18.023 19.0901779,18 19.0201779,18 C19.0011779,18.112 18.9611779,18.272 19.1011779,18.312 C19.3011779,18.329 19.5031779,18.329 19.6561779,18.135" id="Fill-58" fill="#FEFEFE" mask="url(#mask-2)"></path>
            <path d="M20.822,18.235246 C20.87,18.235246 20.834,18.020246 20.794,18.005246 C20.592,17.964246 20.415,18.179246 20.204,18.108246 C20.204,18.197246 20.184,18.253246 20.135,18.300246 C20.121,18.324246 20.049,18.317246 20,18.317246 C20.224,18.588246 20.578,18.324246 20.822,18.235246" id="Fill-59" fill="#FEFEFE" mask="url(#mask-2)"></path>
            <path d="M21.0034418,18.219 C21.0904418,18.578 21.4904418,18.411 21.5294418,18.163 C21.5294418,17.988 21.2894418,17.988 21.2154418,18.115 C21.2344418,18.086 21.2464418,18.043 21.2744418,18 C21.1704418,18.086 20.9714418,18.086 21.0034418,18.219" id="Fill-60" fill="#FEFEFE" mask="url(#mask-2)"></path>
            <path d="M26.0114282,14.5177393 C25.9352987,14.7117393 26.2586141,14.7507393 26.4165123,14.8147393 C26.6110655,14.8727393 26.933441,14.8467393 26.9860738,14.6547393 C27.0753614,14.3117393 26.7191506,13.9597393 26.3789175,14.0037393 C26.0856779,14.0317393 26.1091747,14.2947393 26.0114282,14.5177393" id="Fill-61" fill="#FEFEFE" mask="url(#mask-2)"></path>
            <path d="M25.4940196,19.0155806 C25.4385172,18.9948065 25.3290127,18.9948065 25.3290127,19.0155806 C25.1990072,19.6472261 24.6764854,20.5225463 25.2985114,20.9464506 C25.5745229,21.1412781 25.9130371,20.7566762 25.9555388,20.5567955 C26.0590432,20.0795523 26.0110412,19.2996807 25.4940196,19.0155806" id="Fill-62" fill="#FEFEFE" mask="url(#mask-2)"></path>
            <path d="M24.1324964,18.0283636 C23.9614964,18.1243636 23.9284964,18.5363636 24.1994964,18.5363636 C24.3134964,18.5363636 24.4314964,18.4473636 24.5244964,18.3783636 C24.6244964,18.2653636 24.6114964,18.1073636 24.4954964,18.0723636 C24.3724964,18.0283636 24.2334964,17.9613636 24.1324964,18.0283636" id="Fill-63" fill="#FEFEFE" mask="url(#mask-2)"></path>
            <path d="M25.0624126,22.0479634 C24.9554126,22.2359634 24.9834126,22.4699634 25.1664126,22.5939634 C25.1624126,22.4259634 25.4754126,22.2189634 25.2474126,22.0479634 C25.1624126,21.9609634 25.0984126,22.0119634 25.0624126,22.0479634" id="Fill-64" fill="#FEFEFE" mask="url(#mask-2)"></path>
            <path d="M26.789964,12.0033781 C26.7044844,11.9899419 26.6737994,12.0178892 26.6442103,12.0641098 C26.6228404,12.1441896 26.6562651,12.2382432 26.6228404,12.3269222 C26.422292,12.8783446 25.7746192,13.3754846 26.0809213,13.9935506 C26.0809213,14.0021498 26.1264009,14.0021498 26.1362639,13.9935506 C26.3154424,13.8731621 26.422292,13.7097777 26.5181826,13.5377941 C26.7044844,13.1588928 26.8677724,12.7697799 26.994896,12.3371337 C27.0173618,12.2049213 26.9685946,12.0195015 26.789964,12.0033781" id="Fill-65" fill="#FEFEFE" mask="url(#mask-2)"></path>
            <path d="M26.0210094,13.1306006 C25.9350094,13.2896006 26.1320094,13.4176006 26.2690094,13.3466006 C26.4010094,13.2896006 26.4850094,13.0676006 26.3640094,13.0306006 C26.2690094,12.9796006 26.0810094,12.9796006 26.0210094,13.1306006" id="Fill-66" fill="#FEFEFE" mask="url(#mask-2)"></path>
            <path d="M21.688529,10.5339131 C21.6197463,10.2486909 21.4454267,10.5183679 21.3031357,10.4845737 C21.2443291,10.4778149 21.2154509,10.3784602 21.180797,10.3784602 C21.1298663,10.3940055 21.0810358,10.4054955 21.0453318,10.4480761 C20.9487209,10.5183679 21.0222292,10.706939 21.1193651,10.6826072 C21.1944485,10.6826072 21.2443291,10.5481067 21.2758327,10.6312402 C21.3467156,10.7819619 21.2989353,11.0469077 21.483231,10.9928371 C21.6008442,10.9549877 21.6743524,10.8475225 21.8019417,10.8299495 C21.9300561,10.8225148 21.9437076,10.6420543 21.9300561,10.5183679 C22.062371,10.4987673 22.2193636,10.3588597 22.302848,10.4987673 C22.3443276,10.5481067 22.3558789,10.6535443 22.3889576,10.7170772 C22.428337,10.8367084 22.5181221,10.8637436 22.6131578,10.8691507 C22.7297209,10.8299495 22.8489093,10.8475225 22.9376442,10.7170772 C23.0295295,10.5724384 23.0211286,10.3940055 22.9040405,10.2926232 C22.8562601,10.2486909 22.7701504,10.305465 22.721845,10.2486909 C22.6226089,10.1811026 22.552251,10.070258 22.4530148,10.0222703 C22.1033256,9.90263919 21.8980275,10.2926232 21.688529,10.5339131" id="Fill-67" fill="#FEFEFE" mask="url(#mask-2)"></path>
            <path d="M22.236,10.004 C22.168,10.004 22.096,10.004 22.021,10 C22.013,10 22.005,10 22,10.004 L22.236,10.004 Z" id="Fill-68" fill="#FEFEFE" mask="url(#mask-2)"></path>
            <path d="M20.1883307,10.3551632 C20.4163307,10.3151632 20.6233307,10.3151632 20.8633307,10.3411632 L20.8633307,10.2991632 C20.8423307,9.9161632 20.4673307,9.9591632 20.2553307,10.1071632 C20.2353307,10.1071632 20.2553307,10.1671632 20.2553307,10.1671632 C20.1753307,10.2041632 20.0773307,10.1521632 20.0273307,10.1861632 C19.9403307,10.2991632 20.0793307,10.4021632 20.1883307,10.3551632" id="Fill-69" fill="#FEFEFE" mask="url(#mask-2)"></path>
            <path d="M20.214244,10.8120817 C20.4094828,10.5796353 20.6903385,10.4256581 20.9903981,10.29611 C21.0120024,10.29611 20.9903981,10.2361477 20.9903981,10.2020951 C20.9775956,10.2243033 20.9671935,10.2413297 20.9519905,10.2783434 C20.8919786,10.148055 20.7895582,10.0577415 20.6615328,10 C20.6519309,10.1125218 20.5151038,10.1887701 20.4574923,10.2361477 C20.3038618,10.3397862 20.1126239,10.4552691 20.0446104,10.6025839 C19.9942004,10.7262098 19.9661948,10.9164605 20.0742162,10.9934491 C20.1414296,11.0341642 20.1766366,10.8742648 20.214244,10.8120817" id="Fill-70" fill="#FEFEFE" mask="url(#mask-2)"></path>
            <path d="M19.0195273,10.0534372 C18.9955273,10.1644372 18.9675273,10.2974372 19.1105273,10.3204372 C19.2875273,10.3714372 19.2875273,10.0914372 19.1995273,10.0374372 C19.1425273,9.99743719 19.0435273,9.97243719 19.0195273,10.0534372" id="Fill-71" fill="#FEFEFE" mask="url(#mask-2)"></path>
            <path d="M16.1016185,8.39124207 C16.3356186,8.52324207 16.6222029,8.52324207 16.8711019,8.53724207 C16.9131693,8.53724207 17.0525177,8.36724207 16.9788997,8.25224207 C16.8430569,8.12324207 16.6257085,8.22724207 16.5038883,8.04224207 L16.3846972,8.01624207 C16.1822477,7.93924207 16.1261578,8.15424207 16.0131016,8.27924207 C15.9578881,8.36724207 16.0946072,8.39124207 16.1016185,8.39124207" id="Fill-72" fill="#FEFEFE" mask="url(#mask-2)"></path>
            <path d="M24.4578591,9.56579101 C24.4137375,9.65375594 24.327259,9.61262126 24.2465164,9.65375594 C24.2063657,9.67020981 24.2103366,9.78538692 24.2301914,9.82335739 C24.3082867,9.98220054 24.4000598,9.89170424 24.508599,9.85626513 C24.4790375,9.91701789 24.5359545,9.90689243 24.5513971,9.92397915 C24.6003721,9.97270792 24.6215505,9.80247363 24.6696431,9.85626513 C24.683762,9.87651605 24.683762,9.97270792 24.6696431,9.98220054 C24.5986072,10.0385234 24.5986072,10.1391452 24.5359545,10.1790142 C24.4949213,10.219516 24.4137375,10.219516 24.3771165,10.1075031 C24.3722631,10.0935806 24.3382894,10.1075031 24.3175523,10.1075031 L24.3382894,10.1075031 C24.3082867,10.1847097 24.3382894,10.3163407 24.3082867,10.351147 C24.1847461,10.5074588 23.9085445,10.6333942 24.0303203,10.8713425 C24.1216521,11.048538 24.327259,10.9979107 24.4949213,10.977027 C24.5147761,10.977027 24.5359545,10.9320952 24.5306599,10.909313 C24.5147761,10.6846543 24.5986072,10.6466838 24.7014107,10.5353038 C24.7433263,10.4853093 24.6696431,10.4144311 24.6197856,10.351147 C24.5743403,10.3207706 24.6215505,10.1847097 24.6696431,10.1847097 C24.7345019,10.1790142 24.7345019,10.0638371 24.7909777,10.0885179 L24.7909777,9.94233154 C24.8898102,9.95688689 24.9723177,9.86132786 24.9515805,9.7391895 C24.9202541,9.5809792 24.8187743,9.44301981 24.8562777,9.26962131 C24.862896,9.20697002 24.8986345,9.13799033 24.9634934,9.11394236 C24.9957022,9.1038169 25.0133508,9.04369698 24.9877603,9.0133206 C24.9723177,8.99306969 24.9515805,9.00192946 24.9334906,9.00192946 C24.9334906,9.05888517 24.8717203,9.03800141 24.8898102,9.08356598 C24.7817121,9.11394236 24.6797911,9.08356598 24.5866944,9.16393682 C24.4790375,9.23924493 24.5231592,9.44301981 24.4578591,9.56579101" id="Fill-73" fill="#FEFEFE" mask="url(#mask-2)"></path>
            <path d="M24,10.0532153 C24.017,10.3242153 24.315,10.1882153 24.471,10.1012153 C24.371,10.1362153 24.447,10.0132153 24.371,10.0052153 C24.235,9.98021528 24.128,10.0532153 24,10.0532153" id="Fill-74" fill="#FEFEFE" mask="url(#mask-2)"></path>
            <path d="M25.035189,10.069641 C24.873189,10.292641 25.313189,10.292641 25.489189,10.202641 C25.497189,10.202641 25.493189,10.173641 25.489189,10.157641 C25.504189,10.113641 25.489189,10.093641 25.454189,10.069641 C25.285189,9.96564104 25.078189,9.98864104 25.035189,10.069641" id="Fill-75" fill="#FEFEFE" mask="url(#mask-2)"></path>
            <path d="M25.219,9.01284185 C25.163,8.98884185 25.072,9.00584185 25,9.00584185 C25.1,9.05284185 25.1,9.26084185 25.255,9.22884185 C25.247,9.20484185 25.226,9.18084185 25.226,9.12484185 C25.219,9.09384185 25.247,9.03784185 25.219,9.01284185" id="Fill-76" fill="#FEFEFE" mask="url(#mask-2)"></path>
            <path d="M23.0700806,5.16483545 C23.1680077,5.22266595 23.2348395,5.30941169 23.2645426,5.40056823 C23.3109535,5.52064003 23.2274138,5.67648831 23.3030637,5.79852046 C23.3179152,5.84899962 23.3661826,5.88428602 23.3852111,5.90977065 C23.4330144,5.96613088 23.3824264,6.07493062 23.3995985,6.14893405 C23.4422966,6.30674269 23.4534352,6.45474956 23.4715355,6.60618704 C23.5309416,6.59197446 23.5309416,6.70126429 23.6051991,6.6743094 C23.6051991,6.76791639 23.6478972,6.84093964 23.6604282,6.93258628 C23.6864183,7.03550496 23.8010534,6.98355553 23.8655647,7.05755896 C23.9667406,7.206546 24.0628113,7.3570033 24.2145752,7.46237243 C24.2605221,7.49373812 24.3296745,7.49373812 24.3552005,7.5388263 C24.365875,7.55842986 24.3552005,7.59518653 24.3793342,7.59518653 C24.5793655,7.63096302 24.8629366,7.74221321 24.7626889,8 C24.839267,7.94167942 24.9316248,7.89855159 24.9548303,7.80837522 C24.995672,7.6495864 25.0281596,7.47609492 24.9627202,7.32122681 C24.9232708,7.24085222 24.8109563,7.1977244 24.788679,7.10852821 C24.7682582,7.04432656 24.788679,6.98355553 24.7896072,6.93258628 C24.7961048,6.84093964 24.6721875,6.8737756 24.6513025,6.83015769 C24.6034992,6.71743723 24.5640499,6.52924308 24.7682582,6.54884663 C24.7752198,6.54884663 24.7390193,6.50718907 24.7496938,6.46945222 C24.6791491,6.46945222 24.6164943,6.48219454 24.5496625,6.46945222 C24.5032515,6.46308107 24.5032515,6.39299835 24.5032515,6.36947408 C24.4828307,6.25234282 24.5408444,6.1023756 24.441989,6.02151093 C24.3552005,5.96417052 24.2419577,5.94603723 24.1556333,5.88428602 C24.0827681,5.81910419 24.0201132,5.77107548 23.9361094,5.72010623 C23.8845932,5.68481982 23.7945559,5.77107548 23.7551066,5.72010623 C23.5861706,5.52064003 23.4678226,5.2868676 23.3109535,5.06338704 C23.249691,4.99183405 23.1294866,4.99183405 23.021349,5.01045743 C22.9897896,5.01731868 23.0064975,5.05309517 23,5.07220864 C23.0148515,5.07220864 23.0310954,5.07220864 23.042234,5.0785798 C23.0775063,5.09769327 23.054765,5.1447418 23.0700806,5.16483545" id="Fill-77" fill="#FEFEFE" mask="url(#mask-2)"></path>
            <path d="M22.039014,6.58847004 C21.9716975,6.7307574 21.998883,6.91202759 22.0644734,6.95360929 C22.1607015,7.01273326 22.2996496,7.0055864 22.4196111,6.98544527 C22.4852015,6.96920242 22.526627,6.86524819 22.5620113,6.76974023 C22.6258757,6.62225517 22.7950299,6.70736769 22.9206011,6.63979744 C22.9016144,6.75674596 22.9568484,6.74700025 23,6.79312994 C22.9952533,6.66318714 22.9952533,6.48776438 22.9391563,6.42993983 C22.8256676,6.32663531 22.8191948,6.17590167 22.7583511,6.01802118 C22.7462686,5.96409492 22.6815412,6.04595888 22.6815412,6.07129773 C22.6949182,6.33962959 22.5456137,6.28960162 22.4247893,6.36171987 C22.4196111,6.37861243 22.431262,6.42993983 22.4196111,6.44878154 C22.4196111,6.45917696 22.4023504,6.45917696 22.3816377,6.44878154 C22.3609249,6.41239756 22.3440958,6.39615471 22.3466849,6.33638102 C22.2867042,6.33638102 22.200401,6.33638102 22.1749415,6.39615471 C22.1399887,6.48776438 22.0778504,6.50725579 22.039014,6.58847004" id="Fill-78" fill="#FEFEFE" mask="url(#mask-2)"></path>
            <path d="M20.3396456,2.99518548 C20.2111722,2.80366902 20.0101736,2.62726154 20.0640495,2.38143445 C20.4323744,2.48433882 20.7623644,2.43492839 21.1306892,2.34141609 C21.4042132,2.2817969 21.7181441,2.38633466 21.9854515,2.2519873 C22.0175699,2.22789461 21.9864876,2.15643325 21.9864876,2.10212261 C21.6808453,2.21360234 21.4249347,1.89753894 21.1498566,2.03556146 C20.7898204,2.21360234 20.4033643,2.25729586 20.0536888,2.33039062 C19.76825,2.38143445 19.0326364,2.34141609 19,2.67218011 C19.3921546,2.67585527 19.8288604,2.70076466 20.0723381,2.97966815 C20.1101549,3.0131529 20.2479529,2.99518548 20.3396456,2.99518548" id="Fill-79" fill="#FEFEFE" mask="url(#mask-2)"></path>
            <path d="M21,4.00766407 C21.207,4.36966407 21.578,4.44966407 21.922,4.57466407 C21.981,4.39066407 21.882,4.30366407 21.771,4.20166407 C21.53,4.00766407 21.282,3.98366407 21,4.00766407" id="Fill-80" fill="#FEFEFE" mask="url(#mask-2)"></path>
            <path d="M20.0494251,4.03437729 C19.9224251,4.09437729 20.0654251,4.27737729 20.1944251,4.38137729 C20.1694251,4.22137729 20.3804251,3.89337729 20.0494251,4.03437729" id="Fill-81" fill="#FEFEFE" mask="url(#mask-2)"></path>
            <path d="M20.325,4.426 C20.356,4.44 20.429,4.44 20.46,4.426 C20.477,4.418 20.46,4.374 20.46,4.339 C20.46,4.095 20.213,4.024 20.005,4 C20.005,4.052 19.985,4.172 20.025,4.182 C20.149,4.243 20.181,4.339 20.325,4.426" id="Fill-82" fill="#FEFEFE" mask="url(#mask-2)"></path>
            <path d="M21.0524288,5.43316841 C21.0684288,5.46516841 21.1434288,5.50616841 21.1844288,5.46516841 C21.2364288,5.41316841 21.2684288,5.34716841 21.2364288,5.25016841 L21.2364288,5.29116841 C21.1874288,5.21116841 21.2904288,5.08916841 21.1844288,5.01816841 C21.1434288,5.00316841 21.0834288,4.98616841 21.0684288,5.01816841 C20.9244288,5.15116841 21.0524288,5.29116841 21.0524288,5.43316841" id="Fill-83" fill="#FEFEFE" mask="url(#mask-2)"></path>
            <path d="M22.0087048,5.00163633 C21.9857048,5.11363633 22.0087048,5.19363633 22.0727048,5.25663633 C22.1297048,5.27663633 22.1737048,5.25663633 22.1937048,5.21763633 C22.1297048,5.17863633 22.1297048,5.14163633 22.1297048,5.07463633 C22.1537048,4.91363633 22.0297048,5.07463633 22.0087048,5.00163633" id="Fill-84" fill="#FEFEFE" mask="url(#mask-2)"></path>
            <path d="M21.2435146,5.3980854 C21.2745146,5.5050854 21.3805146,5.3580854 21.4105146,5.2250854 C21.4105146,5.2170854 21.4225146,5.2020854 21.4265146,5.1910854 C21.4475146,5.2050854 21.4625146,5.2170854 21.4785146,5.2350854 C21.4705146,5.2130854 21.4505146,5.1910854 21.4355146,5.1660854 C21.3305146,5.0350854 21.1395146,4.9300854 21.0315146,5.0580854 C20.9115146,5.2020854 21.1675146,5.2020854 21.2435146,5.3980854" id="Fill-85" fill="#FEFEFE" mask="url(#mask-2)"></path>
            <path d="M22.0596377,5.02016383 C22.1316377,5.06416383 21.9606377,5.03716383 22.0086377,5.10916383 C22.1476377,5.29516383 22.3876377,5.39116383 22.5586377,5.33516383 C22.6426377,5.27916383 22.7456377,5.10916383 22.6596377,5.04716383 C22.5186377,4.96016383 22.3226377,5.02016383 22.1476377,5.02016383 L22.0596377,5.02016383 Z" id="Fill-86" fill="#FEFEFE" mask="url(#mask-2)"></path>
            <path d="M22.2998097,5.37694112 C22.3968097,5.32294112 22.3078097,5.24994112 22.2998097,5.19294112 C22.2518097,5.06494112 22.1808097,4.94594112 22.0928097,5.02594112 C22.0098097,5.07294112 21.9448097,5.27294112 22.0698097,5.34594112 C22.1168097,5.38094112 22.2158097,5.42694112 22.2998097,5.37694112" id="Fill-87" fill="#FEFEFE" mask="url(#mask-2)"></path>
            <path d="M22.2631743,5.61395709 C22.3101743,5.66195709 22.4421743,5.56495709 22.5011743,5.51695709 C22.5341743,5.51695709 22.5181743,5.43395709 22.5181743,5.38295709 C22.5701743,5.40495709 22.5931743,5.38295709 22.5931743,5.33495709 C22.6381743,5.25795709 22.6181743,5.15795709 22.5181743,5.12695709 C22.4541743,5.10195709 22.3711743,5.20595709 22.2951743,5.14295709 C22.2781743,5.14295709 22.3101743,5.10195709 22.2951743,5.07195709 C22.2271743,5.01595709 22.1261743,4.97095709 22.0751743,5.02295709 C21.9851743,5.10195709 21.9851743,5.24295709 22.0271743,5.33095709 C22.0751743,5.42195709 22.1701743,5.51695709 22.2631743,5.61395709" id="Fill-88" fill="#FEFEFE" mask="url(#mask-2)"></path>
            <path d="M22.171,6.42539924 C22.211,6.42539924 22.258,6.38139924 22.267,6.33739924 C22.29,6.24039924 22.29,6.16539924 22.267,6.05839924 C22.258,5.98839924 22.193,5.98839924 22.151,6.02139924 C22.079,6.05839924 22.086,6.16539924 22,6.18939924 C22.023,6.30039924 22.079,6.40839924 22.171,6.42539924" id="Fill-89" fill="#FEFEFE" mask="url(#mask-2)"></path>
            <path d="M22.383,2.14941177 C22.363,2.14941177 22.331,2.13241177 22.331,2.10941177 C22.331,2.10141177 22.363,2.08141177 22.383,2.06841177 C22.268,1.94441177 22.135,2.03241177 22,2.00541177 C22.089,2.14941177 22.219,2.26841177 22.383,2.14941177" id="Fill-90" fill="#FEFEFE" mask="url(#mask-2)"></path>
            <path d="M25.2758595,4.60191757 C25.3471427,4.69281828 25.5024591,4.58389415 25.5789582,4.69281828 C25.65198,4.80957868 25.7099339,5 25.8420687,5 C25.9255222,5 25.9857943,4.94044436 25.996226,4.84014013 C26.019987,4.54628007 25.9318972,4.2085369 25.7221042,4.07610397 C25.5210043,3.99617403 25.3106318,3.99617403 25.1089523,4.00244305 C24.9797152,4.00244305 24.9797152,4.2085369 25.0353509,4.29003409 C25.0973616,4.3895547 25.1848719,4.49299344 25.2758595,4.60191757" id="Fill-91" fill="#FEFEFE" mask="url(#mask-2)"></path>
            <path d="M28.9640321,8.24016545 C28.874335,8.13047016 28.867072,8.01157462 28.8075161,7.92381838 C28.7541336,7.84030842 28.620859,7.83075431 28.5511349,7.73344397 C28.5162729,7.68673501 28.5801866,7.60499433 28.5282567,7.5667779 C28.4973893,7.54448499 28.464343,7.51723809 28.4599852,7.49140662 C28.4160445,7.37888048 28.3619358,7.30386306 28.2537182,7.25220012 C28.2893065,7.11879649 28.1640211,7.05404088 28.0365568,7.01759374 C28.0311096,7.01193204 28.0485406,6.9754849 28.0485406,6.96097681 C28.0438197,6.90966772 27.977364,6.89445192 27.9337865,6.87923613 C27.9167186,6.87038973 27.8814934,6.87923613 27.8760462,6.87038973 C27.8103168,6.7858182 27.7202565,6.72106259 27.6901154,6.65029144 C27.6516219,6.52998047 27.5339626,6.46274787 27.4322816,6.39586913 C27.3948776,6.37888406 27.3632839,6.27732745 27.3444003,6.27732745 C27.2732236,6.27732745 27.1759005,6.28192757 27.1657324,6.2040793 C27.1526591,6.05581373 27.0310052,5.96381123 26.9177036,5.87463957 C26.7539247,5.76069801 26.89882,5.51335282 26.8410797,5.33288637 C26.8265539,5.25822281 26.7426671,5.25822281 26.6685853,5.25822281 C26.6420756,5.25822281 26.6166554,5.23380676 26.6017664,5.20726757 C26.5378527,5.09544915 26.5876037,4.97159963 26.5131588,4.86791988 C26.3980414,4.71045406 26.270214,4.58872767 26.1427497,4.43196956 C26.0697573,4.35305972 25.9658975,4.36544468 25.8758373,4.35730599 C25.8500539,4.35305972 25.8344386,4.33749007 25.8108341,4.32156656 C25.7774247,4.30068907 25.7672566,4.26211879 25.748373,4.22991791 C25.6968062,4.14251554 25.5842309,4.10323755 25.4919918,4.060421 C25.3191343,3.99106526 25.1342929,4.0268047 24.9527198,4.00132708 C24.8081876,3.99106526 24.6484033,4.04095893 24.5409121,4.12871516 C24.4152635,4.22071766 24.2670999,4.26954976 24.1069524,4.29785822 C24.0455807,4.30918161 24.1294675,4.38384518 24.1069524,4.42878486 C24.0702747,4.48823263 23.9820302,4.55228053 24.0187079,4.60818974 C24.0372284,4.62234397 23.9860248,4.61420529 24.0038189,4.63402121 C24.038681,4.66799137 24.0993264,4.6421599 24.1487142,4.6421599 C24.205365,4.65100629 24.2257012,4.71045406 24.2591107,4.73663939 C24.329561,4.80953368 24.4098163,4.87676628 24.4515781,4.96558408 C24.4690091,4.99990809 24.4018271,5.06324827 24.4341471,5.09544915 C24.5238442,5.1846208 24.5067763,5.26494607 24.5067763,5.37357979 C24.5067763,5.41851947 24.6037364,5.37641064 24.6255251,5.39091872 C24.7558946,5.45885903 24.781678,5.61950956 24.7457265,5.74937463 C24.7250272,5.8183765 24.7322901,5.91816383 24.7627944,5.97371919 C24.8285238,6.096861 24.8423234,6.27732745 24.9617985,6.36826838 C24.9890344,6.32863653 25.0213544,6.27732745 25.0424169,6.28192757 C25.1473661,6.29466638 25.1488187,6.21681811 25.214185,6.17966325 C25.4106471,6.05050589 25.5758786,6.30245121 25.6296242,6.44930136 C25.683733,6.59544379 25.6296242,6.78369507 25.6968062,6.92559123 C25.748373,7.06713354 25.8395227,7.1810751 25.981876,7.25220012 C26.014196,7.26918519 26.0210957,7.35304901 26.0501474,7.41532763 C26.0646733,7.45177478 26.1006247,7.49883759 26.1572755,7.46097503 C26.1892324,7.44257453 26.1728908,7.37463422 26.2269996,7.35304901 C26.270214,7.33924864 26.3170598,7.36791096 26.3442958,7.39020387 C26.4706707,7.54448499 26.5004486,7.85870892 26.7600981,7.84030842 C26.7539247,7.87852484 26.7815238,7.90718716 26.8076703,7.91709512 C26.8614159,7.93266478 26.89882,7.85870892 26.9351346,7.92664923 C26.9758069,7.98362001 26.9975957,8.0565143 27.0524308,8.08517662 C27.1410384,8.11242351 27.2383616,8.07951493 27.3266061,8.10180784 C27.3847095,8.11737749 27.4322816,8.18354852 27.4736803,8.24016545 C27.4980111,8.27696645 27.5281522,8.32119842 27.5644668,8.35764557 C27.7380507,8.52289622 27.8048696,8.77130297 28.0151312,8.89798334 C28.0797712,8.94044603 28.1411429,9.01935587 28.2341083,8.99564754 C28.2613443,8.99564754 28.2424607,8.95495412 28.2718755,8.94858472 C28.3583043,8.94044603 28.4076922,8.87038259 28.4432805,8.81801194 C28.5075574,8.73450197 28.6034279,8.65877684 28.7163664,8.60711389 C28.717819,8.60180605 28.7163664,8.57066675 28.717819,8.5678359 C28.7944428,8.50591114 28.891766,8.49034148 28.9640321,8.42417045 C29.0275826,8.37746149 28.9934469,8.27130476 28.9640321,8.24016545" id="Fill-92" fill="#FEFEFE" mask="url(#mask-2)"></path>
            <path d="M25,8 C25.06,8.008 25.107,8.032 25.152,8.052 C25.199,8.063 25.239,8.06 25.292,8.081 L25,8 Z" id="Fill-93" fill="#FEFEFE" mask="url(#mask-2)"></path>
            <path d="M25.0062769,8.62032037 C25.0677015,8.69986153 25.2065747,8.71386878 25.3073912,8.76339441 C25.419558,8.83543169 25.4729707,8.93848501 25.570449,8.98300805 C25.7714144,9.0675518 25.6932983,8.8134203 25.7901089,8.72987707 C25.8248271,8.71386878 25.930985,8.74438457 25.9556884,8.71386878 C26.0751994,8.59130536 25.930985,8.40070673 25.7834323,8.27964408 C25.6612506,8.19359956 25.5677783,8.05852966 25.3935193,8.00650274 C25.3020499,7.99249549 25.2139189,7.99549705 25.1611738,8.07303717 C25.0677015,8.18009257 25.1638445,8.32416712 25.0950756,8.43222304 C25.0543483,8.48925255 24.9775675,8.55578698 25.0062769,8.62032037" id="Fill-94" fill="#FEFEFE" mask="url(#mask-2)"></path>
            <path d="M25.4213512,9.16674546 C25.3483196,9.40488512 25.3983816,9.66282261 25.3689333,9.92245706 C25.3483196,10.0514258 25.1457156,10.0248401 25.0614936,10.135708 C25.0126095,10.1962328 24.9914067,10.3048381 25.003186,10.3806355 C25.0338122,10.5520282 25.2334714,10.5390182 25.357743,10.6018056 C25.6869745,10.7601883 25.9844018,10.994934 26.1746375,11.3150933 C26.2435465,11.4236985 26.2706389,11.5730308 26.3684071,11.6629695 C26.4667642,11.7574335 26.6481655,11.7574335 26.6787916,11.9293918 C26.6929268,11.9967044 26.8177874,12.0198962 26.8731501,11.9814318 C27.0457169,11.8473722 27.027459,11.5877377 26.9067211,11.4485872 C26.8272108,11.3733555 26.7512344,11.274932 26.7512344,11.193478 C26.739455,10.8410766 26.6322634,10.5113012 26.4343711,10.2098085 C26.3095105,10.0423754 26.0980721,9.95243664 25.9690887,9.79857919 C25.9549536,9.7652057 25.9101922,9.70864046 25.9425853,9.66282261 C25.9844018,9.58080301 26.0762804,9.52763169 26.0980721,9.42920817 C26.1175079,9.24763375 25.9048915,9.18032112 25.8536516,9.00610018 C25.8536516,8.99761539 25.7947551,9.00610018 25.7594172,9.00610018 L25.8624861,9.0355141 C25.6869745,8.96367625 25.4661126,8.99761539 25.4213512,9.16674546" id="Fill-95" fill="#FEFEFE" mask="url(#mask-2)"></path>
            <path d="M26.6806511,10.3391793 C26.6462229,10.2834829 26.6806511,10.2109724 26.6647611,10.140914 C26.6462229,10.0204135 26.4032393,10.0021983 26.2152083,10.0021983 C26.1311241,10.0021983 26.0251912,9.98643519 26.0059908,10.0393293 C25.9940734,10.084517 25.9940734,10.1339082 26.0622677,10.1910058 C26.4111842,10.4039833 26.3820527,10.706986 26.5343312,10.9539419 C26.5846494,11.054826 26.9137035,10.9735582 26.9686562,10.86777 C27.0024223,10.8124239 27.0090431,10.7535748 26.9878565,10.6999801 C26.9395246,10.6435831 26.8382263,10.6078533 26.8143914,10.5462019 C26.7885702,10.4677365 26.7011756,10.4148424 26.6806511,10.3391793" id="Fill-96" fill="#FEFEFE" mask="url(#mask-2)"></path>
            <path d="M26.0859328,9.01066667 C25.8499328,9.19466667 26.1819328,9.38566667 26.1169328,9.64266667 L26.2129328,9.64266667 C26.3649328,9.71266667 26.3649328,9.53066667 26.3979328,9.45666667 C26.1169328,9.47466667 26.1649328,9.16966667 26.1819328,9.01066667 C26.1609328,9.01066667 26.1169328,8.98666667 26.0859328,9.01066667" id="Fill-97" fill="#FEFEFE" mask="url(#mask-2)"></path>
            <path d="M26.6330093,9.327 C26.6510093,9.181 26.6180093,9.027 26.4500093,9 C26.4180093,9.237 26.1920093,9.181 26.0640093,9.299 C25.9040093,9.427 26.0740093,9.634 26.2450093,9.702 C26.2850093,9.702 26.2850093,9.769 26.3110093,9.769 C26.6330093,9.902 26.8890093,9.641 26.7620093,9.327 C26.7620093,9.307 26.6860093,9.327 26.6330093,9.327" id="Fill-98" fill="#FEFEFE" mask="url(#mask-2)"></path>
            <path d="M26.0306063,8.5272818 C26.3176063,8.64518991 26.0346063,8.85911899 26.2596063,8.92760454 C26.4176063,9.00103235 26.7366063,9.0405704 26.8886063,8.93748906 C27.0046063,8.87606387 26.8846063,8.72426601 26.6466063,8.71296942 C26.5506063,8.70732113 26.5566063,8.58447076 26.5796063,8.49904033 C26.5136063,8.49904033 26.4666063,8.46797473 26.4386063,8.4482057 C26.2106063,8.33806399 26.6336063,8.25686979 26.5096063,8.1163685 C26.4666063,8.0853029 26.4946063,8.01681735 26.4386063,8.01046302 C26.3536063,7.98080948 26.2596063,8.01681735 26.2266063,8.0853029 C26.1506063,8.14743411 26.2826063,8.22862832 26.2306063,8.30205613 C26.1696063,8.39666503 25.9126063,8.46797473 26.0306063,8.5272818" id="Fill-99" fill="#FEFEFE" mask="url(#mask-2)"></path>
            <path d="M26.7827852,8.18 C26.6517852,8.12 26.4397852,8.257 26.3327852,8.021 C26.3187852,7.993 26.2117852,7.993 26.1737852,8.021 C26.1367852,8.042 26.1367852,8.082 26.1117852,8.101 C26.0367852,8.209 25.9487852,8.288 26.0367852,8.369 C26.1557852,8.456 26.1837852,8.543 26.2527852,8.64 C26.3327852,8.791 26.5517852,8.64 26.5947852,8.774 C26.6307852,8.904 26.7517852,8.947 26.8417852,8.883 C26.9497852,8.831 26.8587852,8.64 26.8937852,8.543 C26.8277852,8.588 26.8587852,8.417 26.8047852,8.495 C26.8417852,8.384 26.9107852,8.224 26.7827852,8.18" id="Fill-100" fill="#FEFEFE" mask="url(#mask-2)"></path>
            <path d="M19.1346953,13.4416981 L19.2226953,13.4416981 C19.2316953,13.3936981 19.2226953,13.3376981 19.2796953,13.2786981 C19.3306953,13.2016981 19.2456953,13.0886981 19.1946953,13.0346981 C19.1146953,12.9466981 18.9556953,13.0346981 19.0116953,13.2016981 L19.0916953,13.2016981 C19.0726953,13.2786981 19.0726953,13.3526981 19.1346953,13.4416981" id="Fill-101" fill="#FEFEFE" mask="url(#mask-2)"></path>
            <path d="M22.7625372,16.1704579 C22.7625372,16.1882962 22.7710608,16.214243 22.7527959,16.2203242 C22.7158601,16.2661364 22.6375239,16.2397843 22.6188531,16.1814041 C22.5916586,16.1238348 22.5632465,16.0593734 22.5052046,16.0362646 C22.450004,16.0232912 22.399674,16.0293725 22.3720736,16.0881581 C22.3140317,16.0459946 22.2576134,16.0776172 22.2040363,16.0650492 C22.2218953,15.9758573 22.1326001,15.9807224 22.0838937,15.9227476 C22.0274754,15.8704487 22.0485815,15.7642293 22.1326001,15.7366609 C22.1955127,15.7074708 22.2507133,15.7605805 22.2637017,15.8323395 C22.2576134,15.8193661 22.2507133,15.8193661 22.2474662,15.8059873 C22.2474662,15.8323395 22.2348837,15.8485562 22.2474662,15.8663946 C22.3042905,15.9195043 22.3720736,15.8485562 22.435392,15.8951792 C22.5080459,15.9389643 22.6087059,15.8704487 22.691101,15.9195043 C22.6959716,15.9195043 22.6829833,15.9616677 22.712613,15.9616677 C22.8047494,15.9758573 22.8384381,16.0593734 22.8165202,16.1282944 C22.8096201,16.1461328 22.7950081,16.1785662 22.7625372,16.1704579 M26.9902587,11.1586839 C26.8770162,11.1132771 26.7503793,11.1724681 26.6448487,11.2377403 C26.4199871,11.3524735 26.3923868,11.6528881 26.2515439,11.8122173 C26.1537251,11.9220855 26.042512,11.9747898 25.9081633,11.9674922 C25.8919278,11.9674922 25.8403801,11.9464105 25.8330742,11.9026254 C25.8330742,11.8373532 25.8115621,11.7700538 25.8610804,11.7181603 C25.9065398,11.6820782 25.9572757,11.6528881 25.9873113,11.6001838 C26.0510356,11.5008564 26.0015174,11.382069 25.9800054,11.2896338 C25.9243988,11.0853033 25.7125257,10.9648942 25.5181057,11.0001655 C25.3216562,11.0382748 25.2067901,11.2409837 25.0967947,11.416935 C25.0967947,11.416935 25.0578295,11.4242325 25.0578295,11.416935 C24.9831463,11.3265268 24.8861392,11.2774713 24.8341857,11.1809818 C24.8216032,11.1724681 24.8216032,11.1513864 24.8341857,11.1303046 C24.912116,11.1724681 24.9831463,11.2896338 25.0655414,11.2409837 C25.1455012,11.1935498 25.0756886,11.0869249 25.0143996,11.0642215 C24.9466164,11.0419236 24.8808627,10.9738134 24.7935969,10.9839488 C24.7339315,10.9867868 24.6612777,10.8971894 24.6397657,10.8250251 C24.6154124,10.7155623 24.6064829,10.5724498 24.5106935,10.5436652 C24.4100335,10.5015017 24.3158676,10.497853 24.2188606,10.4264995 C24.1734012,10.4042015 24.1182006,10.4467703 24.0743647,10.4431216 C24.1056181,10.4106882 24.0796413,10.3397401 24.0938473,10.3397401 C24.2152076,10.3263613 24.3645741,10.3263613 24.2923262,10.1909518 C24.2594493,10.1260849 24.1945074,10.0616235 24.1182006,10.1143278 C24.0938473,10.1260849 24.0487938,10.1260849 24.0406761,10.1581129 C24.0244406,10.1808163 24.01957,10.2136551 24.0053639,10.2327098 C23.9838519,10.2841978 24.0435173,10.3819035 24.0053639,10.4106882 C23.9286512,10.4625816 23.8186558,10.4593383 23.7248958,10.5237997 C23.713531,10.5306918 23.677407,10.5306918 23.6615774,10.5237997 C23.5791823,10.497853 23.4509219,10.4042015 23.4123626,10.4467703 C23.3539149,10.5156914 23.3413324,10.6048833 23.2711139,10.6401546 C23.2106367,10.6701555 23.1335181,10.6729934 23.0706056,10.7033998 C22.9585807,10.7467795 23.0235227,10.8882702 23.0706056,10.9900301 C23.0925235,11.0261123 23.0766939,11.0853033 23.0377287,11.1132771 C22.9585807,11.1586839 22.9423452,11.0593565 22.9232685,11.0208418 C22.8899857,10.9215145 22.8615736,10.808403 22.8615736,10.7033998 C22.8514265,10.5951532 22.9906458,10.5237997 23.0235227,10.4204182 C23.0458465,10.3575784 23.0657349,10.2841978 23.0206814,10.2136551 C22.9699455,10.1350041 22.8899857,10.1001382 22.8165202,10.1228416 C22.6188531,10.174735 22.5632465,10.5156914 22.3659853,10.4264995 C22.2637017,10.3879848 22.1768419,10.2841978 22.0668464,10.2327098 C22.0051516,10.1909518 21.9462979,10.1483829 21.8744559,10.2006818 C21.7376719,10.3036579 21.5676051,10.3656868 21.4214857,10.4366349 C21.2903841,10.497853 21.1759239,10.65029 21.0992112,10.7921862 C21.0164102,10.9738134 20.6884533,11.0747624 20.5792697,10.8602964 C20.5260984,10.7573203 20.416103,10.6729934 20.2992075,10.6758314 C20.1924591,10.6940752 20.1547116,10.8343497 20.0370043,10.8602964 C19.9509562,10.8761077 19.9006262,10.8461068 19.8685611,10.78124 C19.8628787,10.7634016 19.8628787,10.7329953 19.8685611,10.7281302 C20.0288866,10.5951532 20.1940827,10.497853 20.3933733,10.4204182 C20.4883509,10.3879848 20.5021511,10.2841978 20.4660271,10.1909518 C20.4644036,10.174735 20.4575035,10.1483829 20.4432974,10.1260849 C20.4351797,10.0762185 20.4270619,10 20.4092029,10 C20.1664823,10.0194601 19.9635387,10.1909518 19.8421784,10.4106882 C19.8263488,10.4431216 19.8133604,10.4885284 19.7922543,10.4885284 C19.638423,10.4759604 19.4809388,10.5631252 19.3518666,10.4759604 C19.3238604,10.4593383 19.2869247,10.2821707 19.2690656,10.3004145 C19.2061531,10.3656868 19.1684056,10.4467703 19.1119873,10.5156914 C19.0957518,10.5517735 19.0535395,10.5692065 19.0308098,10.6048833 C18.9435441,10.7378603 19.1119873,10.8761077 19.0730221,10.9839488 C19.0458276,11.0382748 18.9045789,11.0382748 18.8124425,11.0593565 C18.7669831,11.0747624 18.7669831,11.1513864 18.7702302,11.2113882 C18.7767244,11.2588221 18.8303015,11.25193 18.8611489,11.2717954 C18.95085,11.3589602 18.958156,11.5105865 19.0730221,11.5628853 C19.2126473,11.6273468 19.3819023,11.5839671 19.5495337,11.6273468 C19.6579056,11.6528881 19.7390831,11.7278904 19.7857601,11.8373532 C19.8133604,11.8961387 19.9006262,11.9277613 19.9054968,12.0193857 C19.9107734,12.0493866 19.9509562,12.0801984 19.994792,12.1012801 C20.0447162,12.1199293 20.1096581,12.0668196 20.1579587,12.0887121 C20.228989,12.1093885 20.200171,12.2034454 20.2176241,12.2602038 C20.2521245,12.3700721 20.1940827,12.4896703 20.3101664,12.5979168 C20.3535964,12.6356207 20.2651129,12.7491376 20.2151888,12.8119774 C20.1940827,12.8342754 20.1226465,12.8342754 20.1145288,12.867925 C20.0853049,12.9676578 20.1096581,13.0560388 20.1579587,13.1322574 C20.1940827,13.1772588 20.2509069,13.1322574 20.2651129,13.1646908 C20.3507551,13.2713157 20.3864732,13.3909139 20.4575035,13.4878087 C20.4883509,13.5251072 20.5228513,13.5737573 20.5650636,13.589974 C20.5127042,13.6001094 20.4980922,13.6645709 20.5127042,13.6864634 C20.5447692,13.7286269 20.6166113,13.754979 20.6543588,13.7160589 C20.7115889,13.6771388 20.7769367,13.6645709 20.833761,13.6110557 C20.8678555,13.5737573 20.9263033,13.5867307 20.9616154,13.5510539 C21.0017983,13.589974 21.0362987,13.6738955 21.0091043,13.7099776 C20.9230562,13.791872 20.768819,13.7359244 20.668159,13.7999804 C20.6003758,13.8307921 20.5338103,13.8129538 20.4980922,13.8680906 C20.4644036,13.9037673 20.4980922,13.9820129 20.5581635,13.9893105 C20.7769367,14.0359335 20.60687,14.3505377 20.5021511,14.5082452 C20.4753625,14.5443273 20.5021511,14.6031129 20.4883509,14.6712231 C20.4802332,14.6979807 20.4400503,14.7154136 20.416103,14.7154136 C20.2062593,14.7340628 19.994792,14.6602768 19.8052427,14.7287924 C19.7390831,14.7482525 19.7066121,14.839066 19.6753588,14.9165008 L19.7127004,14.9165008 C19.6579056,14.9213658 19.6579056,14.9805568 19.6445113,15.0133957 C19.6335524,15.0506941 19.638423,15.122453 19.6156933,15.1556973 C19.4310146,15.3584061 19.4054437,15.6142247 19.3725669,15.8485562 C19.3664786,15.9195043 19.4553679,15.9665327 19.505292,15.9665327 C19.5572456,15.9665327 19.6298994,15.9065309 19.6753588,15.9065309 C19.7711482,15.9195043 19.7467949,16.0650492 19.782513,16.1282944 C19.8226958,16.2008642 19.9635387,16.214243 19.9785565,16.1165373 C20.0025039,16.0362646 20.0025039,15.9389643 20.0288866,15.8663946 C20.0581104,15.7642293 19.9509562,15.6965245 19.9298501,15.6024676 C19.9054968,15.5148974 19.9509562,15.4374626 20.0025039,15.3790824 C20.0370043,15.3438111 20.0917991,15.3855691 20.1145288,15.4374626 C20.1336055,15.4885452 20.1336055,15.5603042 20.1547116,15.6207114 C20.1664823,15.6839566 20.1226465,15.7605805 20.1579587,15.8059873 C20.1940827,15.8485562 20.2151888,15.9065309 20.200171,15.9616677 C20.1940827,15.9876145 20.1579587,16.0115341 20.1392879,16.0459946 C20.1145288,16.1165373 20.1579587,16.214243 20.0986992,16.2397843 C20.0370043,16.288029 20.0447162,16.3760046 19.9700329,16.3824913 C19.8052427,16.3918159 19.6027049,16.3042457 19.6579056,16.1165373 C19.5901224,16.110456 19.5203098,16.110456 19.4906801,16.1704579 C19.4553679,16.2454601 19.4906801,16.3630313 19.4472501,16.4246548 C19.3859612,16.4992516 19.3449665,16.5795243 19.2755598,16.6569591 C19.253236,16.6735813 19.3076249,16.6861492 19.2869247,16.7104743 C19.1976295,16.8154775 19.0957518,16.8543976 18.986974,16.9358865 C18.9808857,16.9358865 18.9756092,16.9358865 18.9756092,16.9549412 C18.9045789,17.0035913 18.7844363,16.9257511 18.7572418,17.0108888 C18.7162472,17.1004861 18.8445076,17.1617042 18.8867198,17.2508961 C18.9131025,17.3108979 18.8964611,17.381846 18.8124425,17.3952248 C18.6910822,17.4240095 18.5855515,17.4061711 18.457697,17.3883327 C18.457697,17.4240095 18.425226,17.4175228 18.425226,17.4300907 C18.4045258,17.5375264 18.425226,17.6250967 18.3420192,17.7183427 C18.2904715,17.7860475 18.3700254,17.869969 18.4171083,17.9287545 C18.4690619,17.9997027 18.4917916,18.0970029 18.5583571,18.1132196 C18.6111224,18.1302472 18.6549582,18.1748431 18.7040706,18.1683564 C18.8055424,18.1424097 18.8806315,18.1043004 18.9208144,17.9944322 C18.9354263,17.9287545 19.0458276,18.0033514 19.1180756,17.9802426 C19.1359346,17.9741613 19.1736821,17.9607825 19.1874823,17.9518634 C19.242683,17.8865911 19.1736821,17.793345 19.2061531,17.7544249 C19.3157427,17.6250967 19.4423795,17.5180664 19.5901224,17.4240095 C19.638423,17.381846 19.7127004,17.340088 19.7857601,17.3656293 C19.8421784,17.381846 19.8912908,17.4175228 19.9509562,17.4422533 C20.0077804,17.4694163 20.052428,17.5079309 20.1096581,17.5407698 C20.1226465,17.5533377 20.1664823,17.5699599 20.1940827,17.5825278 C20.2910897,17.6250967 20.3507551,17.7442895 20.4575035,17.8055076 C20.4883509,17.8221297 20.4660271,17.7637495 20.4980922,17.7860475 C20.5021511,17.6895581 20.4802332,17.5938795 20.4351797,17.5375264 C20.3706436,17.4422533 20.2651129,17.3952248 20.1940827,17.3173846 C20.1664823,17.2946812 20.1664823,17.2269765 20.2062593,17.184813 C20.2151888,17.1669746 20.2509069,17.1669746 20.2521245,17.184813 C20.3101664,17.2363011 20.3669906,17.2363011 20.4270619,17.2658966 C20.5447692,17.3173846 20.5228513,17.4957684 20.6377174,17.5533377 C20.6994123,17.5857711 20.7318833,17.6765847 20.8045371,17.6895581 C20.8905852,17.7183427 21.0277751,17.6895581 21.0768874,17.5857711 C21.1138232,17.5245531 21.0427929,17.4888763 20.9985512,17.44874 C20.912909,17.381846 21.0427929,17.3530614 21.0845993,17.3015733 C21.1592825,17.211976 21.0845993,17.1349466 21.0768874,17.0494035 C21.0667402,17.0108888 21.0931229,16.9898071 21.1138232,16.9727795 C21.1138232,16.9727795 21.1203174,16.9614278 21.1312763,16.9549412 C21.1799828,16.8483163 21.1345234,16.731556 21.1759239,16.6289853 C21.1917535,16.6058765 21.2193538,16.608309 21.2193538,16.6152011 C21.2497954,16.6670946 21.3098667,16.7039876 21.3634438,16.6861492 C21.449086,16.6634458 21.5184927,16.6212824 21.5789699,16.544253 C21.6532473,16.4457365 21.8115433,16.4992516 21.8513203,16.5924977 C21.8683676,16.6634458 21.8440143,16.7611515 21.7892195,16.7806115 C21.5996702,16.8089908 21.449086,16.8766955 21.3098667,16.9727795 C21.2903841,16.9898071 21.2660309,17.0035913 21.254666,17.0258893 C21.1799828,17.0810261 21.1507589,17.1349466 21.1917535,17.2508961 C21.1998713,17.2946812 21.1414235,17.340088 21.0992112,17.381846 C21.1706474,17.4061711 21.1706474,17.4957684 21.236807,17.5079309 C21.3549202,17.5375264 21.463698,17.5407698 21.5481225,17.4596862 C21.5676051,17.4300907 21.5915525,17.3656293 21.5789699,17.3108979 C21.6548709,17.3015733 21.7068244,17.2298144 21.7892195,17.211976 C21.953198,17.184813 22.0485815,17.3656293 22.0051516,17.5079309 C21.9950044,17.5375264 21.953198,17.5375264 21.9402096,17.5472565 C21.8537556,17.6814497 21.7892195,17.8128051 21.6548709,17.869969 C21.449086,17.9741613 21.1998713,17.9518634 21.0164102,18.0568666 C20.9470035,18.1043004 20.9263033,18.2263312 20.822802,18.2563321 C20.7318833,18.27863 20.6166113,18.3317398 20.5228513,18.2563321 L20.5228513,18.2745759 C20.5228513,18.3447131 20.3101664,18.2980901 20.2062593,18.2563321 C20.1725706,18.2425479 20.1940827,18.1424097 20.1502468,18.1043004 C20.1145288,18.0807862 20.0447162,18.1132196 20.0288866,18.0742995 C20.0077804,18.0520015 20.0288866,17.9997027 20.0025039,17.9944322 C19.7601892,17.9518634 19.5345159,18.025244 19.2869247,17.9997027 C19.2215768,17.9944322 19.2288828,18.0807862 19.1736821,18.1201117 C19.1282228,18.1424097 19.0843869,18.1861948 19.0368981,18.2040332 C18.940297,18.2538996 18.8347663,18.3240368 18.7162472,18.2818734 C18.612746,18.3139014 18.518986,18.3268748 18.425226,18.3447131 C18.2713948,18.3743086 18.184129,18.5016098 18.0591158,18.5895854 C17.9604852,18.6556685 17.8468367,18.6666148 17.7384648,18.660939 C17.7072115,18.660939 17.723447,18.712427 17.6962526,18.712427 C17.529027,18.754185 17.3788487,18.9645968 17.2850888,19.1441969 C17.2558649,19.1924416 17.291583,19.261768 17.2615473,19.3039315 C17.1742816,19.439341 17.1308516,19.5727234 17.0111149,19.6842133 C16.9981265,19.6971867 16.9981265,19.7332689 17.0029971,19.7535398 C17.1361282,19.9384102 17.2944242,20.0612518 17.4308023,20.2493656 C17.4628674,20.3008537 17.529027,20.3008537 17.5501331,20.3474767 C17.6024926,20.4658587 17.67677,20.5720781 17.7384648,20.6831626 C17.8257306,20.8384376 18.0526216,20.9012773 18.2486651,20.8384376 C18.3196954,20.8177613 18.4045258,20.8862769 18.4690619,20.9012773 C18.6910822,20.9223591 18.9273086,20.9738471 19.1359346,20.8623572 C19.4472501,20.957225 19.7711482,20.8234371 20.052428,20.957225 C20.1096581,20.9738471 20.1096581,21.0776341 20.1502468,21.1453388 C20.2151888,21.267775 20.2910897,21.3914274 20.4092029,21.4802139 C20.5094571,21.5503511 20.6507058,21.5969742 20.7883016,21.607515 C20.8268609,21.607515 20.833761,21.7068424 20.8678555,21.7473841 C20.9084442,21.7988722 20.8905852,21.8827937 20.9388858,21.9221192 C21.0091043,21.9882023 21.0667402,22.0356362 21.0622755,22.1280714 C21.0622755,22.2423992 20.9263033,22.3396995 21.0091043,22.4864607 C21.0277751,22.5330837 20.9985512,22.6097077 21.0216868,22.6384923 C21.1998713,22.814849 21.3654733,22.979854 21.5805935,23.1367507 C21.5996702,23.1545891 21.6382295,23.1825629 21.621994,23.2259426 C21.7056068,23.248646 21.7149422,23.3309458 21.769737,23.3763526 C21.8115433,23.4290569 21.7892195,23.5105459 21.8318377,23.5632502 C21.9044915,23.6512258 21.9840454,23.7331202 22.0668464,23.8113658 C22.1768419,23.9098823 22.3270201,23.8871789 22.4564982,23.9151528 C22.4869397,23.933802 22.5230637,23.958127 22.5604053,23.9698841 C22.6829833,24.0088042 22.8165202,24.0213722 22.9232685,23.9370453 C22.9849634,23.8871789 23.0377287,23.7919058 23.0978,23.7566344 C23.1899364,23.6804159 23.3340264,23.6864972 23.4606632,23.6621721 C23.4862341,23.6597396 23.5243875,23.6447391 23.5402171,23.6123057 C23.5564526,23.5393305 23.6226122,23.5008158 23.6177416,23.4290569 C23.713531,23.4250027 23.7861848,23.3763526 23.8637093,23.3358108 C24.01957,23.2551327 24.1384949,23.098236 24.2833967,22.9725565 C24.4307337,22.8355253 24.6758896,22.8959326 24.7550376,22.7439009 C24.8341857,22.5910584 24.7237843,22.3847008 24.7935969,22.2095604 C24.8341857,22.1280714 24.8861392,22.031582 24.894257,21.9411738 C24.9056218,21.7891422 24.912116,21.6322455 24.9007512,21.4802139 C24.894257,21.3914274 24.8021206,21.3006138 24.8130795,21.2142598 C24.8199796,21.1518255 24.929975,21.1518255 24.9527047,21.0983104 C25.0079054,20.9738471 25.0578295,20.8441134 25.1223656,20.728164 C25.1321069,20.7050552 25.1779722,20.6937035 25.2149079,20.668973 C25.272138,20.629242 25.2226198,20.5664023 25.2343905,20.5055896 C25.1877134,20.4914 25.1662014,20.439912 25.1455012,20.4111273 C25.0143996,20.2266622 24.894257,20.0486839 24.6775132,19.959492 C24.6247478,19.9444915 24.620689,19.8865168 24.5947122,19.8431371 C24.5752296,19.8252987 24.602424,19.7681348 24.5825356,19.7470531 C24.5244937,19.7154305 24.5476293,19.6615099 24.5330173,19.6213736 L24.584565,19.6213736 C24.5825356,19.6193465 24.584565,19.6161031 24.584565,19.6161031 C24.5622412,19.6161031 24.5537176,19.5982648 24.5537176,19.5917781 C24.602424,19.4628552 24.6758896,19.3460949 24.7741143,19.261768 C24.8021206,19.2350105 24.8772097,19.2350105 24.8861392,19.2013608 C24.912116,19.0906818 24.9056218,18.9775702 24.8532624,18.8831079 C24.7741143,18.7472929 24.8443328,18.6135051 24.8216032,18.4853931 C24.8021206,18.2303853 24.8021206,17.9997027 24.6848192,17.7706416 C24.6612777,17.6992881 24.5947122,17.6461784 24.5058229,17.670098 C24.4619871,17.6765847 24.4668577,17.7345595 24.4408809,17.7706416 C24.4100335,17.8055076 24.4035393,17.8513198 24.3889273,17.9157812 C24.3536152,17.9997027 24.2383432,18.025244 24.2091193,18.1132196 C24.1945074,18.1683564 24.1803013,18.2202499 24.1571657,18.2563321 C24.116577,18.2980901 24.0796413,18.3560648 24.0244406,18.3657949 C23.9323042,18.3986337 23.8458502,18.41931 23.7585845,18.4371484 C23.6648245,18.4566084 23.5629468,18.4566084 23.4606632,18.4270129 C22.9309804,18.27863 22.4780102,18.0742995 21.9462979,17.9287545 C21.9402096,17.9287545 21.9402096,17.8930778 21.9462979,17.8865911 C22.0274754,17.8448331 22.1163647,17.9048349 22.2040363,17.8809153 C22.2637017,17.869969 22.1914538,17.7860475 22.2218953,17.7860475 C22.3335143,17.8128051 22.4224036,17.8865911 22.5315873,17.9287545 C22.7527959,18.0033514 22.9699455,18.025244 23.2049543,18.0742995 C23.3867917,18.1132196 23.5130227,18.2425479 23.6855248,18.2879547 C23.8332677,18.3317398 23.9286512,18.2202499 24.0435173,18.1748431 C24.0487938,18.1748431 24.0406761,18.1302472 24.0487938,18.1132196 C24.1007474,18.0195681 24.1945074,17.970918 24.2334725,17.8809153 C24.2594493,17.8188863 24.2188606,17.7183427 24.2594493,17.6461784 C24.2789319,17.6121233 24.3385973,17.5760411 24.3536152,17.5375264 C24.3824332,17.4240095 24.3645741,17.30806 24.3645741,17.1941376 C24.4307337,17.2014351 24.4790343,17.1296762 24.4619871,17.1004861 C24.4453457,17.0842694 24.4408809,17.0554848 24.4307337,17.039268 C24.4307337,16.9727795 24.4408809,16.9030477 24.455087,16.8333158 C24.4891815,16.6670946 24.4408809,16.5053329 24.372286,16.3630313 C24.3385973,16.288029 24.2383432,16.2693798 24.1600069,16.288029 C24.134436,16.3042457 24.1246948,16.3464091 24.1007474,16.3630313 C24.01957,16.3687071 23.9517868,16.4051947 23.9010509,16.4457365 C23.8332677,16.4992516 23.8365148,16.6152011 23.778067,16.6634458 C23.677407,16.7477727 23.5791823,16.8349375 23.4472689,16.8872364 C23.3632503,16.9257511 23.2406723,16.8766955 23.224031,16.8089908 C23.1436653,16.5924977 23.43631,16.6314178 23.5836471,16.5924977 C23.6047532,16.5795243 23.6392536,16.544253 23.6554891,16.5150629 C23.6960778,16.438439 23.713531,16.3289762 23.7959261,16.288029 C23.8499091,16.2693798 23.9128216,16.2693798 23.9668046,16.275461 C24.01957,16.288029 24.0601587,16.214243 24.116577,16.1814041 C24.1600069,16.1619441 24.1571657,16.0776172 24.1734012,16.0293725 C24.1989721,15.9422077 24.2984145,15.8951792 24.3385973,15.8193661 C24.4307337,15.6547665 24.4307337,15.4082725 24.5622412,15.2793497 C24.6531599,15.2075907 24.6064829,15.3977317 24.6397657,15.4374626 C24.6965899,15.5148974 24.8532624,15.5075999 24.9056218,15.450436 C24.9527047,15.4013804 24.9007512,15.2854309 24.9847698,15.2388079 C25.0217056,15.2302941 25.0655414,15.2302941 25.0967947,15.2388079 C25.1601131,15.2793497 25.2343905,15.3486761 25.2989266,15.3093506 C25.3447918,15.2793497 25.3930924,15.2144828 25.4405812,15.1982661 C25.5181057,15.1723194 25.6037479,15.1982661 25.6812723,15.164211 C25.8724452,15.0754246 26.2718383,15.1982661 26.2515439,15.0133957 C26.2170435,14.7154136 25.9743229,14.4794605 25.7125257,14.3404022 C25.5014643,14.240264 25.5810182,13.9475524 25.3930924,13.7841691 C25.3447918,13.7480869 25.369145,13.6738955 25.3285563,13.6260562 C25.3155679,13.6110557 25.2883735,13.5867307 25.2591496,13.5737573 C25.2311434,13.5510539 25.2007018,13.5251072 25.2007018,13.516188 C25.2311434,13.3613184 25.156866,13.2141518 25.2392611,13.0868506 C25.2810675,13.0236054 25.3740157,12.9931991 25.4292164,12.9481977 C25.495376,12.8922501 25.6163304,12.8504921 25.6163304,12.7633272 C25.6163304,12.6421073 25.6037479,12.510752 25.6268834,12.3846671 C25.635813,12.3429091 25.7125257,12.3068269 25.7547379,12.3068269 C25.9743229,12.303989 26.2109552,12.3611529 26.4118694,12.2293921 C26.4638229,12.1835799 26.4699113,12.1199293 26.5023822,12.0777659 C26.6602724,11.847894 26.89934,11.6695102 26.8895987,11.3715282 C26.884728,11.3188239 26.9687467,11.3038234 26.9902587,11.2409837 C27.0032471,11.2113882 27.0032471,11.1586839 26.9902587,11.1586839" id="Fill-102" fill="#FEFEFE" mask="url(#mask-2)"></path>
            <path d="M13,32.6810116 C14.1740662,30.9049561 17.7298097,29 21.2148696,29 C24.7175006,29 28.5020672,31.0681216 30,29.9732817 C30,29.9732817 28.4701198,31.3230675 25.3836035,31.3230675 C22.292295,31.3230675 21.1158327,29.7326127 18.9709655,29.7326127 C16.8260982,29.7326127 14.5538407,31.5090761 13.6085976,33 L13,32.6810116 Z" id="Fill-103" fill="#FEFEFE" mask="url(#mask-2)"></path>
            <path d="M25,28.4444304 C25,28.4444304 26.0319011,27.8676675 26.5678122,26.8030781 C27.1158206,25.7324335 28.5308034,24.0407468 29.9558672,23 C29.9558672,23 28.3529728,27.7480762 26.7041086,27.9592532 C26.7041086,27.9592532 26.4436131,28.1076069 26.9085533,28.0357008 C27.3751064,27.9592532 29.4864913,27.2318658 30.2377347,27.1100038 C30.9813164,26.9919263 32.81285,26.6021193 33.3052108,26.1430554 C33.7197455,25.756276 34,25.8107733 34,25.8107733 C34,25.8107733 31.962812,29 28.3005511,29 C28.3005511,29 26.498051,28.8554308 25,28.4444304" id="Fill-104" fill="#FEFEFE" mask="url(#mask-2)"></path>
            <path d="M30,27 C30,27 30.382518,26.366508 30.4607057,25.2782345 C30.5408982,24.2003462 31.1555734,21.7139766 32.9025662,19 C32.9025662,19 33.1567763,23.2890524 31.1764234,25.9208135 C31.1764234,25.9208135 31.0561347,26.3041973 31.3103448,26.0246646 C31.5701684,25.7477283 32.8159583,24.1211597 35.5184443,22.1488533 C35.5184443,22.1488533 36.9202085,20.906534 37,20.4950238 C37,20.4950238 35.9013633,26.5832973 30,27" id="Fill-105" fill="#FEFEFE" mask="url(#mask-2)"></path>
            <path d="M33.0659813,22.9977579 C33.0659813,22.9977579 33.192612,22.3414069 33.192612,21.7872374 C33.192612,21.2322439 33,19.3340588 33,18.4885898 C33,17.6439448 33.0659813,16.0679609 33.5941646,15 C33.5941646,15 33.5941646,15.9402341 33.7644496,16.3637926 C33.9360675,16.7791107 34.1276798,18.4663406 34.1276798,18.6731756 C34.1276798,18.8841308 34.0836922,20.3109628 33.7854436,21.0740274 C33.7854436,21.0740274 34.001049,20.9191072 34.2366488,20.3669978 C34.4692494,19.8045878 35.04242,18.7815374 35.9211704,17.7032759 C36.7935893,16.6246025 36.9838686,15.6246253 36.9838686,15.6246253 C36.9838686,15.6246253 37.1978079,17.5186901 36.0674622,19.5116402 C34.9371165,21.5280756 34.4692494,21.1762089 33.8520913,21.9961325 C33.8520913,21.9961325 33.1456253,23.0550289 33.0659813,22.9977579" id="Fill-106" fill="#FEFEFE" mask="url(#mask-2)"></path>
            <path d="M35.3169063,18 C35.3169063,18 35.2768637,16.9205317 35.0939664,16.5800899 C34.8991645,16.2308501 33.8025022,14.112078 34.031214,11.3958114 C34.031214,11.3958114 34.2126683,11.2255905 34.5593435,12.2790475 C34.8991645,13.3325045 35.393384,13.64464 35.549947,14.7011571 C35.7180538,15.7454337 35.7180538,16.1883906 35.7180538,16.1883906 C35.7180538,16.1883906 35.82772,16.3345128 35.82772,16.2140193 C35.82772,16.0874056 35.9456834,14.6736158 36.5015902,13.3810844 C37.051725,12.0851105 37.7883647,10.8595199 37.7219877,10 C37.7219877,10 38.0448538,10.0271588 37.9947103,11.4210577 C37.952864,12.8191642 37.6043851,15.2416563 35.3169063,18" id="Fill-107" fill="#FEFEFE" mask="url(#mask-2)"></path>
            <path d="M34.9659744,13 C34.9659744,13 34.574989,12.0546166 34.3038445,11.7365088 C34.0330535,11.4347907 32.1541317,8.54760907 32,7.235694 C32,7.235694 32.1541317,7.14592355 32.3365444,7.47632351 C32.5196642,7.81529078 33.4239505,8.75992923 33.5802033,8.90631839 C33.7428193,9.05159007 34.6909412,10.1232481 34.7800265,11.2634446 C34.7800265,11.2634446 34.8698188,11.3852493 34.6909412,9.47660288 C34.5117101,7.57466127 35.280601,6.34096941 34.6467521,5 C34.6467521,5 35.5301812,5.14415421 36,9.05159007 C36,9.05159007 35.9805568,10.434651 35.3014582,12.12539 C35.3014582,12.12539 35.0730888,13 34.9659744,13" id="Fill-108" fill="#FEFEFE" mask="url(#mask-2)"></path>
            <path d="M33.8416392,10 C33.8416392,10 33.1515888,9.14616894 32.5948949,8.747548 C32.0444522,8.3435178 30.3118597,6.29715271 30,4.70017238 C30,4.70017238 30.1128668,4.52166677 30.6653933,5.3938061 C31.0897725,6.0616418 31.5276958,5.73625394 32.7984025,7.65529335 C32.7984025,7.65529335 32.977253,8.08387327 33.0661573,8.0510016 C33.1515888,8.03227724 33.0199687,7.60161683 33.0199687,7.60161683 C33.0199687,7.60161683 32.772009,6.4094989 32.7511721,5.97509362 C32.7317243,5.55025857 32.2229554,3.29376449 32.0444522,3 C32.0444522,3 33.7513457,4.16715211 34,7.46596921 C34,7.46596921 33.9263761,9.86268799 33.8416392,10" id="Fill-109" fill="#FEFEFE" mask="url(#mask-2)"></path>
            <path d="M32.9994722,6 C32.9994722,6 33.1132464,3.34675873 30,2 C30,2 31.0779513,4.48331415 31.8863294,5.07096279 C32.6936825,5.66129651 32.9994722,6 32.9994722,6" id="Fill-110" fill="#FEFEFE" mask="url(#mask-2)"></path>
            <path d="M24,32.6810116 C22.8247781,30.9049561 19.2703705,29 15.7822289,29 C12.2888978,29 8.50216033,31.0681216 7,29.9732817 C7,29.9732817 8.53050298,31.3230675 11.6246419,31.3230675 C14.7084018,31.3230675 15.8908092,29.7326127 18.0332738,29.7326127 C20.170549,29.7326127 22.4371624,31.5090761 23.3856432,33 L24,32.6810116 Z" id="Fill-111" fill="#FEFEFE" mask="url(#mask-2)"></path>
            <path d="M12,28.4444304 C12,28.4444304 10.9678603,27.8676675 10.4191585,26.8030781 C9.88254252,25.7324335 8.4652641,24.0407468 7.04677708,23 C7.04677708,23 8.64131603,27.7480762 10.2974933,27.9592532 C10.2974933,27.9592532 10.554521,28.1076069 10.0916294,28.0357008 C9.62551477,27.9592532 7.51128021,27.2318658 6.76356312,27.1100038 C6.01745748,26.9919263 4.18804834,26.6021193 3.69695613,26.1430554 C3.28482543,25.756276 3,25.8107733 3,25.8107733 C3,25.8107733 5.03567592,29 8.69973142,29 C8.69973142,29 10.49812,28.8554308 12,28.4444304" id="Fill-112" fill="#FEFEFE" mask="url(#mask-2)"></path>
            <path d="M9,27 C9,27 8.61942137,26.366508 8.53921512,25.2782345 C8.46422229,24.2003462 7.84623317,21.7139766 6.10335148,19 C6.10335148,19 5.84588943,23.2890524 7.81775995,25.9208135 C7.81775995,25.9208135 7.95170438,26.3041973 7.69424234,26.0246646 C7.43758235,25.7477283 6.18195359,24.1211597 3.48181037,22.1488533 C3.48181037,22.1488533 2.07378975,20.906534 2,20.4950238 C2,20.4950238 3.10283586,26.5832973 9,27" id="Fill-113" fill="#FEFEFE" mask="url(#mask-2)"></path>
            <path d="M3.93604189,22.9977579 C3.93604189,22.9977579 3.8084588,22.3414069 3.8084588,21.7872374 C3.8084588,21.2322439 4,19.3340588 4,18.4885898 C4,17.6439448 3.93604189,16.0679609 3.40272456,15 C3.40272456,15 3.40272456,15.9402341 3.23450142,16.3637926 C3.06161467,16.7791107 2.86974035,18.4663406 2.86974035,18.6731756 C2.86974035,18.8841308 2.91104662,20.3109628 3.21151648,21.0740274 C3.21151648,21.0740274 3.00032148,20.9191072 2.75947924,20.3669978 C2.52596553,19.8045878 1.95134192,18.7815374 1.08091207,17.7032759 C0.212814033,16.6246025 0.0156098734,15.6246253 0.0156098734,15.6246253 C0.0156098734,15.6246253 -0.195252007,17.5186901 0.933008954,19.5116402 C2.06160303,21.5280756 2.52596553,21.1762089 3.14622591,21.9961325 C3.14622591,21.9961325 3.85109753,23.0550289 3.93604189,22.9977579" id="Fill-114" fill="#FEFEFE" mask="url(#mask-2)"></path>
            <path d="M2.67970434,18 C2.67970434,18 2.72688095,16.9205317 2.90946522,16.5800899 C3.09204949,16.2308501 4.20015956,14.112078 3.96823792,11.3958114 C3.96823792,11.3958114 3.78457327,11.2255905 3.43957182,12.2790475 C3.09204949,13.3325045 2.61452139,13.64464 2.44670232,14.7011571 C2.28572565,15.7454337 2.28572565,16.1883906 2.28572565,16.1883906 C2.28572565,16.1883906 2.17516673,16.3345128 2.17516673,16.2140193 C2.17516673,16.0874056 2.05272363,14.6736158 1.50533094,13.3810844 C0.955057236,12.0851105 0.212835963,10.8595199 0.28234043,10 C0.28234043,10 -0.042493917,10.0271588 0.00468268985,11.4210577 C0.0511390432,12.8191642 0.397220869,15.2416563 2.67970434,18" id="Fill-115" fill="#FEFEFE" mask="url(#mask-2)"></path>
            <path d="M2.03979529,13 C2.03979529,13 2.42380658,12.0546166 2.69699109,11.7365088 C2.97052854,11.4347907 4.83658343,8.54760907 5,7.235694 C5,7.235694 4.83658343,7.14592355 4.65798994,7.47632351 C4.47727874,7.81529078 3.57654637,8.75992923 3.41665931,8.90631839 C3.25606635,9.05159007 2.31403865,10.1232481 2.21556516,11.2634446 C2.21556516,11.2634446 2.1336804,11.3852493 2.31403865,9.47660288 C2.48874967,7.57466127 1.72778611,6.34096941 2.36062825,5 C2.36062825,5 1.47754346,5.14415421 1,9.05159007 C1,9.05159007 1.02400071,10.434651 1.70131474,12.12539 C1.70131474,12.12539 1.9296744,13 2.03979529,13" id="Fill-116" fill="#FEFEFE" mask="url(#mask-2)"></path>
            <path d="M3.1529238,10 C3.1529238,10 3.83934312,9.14616894 4.39716743,8.747548 C4.95360153,8.3435178 6.68268312,6.29715271 7,4.70017238 C7,4.70017238 6.8849596,4.52166677 6.33026327,5.3938061 C5.90868016,6.0616418 5.46068294,5.73625394 4.20010427,7.65529335 C4.20010427,7.65529335 4.02111391,8.08387327 3.93248762,8.0510016 C3.83934312,8.03227724 3.97558433,7.60161683 3.97558433,7.60161683 C3.97558433,7.60161683 4.22200017,6.4094989 4.24007299,5.97509362 C4.26092623,5.55025857 4.77565384,3.29376449 4.95360153,3 C4.95360153,3 3.23737944,4.16715211 3,7.46596921 C3,7.46596921 3.06290729,9.86268799 3.1529238,10" id="Fill-117" fill="#FEFEFE" mask="url(#mask-2)"></path>
            <path d="M4.00052827,6 C4.00052827,6 3.88671975,3.34675873 7,2 C7,2 5.92738891,4.48331415 5.11667455,5.07096279 C4.30698858,5.66129651 4.00052827,6 4.00052827,6" id="Fill-118" fill="#FEFEFE" mask="url(#mask-2)"></path>
        </g>
    </g>
</svg>