<svg width="20" height="480" xmlns="http://www.w3.org/2000/svg"><g fill="none" fill-rule="evenodd"><path d="M12.087 133.791a6.968 6.968 0 0 1-4.069 1.304c-3.875 0-7.018-3.155-7.018-7.047S4.143 121 8.018 121c3.876 0 7.019 3.156 7.019 7.048a7.037 7.037 0 0 1-2.056 4.983l4.952 4.972a.581.581 0 0 1-.007.823.576.576 0 0 1-.819.006l-5.021-5.042v.001zm-4.069.475c3.42 0 6.193-2.784 6.193-6.218 0-3.435-2.772-6.219-6.193-6.219-3.42 0-6.192 2.784-6.192 6.219 0 3.434 2.772 6.218 6.192 6.218z" fill="#5C6FA6" fill-rule="nonzero"/><path d="M10.494 389.986l4.419-4.438a.348.348 0 0 0 0-.462.356.356 0 0 0-.465 0l-4.419 4.38-4.477-4.38a.356.356 0 0 0-.465 0 .348.348 0 0 0 0 .462l4.419 4.438-4.419 4.438a.348.348 0 0 0 0 .46.442.442 0 0 0 .233.116c.116 0 .174-.058.232-.115l4.419-4.438 4.419 4.438a.442.442 0 0 0 .232.115c.116 0 .175-.058.233-.115a.348.348 0 0 0 0-.461l-4.36-4.438zM7.467 305a.42.42 0 0 1 .327.147l3.926 4.118c.187.196.28.44.28.735 0 .294-.093.54-.28.735l-3.926 4.118a.415.415 0 0 1-.327.147.415.415 0 0 1-.327-.147.455.455 0 0 1-.14-.343c0-.147.047-.245.14-.343l3.925-4.118v-.147l-3.925-4.069a.49.49 0 0 1 0-.686.42.42 0 0 1 .327-.147zM11.533 325a.42.42 0 0 0-.327.147l-3.926 4.118c-.187.196-.28.44-.28.735 0 .294.093.54.28.735l3.926 4.118a.415.415 0 0 0 .327.147c.14 0 .233-.049.327-.147a.455.455 0 0 0 .14-.343.455.455 0 0 0-.14-.343l-3.925-4.118v-.147l3.925-4.069a.49.49 0 0 0 0-.686.42.42 0 0 0-.327-.147zM5.5 347.967c0 .187.098.28.147.327l4.118 3.926c.196.187.44.28.735.28.294 0 .54-.093.735-.28l4.118-3.926a.415.415 0 0 0 .147-.327.415.415 0 0 0-.147-.327.455.455 0 0 0-.343-.14.455.455 0 0 0-.343.14l-4.118 3.925h-.147l-4.069-3.925a.49.49 0 0 0-.686 0 .42.42 0 0 0-.147.327zM5.5 372.033a.42.42 0 0 1 .147-.327l4.118-3.926c.196-.187.44-.28.735-.28.294 0 .54.093.735.28l4.118 3.926a.415.415 0 0 1 .147.327c0 .14-.049.233-.147.327a.455.455 0 0 1-.343.14.455.455 0 0 1-.343-.14l-4.118-3.925h-.147l-4.069 3.925a.49.49 0 0 1-.686 0 .42.42 0 0 1-.147-.327z" fill="#000" fill-rule="nonzero"/><g fill="#FFF" fill-rule="nonzero"><path d="M9.5 265c.2 0 .3.1.35.15l4.2 4.2c.2.2.3.45.3.75s-.1.55-.3.75l-4.2 4.2c-.1.1-.2.15-.35.15-.15 0-.25-.05-.35-.15-.1-.1-.15-.2-.15-.35 0-.15.05-.25.15-.35l4.2-4.2V270l-4.2-4.15c-.2-.2-.2-.5 0-.7.05-.05.15-.15.35-.15z"/><path d="M5.5 265c.2 0 .3.1.35.15l4.2 4.2c.2.2.3.45.3.75s-.1.55-.3.75l-4.2 4.2c-.1.1-.2.15-.35.15-.15 0-.25-.05-.35-.15-.1-.1-.15-.2-.15-.35 0-.15.05-.25.15-.35l4.2-4.2V270l-4.2-4.15c-.2-.2-.2-.5 0-.7.05-.05.15-.15.35-.15z"/></g><g fill="#FFF" fill-rule="nonzero"><path d="M13.85 245c-.2 0-.3.1-.35.15l-4.2 4.2c-.2.2-.3.45-.3.75s.1.55.3.75l4.2 4.2c.1.1.2.15.35.15.15 0 .25-.05.35-.15.1-.1.15-.2.15-.35 0-.15-.05-.25-.15-.35l-4.2-4.2V250l4.2-4.15c.2-.2.2-.5 0-.7a.457.457 0 0 0-.35-.15z"/><path d="M9.85 245c-.2 0-.3.1-.35.15l-4.2 4.2c-.2.2-.3.45-.3.75s.1.55.3.75l4.2 4.2c.1.1.2.15.35.15.15 0 .25-.05.35-.15.1-.1.15-.2.15-.35 0-.15-.05-.25-.15-.35l-4.2-4.2V250l4.2-4.15c.2-.2.2-.5 0-.7a.457.457 0 0 0-.35-.15z"/></g><path d="M7.467 225a.42.42 0 0 1 .327.147l3.926 4.118c.187.196.28.44.28.735 0 .294-.093.54-.28.735l-3.926 4.118a.415.415 0 0 1-.327.147.415.415 0 0 1-.327-.147.455.455 0 0 1-.14-.343c0-.147.047-.245.14-.343l3.925-4.118v-.147l-3.925-4.069a.49.49 0 0 1 0-.686.42.42 0 0 1 .327-.147zM11.533 205a.42.42 0 0 0-.327.147l-3.926 4.118c-.187.196-.28.44-.28.735 0 .294.093.54.28.735l3.926 4.118a.415.415 0 0 0 .327.147c.14 0 .233-.049.327-.147a.455.455 0 0 0 .14-.343.455.455 0 0 0-.14-.343l-3.925-4.118v-.147l3.925-4.069a.49.49 0 0 0 0-.686.42.42 0 0 0-.327-.147zM5.5 287.967c0 .187.098.28.147.327l4.118 3.926c.196.187.44.28.735.28.294 0 .54-.093.735-.28l4.118-3.926a.415.415 0 0 0 .147-.327.415.415 0 0 0-.147-.327.455.455 0 0 0-.343-.14.455.455 0 0 0-.343.14l-4.118 3.925h-.147l-4.069-3.925a.49.49 0 0 0-.686 0 .42.42 0 0 0-.147.327zM10.068 141.85c1.97 0 3.534 1.772 3.534 3.898 0 1.346-.612 2.48-1.495 3.189-.272.213-.204.638.068.709 2.107.637 3.806 2.622 4.077 5.102v2.764c.068.354-.271.708-.611.708H4.495c-.408 0-.68-.283-.612-.708v-2.764c.272-2.48 1.903-4.394 4.078-5.102.272-.071.34-.496.068-.709-.883-.709-1.495-1.843-1.495-3.189 0-2.126 1.563-3.898 3.534-3.898zm0-.85c-2.379 0-4.35 2.126-4.35 4.748 0 1.276.476 2.48 1.224 3.33-2.107.993-3.602 3.048-3.942 5.528v2.835c0 .354.068.78.34 1.063.272.354.68.496 1.087.496h11.146c.408 0 .815-.213 1.087-.496.272-.284.34-.709.34-1.063v-2.835c-.272-2.48-1.767-4.606-3.942-5.527.816-.85 1.224-2.055 1.224-3.331.135-2.622-1.835-4.748-4.214-4.748z" fill="#FFF" fill-rule="nonzero"/><path d="M5.872 58h9.263a.853.853 0 0 0 .865-.848V40.84c0-.465-.386-.84-.872-.84H5.865a.842.842 0 0 0-.865.84v16.32c0 .465.386.84.872.84zM5.58 40.833c0-.15.131-.278.293-.278h9.263c.155 0 .286.128.286.285v16.32c0 .15-.131.277-.293.277H5.865a.287.287 0 0 1-.286-.285V40.833zm.872 14.353h8.105a.287.287 0 0 0 .286-.285v-11.81c0-.15-.131-.277-.293-.277H6.45a.287.287 0 0 0-.285.285v11.817c0 .15.13.278.293.278l-.008-.008zm.286-11.817h7.526v11.255H6.737V43.369zm3.474 12.943a.58.58 0 0 0 1.157 0 .58.58 0 0 0-1.157 0zm-.873-14.068h2.316a.294.294 0 0 0 .293-.286c0-.15-.13-.277-.293-.277H9.338a.287.287 0 0 0-.285.285c0 .15.13.278.293.278h-.008zM16.893 35.719c.527 0 .865-.353.865-.875V23.23c0-.13-.097-.23-.225-.23-.113 0-.211.1-.211.23v11.614c0 .384-.271.438-.429.438-.045 0-.429 0-.429-.43V23.23c0-.13-.098-.23-.226-.23-.105 0-.203.1-.203.23v11.614c0 .576.437.875.866.875h-.008zM2.911 32.205h4.312c.113 0 .21-.092.21-.214V28.04a.22.22 0 0 0-.225-.215H2.934c-.128 0-.226.092-.226.207v3.951c0 .123.098.23.226.23l-.023-.008zm.226-3.943h3.86v3.506H3.13v-3.506h.007zm-.226-1.764h10.332c.113 0 .211-.077.211-.207v-1.757c0-.122-.098-.215-.226-.215H2.934c-.128 0-.226.093-.226.215V26.3c0 .115.098.207.226.207l-.023-.008zm.226-1.741h9.88v1.311h-9.88v-1.311zm10.099 3.068H8.93c-.12 0-.225.092-.225.207 0 .123.105.23.225.23h4.29a.229.229 0 0 0 .225-.23.22.22 0 0 0-.225-.214l.015.007zm0 1.304H8.93c-.12 0-.225.1-.225.23 0 .116.105.215.225.215h4.29c.128 0 .225-.1.225-.23a.22.22 0 0 0-.225-.215h.015zm0 1.32H8.93c-.12 0-.225.1-.225.215 0 .122.105.23.225.23h4.29a.229.229 0 0 0 .225-.23.22.22 0 0 0-.225-.215h.015zm0 1.304H8.93a.234.234 0 0 0-.225.23c0 .123.105.23.225.23h4.29a.229.229 0 0 0 .225-.23.229.229 0 0 0-.225-.23h.015zm0 1.327H8.93c-.12 0-.225.1-.225.215 0 .123.105.23.225.23h4.29a.229.229 0 0 0 .225-.23.22.22 0 0 0-.225-.215h.015zm-10.332.437h4.32c.112 0 .21-.1.21-.23 0-.107-.098-.207-.226-.207H2.934a.22.22 0 0 0-.226.215c0 .123.098.23.226.23l-.03-.008zm10.324.875H8.924c-.12 0-.226.1-.226.23 0 .115.106.215.226.215h4.29c.127 0 .225-.1.225-.23a.22.22 0 0 0-.226-.215h.015zm-10.332.445h4.327c.113 0 .21-.1.21-.23a.22.22 0 0 0-.225-.215H2.934c-.128 0-.226.1-.226.23a.22.22 0 0 0 .226.215h-.038zM3.122 37h13.771C18.059 37 19 36.026 19 34.837V23.23c0-.123-.075-.207-.188-.207-.105 0-.188.077-.188.2v11.614c0 .974-.783 1.764-1.746 1.764s-1.746-.79-1.746-1.764V23.23c0-.123-.075-.207-.188-.207H1.188c-.105 0-.188.077-.188.2v11.614C1 36.026 1.956 37 3.13 37h-.008zM1.376 23.414h13.38v11.43c0 .13.015.261.037.384l.016.077c.022.122.06.245.105.36 0 .023.015.046.022.062.046.107.106.214.166.306 0 .016 0 .023.015.039l.226.276.052.054c.076.076.151.153.249.214H3.13c-.964 0-1.746-.797-1.746-1.764V23.414h-.008zM11.753.563c.15 0 .277-.128.277-.285A.283.283 0 0 0 11.746 0H6.709a.29.29 0 0 0-.284.285c0 .15.127.278.284.278h5.044zM2.48 15.546c-.598.848-.523 1.403-.374 1.726.18.33.628.727 1.794.727h11.21c1.158 0 1.606-.398 1.778-.735.165-.315.224-.87-.358-1.703L13.046 9.96l-.052-.075c-.262-.352-1.532-2.55-1.532-4.402V1.425a.29.29 0 0 0-.284-.285H7.262a.283.283 0 0 0-.277.285v4.05c0 1.973-1.382 4.485-1.397 4.515l-3.094 5.55-.015.008zm13.9 1.463c-.134.27-.598.427-1.27.427H3.899c-.673 0-1.144-.15-1.286-.427-.12-.255 0-.66.36-1.163l2.794-5.024c.523.284 1.046.6 2.093.6 1.046 0 1.569-.316 2.092-.6.449-.278.897-.526 1.794-.526.344 0 .635.038.911.113l3.408 5.46c.337.48.449.885.33 1.14h-.016zM7.546 5.475v-3.78h3.363v3.78c0 1.605.852 3.405 1.345 4.275-.15 0-.329-.023-.508-.023-1.047 0-1.57.3-2.078.6-.47.27-.912.525-1.808.525-.897 0-1.346-.255-1.794-.524h-.022l.022-.053c0-.023 1.472-2.625 1.472-4.8h.008z" fill="#07719B" fill-rule="nonzero"/><path d="M5.872 119h9.263a.853.853 0 0 0 .865-.848V101.84c0-.465-.386-.84-.872-.84H5.865a.842.842 0 0 0-.865.84v16.32c0 .465.386.84.872.84zm-.293-17.167c0-.15.131-.278.293-.278h9.263c.155 0 .286.128.286.285v16.32c0 .15-.131.277-.293.277H5.865a.287.287 0 0 1-.286-.285V101.833zm.872 14.353h8.105a.287.287 0 0 0 .286-.285v-11.81c0-.15-.131-.277-.293-.277H6.45a.287.287 0 0 0-.285.285v11.817c0 .15.13.278.293.278l-.008-.008zm.286-11.817h7.526v11.255H6.737v-11.255zm3.474 12.943a.58.58 0 0 0 1.157 0 .58.58 0 0 0-1.157 0zm-.873-14.068h2.316a.294.294 0 0 0 .293-.286c0-.15-.13-.277-.293-.277H9.338a.287.287 0 0 0-.285.285c0 .15.13.278.293.278h-.008zM16.893 95.719c.527 0 .865-.353.865-.875V83.23c0-.13-.097-.23-.225-.23-.113 0-.211.1-.211.23v11.614c0 .384-.271.438-.429.438-.045 0-.429 0-.429-.43V83.23c0-.13-.098-.23-.226-.23-.105 0-.203.1-.203.23v11.614c0 .576.437.875.866.875h-.008zM2.911 92.205h4.312c.113 0 .21-.092.21-.214V88.04a.22.22 0 0 0-.225-.215H2.934c-.128 0-.226.092-.226.207v3.951c0 .123.098.23.226.23l-.023-.008zm.226-3.943h3.86v3.506H3.13v-3.506h.007zm-.226-1.764h10.332c.113 0 .211-.077.211-.207v-1.757c0-.122-.098-.215-.226-.215H2.934c-.128 0-.226.093-.226.215V86.3c0 .115.098.207.226.207l-.023-.008zm.226-1.741h9.88v1.311h-9.88v-1.311zm10.099 3.068H8.93c-.12 0-.225.092-.225.207 0 .123.105.23.225.23h4.29a.229.229 0 0 0 .225-.23.22.22 0 0 0-.225-.214l.015.007zm0 1.304H8.93c-.12 0-.225.1-.225.23 0 .116.105.215.225.215h4.29c.128 0 .225-.1.225-.23a.22.22 0 0 0-.225-.215h.015zm0 1.32H8.93c-.12 0-.225.1-.225.215 0 .122.105.23.225.23h4.29a.229.229 0 0 0 .225-.23.22.22 0 0 0-.225-.215h.015zm0 1.304H8.93a.234.234 0 0 0-.225.23c0 .123.105.23.225.23h4.29a.229.229 0 0 0 .225-.23.229.229 0 0 0-.225-.23h.015zm0 1.327H8.93c-.12 0-.225.1-.225.215 0 .123.105.23.225.23h4.29a.229.229 0 0 0 .225-.23.22.22 0 0 0-.225-.215h.015zm-10.332.437h4.32c.112 0 .21-.1.21-.23 0-.107-.098-.207-.226-.207H2.934a.22.22 0 0 0-.226.215c0 .123.098.23.226.23l-.03-.008zm10.324.875H8.924c-.12 0-.226.1-.226.23 0 .115.106.215.226.215h4.29c.127 0 .225-.1.225-.23a.22.22 0 0 0-.226-.215h.015zm-10.332.445h4.327c.113 0 .21-.1.21-.23a.22.22 0 0 0-.225-.215H2.934c-.128 0-.226.1-.226.23a.22.22 0 0 0 .226.215h-.038zM3.122 97h13.771C18.059 97 19 96.026 19 94.837V83.23c0-.123-.075-.207-.188-.207-.105 0-.188.077-.188.2v11.614c0 .974-.783 1.764-1.746 1.764s-1.746-.79-1.746-1.764V83.23c0-.123-.075-.207-.188-.207H1.188c-.105 0-.188.077-.188.2v11.614C1 96.026 1.956 97 3.13 97h-.008zM1.376 83.414h13.38v11.43c0 .13.015.261.037.384l.016.077c.022.122.06.245.105.36 0 .023.015.046.022.062.046.107.106.214.166.306 0 .016 0 .023.015.039l.226.276.052.054c.076.076.151.153.249.214H3.13c-.964 0-1.746-.797-1.746-1.764V83.414h-.008zM11.753 61.563c.15 0 .277-.128.277-.285a.283.283 0 0 0-.284-.278H6.709a.29.29 0 0 0-.284.285c0 .15.127.278.284.278h5.044zM2.48 76.546c-.598.848-.523 1.403-.374 1.725.18.33.628.728 1.794.728h11.21c1.158 0 1.606-.397 1.778-.735.165-.315.224-.87-.358-1.703l-3.483-5.602-.052-.075c-.262-.353-1.532-2.55-1.532-4.403v-4.057a.29.29 0 0 0-.284-.285H7.262a.283.283 0 0 0-.277.285v4.05c0 1.973-1.382 4.485-1.397 4.515l-3.094 5.55-.015.007zm13.9 1.463c-.134.27-.598.427-1.27.427H3.899c-.673 0-1.144-.15-1.286-.427-.12-.255 0-.66.36-1.163l2.794-5.024c.523.285 1.046.6 2.093.6 1.046 0 1.569-.316 2.092-.6.449-.278.897-.525 1.794-.525.344 0 .635.037.911.112l3.408 5.46c.337.48.449.885.33 1.14h-.016zM7.546 66.475v-3.78h3.363v3.78c0 1.605.852 3.405 1.345 4.275-.15 0-.329-.022-.508-.022-1.047 0-1.57.3-2.078.6-.47.27-.912.525-1.808.525-.897 0-1.346-.255-1.794-.525h-.022l.022-.053c0-.023 1.472-2.625 1.472-4.8h.008z" fill="#FFF" fill-rule="nonzero"/><path fill="#07719B" d="M20 170l-5 5v-10z"/><path d="M10.36 193.96v-5.04H8.2v.72h1.44v4.32H8.2v.72h3.6v-.72h-1.44zM10 199a9 9 0 0 1-9-9 9 9 0 0 1 9-9 9 9 0 0 1 9 9 9 9 0 0 1-9 9zm8.28-9a8.28 8.28 0 1 0-16.56 0 8.28 8.28 0 0 0 16.56 0zm-7.2-3.6a1.08 1.08 0 1 0-2.16 0 1.08 1.08 0 0 0 2.16 0z" fill="#FFF" fill-rule="nonzero"/><path d="M10.36 453.96v-5.04H8.2v.72h1.44v4.32H8.2v.72h3.6v-.72h-1.44zM10 459a9 9 0 0 1-9-9 9 9 0 0 1 9-9 9 9 0 0 1 9 9 9 9 0 0 1-9 9zm8.28-9a8.28 8.28 0 1 0-16.56 0 8.28 8.28 0 0 0 16.56 0zm-7.2-3.6a1.08 1.08 0 1 0-2.16 0 1.08 1.08 0 0 0 2.16 0z" fill="#000" fill-rule="nonzero"/><path d="M12.756 409.373a2.887 2.887 0 0 0 .876-2.01 3.585 3.585 0 1 0-7.17-.125l1.77.03c.017-.974.88-1.8 1.847-1.782.975.017 1.8.879 1.783 1.846-.01.51-.226.926-.57 1.265l-1.122 1.106c-.649.664-1.077 1.556-1.094 2.516l-.008.465 1.762.03c.024-1.349.46-1.844 1.094-2.508l.825-.833h.007zm-1.98 6.926l.03-1.77-1.77-.03-.03 1.77 1.77.03zm-.62-15.283a8.962 8.962 0 0 1 8.828 9.14 8.962 8.962 0 0 1-9.14 8.828 8.962 8.962 0 0 1-8.828-9.14 8.962 8.962 0 0 1 9.14-8.828z" fill="#FFF" fill-rule="nonzero"/><g fill="#5C6FA6" fill-rule="nonzero"><path d="M.615 423.615h18.847v1.077H.615v-1.077zM.615 429.385h18.847v1.077H.615v-1.077zM.615 435.154h18.847v1.077H.615z"/></g><path d="M16.188 463l-8.438 8.438-3.938-3.938L1 470.313l6.75 6.75L19 465.813z" fill="#000" fill-rule="nonzero"/></g></svg>
