<?xml version="1.0" encoding="UTF-8"?>
<svg width="145px" height="38px" viewBox="0 0 145 38" version="1.1" xmlns="http://www.w3.org/2000/svg" xmlns:xlink="http://www.w3.org/1999/xlink">
    <!-- Generator: Sketch 42 (36781) - http://www.bohemiancoding.com/sketch -->
    <title>Reliefweb logo_final-03</title>
    <desc>Created with Sketch.</desc>
    <defs>
        <linearGradient x1="0.0142576976%" y1="50.1154831%" x2="99.9897154%" y2="50.1154831%" id="linearGradient-1">
            <stop stop-color="#EB5C6D" offset="0%"></stop>
            <stop stop-color="#C8738B" offset="24.29%"></stop>
            <stop stop-color="#9D81A6" offset="49.99%"></stop>
            <stop stop-color="#7386B9" offset="72.11%"></stop>
            <stop stop-color="#4F88C4" offset="89.49%"></stop>
            <stop stop-color="#3D88C7" offset="100%"></stop>
        </linearGradient>
    </defs>
    <g id="Page-1" stroke="none" stroke-width="1" fill="none" fill-rule="evenodd">
        <g id="Reliefweb-logo_final-03" fill-rule="nonzero">
            <g id="Group">
                <g id="Shape" fill="#5E5E5E">
                    <path d="M8.86666667,7.63518519 C6.96666667,7.63518519 5.98148148,8.90185185 5.27777778,10.1333333 C5.06666667,9.32407407 5.03148148,7.98703704 3.97592593,7.98703704 C3.16666667,7.98703704 0.281481481,8.23333333 0.281481481,9.04259259 C0.281481481,9.71111111 0.668518519,10.3796296 0.668518519,13.687037 L0.668518519,24.1018519 C0.668518519,24.8055556 1.26666667,25.1574074 2.63888889,25.1574074 L3.5537037,25.1574074 C4.92592593,25.1574074 5.52407407,24.8055556 5.52407407,24.1018519 L5.52407407,13.5462963 C5.91111111,12.8777778 6.79074074,11.8925926 8.16296296,11.8925926 C8.83148148,11.8925926 9.2537037,12.1388889 9.71111111,12.1388889 C10.3796296,12.1388889 10.7314815,9.99259259 10.7314815,9.35925926 C10.7314815,8.76111111 10.4851852,7.63518519 8.86666667,7.63518519 Z"></path>
                    <path d="M26.6351852,16.1148148 C26.6351852,11.5407407 24.7,7.63518519 19.5277778,7.63518519 C14.812963,7.63518519 11.5407407,10.1333333 11.5407407,16.6074074 C11.5407407,21.9203704 14.1796296,25.3685185 20.1259259,25.3685185 C21.9555556,25.3685185 26.037037,24.6296296 26.037037,23.0111111 C26.037037,22.3425926 25.0518519,20.512963 24.312963,20.512963 C23.8555556,20.512963 22.412963,21.5333333 20.337037,21.5333333 C18.1907407,21.5333333 16.7833333,20.7240741 16.537037,18.0851852 L24.9814815,18.0851852 C25.4037037,18.05 26.6351852,16.6777778 26.6351852,16.1148148 Z M16.5722222,14.812963 C16.9592593,12.2796296 18.1555556,11.5055556 19.5277778,11.5055556 C21.1814815,11.5055556 21.8851852,12.912963 21.8851852,14.812963 L16.5722222,14.812963 Z"></path>
                    <path d="M36.4166667,21.3925926 C36.2055556,21.3925926 35.8185185,21.5333333 35.537037,21.5333333 C34.6925926,21.5333333 34.3407407,21.1111111 34.3407407,20.1259259 L34.3407407,1.33703704 C34.3407407,0.633333333 33.7425926,0.281481481 32.3703704,0.281481481 L31.4555556,0.281481481 C30.0833333,0.281481481 29.4851852,0.633333333 29.4851852,1.33703704 L29.4851852,20.0203704 C29.4851852,23.6796296 31.2092593,25.3333333 34.2703704,25.3333333 C35.2907407,25.3333333 37.437037,25.2277778 37.437037,23.7148148 C37.437037,23.4685185 37.05,21.3925926 36.4166667,21.3925926 Z"></path>
                    <path d="M42.5740741,7.81111111 L41.6592593,7.81111111 C40.287037,7.81111111 39.6888889,8.16296296 39.6888889,8.86666667 L39.6888889,24.1018519 C39.6888889,24.8055556 40.287037,25.1574074 41.6592593,25.1574074 L42.5740741,25.1574074 C43.9462963,25.1574074 44.5444444,24.8055556 44.5444444,24.1018519 L44.5444444,8.86666667 C44.5796296,8.19814815 43.9814815,7.81111111 42.5740741,7.81111111 Z"></path>
                    <path d="M42.5740741,0.281481481 L41.6592593,0.281481481 C40.287037,0.281481481 39.6888889,0.633333333 39.6888889,1.33703704 L39.6888889,4.01111111 C39.6888889,4.71481481 40.287037,5.06666667 41.6592593,5.06666667 L42.5740741,5.06666667 C43.9462963,5.06666667 44.5444444,4.71481481 44.5444444,4.01111111 L44.5444444,1.33703704 C44.5796296,0.668518519 43.9814815,0.281481481 42.5740741,0.281481481 Z"></path>
                    <path d="M62.9814815,16.1148148 C62.9814815,11.5407407 61.0462963,7.63518519 55.8740741,7.63518519 C51.1592593,7.63518519 47.887037,10.1333333 47.887037,16.6074074 C47.887037,21.9203704 50.5259259,25.3685185 56.4722222,25.3685185 C58.3018519,25.3685185 62.3833333,24.6296296 62.3833333,23.0111111 C62.3833333,22.3425926 61.3981481,20.512963 60.6592593,20.512963 C60.2018519,20.512963 58.7592593,21.5333333 56.6833333,21.5333333 C54.537037,21.5333333 53.1296296,20.7240741 52.8833333,18.0851852 L61.2574074,18.0851852 C61.75,18.05 62.9814815,16.6777778 62.9814815,16.1148148 Z M52.9185185,14.812963 C53.3055556,12.2796296 54.5018519,11.5055556 55.8740741,11.5055556 C57.5277778,11.5055556 58.2314815,12.912963 58.2314815,14.812963 L52.9185185,14.812963 Z"></path>
                    <path d="M98.6592593,7.81111111 L98.5185185,7.81111111 C97.462963,7.81111111 96.8296296,8.05740741 96.7240741,8.51481481 L94.05,18.6481481 L91.6222222,8.51481481 C91.5166667,8.05740741 90.7425926,7.81111111 89.8277778,7.81111111 L89.0185185,7.81111111 C87.962963,7.81111111 87.2944444,8.05740741 87.2240741,8.51481481 L84.6907407,18.6481481 L82.087037,8.51481481 C82.0518519,8.40925926 81.9814815,8.3037037 81.8759259,8.23333333 C81.7,8.02222222 81.4888889,7.91666667 81.1722222,7.91666667 L80.6444444,7.91666667 L80.2222222,7.91666667 L71.2148148,7.91666667 L71.2148148,5.38333333 C71.2148148,4.39814815 71.5314815,3.97592593 72.4111111,3.97592593 C72.7277778,3.97592593 73.1851852,4.11666667 73.4314815,4.11666667 C74.1,4.11666667 74.4518519,2.00555556 74.4518519,1.75925926 C74.4518519,0.246296296 72.2,0.140740741 71.1796296,0.140740741 C68.0833333,0.140740741 66.3944444,1.82962963 66.3944444,5.4537037 L66.3944444,7.91666667 L65.7962963,7.91666667 C65.0925926,7.91666667 64.8111111,8.40925926 64.8111111,9.57037037 L64.8111111,10.1333333 C64.8111111,11.2944444 65.0925926,11.787037 65.7962963,11.787037 L66.3944444,11.787037 L66.3944444,24.137037 C66.3944444,24.8407407 66.9925926,25.1925926 68.3648148,25.1925926 L69.2796296,25.1925926 C70.6518519,25.1925926 71.25,24.8407407 71.25,24.137037 L71.25,11.7518519 L78.287037,11.7518519 L81.7351852,24.4888889 C81.8759259,24.9462963 82.4740741,25.1925926 83.5296296,25.1925926 L85.1481481,25.1925926 C86.062963,25.1925926 86.8722222,24.9462963 86.9425926,24.4888889 L89.1944444,15.2351852 L91.5518519,24.4888889 C91.6925926,24.9462963 92.2907407,25.1925926 93.3462963,25.1925926 L94.9648148,25.1925926 C95.8796296,25.1925926 96.6537037,24.9462963 96.7592593,24.4888889 L100.62963,9.18333333 C100.664815,8.97222222 100.7,8.83148148 100.7,8.69074074 C100.7,8.16296296 100.066667,7.81111111 98.6592593,7.81111111 Z"></path>
                    <path d="M117.412963,16.1148148 C117.412963,11.5407407 115.477778,7.63518519 110.305556,7.63518519 C105.590741,7.63518519 102.318519,10.1333333 102.318519,16.6074074 C102.318519,21.9203704 104.957407,25.3685185 110.903704,25.3685185 C112.733333,25.3685185 116.814815,24.6296296 116.814815,23.0111111 C116.814815,22.3425926 115.82963,20.512963 115.090741,20.512963 C114.633333,20.512963 113.190741,21.5333333 111.114815,21.5333333 C108.968519,21.5333333 107.561111,20.7240741 107.314815,18.0851852 L115.688889,18.0851852 C116.181481,18.05 117.412963,16.6777778 117.412963,16.1148148 Z M107.35,14.812963 C107.737037,12.2796296 108.933333,11.5055556 110.305556,11.5055556 C111.959259,11.5055556 112.662963,12.912963 112.662963,14.812963 L107.35,14.812963 Z"></path>
                    <path d="M128.566667,7.63518519 C127.018519,7.63518519 125.892593,8.16296296 125.224074,8.65555556 L125.224074,1.33703704 C125.224074,0.633333333 124.625926,0.281481481 123.253704,0.281481481 L122.338889,0.281481481 C120.966667,0.281481481 120.368519,0.633333333 120.368519,1.33703704 L120.368519,24.1018519 C120.368519,24.8055556 120.966667,25.1574074 122.338889,25.1574074 L122.725926,25.1574074 C123.781481,25.1574074 124.485185,25.0166667 124.625926,24.312963 L124.942593,22.9055556 C125.681481,24.312963 127.3,25.3685185 129.340741,25.3685185 C132.894444,25.3685185 135.498148,22.2018519 135.498148,16.5018519 C135.498148,11.1185185 133,7.63518519 128.566667,7.63518519 Z M127.898148,21.3925926 C126.631481,21.3925926 125.787037,20.4777778 125.188889,19.4574074 L125.188889,12.1037037 C125.716667,11.8222222 126.455556,11.4703704 127.475926,11.4703704 C129.551852,11.4703704 130.537037,13.1944444 130.537037,16.4666667 C130.572222,19.6685185 129.692593,21.3925926 127.898148,21.3925926 Z"></path>
                </g>
                <path d="M144.364815,16.537037 C143.942593,13.2296296 139.861111,10.6962963 137.327778,10.3444444 C138.242593,11.0481481 139.227778,11.6462963 140.072222,12.4555556 C141.47963,13.7925926 142.112963,15.4462963 141.62037,17.3814815 C141.162963,19.2462963 139.966667,20.7240741 138.594444,22.0259259 C135.392593,25.0518519 131.557407,27.0222222 127.546296,28.6759259 C120.298148,31.6314815 112.733333,33.2851852 104.922222,33.9888889 C99.7851852,34.4462963 94.6833333,34.3759259 89.6518519,33.4611111 C86.7666667,32.9333333 83.987037,32.1592593 81.5592593,30.4351852 C79.0962963,28.7111111 78.3222222,26.5648148 79.1314815,24.0666667 L78.0759259,20.2314815 C78.0759259,20.2314815 78.0759259,20.2314815 78.0407407,20.1962963 C76.95,21.0055556 74.8388889,22.7648148 73.5722222,25.1925926 C71.9888889,28.1833333 72.587037,31.0333333 75.2259259,33.1796296 C77.6185185,35.15 80.4685185,36.1 83.4240741,36.7333333 C89.7222222,38.1407407 96.0907407,38.1055556 102.459259,37.5425926 C109.355556,36.9444444 116.111111,35.6074074 122.655556,33.4611111 C128.109259,31.7018519 133.351852,29.5203704 138.066667,26.1777778 C140.037037,24.7703704 141.866667,23.187037 143.133333,21.1111111 C144.083333,19.7740741 144.575926,18.2611111 144.364815,16.537037 Z" id="Shape" fill="url(#linearGradient-1)"></path>
            </g>
        </g>
    </g>
</svg>