<?xml version="1.0" encoding="UTF-8"?>
<svg width="100px" height="100px" viewBox="0 0 100 100" version="1.1" xmlns="http://www.w3.org/2000/svg" xmlns:xlink="http://www.w3.org/1999/xlink">
    <!-- Generator: Sketch 42 (36781) - http://www.bohemiancoding.com/sketch -->
    <title>A4</title>
    <desc>Created with Sketch.</desc>
    <defs>
        <linearGradient x1="0.0142576976%" y1="50.1154831%" x2="99.9897154%" y2="50.1154831%" id="linearGradient-1">
            <stop stop-color="#EB5C6D" offset="0%"></stop>
            <stop stop-color="#C8738B" offset="24.29%"></stop>
            <stop stop-color="#9D81A6" offset="49.99%"></stop>
            <stop stop-color="#7386B9" offset="72.11%"></stop>
            <stop stop-color="#4F88C4" offset="89.49%"></stop>
            <stop stop-color="#3D88C7" offset="100%"></stop>
        </linearGradient>
    </defs>
    <g id="Page-1" stroke="none" stroke-width="1" fill="none" fill-rule="evenodd">
        <g id="A4" fill-rule="nonzero">
            <g id="rw-logo-mobile" transform="translate(0.000000, 21.000000)">
                <g id="Artboard" transform="translate(-0.000000, 0.000000)">
                    <g id="Page-1">
                        <g id="Artboard">
                            <g id="logo">
                                <path d="M30.4026733,0 C26.2522974,0 24.1002506,2.76257156 22.5630743,5.44840503 C22.1019215,3.68342875 22.0250627,0.76738099 19.7192983,0.76738099 C17.9515455,0.76738099 11.6491228,1.30454768 11.6491228,3.06952396 C11.6491228,4.52754784 12.4945698,5.98557172 12.4945698,13.198953 L12.4945698,35.9134302 C12.4945698,37.4481923 13.8011696,38.2155733 16.7986633,38.2155733 L18.7969924,38.2155733 C21.7944861,38.2155733 23.101086,37.4481923 23.101086,35.9134302 L23.101086,12.8920006 C23.9465329,11.4339767 25.8680033,9.28530996 28.865497,9.28530996 C30.3258146,9.28530996 31.2481202,9.82247667 32.2472848,9.82247667 C33.7076024,9.82247667 34.4761905,5.14145263 34.4761905,3.76016685 C34.4761905,2.45561917 33.9381788,0 30.4026733,0 Z" id="Shape" fill="#5E5E5E"></path>
                                <g id="Q" transform="translate(38.275689, 0.000000)" fill="#5E5E5E">
                                    <path d="M44.6087442,0 L44.3005663,0 C41.9892324,0 40.6024319,0.544132241 40.3712987,1.55466355 L34.5159194,23.9418186 L29.1998515,1.55466355 C28.9687181,0.544132241 27.2737399,0 25.2705839,0 L23.4985613,0 C21.1872274,0 23.8837836,16.4017004 23.8837836,16.4017004 L29.0457625,36.845526 C29.3539404,37.8560573 30.6636962,38.4001895 32.9750301,38.4001895 L36.5190754,38.4001895 C38.5222314,38.4001895 40.2172097,37.8560573 40.4483432,36.845526 L48.9232339,3.03159391 C49.0002784,2.56519485 49.0773229,2.25426215 49.0773229,1.94332943 C49.0773229,0.777331772 47.6905226,0 44.6087442,0 Z" id="Shape"></path>
                                    <path d="M22.0462724,0 L21.7380946,0 C19.4267607,0 18.0399604,0.544132241 17.808827,1.55466355 L11.9534478,23.9418186 L6.63737983,1.55466355 C6.40624644,0.544132241 4.71126825,0 2.7081122,0 L0.93608956,0 C-1.37524433,0 1.32131187,16.4017004 1.32131187,16.4017004 L6.48329089,36.845526 C6.79146875,37.8560573 8.10122463,38.4001895 10.4125585,38.4001895 L13.9566038,38.4001895 C15.9597599,38.4001895 17.654738,37.8560573 17.8858714,36.845526 L26.3607624,3.03159391 C26.4378069,2.56519485 26.5148513,2.25426215 26.5148513,1.94332943 C26.5148513,0.777331772 25.1280509,0 22.0462724,0 Z" id="Shape" transform="translate(13.257425, 19.200095) scale(-1, 1) translate(-13.257425, -19.200095) "></path>
                                </g>
                                <path d="M99.7822788,28.5476726 C99.1943706,23.9496238 93.5112566,20.4277142 89.9838067,19.93856 C91.2576082,20.9168682 92.6293942,21.7484302 93.8052109,22.8734848 C95.7649052,24.7322705 96.6467678,27.0312948 95.9608748,29.7216425 C95.323974,32.3141595 93.6582338,34.3686067 91.7475317,36.178477 C87.289227,40.3852025 81.9490596,43.1244657 76.3639306,45.42349 C66.2715044,49.5323847 55.7381468,51.831409 44.8618428,52.8097174 C37.7089582,53.4456177 30.605066,53.3477868 23.5991584,52.0759862 C19.581785,51.342255 15.7113885,50.2661159 12.3309156,47.8692606 C8.90145042,45.4724054 7.82361849,42.4885652 8.95044278,39.0155709 L7.48067198,33.683791 C7.48067198,33.683791 7.48067198,33.683791 7.43167961,33.6348755 C5.91291644,34.7599301 2.97337483,37.2057007 1.20964985,40.5808642 C-0.995006365,44.7386742 -0.16213624,48.7008226 3.51229079,51.6846629 C6.84377128,54.4239259 10.8121525,55.744642 14.9275107,56.6251195 C23.6971432,58.5817361 32.5647605,58.5328207 41.4323777,57.750174 C51.0348802,56.918612 60.4414134,55.0598262 69.5539925,52.0759862 C77.1478084,49.6302154 84.4476701,46.5974599 91.0126463,41.9504957 C93.7562185,39.9938791 96.3038213,37.7926855 98.0675462,34.9066762 C99.3903399,33.0478906 100.076233,30.9445278 99.7822788,28.5476726 Z" id="Shape" fill="url(#linearGradient-1)"></path>
                            </g>
                        </g>
                    </g>
                </g>
            </g>
        </g>
    </g>
</svg>